<svg width="103" height="101" viewBox="0 0 103 101" fill="none" xmlns="http://www.w3.org/2000/svg">
<path d="M21.7589 79.0366C18.4883 78.1687 16.4494 74.9064 17.3173 71.6358C18.1852 68.3652 21.4475 66.3263 24.7181 67.1942C27.9887 68.0621 30.0276 71.3244 29.1597 74.595C28.3574 77.9411 25.0295 79.9045 21.7589 79.0366Z" fill="#F3D035"/>
<path d="M27.9183 77.1305C27.052 77.3532 25.989 77.3493 25.0869 77.0732C21.8163 76.2053 19.7773 72.943 20.6452 69.6724C20.8557 68.6948 21.3385 67.8782 21.8868 67.137C19.6555 67.6181 17.8336 69.3329 17.3173 71.6358C16.4494 74.9064 18.5539 78.2442 21.7589 79.0366C24.0519 79.694 26.4541 78.7997 27.9183 77.1305Z" fill="#FFA511"/>
<path d="M23.6054 49.7491C20.3348 48.8812 18.2959 45.6189 19.1638 42.3483C20.0317 39.0778 23.294 37.0388 26.5646 37.9067C29.8352 38.7746 31.8741 42.0369 31.0062 45.3075C30.2138 48.5125 26.8104 50.5415 23.6054 49.7491Z" fill="#F3D035"/>
<path d="M28.1943 76.2284C24.9237 75.3605 22.8848 72.0982 23.7527 68.8276C24.6206 65.557 27.8829 63.5181 31.1535 64.386C34.4241 65.2539 36.463 68.5162 35.5951 71.7868C34.8027 74.9918 31.5404 77.0307 28.1943 76.2284Z" fill="#F3D035"/>
<path d="M29.1052 66.2976C25.8346 65.4297 23.7956 62.1674 24.6635 58.8968C25.5314 55.6262 28.7937 53.5873 32.0643 54.4552C35.3349 55.3231 37.3739 58.5854 36.506 61.856C35.638 65.1266 32.3757 67.1655 29.1052 66.2976Z" fill="#F3D035"/>
<path d="M29.6991 47.7675C28.8329 47.9901 27.7698 47.9862 26.8677 47.7102C23.5971 46.8423 21.5582 43.58 22.4261 40.3094C22.6366 39.3318 23.1193 38.5151 23.6676 37.7739C21.4364 38.255 19.6145 39.9699 19.0982 42.2728C18.2302 45.5434 20.3348 48.8812 23.5398 49.6736C25.9083 50.2654 28.235 49.4367 29.6991 47.7675Z" fill="#FFA511"/>
<path d="M34.288 74.2468C33.4217 74.4694 32.3587 74.4655 31.4566 74.1894C28.186 73.3215 26.1471 70.0592 27.015 66.7886C27.2255 65.8111 27.7082 64.9944 28.2565 64.2532C26.0253 64.7343 24.2034 66.4492 23.687 68.7521C22.8191 72.0226 24.9237 75.3604 28.1287 76.1529C30.5627 76.8202 32.8894 75.9914 34.288 74.2468Z" fill="#FFA511"/>
<path d="M35.1989 64.316C34.3326 64.5387 33.2696 64.5348 32.3675 64.2587C29.0969 63.3908 27.0579 60.1285 27.9259 56.8579C28.1364 55.8803 28.6191 55.0637 29.1674 54.3225C26.9362 54.8036 25.1144 56.5185 24.598 58.8214C23.7301 62.092 25.8346 65.4298 29.0397 66.2222C31.3982 66.9551 33.8003 66.0607 35.1989 64.316Z" fill="#FFA511"/>
<path d="M31.7381 51.0297C32.9223 51.3257 34.2278 51.9137 35.3129 53.6203C36.5192 55.619 36.118 57.2921 35.8221 58.4763C35.5361 59.5195 35.4209 60.1493 35.9913 61.111C36.5616 62.0726 37.1915 62.1877 38.2347 62.4737C39.4189 62.7696 41.0919 63.1708 42.2982 65.1695C43.5045 67.1682 43.1033 68.8412 42.8074 70.0255C42.7975 70.1665 42.7876 70.3077 42.7777 70.4487C42.7579 70.7309 43.0301 70.8918 43.2566 70.6951L53.6949 61.3633L44.0445 45.3736L31.6466 50.3145C31.4201 50.5112 31.4658 50.8688 31.7381 51.0297Z" fill="#F3D035"/>
<path d="M43.2566 70.6951L53.6949 61.3633L51.469 57.7334L41.5868 64.198C41.7835 64.4245 42.0458 64.7265 42.2327 65.094C43.4389 67.0927 43.0378 68.7658 42.7419 69.95C42.732 70.0911 42.7221 70.2322 42.7121 70.3733C42.6923 70.6554 43.0301 70.8918 43.2566 70.6951Z" fill="#E39510"/>
<path d="M32.602 30.6756C32.7828 30.1212 33.3768 29.7376 33.9311 29.9183C34.4855 30.0991 34.8691 30.6931 34.6883 31.2475C33.4192 36.1911 36.3923 41.2912 41.1849 42.6915L39.9885 40.5517C38.5497 37.8278 38.4301 34.4877 39.6914 31.6701L40.782 29.2658C40.9627 28.7114 41.6879 28.4789 42.1668 28.7252C42.7212 28.906 42.9538 29.6312 42.7074 30.1101L41.6169 32.5144C40.6118 34.712 40.7154 37.2712 41.8363 39.4766L44.2191 43.8972C44.4059 44.2648 44.3761 44.6879 44.0642 45.0913C43.8278 45.4291 43.3193 45.6061 42.9715 45.5108L41.0918 45.0241C34.8983 43.3836 31.0271 36.9445 32.602 30.6756Z" fill="#A16B4E"/>
<path d="M92.5862 37.5156L83.3094 22.2609C79.2513 15.4542 70.3318 13.2677 63.525 17.3258L59.3766 19.8695C52.0513 24.2455 46.7391 31.2441 44.2543 39.363C43.5115 41.8627 43.8973 44.4416 45.1592 46.6569L53.2297 59.9128C54.5672 62.0625 56.7251 63.6319 59.2446 64.0926C67.5641 65.7408 76.3183 64.2297 83.578 59.7781L87.7264 57.2344C94.5332 53.1763 96.7198 44.2568 92.5862 37.5156Z" fill="#F3D035"/>
<path d="M59.1691 64.1582C67.4886 65.8064 76.2428 64.2953 83.5025 59.8437L87.651 57.3C92.5345 54.3826 95.0473 48.8885 94.5679 43.6092C93.4514 45.3738 91.8561 46.892 89.9329 48.0327L85.7845 50.5764C78.4591 54.9525 69.7705 56.5391 61.4511 54.8909C58.9316 54.4302 56.7736 52.8608 55.4362 50.7111L47.3657 37.4552C46.7953 36.4936 46.376 35.4009 46.1732 34.2525C45.3488 35.8958 44.6556 37.69 44.1034 39.4942C43.3606 41.9939 43.7463 44.5728 45.0083 46.7881L53.0788 60.044C54.4917 62.1281 56.5841 63.622 59.1691 64.1582Z" fill="#E39510"/>
<path d="M50.9907 62.5199L41.7796 47.3408C40.9568 45.9362 41.4334 44.1975 42.7626 43.4403L42.9136 43.3092C44.3183 42.4864 46.0569 42.9631 46.8141 44.2923L56.0253 59.4714C56.848 60.876 56.3713 62.6146 55.0421 63.3718L54.8911 63.5029C53.5521 64.4012 51.8135 63.9246 50.9907 62.5199Z" fill="#7F513D"/>
<path d="M54.9666 63.4374C55.3342 63.2506 55.6362 62.9883 55.8726 62.6505C54.7997 62.7877 53.5598 62.2752 52.9238 61.2381L43.8439 46.2101C43.2079 45.173 43.2972 43.9033 43.9309 42.9554C43.5732 43.0012 43.1401 43.1125 42.7725 43.2993C41.3679 44.1221 40.9568 45.9362 41.7796 47.3409L50.8595 62.3689C51.7479 63.849 53.6276 64.3356 54.9666 63.4374Z" fill="#A16B4E"/>
</svg>
