<svg width="71" height="72" viewBox="0 0 71 72" fill="none" xmlns="http://www.w3.org/2000/svg">
<path d="M49.9616 47.7643C64.9616 32.7643 69.6616 15.6643 62.2616 8.16427C54.7616 0.66427 37.8616 5.66427 22.8616 20.6643C7.86163 35.6643 2.86163 52.5643 10.3616 60.0643C17.7616 67.5643 34.9616 62.7643 49.9616 47.7643Z" fill="#AC6A00"/>
<path d="M42.5616 34.8643C43.1616 35.4643 43.6616 35.9643 44.2616 36.5643C46.1616 38.4643 48.8616 38.6643 50.2616 37.0643C50.2616 37.0643 50.2616 37.0643 50.2616 36.9643C51.6616 35.3643 51.2616 32.5643 49.4616 30.7643C48.9616 30.2643 48.3616 29.6643 47.8616 29.1643C46.0616 27.3643 43.4616 27.1643 41.9616 28.6643C41.9616 28.6643 41.9616 28.6643 41.8616 28.7643C40.3616 30.1643 40.6616 32.9643 42.5616 34.8643Z" fill="#E39510"/>
<path d="M36.9616 40.3643C37.5616 40.9643 38.0616 41.4643 38.6616 42.0643C40.5616 43.9643 43.3616 44.2643 44.8616 42.7643C44.8616 42.7643 44.8616 42.7643 44.9616 42.6643C46.4616 41.1643 46.1616 38.3643 44.2616 36.4643C43.6616 35.8643 43.1616 35.3643 42.5616 34.7643C40.6616 32.8643 37.9616 32.6643 36.4616 34.1643C36.4616 34.1643 36.4616 34.1643 36.3616 34.2643C34.8616 35.7643 35.1616 38.4643 36.9616 40.3643Z" fill="#E39510"/>
<path d="M62.2616 8.16428C63.5616 6.96428 63.7616 5.26428 62.7616 4.36428C62.4616 4.06428 62.1616 3.76428 61.8616 3.46428C60.9616 2.56428 58.8616 2.26428 57.1616 3.06428C57.1616 3.06428 57.1616 3.06428 57.0616 3.06428C55.4616 3.86428 55.1616 5.66428 56.4616 6.86428C56.8616 7.26428 57.2616 7.56428 57.5616 7.96428C58.9616 9.36428 60.9616 9.36428 62.2616 8.16428Z" fill="#E39510"/>
<path d="M47.8616 29.1643C48.3616 29.6643 48.9616 30.2643 49.4616 30.7643C51.2616 32.5643 53.8616 32.6643 55.0616 31.0643C55.0616 31.0643 55.0616 31.0643 55.0616 30.9643C56.3616 29.2643 55.9616 26.5643 54.3616 24.9643C53.8616 24.4643 53.3616 23.9643 52.8616 23.4643C51.1616 21.8643 48.6616 21.6643 47.2616 23.1643C47.2616 23.1643 47.2616 23.1643 47.1616 23.2643C45.8616 24.6643 46.0616 27.3643 47.8616 29.1643Z" fill="#E39510"/>
<path d="M67.2616 13.1643C67.2616 13.1643 67.3616 13.1643 67.2616 13.1643C68.1616 11.5643 68.0616 9.66428 67.1616 8.76428C66.8616 8.46428 66.5616 8.16428 66.2616 7.86428C65.3616 6.96428 63.5616 6.96428 62.2616 8.06428C60.9616 9.16428 60.9616 11.2643 62.2616 12.4643C62.6616 12.8643 63.0616 13.1643 63.3616 13.5643C64.5616 14.9643 66.3616 14.6643 67.2616 13.1643Z" fill="#E39510"/>
<path d="M67.2616 13.1643C67.2616 13.1643 67.3616 13.1643 67.2616 13.1643C68.1616 11.5643 68.0616 9.66428 67.1616 8.76428C66.8616 8.46428 66.5616 8.16428 66.2616 7.86428C65.3616 6.96428 63.5616 6.96428 62.2616 8.06428C60.9616 9.16428 60.9616 11.2643 62.2616 12.4643C62.6616 12.8643 63.0616 13.1643 63.3616 13.5643C64.5616 14.9643 66.3616 14.6643 67.2616 13.1643Z" fill="#E39510"/>
<path d="M52.9616 23.3643C53.4616 23.8643 53.9616 24.3643 54.4616 24.8643C56.1616 26.5643 58.4616 26.5643 59.6616 24.8643C59.6616 24.8643 59.6616 24.8643 59.6616 24.7643C60.7616 23.0643 60.4616 20.5643 59.0616 19.0643C58.6616 18.6643 58.1616 18.1643 57.7616 17.7643C56.2616 16.3643 53.9616 16.2643 52.5616 17.6643C51.0616 19.1643 51.2616 21.7643 52.9616 23.3643Z" fill="#E39510"/>
<path d="M57.7616 17.8643C58.1616 18.2643 58.6616 18.7643 59.0616 19.1643C60.5616 20.6643 62.6616 20.4643 63.6616 18.8643C63.6616 18.8643 63.6616 18.8643 63.6616 18.7643C64.6616 17.1643 64.4616 14.8643 63.2616 13.6643C62.8616 13.2643 62.4616 12.9643 62.1616 12.5643C60.9616 11.3643 58.8616 11.3643 57.5616 12.6643C56.1616 14.0643 56.2616 16.3643 57.7616 17.8643Z" fill="#E39510"/>
<path d="M41.3616 22.6643C40.8616 22.1643 40.2616 21.5643 39.7616 21.0643C37.9616 19.2643 35.2616 18.9643 33.6616 20.3643C33.6616 20.3643 33.6616 20.3643 33.5616 20.4643C31.9616 21.8643 32.2616 24.6643 34.0616 26.4643C34.6616 27.0643 35.1616 27.5643 35.7616 28.1643C37.6616 30.0643 40.3616 30.2643 41.8616 28.7643C41.8616 28.7643 41.8616 28.7643 41.9616 28.6643C43.4616 27.0643 43.1616 24.3643 41.3616 22.6643Z" fill="#E39510"/>
<path d="M52.3616 12.4643C51.9616 12.0643 51.4616 11.5643 51.0616 11.1643C49.5616 9.66427 47.0616 9.36428 45.4616 10.5643C45.4616 10.5643 45.4616 10.5643 45.3616 10.5643C43.7616 11.7643 43.7616 14.1643 45.4616 15.8643C45.9616 16.3643 46.4616 16.8643 46.9616 17.3643C48.6616 19.0643 51.1616 19.1643 52.5616 17.7643C53.9616 16.2643 53.8616 13.9643 52.3616 12.4643Z" fill="#E39510"/>
<path d="M57.6616 8.06428C57.2616 7.66428 56.8616 7.36428 56.5616 6.96428C55.3616 5.76428 52.9616 5.46428 51.3616 6.46428C51.3616 6.46428 51.3616 6.46428 51.2616 6.46428C49.6616 7.46428 49.4616 9.56428 51.0616 11.0643C51.4616 11.4643 51.9616 11.9643 52.3616 12.3643C53.8616 13.8643 56.1616 13.9643 57.4616 12.5643C58.8616 11.3643 58.8616 9.36428 57.6616 8.06428Z" fill="#E39510"/>
<path d="M35.7616 28.0643C35.1616 27.4643 34.6616 26.9643 34.0616 26.3643C32.1616 24.4643 29.4616 24.1643 27.8616 25.6643C27.8616 25.6643 27.8616 25.6643 27.7616 25.7643C26.2616 27.2643 26.5616 30.0643 28.4616 31.9643C29.0616 32.5643 29.5616 33.0643 30.1616 33.6643C32.0616 35.5643 34.7616 35.8643 36.2616 34.2643C36.2616 34.2643 36.2616 34.2643 36.3616 34.1643C37.9616 32.6643 37.6616 29.9643 35.7616 28.0643Z" fill="#E39510"/>
<path d="M30.2616 33.6643C29.6616 33.0643 29.1616 32.5643 28.5616 31.9643C26.6616 30.0643 23.9616 29.8643 22.5616 31.4643C22.5616 31.4643 22.5616 31.4643 22.4616 31.5643C21.0616 33.1643 21.3616 35.8643 23.1616 37.6643C23.6616 38.1643 24.2616 38.7642 24.7616 39.2642C26.5616 41.0642 29.2616 41.3643 30.7616 39.8643C30.7616 39.8643 30.7616 39.8642 30.8616 39.7642C32.3616 38.2642 32.1616 35.4643 30.2616 33.6643Z" fill="#E39510"/>
<path d="M46.9616 17.3643C46.4616 16.8643 45.9616 16.3643 45.4616 15.8643C43.7616 14.2643 41.1616 13.8643 39.4616 15.1643C39.4616 15.1643 39.4616 15.1643 39.3616 15.1643C37.7616 16.4643 37.9616 19.0643 39.7616 20.8643C40.2616 21.3643 40.8616 21.9643 41.3616 22.4643C43.1616 24.2643 45.8616 24.4643 47.2616 22.9643C47.2616 22.9643 47.2616 22.9643 47.3616 22.8643C48.7616 21.5643 48.5616 19.0643 46.9616 17.3643Z" fill="#E39510"/>
<path d="M58.5616 45.3643C58.5616 45.2643 58.5616 45.2643 58.5616 45.3643C59.9616 43.5643 59.4616 40.6643 57.6616 38.8643C59.4616 40.6643 61.9616 40.6643 63.0616 38.8643C63.0616 38.8643 63.0616 38.8643 63.0616 38.7643C64.1616 36.8643 63.6616 34.0643 61.9616 32.3643C63.6616 34.0643 65.8616 33.8643 66.7616 31.8643C66.7616 31.8643 66.7616 31.8643 66.7616 31.7643C67.6616 29.8643 67.1616 27.0643 65.7616 25.6643C67.2616 27.1643 69.1616 26.7643 69.8616 24.8643C69.8616 24.8643 69.8616 24.8643 69.8616 24.7643C70.5616 22.8643 70.1616 20.3643 68.8616 19.1643C68.4616 18.7643 68.0616 18.4643 67.7616 18.0643C66.5616 16.8643 64.7616 17.1643 63.6616 18.6643C63.6616 18.6643 63.6616 18.6643 63.6616 18.7643C62.5616 20.3643 62.8616 22.8643 64.3616 24.3643C62.8616 22.9643 60.8616 23.0643 59.6616 24.7643C59.6616 24.7643 59.6616 24.7643 59.6616 24.8643C58.4616 26.5643 58.8616 29.2643 60.4616 30.8643C58.8616 29.2643 56.4616 29.2643 55.1616 30.8643C55.1616 30.8643 55.1616 30.8643 55.1616 30.9643C53.8616 32.6643 54.2616 35.3643 56.0616 37.1643C54.2616 35.3643 51.7616 35.2643 50.3616 36.8643C50.3616 36.8643 50.3616 36.8643 50.3616 36.9643C48.9616 38.5643 49.2616 41.3643 51.1616 43.2643C51.7616 43.8643 52.2616 44.3643 52.8616 44.9643C54.5616 46.7643 57.2616 47.0643 58.5616 45.3643Z" fill="#E39510"/>
<path d="M33.2616 14.4643C32.7616 13.9643 32.1616 13.3643 31.6616 12.8643C29.8616 11.0643 26.9616 10.6643 25.3616 11.9643C25.3616 11.9643 25.3616 11.9643 25.2616 11.9643C23.5616 13.3643 23.8616 15.9643 25.6616 17.8643C26.2616 18.4643 26.7616 18.9643 27.3616 19.5643C29.2616 21.4643 31.9616 21.7643 33.5616 20.2643C33.5616 20.2643 33.5616 20.2643 33.6616 20.1643C35.1616 18.8643 35.0616 16.2643 33.2616 14.4643Z" fill="#E39510"/>
<path d="M39.3616 9.86427C38.8616 9.36427 38.3616 8.86427 37.8616 8.36427C36.1616 6.66427 33.3616 6.16427 31.5616 7.36427C31.5616 7.36427 31.5616 7.36427 31.4616 7.36427C29.6616 8.56427 29.7616 11.0643 31.5616 12.8643C32.0616 13.3643 32.6616 13.9643 33.1616 14.4643C34.9616 16.2643 37.7616 16.5643 39.3616 15.2643C39.3616 15.2643 39.3616 15.2643 39.4616 15.2643C41.0616 13.8643 40.9616 11.4643 39.3616 9.86427Z" fill="#E39510"/>
<path d="M45.5616 5.76426C45.0616 5.36426 44.6616 4.86426 44.1616 4.46426C42.6616 2.96426 39.9616 2.46426 38.0616 3.46426C38.0616 3.46426 38.0616 3.46426 37.9616 3.46426C36.0616 4.46426 35.9616 6.66426 37.6616 8.36426C38.1616 8.86426 38.6616 9.36426 39.1616 9.86426C40.8616 11.5643 43.5616 11.8643 45.1616 10.6643C45.1616 10.6643 45.1616 10.6643 45.2616 10.6643C46.9616 9.36426 47.0616 7.26426 45.5616 5.76426Z" fill="#E39510"/>
<path d="M51.9616 2.46427C51.5616 2.06427 51.1616 1.66426 50.8616 1.36426C49.6616 0.164264 47.0616 -0.435736 45.0616 0.364264C45.0616 0.364264 45.0616 0.364264 44.9616 0.364264C43.0616 1.06426 42.7616 2.96427 44.2616 4.46427C44.7616 4.86427 45.1616 5.36427 45.6616 5.76427C47.1616 7.26427 49.6616 7.56427 51.2616 6.46427C51.2616 6.46427 51.2616 6.46427 51.3616 6.46427C52.8616 5.46427 53.1616 3.66427 51.9616 2.46427Z" fill="#E39510"/>
<path d="M40.9616 31.1643C41.3616 31.6643 41.4616 31.8643 43.2616 33.6643C46.1616 36.5643 50.2616 35.1643 50.1616 31.5643C49.7616 31.0643 49.6616 30.9643 47.8616 29.1643C45.0616 26.3643 40.9616 27.6643 40.9616 31.1643Z" fill="#F3D035"/>
<path d="M56.6616 5.26428C58.4616 7.06428 61.4616 6.16428 62.1616 3.86428C62.0616 3.76428 61.9616 3.66428 61.7616 3.46428C60.2616 1.96428 56.5616 2.46428 55.7616 4.36428C56.1616 4.66428 56.4616 4.96428 56.6616 5.26428Z" fill="#F3D035"/>
<path d="M52.9616 23.3643C50.3616 20.7643 46.3616 22.1643 46.3616 25.4643C46.6616 25.9643 46.7616 25.9643 48.5616 27.7643C51.3616 30.5643 55.0616 28.9643 55.0616 25.4643C54.6616 25.1643 54.6616 25.0643 52.9616 23.3643Z" fill="#F3D035"/>
<path d="M62.3616 10.8643C64.1616 12.6643 66.6616 11.3643 66.9616 8.56428C66.7616 8.36428 66.5616 8.16427 66.2616 7.86427C64.7616 6.36427 61.7616 7.46428 61.2616 9.76428C61.6616 10.1643 61.9616 10.4643 62.3616 10.8643Z" fill="#F3D035"/>
<path d="M57.7616 17.8643C56.2616 16.4643 53.9616 16.3643 52.5616 17.7643C51.9616 18.3643 51.6616 19.1643 51.6616 20.0643C51.9616 20.3643 51.9616 20.3643 53.5616 22.0643C56.0616 24.5643 59.4616 23.0643 59.4616 19.5643C59.1616 19.2643 59.1616 19.2643 57.7616 17.8643Z" fill="#F3D035"/>
<path d="M58.1616 16.2643C60.3616 18.4643 63.3616 16.9643 63.4616 13.7643C63.3616 13.6643 63.6616 13.8643 62.2616 12.5643C60.3616 10.6643 56.8616 11.9643 56.6616 14.6643C56.6616 14.8643 56.6616 14.8643 58.1616 16.2643Z" fill="#F3D035"/>
<path d="M39.7616 20.9643C36.9616 18.1643 32.5616 19.2643 32.5616 22.7643C32.9616 23.2643 33.0616 23.3643 34.8616 25.1643C37.7616 28.0643 41.9616 26.7643 41.9616 23.2643C41.6616 22.8643 41.4616 22.7643 39.7616 20.9643Z" fill="#F3D035"/>
<path d="M45.9616 14.4643C48.5616 17.0643 52.2616 15.7643 52.5616 12.6643C52.4616 12.4643 52.4616 12.5643 51.0616 11.1643C48.7616 8.86429 44.4616 9.76429 44.1616 12.6643C44.3616 12.8643 44.2616 12.8643 45.9616 14.4643Z" fill="#F3D035"/>
<path d="M51.3616 9.66428C53.5616 11.8643 56.9616 10.7643 57.4616 8.06428C57.1616 7.76428 56.7616 7.36428 56.4616 7.06428C54.5616 5.16428 50.4616 5.86428 49.9616 8.36428C50.1616 8.36428 49.6616 7.96428 51.3616 9.66428Z" fill="#F3D035"/>
<path d="M34.0616 26.3643C31.1616 23.4643 26.8616 24.6643 26.8616 28.2643C27.2616 28.7643 27.3616 28.9643 29.1616 30.7643C32.0616 33.6643 36.3616 32.3643 36.3616 28.8643C36.0616 28.2643 35.9616 28.2643 34.0616 26.3643Z" fill="#F3D035"/>
<path d="M40.4616 19.7643C43.2616 22.5643 47.2616 21.2643 47.3616 17.8643C47.1616 17.5643 47.0616 17.5643 45.4616 15.8643C42.8616 13.2643 38.4616 14.2643 38.3616 17.4643C38.5616 17.9643 38.6616 17.9643 40.4616 19.7643Z" fill="#F3D035"/>
<path d="M26.3616 16.7643C29.2616 19.6643 33.5616 18.4643 33.6616 15.0643C33.4616 14.6643 33.3616 14.6643 31.5616 12.8643C28.7616 10.0643 24.1616 10.9643 24.0616 14.3643C24.4616 14.8643 24.5616 14.8643 26.3616 16.7643Z" fill="#F3D035"/>
<path d="M32.2616 11.5643C35.0616 14.3643 39.3616 13.2643 39.6616 10.1643C39.4616 9.96428 39.4616 9.96428 37.8616 8.36428C35.2616 5.76428 30.5616 6.36428 30.2616 9.56428C30.4616 9.86428 30.4616 9.76428 32.2616 11.5643Z" fill="#F3D035"/>
<path d="M38.3616 6.96429C40.9616 9.56429 45.0616 8.56428 45.6616 5.86428C45.5616 5.76428 44.3616 4.56429 44.2616 4.46429C41.9616 2.16429 37.2616 2.56429 36.6616 5.26429C36.7616 5.36429 36.6616 5.26429 38.3616 6.96429Z" fill="#F3D035"/>
<path d="M44.6616 2.96428C46.9616 5.16428 50.7616 4.46427 51.6616 2.16427C51.3616 1.86427 51.1616 1.66428 50.8616 1.36428C48.9616 -0.535724 44.3616 -0.435723 43.4616 1.76428C43.8616 2.16428 44.2616 2.56428 44.6616 2.96428Z" fill="#F3D035"/>
<path d="M57.3616 46.0643C36.7616 37.5643 21.7616 42.1643 21.7616 42.1643L9.16162 68.0643C34.2616 79.5643 52.3616 57.0643 58.2616 49.2643C58.9616 48.1643 58.5616 46.5643 57.3616 46.0643Z" fill="#A4A530"/>
<path d="M57.3616 46.0643C57.1616 45.9643 56.9616 45.8643 56.7616 45.8643L55.6616 47.3643C48.0616 57.5643 36.9616 68.0643 23.1616 68.0643C19.1616 68.0643 14.9616 67.1643 10.6616 65.1643L9.26163 68.0643C34.3616 79.5643 52.4616 57.0643 58.3616 49.2643C58.9616 48.1643 58.5616 46.5643 57.3616 46.0643Z" fill="#898A25"/>
<path d="M25.0616 8.96426C29.1616 16.6643 38.1616 40.5643 9.16162 67.9643C-14.0384 44.7643 13.1616 15.9643 21.3616 8.36425C22.4616 7.26425 24.3616 7.56426 25.0616 8.96426Z" fill="#B8BA38"/>
<path d="M25.0616 8.96426C24.3616 7.56426 22.4616 7.26425 21.2616 8.36425C21.1616 8.36425 21.1616 8.46426 21.0616 8.46426L22.1616 10.4643C26.6616 18.6643 33.8616 40.2643 6.96161 65.6643C7.66161 66.4643 8.36161 67.2643 9.16161 68.0643C38.2616 40.6643 29.2616 16.6643 25.0616 8.96426Z" fill="#A4A530"/>
</svg>
