<svg width="83" height="83" viewBox="0 0 83 83" fill="none" xmlns="http://www.w3.org/2000/svg">
<path d="M40.066 69.1473C37.366 69.0473 34.766 68.9473 32.066 68.3473C31.466 68.2473 30.966 68.2473 30.866 69.0473C30.566 67.8473 29.4659 67.5473 28.4659 67.2473C23.3659 65.7473 19.366 62.8473 16.766 57.9473C15.666 55.8473 15.266 53.4473 14.166 51.4473C13.866 48.4473 13.266 45.3473 13.366 42.3473C13.366 41.1473 13.4659 39.8473 13.4659 38.6473C14.0659 34.4473 14.866 30.3473 16.066 26.2473C17.166 23.8473 18.166 21.5473 19.266 19.1473C22.766 13.2473 27.466 8.44732 32.866 4.34732C33.466 3.94732 34.066 3.64731 34.766 3.24731C34.066 5.44731 33.066 7.54732 33.166 9.94732C33.566 15.9473 36.066 21.0473 39.266 25.9473C44.766 34.2473 51.866 40.9473 60.766 45.5473C66.666 48.6473 72.766 50.8473 79.366 47.3473C76.866 52.0473 72.9659 55.5473 69.0659 59.0473C67.7659 60.2473 66.066 61.1473 64.666 62.1473C64.466 62.0473 64.366 62.1473 64.366 62.3473C63.966 62.6473 63.566 62.9473 63.166 63.3473C61.466 64.1473 59.766 64.8473 58.166 65.6473C53.366 67.3473 48.4659 68.4473 43.4659 69.1473C42.2659 69.1473 41.166 69.1473 40.066 69.1473ZM50.9659 54.3473C52.7659 54.7473 54.266 53.7473 55.666 52.4473C56.266 51.8473 56.366 51.1473 55.766 50.5473C55.266 49.9473 54.6659 49.9473 53.9659 50.3473C53.5659 50.5473 53.266 50.8473 52.866 51.0473C51.066 52.0473 48.966 51.7473 47.666 50.3473C46.266 48.7473 46.066 46.7473 47.366 45.0473C47.966 44.2473 48.366 43.5473 47.766 42.7473C47.066 41.8473 46.166 42.4473 45.366 42.9473C43.066 44.3473 41.666 44.1473 39.766 42.3473C38.366 40.9473 38.166 39.2473 39.266 37.1473C39.766 36.3473 40.366 35.4473 39.666 34.6473C38.766 33.7473 37.966 34.4473 37.066 34.9473C34.866 36.2473 33.366 36.0473 31.766 34.3473C30.266 32.7473 30.166 30.9473 31.566 28.6473C32.066 27.8473 32.566 27.1473 31.566 26.4473C30.666 25.7473 29.966 26.3473 29.366 26.9473C27.466 28.9473 27.566 31.3473 28.066 33.8473C28.266 34.6473 28.366 35.1473 28.166 36.0473C27.666 38.0473 27.466 40.2473 28.266 42.3473C28.566 43.0473 28.666 43.7473 28.366 44.4473C27.666 46.3473 27.466 48.3473 28.366 50.2473C28.666 50.8473 28.466 51.2473 27.766 51.3473C25.166 51.8473 23.466 50.6473 22.666 48.1473C22.166 46.5473 22.866 45.6473 23.766 44.5473C24.266 43.8473 24.466 43.0473 23.666 42.4473C22.866 41.9473 22.0659 41.9473 21.4659 42.7473C18.2659 46.5473 19.866 52.6473 24.566 53.8473C26.866 54.4473 27.966 55.4473 28.366 57.6473C28.366 57.7473 28.4659 57.8473 28.4659 58.0473C30.0659 62.8473 35.666 63.2473 38.566 61.3473C39.566 60.7473 40.666 59.8473 39.866 58.5473C38.966 57.1473 37.966 58.2473 37.066 58.8473C34.066 60.9473 31.266 58.5473 30.566 56.0473C30.166 54.5473 31.066 53.7473 32.566 54.0473C34.366 54.4473 36.1659 54.4473 37.9659 53.8473C38.4659 53.6473 38.966 53.4473 39.566 53.7473C41.666 54.8473 43.8659 54.4473 45.9659 53.8473C46.6659 53.6473 47.266 53.4473 47.866 53.8473C48.766 54.4473 49.7659 54.4473 50.9659 54.3473ZM48.666 45.9473C48.666 51.8473 43.8659 56.5473 37.9659 56.5473C32.0659 56.5473 27.266 51.8473 27.266 45.9473C27.266 40.0473 32.0659 35.3473 37.9659 35.3473C43.8659 35.3473 48.666 40.0473 48.666 45.9473Z" fill="#67B7CB"/>
<path d="M50.666 25.7473C55.6917 25.7473 59.766 21.8074 59.766 16.9473C59.766 12.0872 55.6917 8.14734 50.666 8.14734C45.6402 8.14734 41.5659 12.0872 41.5659 16.9473C41.5659 21.8074 45.6402 25.7473 50.666 25.7473Z" fill="#FF7B8E"/>
<path d="M79.266 47.3473C72.666 50.9473 66.566 48.6473 60.666 45.5473C57.866 44.1473 55.966 42.9473 53.266 40.9473C50.066 38.5473 43.866 33.9473 38.766 25.8473C33.866 18.0473 33.166 12.3473 33.066 9.94733C32.866 5.94733 33.766 3.94732 34.866 2.74732C36.166 1.34732 37.966 0.847324 38.866 0.547324C41.266 -0.152676 43.266 -0.0526737 44.366 0.147326C44.766 0.247326 45.466 0.347326 46.166 0.447326C52.366 1.74733 56.766 4.74733 60.866 7.64733C62.466 8.84733 64.666 10.4473 67.166 12.6473C68.666 14.2473 70.266 15.8473 71.766 17.4473C72.566 18.4473 73.266 19.3473 74.066 20.3473C74.766 21.4473 75.566 22.6473 76.266 23.8473C79.066 28.6473 80.866 33.3473 82.066 37.5473C82.266 38.4473 82.866 40.9473 81.766 43.7473C81.166 45.5473 79.966 46.7473 79.266 47.3473ZM56.666 20.1473C56.666 17.0473 53.266 12.9473 49.866 11.9473C48.466 11.5473 47.0659 11.3473 45.9659 12.5473C44.8659 13.7473 44.9659 15.1473 45.4659 16.4473C46.7659 19.8473 49.166 22.1473 52.666 23.1473C54.866 23.8473 56.666 22.4473 56.666 20.1473Z" fill="#FC5263"/>
<path d="M14.066 51.4473C15.266 53.4473 15.566 55.8473 16.666 57.9473C19.266 62.8473 23.266 65.7473 28.366 67.2473C29.366 67.5473 30.466 67.7473 30.766 69.0473C30.966 73.5473 29.766 77.5473 27.066 81.0473C26.466 81.8473 26.066 82.0473 25.666 82.1473C24.366 82.4473 23.1659 81.4473 20.9659 79.6473C19.3659 78.2473 17.966 77.0473 16.866 74.9473C16.566 74.4473 16.166 73.5473 15.866 72.3473C15.066 69.3473 16.066 68.2473 15.166 67.2473C14.466 66.5473 13.566 67.2473 10.166 66.4473C9.36596 66.2473 9.06597 66.1473 8.86597 66.0473C7.36597 65.5473 6.36597 64.6473 5.76597 64.0473C4.86597 63.2473 3.96595 62.4473 3.06595 61.6473C2.46595 60.9473 1.26597 59.4473 0.365972 57.8473C0.165972 57.5473 -0.134046 57.0473 0.065954 56.4473C0.165954 55.9473 0.565972 55.5473 0.865972 55.3473C4.56597 52.5473 10.366 51.7473 10.366 51.7473C11.166 51.6473 12.466 51.5473 14.066 51.4473Z" fill="#33A7C9"/>
<path d="M50.9659 54.3473C49.7659 54.3473 48.766 54.4473 47.866 53.8473C47.266 53.4473 46.5659 53.6473 45.9659 53.8473C43.8659 54.4473 41.6659 54.7473 39.5659 53.7473C39.0659 53.4473 38.4659 53.6473 37.9659 53.8473C36.1659 54.5473 34.3659 54.4473 32.5659 54.0473C31.0659 53.7473 30.1659 54.5473 30.5659 56.0473C31.2659 58.5473 34.0659 61.0473 37.0659 58.8473C37.8659 58.2473 38.966 57.1473 39.866 58.5473C40.666 59.8473 39.5659 60.7473 38.5659 61.3473C35.6659 63.2473 30.0659 62.8473 28.4659 58.0473C28.4659 57.9473 28.366 57.8473 28.366 57.6473C28.066 55.4473 26.8659 54.4473 24.5659 53.8473C19.8659 52.6473 18.2659 46.5473 21.4659 42.7473C22.1659 41.9473 22.9659 41.9473 23.6659 42.4473C24.5659 43.0473 24.366 43.8473 23.766 44.5473C22.866 45.6473 22.1659 46.5473 22.6659 48.1473C23.4659 50.6473 25.166 51.8473 27.766 51.3473C28.566 51.2473 28.666 50.8473 28.366 50.2473C27.466 48.2473 27.666 46.3473 28.366 44.4473C28.666 43.7473 28.566 43.0473 28.266 42.3473C27.466 40.2473 27.6659 38.1473 28.1659 36.0473C28.3659 35.1473 28.2659 34.6473 28.0659 33.8473C27.5659 31.4473 27.466 29.0473 29.366 26.9473C29.966 26.2473 30.6659 25.7473 31.5659 26.4473C32.5659 27.1473 32.0659 27.8473 31.5659 28.6473C30.1659 30.9473 30.266 32.7473 31.766 34.3473C33.366 36.0473 34.8659 36.2473 37.0659 34.9473C37.9659 34.4473 38.7659 33.7473 39.6659 34.6473C40.4659 35.4473 39.766 36.3473 39.266 37.1473C38.066 39.2473 38.266 40.8473 39.766 42.3473C41.566 44.1473 43.066 44.3473 45.366 42.9473C46.166 42.4473 47.066 41.9473 47.766 42.7473C48.366 43.4473 47.966 44.2473 47.366 45.0473C46.066 46.7473 46.2659 48.8473 47.6659 50.3473C48.8659 51.7473 50.966 52.0473 52.866 51.0473C53.266 50.8473 53.5659 50.5473 53.9659 50.3473C54.5659 49.9473 55.2659 49.9473 55.7659 50.5473C56.3659 51.2473 56.2659 51.9473 55.6659 52.4473C54.2659 53.8473 52.7659 54.7473 50.9659 54.3473ZM35.1659 51.7473C35.5659 51.3473 36.8659 51.8473 36.6659 50.5473C36.3659 47.6473 35.666 46.9473 32.766 46.1473C32.566 46.1473 32.366 46.0473 32.266 45.9473C30.966 45.3473 30.6659 46.0473 30.5659 47.1473C30.3659 49.4473 32.6659 51.8473 35.1659 51.7473ZM35.1659 43.7473C36.1659 43.6473 37.166 43.5473 36.266 41.9473C35.966 41.4473 35.766 40.8473 35.866 40.3473C36.166 38.6473 35.066 38.4473 33.866 38.2473C33.466 38.2473 33.166 38.1473 32.766 38.0473C31.266 37.7473 30.4659 38.4473 30.6659 39.9473C30.8659 41.9473 32.9659 43.7473 35.1659 43.7473ZM39.866 45.7473C39.166 45.6473 38.966 46.0473 38.766 46.4473C38.266 47.9473 38.866 49.2473 39.866 50.2473C40.766 51.2473 41.9659 51.8473 43.4659 51.5473C44.3659 51.3473 44.666 50.9473 44.366 49.9473C44.066 49.0473 43.966 48.0473 43.766 47.1473C43.666 46.7473 43.6659 46.4473 43.1659 46.3473C41.9659 46.2473 40.666 46.6473 39.866 45.7473Z" fill="#3D98D0"/>
</svg>
