<svg width="77" height="79" viewBox="0 0 77 79" fill="none" xmlns="http://www.w3.org/2000/svg">
<path d="M51.2695 0.500004L10.8695 26.3L35.4695 64.9L75.8695 39.1C76.3695 38.8 76.4696 38.1 76.1696 37.6L52.6696 0.800007C52.4696 0.400007 51.7695 0.200004 51.2695 0.500004Z" fill="#AF12AF"/>
<path d="M52.0695 0L47.7695 2.8L72.3695 41.4L76.6696 38.6C76.7696 38.6 76.4696 38.1 76.1696 37.6L52.6696 0.800003C52.4696 0.400003 52.1695 0 52.0695 0Z" fill="#8E0F91"/>
<path d="M3.26953 38.2L27.8695 76.8C29.5695 79.5 35.8695 78.7 41.7695 74.9C47.6695 71.1 51.1695 65.8 49.3695 63.1L24.7695 24.5L3.26953 38.2Z" fill="#AF12AF"/>
<path d="M12.2695 32.4L3.26953 38.1L27.8695 76.7C29.4695 79.1 34.5695 78.7 39.9695 75.8L12.2695 32.4Z" fill="#8E0F91"/>
<path d="M17.1375 36.3097C23.0962 32.5065 26.5055 27.1968 24.7524 24.4502C22.9994 21.7036 16.7478 22.5602 10.7891 26.3635C4.83044 30.1667 1.42114 35.4764 3.1742 38.223C4.92726 40.9696 11.1788 40.113 17.1375 36.3097Z" fill="#D82ADD"/>
<path d="M15.4159 33.6124C18.3953 31.7108 20.1601 29.1503 19.3579 27.8934C18.5556 26.6365 15.4901 27.1591 12.5107 29.0608C9.5314 30.9624 7.7665 33.5229 8.56875 34.7798C9.371 36.0367 12.4366 35.514 15.4159 33.6124Z" fill="#AF12AF"/>
<path d="M24.7695 24.4L46.2695 58.1L48.0695 57L26.5695 23.3C25.2695 21.3 22.7695 20.5 19.5695 20.8L10.8695 26.4C16.8695 22.5 23.0695 21.7 24.7695 24.4Z" fill="#8E0F91"/>
</svg>
