<svg width="75" height="76" viewBox="0 0 75 76" fill="none" xmlns="http://www.w3.org/2000/svg">
<path d="M55.3 21.6687L30.1 0.468749C29.5 -0.0312505 28.8 -0.13125 28.1 0.16875L26.5 7.76875L47.9 67.8688L51.3 74.8688L57.1 64.7688L58.7 32.9688L55.3 21.6687Z" fill="#8B8892"/>
<path d="M44.9 63.6687L7.20001 25.9688H1L1.5 32.4688L12.5 66.1687L20.7 75.0687H50.6C50.8 74.9687 51 74.9688 51.2 74.8688L44.9 63.6687Z" fill="#8B8892"/>
<path d="M0.200012 27.6687C1.22041e-05 27.9687 0 28.2687 0 28.6687V59.5687C0 60.2687 0.300024 60.8688 0.900024 61.3688L18.6 74.5687C19 74.8687 19.4 74.9688 19.9 74.9688H20.8L1.09998 25.9688L0.200012 27.6687Z" fill="#AEADB3"/>
<path d="M51.8 74.6688L73.9 61.4688C74.6 61.0688 75 60.3688 75 59.5688V46.2688C75 45.7688 74.8 45.2688 74.5 44.8688L56.8 22.8688C56.7 22.7688 56.6 22.6688 56.5 22.5688L55.3 21.5688L51.3 74.6688C51.4 74.7688 51.6 74.6688 51.8 74.6688Z" fill="#AEADB3"/>
<path d="M28 0.0687561C27.9 0.0687561 27.8 0.0687584 27.7 0.168758L10.1 8.96876C9.69998 9.16876 9.29998 9.56876 9.09998 9.96876L1 25.9688L51.2 74.7688L28 0.0687561Z" fill="#787780"/>
</svg>
