<svg width="79" height="68" viewBox="0 0 79 68" fill="none" xmlns="http://www.w3.org/2000/svg">
<path d="M35.6 63.3C26.4 70.2 13.3 68.4 6.29997 59.1C-0.700026 49.8 1.19999 36.8 10.5 29.8L44.7 4.10001L69.8 37.5L35.6 63.3Z" fill="#A16B4E"/>
<path opacity="0.1" d="M42 6.19999L64.5 36.2L30.3 61.9C25.7 65.4 20.1 66.6 14.8 65.9C21.4 68.7 29.4 68 35.6 63.4L69.8 37.7L44.7 4.29999L42 6.19999Z" fill="black"/>
<g opacity="0.1">
<path opacity="0.1" d="M35.7 39.5L31.6 42.6C29.4 44.3 26.6 45 23.8 44.6C21.7 44.3 19.6 44.8 17.8 46.1L10.2 51.8C9.69998 52.2 8.9 52.1 8.5 51.6C8.1 51.1 8.19998 50.3 8.69998 49.9L16.3 44.2C18.5 42.5 21.3 41.8 24.1 42.2C26.2 42.5 28.3 42 30.1 40.7L34.2 37.6C34.7 37.2 35.5 37.3 35.9 37.8C36.3 38.3 36.3 39 35.7 39.5Z" fill="black"/>
<path opacity="0.1" d="M38.5 21.4L31.3 26.8C30.8 27.2 30 27.1 29.6 26.6C29.2 26.1 29.3 25.3 29.8 24.9L37 19.5C37.5 19.1 38.3 19.2 38.7 19.7C39.1 20.2 39.1 21 38.5 21.4Z" fill="black"/>
<path opacity="0.1" d="M25.4 54.3L16.9 60.7C16.4 61.1 15.6 61 15.2 60.5C14.8 60 14.9 59.2 15.4 58.8L23.9 52.4C24.4 52 25.2 52.1 25.6 52.6C26 53.1 26 53.9 25.4 54.3Z" fill="black"/>
<path opacity="0.1" d="M47.3 48.1L34 58.1C33.5 58.5 32.7 58.4 32.3 57.9C31.9 57.4 32 56.6 32.5 56.2L45.8 46.2C46.3 45.8 47.1 45.9 47.5 46.4C48 46.9 47.9 47.7 47.3 48.1Z" fill="black"/>
</g>
<path d="M57.2 41.8C68.7428 41.8 78.1 32.4427 78.1 20.9C78.1 9.35725 68.7428 0 57.2 0C45.6573 0 36.3 9.35725 36.3 20.9C36.3 32.4427 45.6573 41.8 57.2 41.8Z" fill="#FAD97E"/>
<path opacity="0.1" d="M59.1 0.100006C63.5 1.30001 67.5 3.80001 70.4 7.70001C77.3 16.9 75.5 30 66.2 37C61.9 40.2 56.8 41.5 51.8 41.1C57.8 42.7 64.4 41.6 69.7 37.6C78.9 30.7 80.8 17.6 73.9 8.30001C70.2 3.40001 64.8 0.600006 59.1 0.100006Z" fill="black"/>
<g opacity="0.1">
<path opacity="0.1" d="M64.0999 34.6C63.9999 34.6 63.9999 34.7 63.8999 34.7C57.2999 37.9 49.4 35.9 45 30.1C39.9 23.3 41.3 13.7 48 8.6C51.2 6.2 55.1 5.2 59 5.6C59.7 5.7 60.1999 6.3 60.0999 7C59.9999 7.7 59.4 8.2 58.7 8.1C55.4 7.7 52.1 8.6 49.5 10.6C43.8 14.9 42.6999 22.9 46.8999 28.6C50.5999 33.5 57.2 35.1 62.7 32.5C63.3 32.2 64.0999 32.5 64.3999 33.1C64.6999 33.6 64.4999 34.3 64.0999 34.6Z" fill="black"/>
<path opacity="0.1" d="M69 30.6C68.6 30.9 67.9 30.9 67.5 30.6C67 30.2 66.9 29.4 67.3 28.9C70.9 24.3 71 17.9 67.5 13.2C66.4 11.7 64.9 10.5 63.3 9.60001C62.7 9.30001 62.5 8.50001 62.8 7.90001C63.1 7.30001 63.9 7.10001 64.5 7.40001C66.5 8.50001 68.2 9.90001 69.5 11.7C73.7 17.3 73.6 25 69.3 30.4C69.2 30.5 69.1 30.6 69 30.6Z" fill="black"/>
<path opacity="0.1" d="M62.2 27.5C60.9 28.5 59.3 29.1 57.6 29.2C56.9 29.2 56.3 28.7 56.3 28C56.3 27.3 56.8 26.7 57.5 26.7C58.7 26.6 59.8 26.2 60.7 25.5C62.3 24.3 63.1 22.4 63 20.5C63 19.8 63.5 19.2 64.2 19.2C64.9 19.2 65.5 19.7 65.5 20.4C65.7 23.2 64.4 25.9 62.2 27.5Z" fill="black"/>
<path opacity="0.1" d="M63.5999 17.7C63.0999 18.1 62.2999 18 61.8999 17.5C60.4999 15.6 58 14.7 55.7 15.4C55 15.6 54.4 15.2 54.2 14.5C54 13.8 54.3999 13.2 55.0999 13C58.3999 12.1 62 13.3 64 16C64.3 16.5 64.0999 17.3 63.5999 17.7Z" fill="black"/>
<path opacity="0.1" d="M53.6 27.4C53.2 27.7 52.5 27.7 52.1 27.4C51.6 27 51.1 26.5 50.6 25.9C48.7 23.4 48.4 20 49.8 17.2C50.1 16.6 50.9 16.3 51.5 16.7C52.1 17 52.4 17.8 52 18.4C51 20.4 51.2 22.7 52.5 24.5C52.8 24.9 53.1 25.2 53.5 25.6C54 26 54.1 26.8 53.7 27.3C53.7 27.3 53.7 27.4 53.6 27.4Z" fill="black"/>
</g>
<path d="M20.4 26.1C23.5 26.5 25.7 29.4 25.2 32.5C24.8 35.6 21.9 37.8 18.8 37.3L4.89999 35.3L6.5 24L20.4 26.1Z" fill="#A16B4E"/>
<path opacity="0.1" d="M20.4 26.1C23.5 26.5 25.7 29.4 25.2 32.5C24.8 35.6 21.9 37.8 18.8 37.3L4.89999 35.3L6.5 24L20.4 26.1Z" fill="black"/>
<path d="M5.69998 35.5C8.84801 35.5 11.4 32.948 11.4 29.8C11.4 26.652 8.84801 24.1 5.69998 24.1C2.55196 24.1 0 26.652 0 29.8C0 32.948 2.55196 35.5 5.69998 35.5Z" fill="#FAD97E"/>
</svg>
