<svg width="152" height="157" viewBox="0 0 152 157" fill="none" xmlns="http://www.w3.org/2000/svg">
    <path d="M76 143.6C111.843 143.6 140.9 114.543 140.9 78.7C140.9 42.8567 111.843 13.8 76 13.8C40.1567 13.8 11.1 42.8567 11.1 78.7C11.1 114.543 40.1567 143.6 76 143.6Z" fill="#4D5B5B"/>
    <path d="M73.9 4.10001C72.5 3.70001 70.5 4.40001 69.9 5.70001C69.3 7.10001 70.3 8.80001 71.7 8.70001C72.6 8.60001 73.2 7.80001 72.9 7.00001C72.6 6.20001 71.2 6.50001 71.4 7.40001C70.9 4.90001 73.4 5.30001 73.5 5.30001C75.7 5.80001 75.6 9.50001 72.9 10.4C72.3 10.6 71.6 10.7 70.9 10.7C70.7 10.5 70.5 10.3 70.2 10.1C69.4 9.50001 68.4 9.20001 67.4 9.10001C66.4 9.10001 65.5 9.30001 64.6 9.70001C63.8 10.1 63.1 10.6 62.6 11.3H39.2C40.8 10.5 41.8 8.70001 41.3 6.90001C40.9 5.50001 38.8 3.80001 37.6 5.40001C36.7 6.50001 38.2 8.20001 39.3 7.20001C39.5 7.00001 39.6 6.70001 39.5 6.50001C40 7.00001 40.2 8.00001 40 8.60001C39.8 9.30001 39.2 10 38.6 10.3C37.6 10.8 36.5 10.8 35.5 10.4C35 9.30001 34.2 8.30001 33.3 7.60001C30.7 5.40001 26.4 4.30001 22.8 6.20001C22.3 6.50001 21.8 6.80001 21.4 7.10001C22.3 4.60001 21.8 1.70001 19.1 8.21054e-06C18.5 -0.399992 18.1 0.400008 18.5 0.800008C21.3 3.20001 20.7 6.80001 18.5 8.70001C16.2 10.7 13.1 10.1 12 9.00001C10.9 7.90001 10.7 4.70001 12.2 4.80001C13.6 4.90001 14.1 6.90001 15.4 5.70001C16.1 5.10001 16.1 3.80001 15.7 3.00001C14.9 1.50001 13 1.00001 11.5 1.70001C9.69998 2.50001 8.89998 4.60001 9.09998 6.40001C9.19998 7.70001 9.69997 8.70001 10.4 9.50001C9.59997 8.80001 8.49998 8.30001 7.29998 8.20001C5.49998 8.00001 3.39998 8.90001 2.59998 10.6C1.89998 12.1 2.39997 14 3.89997 14.8C4.69997 15.2 5.99998 15.2 6.59998 14.5C7.79998 13.2 5.79997 12.7 5.69997 11.3C5.59997 9.80001 8.79997 10 9.89997 11.1C11 12.2 11.6 15.3 9.59998 17.6C7.69998 19.8 3.99997 20.4 1.69997 17.6C1.29997 17.1 0.499971 17.6 0.899971 18.2C2.49997 20.7 4.99998 21.3 7.29998 20.7C6.99998 21.1 6.79998 21.5 6.59998 21.9C4.69998 25.5 5.79998 29.8 7.99998 32.4C8.69998 33.3 9.69998 34.1 10.8 34.6C11.1 35.6 11.2 36.7 10.7 37.7C10.4 38.3 9.69998 39 8.99998 39.1C8.49998 39.2 7.49997 39.1 6.89997 38.6C7.09997 38.7 7.39998 38.7 7.59998 38.4C8.59998 37.3 6.99998 35.8 5.79998 36.7C4.19998 37.9 5.89998 40 7.29998 40.4C9.09998 41 10.9 40 11.7 38.3V62C11 62.5 10.5 63.2 10.1 64C9.69998 64.9 9.49998 65.8 9.49998 66.8C9.49998 67.8 9.89998 68.8 10.5 69.6C10.7 69.8 10.9 70.1 11.1 70.3C11.1 71 11 71.7 10.8 72.3C9.79998 74.9 6.09997 75.1 5.69997 72.9C5.69997 72.8 5.29998 70.3 7.79998 70.8C6.89998 70.6 6.59997 72 7.39997 72.3C8.29997 72.6 9.09998 72 9.09998 71.1C9.19998 69.7 7.49998 68.7 6.09998 69.3C4.69998 69.9 4.09998 71.9 4.49998 73.3C5.29998 76.1 10.3 76.5 11.9 72.4C12.1 72 12.2 71.5 12.2 71.1C13.2 71.7 14.4 72.1 15.6 72.1C19 72 22.2 69.1 22.3 64.6C22.3 62.8 21.9 61.2 21.5 59.6C21 58 20.4 56.6 19.8 55.1C24.5 50 28 44.9 30 37.6C30.6 35.5 31 33.2 30.9 31C30.9 30.9 30.9 30.7 30.9 30.6C31.2 30.6 31.5 30.6 31.8 30.6C34.1 30.6 36.3 30.2 38.4 29.7C45.7 27.7 50.9 24.2 55.9 19.5C57.4 20.1 58.9 20.7 60.4 21.2C62 21.7 63.7 22 65.4 22C69.9 22 72.8 18.7 72.9 15.3C72.9 14.1 72.5 12.9 71.9 11.9C72.3 11.9 72.8 11.8 73.2 11.6C77.1 10 76.7 5.00001 73.9 4.10001ZM36 19.5C35.1 19.3 34.2 19.4 33.4 19.9C33.9 19.6 34.3 19.2 34.7 18.7C34.9 18.5 35 18.3 35.1 18.1C35.4 18.6 35.7 19.1 36 19.5ZM36.3 13.9C36.3 13.6 36.3 13.3 36.2 13H37.6C37.5 13.1 37.3 13.1 37.2 13.2C36.9 13.4 36.6 13.6 36.3 13.9ZM23.8 8.40001C27.3 6.70001 31.9 8.90001 32.9 11.9C34.3 15.9 30.6 18.4 29.1 16.8C28.3 16 27 15.9 26.2 16.7C23.9 18.8 27.6 21.8 31.1 21C31.8 20.8 32.4 20.5 33 20.2C32.1 20.9 31.5 22 31.8 23.3C32.1 24.5 33.6 25.5 34.6 25.1C35.3 24.8 35.6 23.9 35.4 23.4C35.1 22.7 34 22.4 33.6 23.3C32.7 21.9 34.3 20.8 35.3 21C36.3 21.2 36.9 21.6 37.3 22.5C38 24 37.3 25.5 36.2 26.6C34.8 28.2 33 28.6 31.1 28.9C30.9 28.9 30.7 28.9 30.5 28.9C30.3 27.3 30 25.8 29.3 24.3C27.8 20.7 24.8 18.2 21.3 17C21 15.7 20.4 14.5 19.5 13.5C20.4 11.1 21.9 9.30001 23.8 8.40001ZM17.5 11.8C17.3 11.7 17 11.5 16.8 11.4C17.4 11.2 17.9 11 18.4 10.7C18.2 11.1 18 11.5 17.8 11.9C17.7 11.9 17.6 11.8 17.5 11.8ZM12.4 16.8C12.4 16.9 12.5 16.9 12.5 17C12.2 17.1 11.9 17.2 11.5 17.4C11.7 17 11.9 16.6 12 16.1C12.2 16.4 12.3 16.6 12.4 16.8ZM14.4 15.7C14 14.9 13.7 14 13.7 13.1C14.6 13.1 15.5 13.3 16.3 13.8C18.2 14.8 19.1 16.7 19.3 18.7C17.3 18.5 15.5 17.7 14.4 15.7ZM21.5 20.9C21.6 20.3 21.6 19.7 21.6 19.1C24.2 20.2 26.5 22.2 27.7 24.9C28.2 26 28.6 27.3 28.8 28.5C27.7 28.3 26.6 28 25.6 27.5C22.7 26.2 20.6 23.7 19.6 20.9C20.2 20.9 20.8 20.9 21.5 20.9ZM8.49998 23.2C9.39998 21.2 11.4 19.6 13.9 18.8C14.9 19.7 16 20.3 17.3 20.6C18.4 24.3 21 27.5 24.8 29.2C26.1 29.8 27.5 30.1 28.9 30.3C28.9 30.4 28.9 30.4 28.9 30.5C28.6 32.4 28.1 34.2 26.6 35.6C25.5 36.6 24 37.3 22.5 36.7C21.6 36.3 21.2 35.7 21 34.7C20.8 33.7 21.9 32.1 23.3 33C22.5 33.4 22.7 34.6 23.4 34.8C23.9 35 24.8 34.7 25.1 34C25.5 33 24.5 31.4 23.3 31.2C22 30.9 20.9 31.5 20.2 32.4C20.5 31.8 20.8 31.2 21 30.5C21.9 27 18.9 23.3 16.7 25.6C15.9 26.4 16 27.7 16.8 28.5C18.4 30 15.9 33.7 11.9 32.3C8.99997 31.2 6.89998 26.7 8.49998 23.2ZM13.1 35.6C13.4 35.6 13.7 35.6 14 35.7C13.8 36 13.5 36.3 13.3 36.6C13.2 36.7 13.1 36.9 13.1 37V35.6V35.6ZM19.6 35.4C19.2 35 18.7 34.8 18.2 34.6C18.4 34.5 18.6 34.3 18.8 34.2C19.3 33.8 19.6 33.3 20 32.9C19.5 33.5 19.4 34.5 19.6 35.4ZM20.2 64.5C20.1 68.3 17.5 70.2 15.3 70.2C13.9 70.2 12.5 69.4 11.9 68.5C11.1 67.5 11.1 66.1 11.7 64.8C12.2 63.6 13.4 62.8 14.6 62.9C15.1 63 15.7 63.3 16.1 63.7C16.4 64.1 16.5 64.5 16.3 65C16.1 65.5 15.7 65.9 15.4 65.9C15.2 65.9 15.1 65.9 15.1 65.9C15.1 65.9 15.1 65.9 15.1 65.7C15.2 65.2 14.9 64.7 14.4 64.5C13.9 64.3 13.3 64.6 13.2 65.1C13 65.7 13.1 66.6 13.6 67.2C14.2 67.8 14.9 68 15.6 67.9C16.9 67.7 17.8 66.7 18.1 65.7C18.3 65.2 18.4 64.6 18.3 64C18.2 63.4 17.9 62.9 17.5 62.5C17.1 62.1 16.7 61.8 16.3 61.5C15.9 61.3 15.3 61.1 14.8 61C14.2 60.9 13.7 61 13.1 61.2V43.9C13.4 44.8 13.7 45.7 14 46.6C15.7 51 18.2 55.9 19.5 60C19.9 61.5 20.2 63 20.2 64.5ZM18.9 53.6C18.7 53.4 18.6 53.1 18.5 52.8C18.5 51.8 18.4 50.7 18.4 49.7C18.5 47.5 18.9 46.6 19 46.1C19.4 44.6 21 43.4 22.1 44.6C21.5 45.5 22 46.8 23.1 46.6C24.4 46.4 24.4 45 24 44C23.1 42 21.2 42.4 20.5 42.7C19.5 43.1 18.7 44.1 18.3 45C17.5 46.7 17.4 48.6 17.5 50.6V50.5C16.2 47.6 14.7 44.6 14.1 41.6C13.3 37.3 15.9 35 17.8 35.8C20.9 37.1 19 40.1 17.9 39.1C17.5 38.8 17.6 38.5 17.6 38.7C17.8 38.2 17.6 37.6 17.1 37.4C16.6 37.2 16 37.4 15.8 37.9C14.9 40.3 18.9 42.5 20.6 39.4C21 38.7 21 38 20.9 37.3C22.3 38.5 24.4 38.6 26.1 37.7C27.2 37.1 28.1 36.2 28.8 35C28.7 35.7 28.5 36.4 28.4 37.1C26.4 43.9 22.9 49.1 18.9 53.6ZM54.2 18.7C49.7 22.7 44.5 26.2 37.7 28C37 28.2 36.3 28.3 35.6 28.4C36.7 27.7 37.7 26.8 38.3 25.7C39.2 24 39.1 21.9 37.9 20.5C38.6 20.7 39.3 20.6 40 20.2C43.2 18.5 40.9 14.5 38.5 15.4C38 15.6 37.8 16.2 38 16.7C38.2 17.2 38.8 17.4 39.3 17.2C39.1 17.2 39.3 17 39.7 17.5C40.7 18.7 37.7 20.5 36.4 17.4C35.6 15.4 37.9 12.8 42.2 13.7C45.2 14.3 48.2 15.7 51.1 17.1H51.2C49.3 17 47.3 17.1 45.6 17.9C44.6 18.3 43.7 19.1 43.3 20.1C43 20.8 42.6 22.7 44.6 23.6C45.6 24.1 46.9 24 47.2 22.7C47.4 21.6 46.1 21.1 45.2 21.7C44 20.6 45.1 19 46.7 18.6C47.2 18.4 48.1 18 50.3 18C51.4 18 52.4 18 53.4 18.1C53.7 18.5 54 18.6 54.2 18.7ZM65.2 20.1C63.7 20.1 62.2 19.8 60.7 19.4C56.5 18.2 51.7 15.6 47.3 13.9C46.5 13.6 45.6 13.3 44.6 13H61.9C61.7 13.5 61.7 14.1 61.7 14.7C61.8 15.2 61.9 15.8 62.2 16.2C62.4 16.6 62.8 17.1 63.2 17.4C63.6 17.8 64.1 18 64.7 18.2C65.3 18.3 65.9 18.2 66.4 18C67.4 17.6 68.4 16.8 68.6 15.5C68.7 14.9 68.5 14.1 67.9 13.5C67.3 12.9 66.4 12.9 65.8 13.1C65.3 13.3 65 13.8 65.2 14.3C65.4 14.8 65.9 15.1 66.4 15C66.6 14.9 66.6 15 66.6 15C66.6 15 66.7 15.1 66.6 15.3C66.6 15.6 66.2 16 65.7 16.2C65.2 16.4 64.8 16.3 64.4 16C64 15.7 63.7 15.1 63.6 14.5C63.5 13.3 64.2 12.1 65.5 11.6C66.7 11 68.1 11 69.2 11.8C70.1 12.5 70.9 13.9 70.9 15.2C70.9 17.4 69 20 65.2 20.1Z" fill="#D2A96A"/>
    <path d="M78.3 154.4C79.7 154.8 81.7 154 82.3 152.7C82.9 151.3 81.8 149.6 80.4 149.8C79.5 149.9 78.9 150.7 79.2 151.6C79.5 152.4 80.9 152.1 80.7 151.2C81.3 153.7 78.7 153.3 78.7 153.3C76.5 152.9 76.5 149.2 79.1 148.1C79.7 147.9 80.4 147.8 81.1 147.7C81.3 147.9 81.5 148.1 81.8 148.3C82.6 148.9 83.6 149.2 84.6 149.2C85.6 149.2 86.5 148.9 87.4 148.5C88.1 148.1 88.8 147.6 89.3 146.8L112.7 146C111.1 146.9 110.2 148.7 110.8 150.4C111.3 151.7 113.4 153.4 114.6 151.8C115.4 150.6 113.9 149 112.8 150.1C112.6 150.3 112.6 150.6 112.7 150.8C112.2 150.3 112 149.3 112.1 148.8C112.2 148.1 112.8 147.4 113.5 147.1C114.5 146.5 115.5 146.6 116.6 146.9C117.2 148 118 148.9 118.9 149.6C121.6 151.7 125.9 152.6 129.5 150.6C130 150.3 130.5 150 130.9 149.6C130.1 152.1 130.7 155 133.4 156.6C134 156.9 134.4 156.1 133.9 155.7C131 153.4 131.5 149.8 133.6 147.8C135.8 145.7 138.9 146.2 140.1 147.3C141.3 148.4 141.6 151.6 140.1 151.5C138.6 151.5 138.2 149.4 136.9 150.7C136.2 151.3 136.3 152.6 136.7 153.4C137.5 154.9 139.4 155.3 140.9 154.6C142.6 153.7 143.4 151.7 143.2 149.8C143 148.5 142.5 147.5 141.8 146.7C142.6 147.4 143.7 147.9 145 147.9C146.8 148 148.9 147.1 149.6 145.3C150.2 143.8 149.7 141.9 148.2 141.2C147.4 140.8 146.1 140.9 145.6 141.5C144.5 142.9 146.5 143.2 146.6 144.7C146.7 146.2 143.6 146.1 142.4 145C141.3 143.9 140.5 140.9 142.5 138.5C144.4 136.2 148 135.5 150.4 138.2C150.8 138.7 151.6 138.2 151.2 137.6C149.5 135.2 147 134.6 144.7 135.3C145 134.9 145.2 134.5 145.4 134.1C147.1 130.4 145.9 126.2 143.6 123.6C142.8 122.7 141.8 122 140.7 121.5C140.3 120.5 140.2 119.4 140.7 118.4C141 117.7 141.6 117.1 142.3 116.9C142.8 116.8 143.8 116.9 144.4 117.4C144.2 117.3 143.9 117.3 143.7 117.6C142.7 118.8 144.4 120.2 145.5 119.3C147 118 145.3 116 143.9 115.6C142.1 115.1 140.3 116.1 139.6 117.8L138.8 94.4C139.5 93.8 140 93.1 140.3 92.4C140.7 91.5 140.9 90.6 140.8 89.6C140.7 88.6 140.4 87.6 139.7 86.9C139.5 86.7 139.3 86.5 139.1 86.3C139.1 85.6 139.2 84.9 139.4 84.3C140.3 81.7 144 81.4 144.5 83.6C144.5 83.7 145 86.2 142.5 85.8C143.4 85.9 143.6 84.5 142.8 84.3C141.9 84 141.1 84.6 141.1 85.6C141.1 87 142.8 87.9 144.1 87.3C145.4 86.6 146 84.6 145.6 83.2C144.7 80.5 139.7 80.2 138.3 84.3C138.2 84.7 138.1 85.2 138.1 85.6C137.1 85 135.9 84.7 134.7 84.7C131.3 84.9 128.2 87.9 128.3 92.4C128.3 94.2 128.8 95.8 129.3 97.4C129.8 98.9 130.5 100.4 131.1 101.8C126.5 107 123.3 112.3 121.5 119.7C121 121.9 120.7 124.1 120.8 126.4C120.8 126.5 120.8 126.7 120.8 126.8C120.5 126.8 120.2 126.8 119.9 126.8C117.6 126.9 115.4 127.3 113.3 128C106 130.3 101 133.9 96.1 138.8C94.6 138.2 93.1 137.7 91.5 137.3C89.9 136.9 88.2 136.6 86.4 136.6C81.9 136.8 79.1 140.1 79.1 143.5C79.1 144.7 79.5 145.9 80.2 146.8C79.8 146.8 79.3 147 78.9 147.1C74.9 148.7 75.5 153.7 78.3 154.4ZM115.6 137.9C116.5 138.1 117.4 137.9 118.2 137.4C117.7 137.8 117.3 138.2 116.9 138.6C116.8 138.8 116.6 139 116.5 139.2C116.3 138.7 116 138.2 115.6 137.9ZM115.5 143.4C115.5 143.7 115.5 144 115.6 144.3H114.2C114.3 144.2 114.5 144.1 114.6 144.1C115 143.9 115.3 143.7 115.5 143.4ZM128.2 148.5C124.8 150.3 120.1 148.3 119 145.3C117.4 141.3 121.1 138.7 122.6 140.3C123.4 141.1 124.7 141.1 125.5 140.3C127.7 138.1 123.9 135.2 120.4 136.2C119.7 136.4 119.1 136.7 118.5 137.1C119.4 136.4 119.9 135.2 119.6 134C119.3 132.8 117.7 131.9 116.7 132.3C116 132.6 115.8 133.5 116 134C116.3 134.7 117.5 134.9 117.8 134.1C118.8 135.5 117.2 136.6 116.2 136.5C115.2 136.3 114.6 136 114.1 135.1C113.4 133.6 114 132.1 115 130.9C116.4 129.3 118.1 128.8 120 128.4C120.2 128.4 120.4 128.4 120.6 128.4C120.8 130 121.3 131.5 121.9 132.9C123.6 136.4 126.7 138.9 130.1 139.9C130.5 141.2 131.1 142.4 132 143.3C131.6 145.7 130.1 147.5 128.2 148.5ZM134.4 144.9C134.6 145 134.9 145.1 135.1 145.2C134.5 145.4 134 145.6 133.5 145.9C133.7 145.5 133.9 145.1 134 144.6C134.2 144.8 134.3 144.9 134.4 144.9ZM139.3 139.7C139.3 139.6 139.2 139.6 139.2 139.5C139.5 139.4 139.8 139.2 140.1 139.1C139.9 139.5 139.8 139.9 139.7 140.4C139.6 140.1 139.5 139.9 139.3 139.7ZM137.3 140.9C137.8 141.7 138 142.6 138.1 143.5C137.2 143.5 136.3 143.3 135.5 142.9C133.5 141.9 132.6 140.1 132.3 138.1C134.4 138.1 136.2 139 137.3 140.9ZM130.1 136C130.1 136.6 130.1 137.2 130.1 137.8C127.4 136.8 125.1 134.9 123.8 132.2C123.2 131.1 122.9 129.9 122.6 128.6C123.7 128.8 124.8 129.1 125.8 129.5C128.8 130.7 131 133.1 132.1 135.9C131.4 135.9 130.8 135.9 130.1 136ZM143 133.2C142.1 135.3 140.2 136.9 137.8 137.8C136.8 136.9 135.6 136.4 134.3 136.1C133.1 132.4 130.4 129.3 126.5 127.8C125.2 127.3 123.8 127 122.4 126.8C122.4 126.7 122.4 126.7 122.4 126.6C122.6 124.7 123 122.9 124.6 121.4C125.7 120.3 127.2 119.6 128.7 120.2C129.6 120.6 130 121.2 130.2 122.2C130.4 123.2 129.4 124.9 128 124C128.8 123.6 128.5 122.4 127.8 122.2C127.3 122 126.4 122.3 126.1 123C125.8 124 126.7 125.6 128 125.8C129.3 126 130.4 125.4 131 124.5C130.7 125.1 130.4 125.7 130.3 126.4C129.5 130 132.7 133.5 134.7 131.2C135.4 130.3 135.3 129.1 134.5 128.3C132.8 126.9 135.2 123.1 139.3 124.3C142.2 125.2 144.6 129.7 143 133.2ZM138 120.9C137.7 120.9 137.4 120.9 137.1 120.9C137.3 120.6 137.6 120.3 137.8 119.9C137.9 119.8 137.9 119.6 138 119.5V120.9ZM131.5 121.4C131.9 121.7 132.4 122 132.9 122.2C132.7 122.3 132.5 122.5 132.3 122.6C131.9 123 131.5 123.5 131.2 124C131.7 123.2 131.8 122.3 131.5 121.4ZM129.9 92.3C129.9 88.5 132.4 86.5 134.6 86.5C136 86.4 137.4 87.2 138.1 88.1C138.9 89.1 138.9 90.5 138.4 91.8C137.9 93 136.7 93.9 135.6 93.7C135.1 93.7 134.5 93.3 134.1 92.9C133.7 92.5 133.7 92.1 133.8 91.6C134 91.1 134.4 90.7 134.7 90.7C134.9 90.7 135 90.7 135 90.7C135 90.7 135 90.7 135 90.9C134.9 91.4 135.2 91.9 135.7 92.1C136.2 92.2 136.8 91.9 136.9 91.4C137.1 90.8 137 89.9 136.4 89.4C135.8 88.8 135 88.7 134.4 88.8C133.1 89 132.3 90.1 132 91.1C131.8 91.6 131.8 92.2 131.9 92.8C132 93.4 132.3 93.9 132.7 94.3C133.1 94.7 133.5 95 134 95.2C134.4 95.4 135 95.6 135.5 95.6C136.1 95.6 136.6 95.6 137.2 95.4L137.8 112.7C137.5 111.8 137.2 110.9 136.8 110.1C135 105.7 132.2 101 130.9 96.9C130.3 95.3 130 93.8 129.9 92.3ZM131.6 103.2C131.8 103.4 131.9 103.7 132 104C132.1 105 132.2 106.1 132.2 107.1C132.2 109.3 131.8 110.2 131.7 110.7C131.3 112.2 129.8 113.5 128.7 112.3C129.2 111.3 128.7 110.1 127.6 110.3C126.3 110.6 126.3 111.9 126.8 112.9C127.8 114.8 129.6 114.4 130.3 114.1C131.3 113.6 132 112.7 132.4 111.7C133.1 110 133.2 108 133 106.1V106.2C134.4 109.1 136 112 136.7 115C137.7 119.2 135.2 121.7 133.2 120.9C130.1 119.7 131.8 116.6 133 117.6C133.4 117.9 133.3 118.1 133.3 118C133.1 118.5 133.3 119.1 133.8 119.3C134.3 119.5 134.9 119.3 135.1 118.8C136 116.4 131.9 114.3 130.3 117.5C130 118.2 129.9 118.9 130.1 119.6C128.7 118.5 126.6 118.4 124.9 119.4C123.8 120 122.9 121 122.3 122.2C122.4 121.5 122.5 120.8 122.7 120.1C124.5 113.1 127.7 107.8 131.6 103.2ZM97.5 139.2C101.8 135 106.9 131.4 113.7 129.4C114.4 129.2 115.1 129 115.8 128.9C114.7 129.6 113.8 130.6 113.2 131.7C112.4 133.4 112.6 135.5 113.8 136.8C113.1 136.7 112.4 136.7 111.7 137.1C108.6 138.9 111 142.8 113.3 141.8C113.8 141.5 114 141 113.7 140.5C113.4 140 112.9 139.8 112.4 140.1C112.6 140.1 112.4 140.3 112 139.9C111 138.7 113.9 136.8 115.3 139.8C116.2 141.7 113.9 144.4 109.6 143.7C106.5 143.2 103.6 141.9 100.6 140.6H100.5C102.4 140.7 104.4 140.4 106 139.6C107 139.1 107.9 138.3 108.3 137.3C108.6 136.6 108.9 134.7 106.9 133.8C105.9 133.4 104.5 133.5 104.3 134.7C104.1 135.8 105.4 136.2 106.3 135.6C107.6 136.6 106.4 138.3 104.9 138.7C104.4 138.9 103.5 139.3 101.3 139.5C100.3 139.6 99.2 139.5 98.2 139.5C98 139.5 97.7 139.3 97.5 139.2ZM86.5 138.2C88 138.1 89.5 138.4 91 138.8C95.2 139.9 100.1 142.3 104.6 143.8C105.5 144.1 106.4 144.4 107.3 144.6L90 145.2C90.1 144.7 90.2 144.1 90.1 143.5C90 143 89.8 142.5 89.6 142C89.3 141.6 89 141.2 88.6 140.8C88.2 140.5 87.6 140.2 87 140.1C86.4 140 85.8 140.1 85.3 140.3C84.3 140.7 83.4 141.6 83.2 142.9C83.1 143.5 83.3 144.3 83.9 144.8C84.5 145.4 85.4 145.4 86 145.2C86.5 145 86.8 144.5 86.6 143.9C86.4 143.4 85.9 143.1 85.4 143.3C85.2 143.4 85.2 143.3 85.2 143.3C85.2 143.3 85.1 143.2 85.1 143C85.1 142.7 85.5 142.2 86 142C86.5 141.8 86.9 141.9 87.3 142.2C87.7 142.5 88.1 143.1 88.2 143.6C88.4 144.7 87.6 146 86.4 146.6C85.2 147.2 83.8 147.3 82.7 146.5C81.7 145.9 80.9 144.5 80.9 143.1C80.9 141.1 82.7 138.5 86.5 138.2Z" fill="#D2A96A"/>
    <path d="M77.4 124.7C74.6 126.6 70.8 126 68.9 123.2C67 120.4 67.6 116.6 70.4 114.7C73.2 112.8 77 113.4 78.9 116.2C80.8 119 80.2 122.8 77.4 124.7Z" fill="#F3D035"/>
    <path d="M80 118.8C79.6 119.6 78.9 120.4 78.1 120.9C75.3 122.8 71.5 122.2 69.6 119.4C69 118.6 68.7 117.7 68.5 116.8C67.4 118.8 67.5 121.3 68.9 123.2C70.8 126 74.7 126.6 77.4 124.7C79.4 123.4 80.3 121.1 80 118.8Z" fill="#FFA511"/>
    <path d="M56.5 104.1C53.7 106 49.9 105.4 48 102.6C46.1 99.8 46.7 96 49.5 94.1C52.3 92.2 56.1 92.8 58 95.6C59.9 98.4 59.2 102.2 56.5 104.1Z" fill="#F3D035"/>
    <path d="M79.5 118C76.7 119.9 72.9 119.3 71 116.5C69.1 113.7 69.7 109.9 72.5 108C75.3 106.1 79.1 106.7 81 109.5C82.9 112.2 82.3 116.1 79.5 118Z" fill="#F3D035"/>
    <path d="M72.6 110.8C69.8 112.7 66 112.1 64.1 109.3C62.2 106.5 62.8 102.7 65.6 100.8C68.4 98.9 72.2 99.5 74.1 102.3C76 105.1 75.4 108.9 72.6 110.8Z" fill="#F3D035"/>
    <path d="M59 98.2C58.6 99 57.9 99.8 57.1 100.3C54.3 102.2 50.5 101.6 48.6 98.8C48 98 47.7 97.1 47.5 96.2C46.4 98.2 46.5 100.7 47.9 102.6C49.8 105.4 53.7 106 56.4 104.1C58.4 102.7 59.3 100.4 59 98.2Z" fill="#FFA511"/>
    <path d="M82 112.1C81.6 112.9 80.9 113.7 80.1 114.2C77.3 116.1 73.5 115.5 71.6 112.7C71 111.9 70.7 111 70.5 110.1C69.4 112.1 69.5 114.6 70.9 116.5C72.8 119.3 76.7 119.9 79.4 118C81.5 116.6 82.4 114.3 82 112.1Z" fill="#FFA511"/>
    <path d="M75.1 104.9C74.7 105.7 74 106.5 73.2 107C70.4 108.9 66.6 108.3 64.7 105.5C64.1 104.7 63.8 103.8 63.6 102.9C62.5 104.9 62.6 107.4 64 109.3C65.9 112.1 69.8 112.7 72.5 110.8C74.6 109.5 75.5 107.2 75.1 104.9Z" fill="#FFA511"/>
    <path d="M62.8 98.8C63.8 98.1 65.1 97.5 67.1 97.8C69.4 98.2 70.4 99.6 71.1 100.6C71.7 101.5 72.1 102 73.2 102.2C74.3 102.4 74.8 102 75.7 101.4C76.7 100.7 78.1 99.7 80.4 100.1C82.7 100.5 83.7 101.9 84.4 102.9C84.5 103 84.6 103.1 84.7 103.2C84.9 103.4 85.2 103.3 85.2 103L85 89L66.6 85.8L62.2 98.4C62.2 98.7 62.5 98.9 62.8 98.8Z" fill="#F3D035"/>
    <path d="M85.2 103L85 89L80.8 88.3L79.2 100C79.5 100 79.9 100 80.3 100.1C82.6 100.5 83.6 101.9 84.3 102.9C84.4 103 84.5 103.1 84.6 103.2C84.8 103.4 85.2 103.3 85.2 103Z" fill="#E39510"/>
    <path d="M48 84.8C47.7 84.3 47.8 83.6 48.3 83.3C48.8 83 49.5 83.1 49.8 83.6C52.7 87.8 58.5 88.9 62.7 86.2L60.3 85.7C57.3 85 54.7 82.9 53.4 80.1L52.3 77.7C52 77.2 52.3 76.5 52.8 76.3C53.3 76 54 76.3 54.2 76.8L55.3 79.2C56.3 81.4 58.3 83 60.7 83.6L65.6 84.7C66 84.8 66.3 85.1 66.4 85.6C66.5 86 66.3 86.5 66 86.7L64.4 87.8C59.1 91.4 51.7 90.1 48 84.8Z" fill="#A16B4E"/>
    <path d="M92.5 44L74.9 41C67.1 39.6 59.6 44.9 58.2 52.7L57.4 57.5C55.9 65.9 57.7 74.5 62.2 81.7C63.6 83.9 65.8 85.3 68.3 85.8L83.6 88.4C86.1 88.8 88.7 88.2 90.7 86.6C97.4 81.4 102 73.8 103.4 65.4L104.2 60.6C105.6 52.8 100.3 45.3 92.5 44Z" fill="#F3D035"/>
    <path d="M90.7 86.7C97.4 81.5 102 73.9 103.4 65.5L104.2 60.7C105.2 55.1 102.7 49.6 98.4 46.5C99 48.5 99.1 50.7 98.7 52.9L97.9 57.7C96.4 66.1 91.9 73.7 85.2 78.9C83.2 80.5 80.6 81.1 78.1 80.7L62.8 78C61.7 77.8 60.6 77.4 59.6 76.8C60.3 78.5 61.2 80.2 62.2 81.8C63.6 84 65.8 85.4 68.3 85.9L83.6 88.5C86.1 88.9 88.6 88.3 90.7 86.7Z" fill="#E39510"/>
    <path d="M84.1 91.8L66.6 88.8C65 88.5 64 87 64.3 85.5V85.3C64.6 83.7 66.1 82.7 67.6 83L85.1 86C86.7 86.3 87.7 87.8 87.4 89.3V89.5C87.2 91.1 85.7 92.1 84.1 91.8Z" fill="#7F513D"/>
    <path d="M87.4 89.4C87.5 89 87.5 88.6 87.4 88.2C86.8 89.1 85.6 89.7 84.4 89.5L67.1 86.5C65.9 86.3 65 85.4 64.7 84.3C64.5 84.6 64.3 85 64.2 85.4C63.9 87 65 88.5 66.6 88.8L83.9 91.8C85.6 92.1 87.2 91 87.4 89.4Z" fill="#A16B4E"/>
</svg>
