<svg width="151" height="157" viewBox="0 0 151 157" fill="none" xmlns="http://www.w3.org/2000/svg">
    <path d="M75.4 143.6C111.243 143.6 140.3 114.543 140.3 78.7C140.3 42.8567 111.243 13.8 75.4 13.8C39.5567 13.8 10.5 42.8567 10.5 78.7C10.5 114.543 39.5567 143.6 75.4 143.6Z" fill="#4D5B5B"/>
    <path d="M73.3 4.10001C71.9 3.70001 69.9 4.40001 69.3 5.70001C68.7 7.10001 69.7 8.80001 71.1 8.70001C72 8.60001 72.6 7.80001 72.3 7.00001C72 6.20001 70.6 6.50001 70.8 7.40001C70.3 4.90001 72.8 5.30001 72.9 5.30001C75.1 5.80001 75 9.50001 72.3 10.4C71.7 10.6 71 10.7 70.3 10.7C70.1 10.5 69.9 10.3 69.6 10.1C68.8 9.50001 67.8 9.20001 66.8 9.10001C65.8 9.10001 64.9 9.30001 64 9.70001C63.2 10.1 62.5 10.6 62 11.3H38.6C40.2 10.5 41.2 8.70001 40.7 6.90001C40.2 5.70001 38.2 4.00001 37 5.60001C36.1 6.70001 37.6 8.40001 38.7 7.40001C38.9 7.20001 39 6.90001 38.9 6.70001C39.4 7.20001 39.6 8.20001 39.4 8.80001C39.2 9.50001 38.6 10.2 38 10.5C37 11 35.9 11 34.9 10.6C34.4 9.50001 33.6 8.50001 32.7 7.80001C30 5.50001 25.7 4.40001 22.1 6.30001C21.6 6.60001 21.1 6.90001 20.7 7.20001C21.6 4.70001 21.1 1.80001 18.4 0.100014C17.8 -0.299986 17.4 0.500014 17.8 0.900014C20.6 3.30001 20 6.90001 17.8 8.80001C15.5 10.8 12.4 10.2 11.3 9.10001C10.2 8.00001 9.99998 4.80001 11.5 4.90001C13 5.00001 13.4 7.10001 14.8 5.90001C15.4 5.30001 15.4 4.00001 15 3.20001C14.2 1.70001 12.3 1.20001 10.8 1.90001C9.09998 2.70001 8.19998 4.80001 8.39998 6.60001C8.49998 7.90001 8.99998 9.00001 9.79998 9.80001C8.99998 9.00001 7.89998 8.50001 6.59998 8.40001C4.79998 8.20001 2.69998 9.10001 1.89998 10.8C1.19998 12.3 1.69998 14.2 3.19998 15C3.99998 15.4 5.29998 15.4 5.89998 14.7C7.09998 13.4 4.99998 13 4.89998 11.6C4.79998 10.1 7.99998 10.3 9.09998 11.4C10.2 12.5 10.8 15.6 8.79998 17.9C6.89998 20.1 3.19998 20.7 0.899984 17.9C0.499984 17.4 -0.300016 17.9 0.0999838 18.5C1.69998 21 4.19998 21.6 6.49998 21C6.19998 21.4 5.99998 21.8 5.79998 22.2C3.89998 25.7 4.99998 30 7.09998 32.7C7.79998 33.6 8.79998 34.4 9.89998 34.9C10.2 35.9 10.3 37 9.79998 38C9.49998 38.6 8.79998 39.3 8.09998 39.4C7.59998 39.5 6.59998 39.4 5.99998 38.9C6.19998 39 6.49998 39 6.69998 38.7C7.69998 37.6 6.09998 36.1 4.89998 37C3.29998 38.2 4.99998 40.3 6.39998 40.7C8.19998 41.3 9.99998 40.3 10.8 38.6V62C10.1 62.5 9.59998 63.2 9.19998 64C8.79998 64.9 8.59998 65.8 8.59998 66.8C8.59998 67.8 8.99998 68.8 9.59998 69.6C9.79998 69.8 9.99998 70.1 10.2 70.3C10.2 71 10.1 71.7 9.89998 72.3C8.89998 74.9 5.19998 75.1 4.79998 72.9C4.79998 72.8 4.39998 70.3 6.89998 70.8C5.99998 70.6 5.69998 72 6.49998 72.3C7.39998 72.6 8.19998 72 8.19998 71.1C8.29998 69.7 6.59998 68.7 5.19998 69.3C3.79998 69.9 3.19998 71.9 3.59998 73.3C4.39998 76.1 9.39998 76.5 11 72.4C11.2 72 11.3 71.5 11.3 71.1C12.3 71.7 13.5 72.1 14.7 72.1C18.1 72 21.3 69.1 21.4 64.6C21.4 62.8 21 61.2 20.6 59.6C20.1 58 19.5 56.6 18.9 55.1C23.5 50 27 44.8 29 37.5C29.6 35.4 30 33.1 29.9 30.9C29.9 30.8 29.9 30.6 29.9 30.5C30.2 30.5 30.5 30.5 30.8 30.5C33.1 30.5 35.3 30.1 37.4 29.6C44.7 27.6 49.9 24.1 54.9 19.4C56.4 20 57.9 20.6 59.4 21.1C61 21.6 62.7 21.9 64.4 21.9C68.9 21.9 71.8 18.6 71.9 15.2C71.9 14 71.5 12.8 70.9 11.8C71.3 11.8 71.8 11.7 72.2 11.5C76.5 10 76 5.00001 73.3 4.10001ZM35.4 19.5C34.5 19.3 33.6 19.4 32.8 19.9C33.3 19.6 33.7 19.2 34.1 18.7C34.3 18.5 34.4 18.3 34.5 18.1C34.7 18.6 35 19.1 35.4 19.5ZM35.7 13.9C35.7 13.6 35.7 13.3 35.6 13H37C36.9 13.1 36.7 13.1 36.6 13.2C36.2 13.4 35.9 13.6 35.7 13.9ZM23.2 8.40001C26.7 6.70001 31.3 8.90001 32.3 11.9C33.7 15.9 30 18.4 28.5 16.8C27.7 16 26.4 15.9 25.6 16.7C23.3 18.8 27 21.8 30.5 21C31.2 20.8 31.8 20.5 32.4 20.2C31.5 20.9 30.9 22 31.2 23.3C31.5 24.5 33 25.5 34 25.1C34.7 24.8 35 23.9 34.8 23.4C34.5 22.7 33.4 22.4 33 23.3C32.1 21.9 33.7 20.8 34.7 21C35.7 21.2 36.3 21.6 36.7 22.5C37.4 24 36.7 25.5 35.6 26.6C34.2 28.2 32.4 28.6 30.5 28.9C30.3 28.9 30.1 28.9 29.9 28.9C29.7 27.3 29.4 25.8 28.7 24.3C27.2 20.7 24.2 18.2 20.7 17C20.4 15.7 19.8 14.5 18.9 13.5C19.7 11.1 21.3 9.30001 23.2 8.40001ZM16.8 11.8C16.6 11.7 16.3 11.5 16.1 11.4C16.7 11.2 17.2 11 17.7 10.7C17.5 11.1 17.3 11.5 17.1 11.9C17.1 11.9 17 11.8 16.8 11.8ZM11.8 16.8C11.8 16.9 11.9 16.9 11.9 17C11.6 17.1 11.3 17.2 10.9 17.4C11.1 17 11.3 16.6 11.4 16.1C11.5 16.4 11.6 16.6 11.8 16.8ZM13.8 15.7C13.4 14.9 13.1 14 13.1 13.1C14 13.1 14.9 13.3 15.7 13.8C17.6 14.8 18.5 16.7 18.7 18.7C16.6 18.5 14.8 17.7 13.8 15.7ZM20.9 20.9C21 20.3 21 19.7 21 19.1C23.6 20.2 25.9 22.2 27.1 24.9C27.6 26 28 27.3 28.2 28.5C27.1 28.3 26 28 25 27.5C22.1 26.2 20 23.7 19 20.9C19.5 20.9 20.2 20.9 20.9 20.9ZM7.89998 23.2C8.79998 21.2 10.8 19.6 13.3 18.8C14.3 19.7 15.4 20.3 16.7 20.6C17.8 24.3 20.4 27.5 24.2 29.2C25.5 29.8 26.9 30.1 28.3 30.3C28.3 30.4 28.3 30.4 28.3 30.5C28 32.4 27.5 34.2 26 35.6C24.9 36.6 23.4 37.3 21.9 36.7C21 36.3 20.6 35.7 20.4 34.7C20.2 33.7 21.3 32.1 22.7 33C21.9 33.4 22.1 34.6 22.8 34.8C23.3 35 24.2 34.7 24.5 34C24.9 33 23.9 31.4 22.7 31.2C21.4 30.9 20.3 31.5 19.6 32.4C19.9 31.8 20.2 31.2 20.4 30.5C21.3 27 18.3 23.3 16.1 25.6C15.3 26.4 15.4 27.7 16.2 28.5C17.8 30 15.3 33.7 11.3 32.3C8.39998 31.2 6.19998 26.7 7.89998 23.2ZM12.4 35.6C12.7 35.6 13 35.6 13.3 35.7C13.1 36 12.8 36.3 12.6 36.6C12.5 36.7 12.4 36.9 12.4 37V35.6V35.6ZM18.9 35.4C18.5 35 18 34.8 17.5 34.6C17.7 34.5 17.9 34.3 18.1 34.2C18.6 33.8 18.9 33.3 19.3 32.9C18.9 33.5 18.7 34.5 18.9 35.4ZM19.5 64.5C19.4 68.3 16.8 70.2 14.6 70.2C13.2 70.2 11.8 69.4 11.2 68.5C10.4 67.5 10.4 66.1 11 64.8C11.5 63.6 12.7 62.8 13.9 62.9C14.4 63 15 63.3 15.4 63.7C15.7 64.1 15.8 64.5 15.6 65C15.4 65.6 15 66 14.7 66C14.5 66 14.4 66 14.4 66C14.4 66 14.4 66 14.4 65.8C14.5 65.3 14.2 64.8 13.7 64.6C13.2 64.4 12.6 64.7 12.5 65.2C12.3 65.8 12.4 66.7 12.9 67.3C13.5 67.9 14.2 68.1 14.9 68C16.2 67.8 17.1 66.8 17.4 65.8C17.6 65.3 17.7 64.7 17.6 64.1C17.5 63.5 17.2 63 16.8 62.6C16.4 62.2 16 61.9 15.6 61.6C15.2 61.4 14.6 61.2 14.1 61.1C13.5 61 13 61.1 12.4 61.3V43.9C12.7 44.8 13 45.7 13.3 46.6C15 51 17.6 55.8 18.8 60C19.3 61.5 19.6 63 19.5 64.5ZM18.2 53.6C18 53.4 17.9 53.1 17.8 52.8C17.8 51.8 17.7 50.7 17.7 49.7C17.8 47.5 18.2 46.6 18.3 46.1C18.7 44.6 20.3 43.4 21.4 44.6C20.8 45.5 21.3 46.8 22.4 46.6C23.7 46.4 23.7 45 23.3 44C22.4 42 20.5 42.4 19.8 42.7C18.8 43.1 18 44.1 17.6 45C16.8 46.7 16.7 48.6 16.8 50.6V50.5C15.5 47.6 14 44.6 13.4 41.6C12.6 37.3 15.2 35 17.1 35.8C20.2 37.1 18.3 40.1 17.2 39.1C16.8 38.8 16.9 38.5 16.9 38.7C17.1 38.2 16.9 37.6 16.4 37.4C15.9 37.2 15.3 37.4 15.1 37.9C14.2 40.3 18.2 42.5 19.9 39.4C20.3 38.7 20.3 38 20.2 37.3C21.6 38.5 23.7 38.6 25.4 37.7C26.5 37.1 27.4 36.2 28.1 35C28 35.7 27.8 36.4 27.7 37.1C25.7 43.9 22.3 49.1 18.2 53.6ZM53.6 18.7C49.1 22.7 43.9 26.2 37.1 28C36.4 28.2 35.7 28.3 35 28.4C36.1 27.7 37.1 26.8 37.7 25.7C38.6 24 38.5 21.9 37.3 20.5C38 20.7 38.7 20.6 39.4 20.2C42.6 18.5 40.3 14.5 37.9 15.4C37.4 15.6 37.2 16.2 37.4 16.7C37.6 17.2 38.2 17.4 38.7 17.2C38.5 17.2 38.7 17 39.1 17.5C40.1 18.7 37.1 20.5 35.8 17.4C35 15.4 37.3 12.8 41.6 13.7C44.6 14.3 47.6 15.7 50.5 17.1H50.6C48.7 17 46.7 17.1 45 17.9C44 18.3 43.1 19.1 42.7 20.1C42.4 20.8 42 22.7 44 23.6C45 24.1 46.3 24 46.6 22.7C46.8 21.6 45.5 21.1 44.6 21.7C43.4 20.6 44.5 19 46.1 18.6C46.6 18.4 47.5 18 49.7 18C50.8 18 51.8 18 52.8 18.1C53 18.5 53.3 18.6 53.6 18.7ZM64.5 20.1C63 20.1 61.5 19.8 60 19.4C55.8 18.2 51 15.6 46.6 13.9C45.8 13.6 44.9 13.3 43.9 13H61.2C61 13.5 61 14.1 61 14.7C61.1 15.2 61.2 15.8 61.5 16.2C61.7 16.6 62.1 17.1 62.5 17.4C62.9 17.8 63.4 18 64 18.2C64.6 18.3 65.2 18.2 65.7 18C66.7 17.6 67.7 16.8 67.9 15.5C68 14.9 67.8 14.1 67.2 13.5C66.6 12.9 65.7 12.9 65.1 13.1C64.6 13.3 64.3 13.8 64.5 14.3C64.7 14.8 65.2 15.1 65.7 15C65.9 14.9 65.9 15 65.9 15C65.9 15 66 15.1 65.9 15.3C65.9 15.6 65.5 16 65 16.2C64.5 16.4 64.1 16.3 63.7 16C63.4 15.6 63 15 63 14.4C62.9 13.2 63.6 12 64.9 11.5C66.1 10.9 67.5 10.9 68.6 11.7C69.5 12.4 70.3 13.8 70.3 15.1C70.2 17.4 68.3 20 64.5 20.1Z" fill="#D2A96A"/>
    <path d="M77.6 154.4C79 154.8 81 154 81.6 152.7C82.2 151.3 81.1 149.6 79.7 149.8C78.8 149.9 78.2 150.7 78.5 151.6C78.8 152.4 80.2 152.1 80 151.2C80.6 153.7 78 153.3 78 153.3C75.8 152.9 75.8 149.2 78.4 148.1C79 147.9 79.7 147.8 80.4 147.7C80.6 147.9 80.8 148.1 81.1 148.3C81.9 148.9 82.9 149.2 83.9 149.2C84.9 149.2 85.8 148.9 86.7 148.5C87.4 148.1 88.1 147.6 88.6 146.8L112 146C110.4 146.9 109.5 148.7 110.1 150.4C110.6 151.7 112.7 153.4 113.9 151.8C114.7 150.6 113.2 149 112.1 150.1C111.9 150.3 111.9 150.6 112 150.8C111.5 150.3 111.3 149.3 111.4 148.8C111.5 148.1 112.1 147.4 112.8 147.1C113.8 146.5 114.8 146.6 115.9 146.9C116.5 148 117.3 148.9 118.2 149.6C120.9 151.7 125.2 152.6 128.8 150.6C129.3 150.3 129.8 150 130.2 149.6C129.4 152.1 130 155 132.7 156.6C133.3 156.9 133.7 156.1 133.2 155.7C130.3 153.4 130.8 149.8 132.9 147.8C135.1 145.7 138.2 146.2 139.4 147.3C140.6 148.4 140.9 151.6 139.4 151.5C137.9 151.5 137.5 149.4 136.2 150.7C135.5 151.3 135.6 152.6 136 153.4C136.8 154.9 138.7 155.3 140.2 154.6C141.9 153.7 142.7 151.7 142.5 149.8C142.3 148.5 141.8 147.5 141.1 146.7C141.9 147.4 143 147.9 144.3 147.9C146.1 148 148.2 147.1 148.9 145.3C149.5 143.8 149 141.9 147.5 141.2C146.7 140.8 145.4 140.9 144.9 141.5C143.8 142.9 145.8 143.2 145.9 144.7C146 146.2 142.9 146.1 141.7 145C140.6 143.9 139.8 140.9 141.8 138.5C143.7 136.2 147.3 135.5 149.7 138.2C150.1 138.7 150.9 138.2 150.5 137.6C148.8 135.2 146.3 134.6 144 135.3C144.3 134.9 144.5 134.5 144.7 134.1C146.4 130.4 145.2 126.2 142.9 123.6C142.1 122.7 141.1 122 140 121.5C139.6 120.5 139.5 119.4 140 118.4C140.3 117.7 140.9 117.1 141.6 116.9C142.1 116.8 143.1 116.9 143.7 117.4C143.5 117.3 143.2 117.3 143 117.6C142 118.8 143.7 120.2 144.8 119.3C146.3 118 144.6 116 143.2 115.6C141.4 115.1 139.6 116.1 138.9 117.8L138 94.5C138.7 93.9 139.2 93.2 139.5 92.5C139.9 91.6 140.1 90.7 140 89.7C139.9 88.7 139.6 87.7 138.9 87C138.7 86.8 138.5 86.6 138.3 86.4C138.3 85.7 138.4 85 138.6 84.4C139.5 81.8 143.2 81.5 143.7 83.7C143.7 83.8 144.2 86.3 141.7 85.9C142.6 86 142.8 84.6 142 84.4C141.1 84.1 140.3 84.7 140.3 85.7C140.3 87.1 142 88 143.3 87.4C144.6 86.7 145.2 84.7 144.8 83.3C143.9 80.6 138.9 80.3 137.5 84.4C137.4 84.8 137.3 85.3 137.3 85.7C136.3 85.1 135.1 84.8 133.9 84.8C130.5 85 127.4 88 127.5 92.5C127.5 94.3 128 95.9 128.5 97.5C129 99 129.7 100.5 130.3 101.9C125.7 107.1 122.5 112.4 120.7 119.8C120.2 122 119.9 124.2 120 126.5C120 126.6 120 126.8 120 126.9C119.7 126.9 119.4 126.9 119.1 126.9C116.8 127 114.6 127.4 112.5 128.1C105.2 130.4 100.2 134 95.3 138.9C93.8 138.3 92.3 137.8 90.7 137.4C89.1 137 87.4 136.7 85.6 136.7C81.1 136.9 78.3 140.2 78.3 143.6C78.3 144.8 78.7 146 79.4 146.9C79 146.9 78.5 147.1 78.1 147.2C74.2 148.7 74.8 153.7 77.6 154.4ZM115 137.9C115.9 138.1 116.8 137.9 117.6 137.4C117.1 137.8 116.7 138.2 116.3 138.6C116.2 138.8 116 139 115.9 139.2C115.7 138.7 115.4 138.2 115 137.9ZM114.9 143.4C114.9 143.7 114.9 144 115 144.3H113.6C113.7 144.2 113.9 144.1 114 144.1C114.3 143.9 114.6 143.7 114.9 143.4ZM127.5 148.5C124.1 150.3 119.4 148.3 118.3 145.3C116.7 141.3 120.4 138.7 121.9 140.3C122.7 141.1 124 141.1 124.8 140.3C127 138.1 123.2 135.2 119.7 136.2C119 136.4 118.4 136.7 117.8 137.1C118.7 136.4 119.2 135.2 118.9 134C118.6 132.8 117 131.9 116 132.3C115.3 132.6 115.1 133.5 115.3 134C115.6 134.7 116.8 134.9 117.1 134.1C118.1 135.5 116.5 136.6 115.5 136.5C114.5 136.3 113.9 136 113.4 135.1C112.7 133.6 113.3 132.1 114.3 130.9C115.7 129.3 117.4 128.8 119.3 128.4C119.5 128.4 119.7 128.4 119.9 128.4C120.1 130 120.6 131.5 121.2 132.9C122.9 136.4 126 138.9 129.4 139.9C129.8 141.2 130.4 142.4 131.3 143.3C130.9 145.7 129.4 147.5 127.5 148.5ZM133.8 144.9C134 145 134.3 145.1 134.5 145.2C133.9 145.4 133.4 145.6 132.9 145.9C133.1 145.5 133.3 145.1 133.4 144.6C133.6 144.8 133.6 144.9 133.8 144.9ZM138.7 139.7C138.7 139.6 138.6 139.6 138.6 139.5C138.9 139.4 139.2 139.2 139.5 139.1C139.3 139.5 139.2 139.9 139.1 140.4C138.9 140.1 138.8 139.9 138.7 139.7ZM136.7 140.9C137.2 141.7 137.4 142.6 137.5 143.5C136.6 143.5 135.7 143.3 134.9 142.9C132.9 141.9 132 140.1 131.7 138.1C133.7 138.1 135.6 139 136.7 140.9ZM129.4 136C129.4 136.6 129.4 137.2 129.4 137.8C126.7 136.8 124.4 134.9 123.1 132.2C122.5 131.1 122.2 129.9 121.9 128.6C123 128.8 124.1 129.1 125.1 129.5C128.1 130.7 130.3 133.1 131.4 135.9C130.8 135.9 130.1 135.9 129.4 136ZM142.3 133.2C141.4 135.3 139.5 136.9 137.1 137.8C136.1 136.9 134.9 136.4 133.6 136.1C132.4 132.4 129.7 129.3 125.8 127.8C124.5 127.3 123.1 127 121.7 126.8C121.7 126.7 121.7 126.7 121.7 126.6C121.9 124.7 122.3 122.9 123.9 121.4C125 120.3 126.5 119.6 128 120.2C128.9 120.6 129.3 121.2 129.5 122.2C129.7 123.2 128.7 124.9 127.3 124C128.1 123.6 127.8 122.4 127.1 122.2C126.6 122 125.7 122.3 125.4 123C125.1 124 126 125.6 127.3 125.8C128.6 126 129.7 125.4 130.3 124.5C130 125.1 129.7 125.7 129.6 126.4C128.8 130 132 133.5 134 131.2C134.7 130.3 134.6 129.1 133.8 128.3C132.1 126.9 134.5 123.1 138.6 124.3C141.6 125.2 143.9 129.7 142.3 133.2ZM137.4 120.9C137.1 120.9 136.8 120.9 136.5 120.9C136.7 120.6 137 120.3 137.2 119.9C137.3 119.8 137.3 119.6 137.4 119.5V120.9ZM130.9 121.4C131.3 121.7 131.8 122 132.3 122.2C132.1 122.3 131.9 122.5 131.7 122.6C131.3 123 130.9 123.5 130.6 124C131 123.2 131.1 122.3 130.9 121.4ZM129.3 92.3C129.3 88.5 131.8 86.5 134 86.5C135.4 86.4 136.8 87.2 137.5 88.1C138.3 89.1 138.3 90.5 137.8 91.8C137.3 93 136.1 93.9 135 93.7C134.5 93.7 133.9 93.3 133.5 92.9C133.1 92.5 133.1 92.1 133.2 91.6C133.4 91.1 133.8 90.7 134.1 90.7C134.3 90.7 134.4 90.7 134.4 90.7C134.4 90.7 134.4 90.7 134.4 90.9C134.3 91.4 134.6 91.9 135.1 92.1C135.6 92.2 136.2 91.9 136.3 91.4C136.5 90.8 136.4 89.9 135.8 89.4C135.2 88.8 134.4 88.7 133.8 88.8C132.5 89 131.7 90.1 131.4 91.1C131.2 91.6 131.2 92.2 131.3 92.8C131.4 93.4 131.7 93.9 132.1 94.3C132.5 94.7 132.9 95 133.4 95.2C133.8 95.4 134.4 95.6 134.9 95.6C135.5 95.6 136 95.6 136.6 95.4L137.2 112.7C136.9 111.8 136.6 110.9 136.2 110.1C134.4 105.7 131.6 101 130.3 96.9C129.7 95.3 129.3 93.8 129.3 92.3ZM131 103.2C131.2 103.4 131.3 103.7 131.4 104C131.5 105 131.6 106.1 131.6 107.1C131.6 109.3 131.2 110.2 131.1 110.7C130.7 112.2 129.2 113.5 128.1 112.3C128.6 111.3 128.1 110.1 127 110.3C125.7 110.6 125.7 111.9 126.2 112.9C127.2 114.8 129 114.4 129.7 114.1C130.7 113.6 131.4 112.7 131.8 111.7C132.5 110 132.6 108 132.4 106.1V106.2C133.8 109.1 135.4 112 136.1 115C137.1 119.2 134.6 121.7 132.6 120.9C129.5 119.7 131.2 116.6 132.4 117.6C132.8 117.9 132.7 118.1 132.7 118C132.5 118.5 132.7 119.1 133.2 119.3C133.7 119.5 134.3 119.3 134.5 118.8C135.4 116.4 131.3 114.3 129.7 117.5C129.4 118.2 129.3 118.9 129.5 119.6C128.1 118.5 126 118.4 124.3 119.4C123.2 120 122.3 121 121.7 122.2C121.8 121.5 121.9 120.8 122.1 120.1C123.8 113.1 127.1 107.8 131 103.2ZM96.8 139.2C101.1 135 106.2 131.4 113 129.4C113.7 129.2 114.4 129 115.1 128.9C114 129.6 113.1 130.6 112.5 131.7C111.7 133.4 111.9 135.5 113.1 136.8C112.4 136.7 111.7 136.7 111 137.1C107.9 138.9 110.3 142.8 112.6 141.8C113.1 141.5 113.3 141 113 140.5C112.7 140 112.2 139.8 111.7 140.1C111.9 140.1 111.7 140.3 111.3 139.9C110.3 138.7 113.2 136.8 114.6 139.8C115.5 141.7 113.2 144.4 108.9 143.7C105.8 143.2 102.9 141.9 99.9 140.6H99.8C101.7 140.7 103.7 140.4 105.3 139.6C106.3 139.1 107.2 138.3 107.6 137.3C107.9 136.6 108.2 134.7 106.2 133.8C105.2 133.4 103.8 133.5 103.6 134.7C103.4 135.8 104.7 136.2 105.6 135.6C106.9 136.6 105.7 138.3 104.2 138.7C103.7 138.9 102.8 139.3 100.6 139.5C99.6 139.6 98.5 139.5 97.5 139.5C97.4 139.5 97.1 139.3 96.8 139.2ZM85.8 138.2C87.3 138.1 88.8 138.4 90.3 138.8C94.5 139.9 99.4 142.3 103.9 143.8C104.8 144.1 105.7 144.4 106.6 144.6L89.3 145.2C89.4 144.7 89.5 144.1 89.4 143.5C89.3 143 89.1 142.5 88.9 142C88.6 141.6 88.3 141.2 87.9 140.8C87.5 140.5 86.9 140.2 86.3 140.1C85.7 140 85.1 140.1 84.6 140.3C83.6 140.7 82.7 141.6 82.5 142.9C82.4 143.5 82.6 144.3 83.2 144.8C83.8 145.4 84.7 145.4 85.3 145.2C85.8 145 86.1 144.5 85.9 143.9C85.7 143.4 85.2 143.1 84.7 143.3C84.5 143.4 84.5 143.3 84.5 143.3C84.5 143.3 84.4 143.2 84.4 143C84.4 142.7 84.8 142.2 85.3 142C85.8 141.8 86.2 141.9 86.6 142.2C87 142.5 87.4 143.1 87.5 143.6C87.7 144.7 86.9 146 85.7 146.6C84.5 147.2 83.1 147.3 82 146.5C81 145.9 80.2 144.5 80.2 143.1C80.2 141.1 82 138.5 85.8 138.2Z" fill="#D2A96A"/>
    <path d="M87 89.5C102 74.5 106.7 57.4 99.3 49.9C91.9 42.4 74.9 47.4 59.9 62.4C44.9 77.4 39.9 94.3 47.4 101.8C54.9 109.3 72 104.5 87 89.5Z" fill="#AC6A00"/>
    <path d="M79.6 76.6C80.2 77.2 80.7 77.7 81.3 78.3C83.2 80.2 85.9 80.4 87.3 78.8C87.3 78.8 87.3 78.8 87.3 78.7C88.7 77.1 88.3 74.3 86.5 72.5C86 72 85.4 71.4 84.9 70.9C83.1 69.1 80.5 68.9 79 70.4C79 70.4 79 70.4 78.9 70.5C77.4 71.9 77.7 74.7 79.6 76.6Z" fill="#E39510"/>
    <path d="M74 82.1C74.6 82.7 75.1 83.2 75.7 83.8C77.6 85.7 80.4 86 81.9 84.5C81.9 84.5 81.9 84.5 82 84.4C83.5 82.9 83.2 80.1 81.3 78.2C80.7 77.6 80.2 77.1 79.6 76.5C77.7 74.6 75 74.4 73.5 75.9C73.5 75.9 73.5 75.9 73.4 76C71.9 77.5 72.2 80.3 74 82.1Z" fill="#E39510"/>
    <path d="M99.3 49.9C100.6 48.7 100.8 47 99.8 46.1C99.5 45.8 99.2 45.5 98.9 45.2C98 44.3 95.9 44 94.2 44.8C94.2 44.8 94.2 44.8 94.1 44.8C92.5 45.6 92.2 47.4 93.5 48.6C93.9 49 94.3 49.3 94.6 49.7C96 51.1 98 51.1 99.3 49.9Z" fill="#E39510"/>
    <path d="M84.9 70.9C85.4 71.4 86 72 86.5 72.5C88.3 74.3 90.9 74.4 92.1 72.8C92.1 72.8 92.1 72.8 92.1 72.7C93.4 71 93 68.3 91.4 66.7C90.9 66.2 90.4 65.7 89.9 65.2C88.2 63.6 85.7 63.4 84.3 64.9C84.3 64.9 84.3 64.9 84.2 65C82.9 66.4 83.1 69.1 84.9 70.9Z" fill="#E39510"/>
    <path d="M104.3 54.9C104.3 54.9 104.4 54.9 104.3 54.9C105.2 53.3 105.1 51.4 104.2 50.5C103.9 50.2 103.6 49.9 103.3 49.6C102.4 48.7 100.6 48.7 99.3 49.8C98 50.9 98 53 99.3 54.2C99.7 54.6 100.1 54.9 100.4 55.3C101.6 56.7 103.4 56.4 104.3 54.9Z" fill="#E39510"/>
    <path d="M104.3 54.9C104.3 54.9 104.4 54.9 104.3 54.9C105.2 53.3 105.1 51.4 104.2 50.5C103.9 50.2 103.6 49.9 103.3 49.6C102.4 48.7 100.6 48.7 99.3 49.8C98 50.9 98 53 99.3 54.2C99.7 54.6 100.1 54.9 100.4 55.3C101.6 56.7 103.4 56.4 104.3 54.9Z" fill="#E39510"/>
    <path d="M90 65.2C90.5 65.7 91 66.2 91.5 66.7C93.2 68.4 95.5 68.4 96.7 66.7C96.7 66.7 96.7 66.7 96.7 66.6C97.8 64.9 97.5 62.4 96.1 60.9C95.7 60.5 95.2 60 94.8 59.6C93.3 58.2 91 58.1 89.6 59.5C88.1 60.9 88.3 63.5 90 65.2Z" fill="#E39510"/>
    <path d="M94.8 59.6C95.2 60 95.7 60.5 96.1 60.9C97.6 62.4 99.7 62.2 100.7 60.6C100.7 60.6 100.7 60.6 100.7 60.5C101.7 58.9 101.5 56.6 100.3 55.4C99.9 55 99.5 54.7 99.2 54.3C98 53.1 95.9 53.1 94.6 54.4C93.2 55.8 93.3 58.1 94.8 59.6Z" fill="#E39510"/>
    <path d="M78.4 64.4C77.9 63.9 77.3 63.3 76.8 62.8C75 61 72.2 60.6 70.7 62C70.7 62 70.7 62 70.6 62.1C69 63.5 69.3 66.3 71.1 68.1C71.7 68.7 72.2 69.2 72.8 69.8C74.7 71.7 77.4 71.9 78.9 70.4C78.9 70.4 78.9 70.4 79 70.3C80.5 68.8 80.2 66.2 78.4 64.4Z" fill="#E39510"/>
    <path d="M89.4 54.2C89 53.8 88.5 53.3 88.1 52.9C86.6 51.4 84.1 51.1 82.5 52.3C82.5 52.3 82.5 52.3 82.4 52.3C80.8 53.5 80.8 55.9 82.5 57.6C83 58.1 83.5 58.6 84 59.1C85.7 60.8 88.2 60.9 89.6 59.5C91 58 90.9 55.7 89.4 54.2Z" fill="#E39510"/>
    <path d="M94.7 49.8C94.3 49.4 93.9 49.1 93.6 48.7C92.4 47.5 90 47.2 88.4 48.2C88.4 48.2 88.4 48.2 88.3 48.2C86.7 49.2 86.5 51.3 88.1 52.8C88.5 53.2 89 53.7 89.4 54.1C90.9 55.6 93.2 55.7 94.5 54.3C95.9 53.1 95.9 51.1 94.7 49.8Z" fill="#E39510"/>
    <path d="M72.8 69.8C72.2 69.2 71.7 68.7 71.1 68.1C69.2 66.2 66.5 65.9 64.9 67.4C64.9 67.4 64.9 67.4 64.8 67.5C63.3 69 63.6 71.8 65.5 73.7C66.1 74.3 66.6 74.8 67.2 75.4C69.1 77.3 71.8 77.6 73.3 76C73.3 76 73.3 76 73.4 75.9C75 74.4 74.7 71.7 72.8 69.8Z" fill="#E39510"/>
    <path d="M67.3 75.4C66.7 74.8 66.2 74.3 65.6 73.7C63.7 71.8 61 71.6 59.6 73.2C59.6 73.2 59.6 73.2 59.5 73.3C58.1 74.9 58.4 77.6 60.2 79.4C60.7 79.9 61.3 80.5 61.8 81C63.6 82.8 66.3 83.1 67.8 81.6C67.8 81.6 67.8 81.6 67.9 81.5C69.4 80 69.2 77.2 67.3 75.4Z" fill="#E39510"/>
    <path d="M84 59.1C83.5 58.6 83 58.1 82.5 57.6C80.8 56 78.2 55.6 76.5 56.9C76.5 56.9 76.5 56.9 76.4 56.9C74.8 58.2 75 60.8 76.8 62.6C77.3 63.1 77.9 63.7 78.4 64.2C80.2 66 82.9 66.2 84.3 64.7C84.3 64.7 84.3 64.7 84.4 64.6C85.8 63.3 85.6 60.8 84 59.1Z" fill="#E39510"/>
    <path d="M95.6 87.1C95.6 87 95.6 87 95.6 87.1C97 85.3 96.5 82.4 94.7 80.6C96.5 82.4 99 82.4 100.1 80.6C100.1 80.6 100.1 80.6 100.1 80.5C101.2 78.6 100.7 75.8 99 74.1C100.7 75.8 102.9 75.6 103.8 73.6C103.8 73.6 103.8 73.6 103.8 73.5C104.7 71.6 104.2 68.8 102.8 67.4C104.3 68.9 106.2 68.5 106.9 66.6C106.9 66.6 106.9 66.6 106.9 66.5C107.6 64.6 107.2 62.1 105.9 60.9C105.5 60.5 105.1 60.2 104.8 59.8C103.6 58.6 101.8 58.9 100.7 60.4C100.7 60.4 100.7 60.4 100.7 60.5C99.6 62.1 99.9 64.6 101.4 66.1C99.9 64.7 97.9 64.8 96.7 66.5C96.7 66.5 96.7 66.5 96.7 66.6C95.5 68.3 95.9 71 97.5 72.6C95.9 71 93.5 71 92.2 72.6C92.2 72.6 92.2 72.6 92.2 72.7C90.9 74.4 91.3 77.1 93.1 78.9C91.3 77.1 88.8 77 87.4 78.6C87.4 78.6 87.4 78.6 87.4 78.7C86 80.3 86.3 83.1 88.2 85C88.8 85.6 89.3 86.1 89.9 86.7C91.6 88.6 94.3 88.8 95.6 87.1Z" fill="#E39510"/>
    <path d="M70.3 56.2C69.8 55.7 69.2 55.1 68.7 54.6C66.9 52.8 64 52.4 62.4 53.7C62.4 53.7 62.4 53.7 62.3 53.7C60.6 55.1 60.9 57.7 62.7 59.6C63.3 60.2 63.8 60.7 64.4 61.3C66.3 63.2 69 63.5 70.6 62C70.6 62 70.6 62 70.7 61.9C72.2 60.6 72.1 58 70.3 56.2Z" fill="#E39510"/>
    <path d="M76.4 51.6C75.9 51.1 75.4 50.6 74.9 50.1C73.2 48.4 70.4 47.9 68.6 49.1C68.6 49.1 68.6 49.1 68.5 49.1C66.7 50.3 66.8 52.8 68.6 54.6C69.1 55.1 69.7 55.7 70.2 56.2C72 58 74.8 58.3 76.4 57C76.4 57 76.4 57 76.5 57C78.1 55.6 78 53.2 76.4 51.6Z" fill="#E39510"/>
    <path d="M82.6 47.5C82.1 47.1 81.7 46.6 81.2 46.2C79.7 44.7 77 44.2 75.1 45.2C75.1 45.2 75.1 45.2 75 45.2C73.1 46.2 73 48.4 74.7 50.1C75.2 50.6 75.7 51.1 76.2 51.6C77.9 53.3 80.6 53.6 82.2 52.4C82.2 52.4 82.2 52.4 82.3 52.4C84 51.1 84.1 49 82.6 47.5Z" fill="#E39510"/>
    <path d="M89 44.2C88.6 43.8 88.2 43.4 87.9 43.1C86.7 41.9 84.1 41.3 82.1 42.1C82.1 42.1 82.1 42.1 82 42.1C80.1 42.8 79.8 44.7 81.3 46.2C81.8 46.6 82.2 47.1 82.7 47.5C84.2 49 86.7 49.3 88.3 48.2C88.3 48.2 88.3 48.2 88.4 48.2C89.9 47.2 90.2 45.4 89 44.2Z" fill="#E39510"/>
    <path d="M78.0001 72.9C78.4001 73.4 78.5001 73.6 80.3001 75.4C83.2001 78.3 87.3001 76.9 87.2001 73.3C86.8001 72.8 86.7001 72.7 84.9001 70.9C82.1001 68.1 78.0001 69.4 78.0001 72.9Z" fill="#F3D035"/>
    <path d="M93.7 47C95.5 48.8 98.5 47.9 99.2 45.6C99.1 45.5 99 45.4 98.8 45.2C97.3 43.7 93.6 44.2 92.8 46.1C93.2 46.4 93.5 46.7 93.7 47Z" fill="#F3D035"/>
    <path d="M90 65.2C87.4 62.6 83.4 64 83.4 67.3C83.7 67.8 83.8 67.8 85.6 69.6C88.4 72.4 92.1 70.8 92.1 67.3C91.7 66.9 91.7 66.8 90 65.2Z" fill="#F3D035"/>
    <path d="M99.4 52.6C101.2 54.4 103.7 53.1 104 50.3C103.8 50.1 103.6 49.9 103.3 49.6C101.8 48.1 98.8 49.2 98.3 51.5C98.7 51.9 99 52.2 99.4 52.6Z" fill="#F3D035"/>
    <path d="M94.8 59.6C93.3 58.2 91 58.1 89.6 59.5C89 60.1 88.7 60.9 88.7 61.8C89 62.1 89 62.1 90.6 63.8C93.1 66.3 96.5 64.8 96.5 61.3C96.3 61 96.2 61 94.8 59.6Z" fill="#F3D035"/>
    <path d="M95.2 58C97.4 60.2 100.4 58.7 100.5 55.5C100.4 55.4 100.7 55.6 99.3 54.3C97.4 52.4 93.9 53.7 93.7 56.4C93.7 56.6 93.7 56.6 95.2 58Z" fill="#F3D035"/>
    <path d="M76.8 62.7C74 59.9 69.6 61 69.6 64.5C70 65 70.1 65.1 71.9 66.9C74.8 69.8 79 68.5 79 65C78.7 64.6 78.5 64.5 76.8 62.7Z" fill="#F3D035"/>
    <path d="M83 56.3C85.6 58.9 89.3 57.6 89.6 54.5C89.5 54.3 89.5 54.4 88.1 53C85.8 50.7 81.5 51.6 81.2 54.5C81.4 54.6 81.3 54.6 83 56.3Z" fill="#F3D035"/>
    <path d="M88.4001 51.4C90.6001 53.6 94.0001 52.5 94.5001 49.8C94.2001 49.5 93.8001 49.1 93.5001 48.8C91.6001 46.9 87.5001 47.6 87.0001 50.1C87.2001 50.1 86.8001 49.7 88.4001 51.4Z" fill="#F3D035"/>
    <path d="M71.2001 68.1C68.3001 65.2 64.0001 66.4 64.0001 70C64.4001 70.5 64.5001 70.7 66.3001 72.5C69.2001 75.4 73.5001 74.1 73.5001 70.6C73.1001 70.1 73.0001 70 71.2001 68.1Z" fill="#F3D035"/>
    <path d="M77.5 61.5C80.3 64.3 84.3 63 84.4 59.6C84.2 59.3 84.1 59.3 82.5 57.6C79.9 55 75.5 56 75.4 59.2C75.6 59.7 75.7 59.7 77.5 61.5Z" fill="#F3D035"/>
    <path d="M63.4 58.5C66.3 61.4 70.6 60.2 70.7 56.8C70.4 56.4 70.4 56.4 68.6 54.6C65.8 51.8 61.2 52.7 61.1 56.1C61.5 56.6 61.6 56.6 63.4 58.5Z" fill="#F3D035"/>
    <path d="M69.3 53.3C72.1 56.1 76.4 55 76.7 51.9C76.5 51.7 76.5 51.7 74.9 50.1C72.3 47.5 67.6 48.1 67.3 51.3C67.5 51.6 67.5 51.6 69.3 53.3Z" fill="#F3D035"/>
    <path d="M75.4 48.7C78 51.3 82.1 50.3 82.7 47.6C82.6 47.5 81.4 46.3 81.3 46.2C79 43.9 74.3 44.3 73.7 47C73.8 47.2 73.7 47 75.4 48.7Z" fill="#F3D035"/>
    <path d="M81.7001 44.7C84.0001 46.9 87.8001 46.2 88.7001 43.9C88.4001 43.6 88.2001 43.4 87.9001 43.1C86.0001 41.2 81.4001 41.3 80.5001 43.5C80.9001 43.9 81.3001 44.3 81.7001 44.7Z" fill="#F3D035"/>
    <path d="M94.4 87.8C73.8 79.3 58.8 83.9 58.8 83.9L46.2 109.8C71.3 121.3 89.4 98.8 95.3 91C96.1 89.9 95.6 88.3 94.4 87.8Z" fill="#A4A530"/>
    <path d="M94.4 87.8C94.2 87.7 94 87.6 93.8 87.6L92.7 89C85.1 99.2 74 109.7 60.2 109.7C56.2 109.7 52 108.8 47.7 106.8L46.3 109.7C71.4 121.2 89.5 98.7 95.4 90.9C96.1 89.9 95.6 88.3 94.4 87.8Z" fill="#898A25"/>
    <path d="M62.1 50.7C66.2 58.4 75.2 82.3 46.2 109.7C23 86.5 50.2 57.7 58.4 50.1C59.5 49 61.4 49.3 62.1 50.7Z" fill="#B8BA38"/>
    <path d="M62.1 50.7C61.4 49.3 59.5 49 58.3 50.1C58.2 50.1 58.2 50.2 58.1 50.2L59.2 52.2C63.7 60.4 70.9 82 44 107.4C44.7 108.2 45.4 109 46.2 109.8C75.3 82.4 66.3 58.4 62.1 50.7Z" fill="#A4A530"/>
</svg>
