<svg width="152" height="157" viewBox="0 0 152 157" fill="none" xmlns="http://www.w3.org/2000/svg">
    <path d="M76 143.6C111.843 143.6 140.9 114.543 140.9 78.7C140.9 42.8567 111.843 13.8 76 13.8C40.1567 13.8 11.1 42.8567 11.1 78.7C11.1 114.543 40.1567 143.6 76 143.6Z" fill="#4D5B5B"/>
    <path d="M73.9 4.10001C72.5 3.70001 70.5 4.40001 69.9 5.70001C69.3 7.10001 70.3 8.80001 71.7 8.70001C72.6 8.60001 73.2 7.80001 72.9 7.00001C72.6 6.20001 71.2 6.50001 71.4 7.40001C70.9 4.90001 73.4 5.30001 73.5 5.30001C75.7 5.80001 75.6 9.50001 72.9 10.4C72.3 10.6 71.6 10.7 70.9 10.7C70.7 10.5 70.5 10.3 70.2 10.1C69.4 9.50001 68.4 9.20001 67.4 9.10001C66.4 9.10001 65.5 9.30001 64.6 9.70001C63.8 10.1 63.1 10.6 62.6 11.3H39.2C40.8 10.5 41.8 8.70001 41.3 6.90001C40.9 5.50001 38.8 3.80001 37.6 5.40001C36.7 6.50001 38.2 8.20001 39.3 7.20001C39.5 7.00001 39.6 6.70001 39.5 6.50001C40 7.00001 40.2 8.00001 40 8.60001C39.8 9.30001 39.2 10 38.6 10.3C37.6 10.8 36.5 10.8 35.5 10.4C35 9.30001 34.2 8.30001 33.3 7.60001C30.7 5.40001 26.4 4.30001 22.8 6.20001C22.3 6.50001 21.8 6.80001 21.4 7.10001C22.3 4.60001 21.8 1.70001 19.1 8.21054e-06C18.5 -0.399992 18.1 0.400008 18.5 0.800008C21.3 3.20001 20.7 6.80001 18.5 8.70001C16.2 10.7 13.1 10.1 12 9.00001C10.9 7.90001 10.7 4.70001 12.2 4.80001C13.6 4.90001 14.1 6.90001 15.4 5.70001C16.1 5.10001 16.1 3.80001 15.7 3.00001C14.9 1.50001 13 1.00001 11.5 1.70001C9.70001 2.50001 8.89999 4.60001 9.09999 6.40001C9.19999 7.70001 9.70003 8.70001 10.4 9.50001C9.60003 8.80001 8.5 8.30001 7.3 8.20001C5.5 8.00001 3.39999 8.90001 2.59999 10.6C1.89999 12.1 2.40003 14 3.90003 14.8C4.70003 15.2 5.99999 15.2 6.59999 14.5C7.79999 13.2 5.80002 12.7 5.70002 11.3C5.60002 9.80001 8.80003 10 9.90003 11.1C11 12.2 11.6 15.3 9.59999 17.6C7.69999 19.8 4.00002 20.4 1.70002 17.6C1.30002 17.1 0.500034 17.6 0.900034 18.2C2.50003 20.7 5 21.3 7.3 20.7C7 21.1 6.79999 21.5 6.59999 21.9C4.69999 25.5 5.80001 29.8 8.00001 32.4C8.70001 33.3 9.7 34.1 10.8 34.6C11.1 35.6 11.2 36.7 10.7 37.7C10.4 38.3 9.70001 39 9.00001 39.1C8.50001 39.2 7.50003 39.1 6.90003 38.6C7.10003 38.7 7.39999 38.7 7.59999 38.4C8.59999 37.3 7 35.8 5.8 36.7C4.2 37.9 5.9 40 7.3 40.4C9.1 41 10.9 40 11.7 38.3V62C11 62.5 10.5 63.2 10.1 64C9.69999 64.9 9.50001 65.8 9.50001 66.8C9.50001 67.8 9.90001 68.8 10.5 69.6C10.7 69.8 10.9 70.1 11.1 70.3C11.1 71 11 71.7 10.8 72.3C9.8 74.9 6.10002 75.1 5.70002 72.9C5.70002 72.8 5.3 70.3 7.8 70.8C6.9 70.6 6.60003 72 7.40003 72.3C8.30003 72.6 9.09999 72 9.09999 71.1C9.19999 69.7 7.49999 68.7 6.09999 69.3C4.69999 69.9 4.10001 71.9 4.50001 73.3C5.30001 76.1 10.3 76.5 11.9 72.4C12.1 72 12.2 71.5 12.2 71.1C13.2 71.7 14.4 72.1 15.6 72.1C19 72 22.2 69.1 22.3 64.6C22.3 62.8 21.9 61.2 21.5 59.6C21 58 20.4 56.6 19.8 55.1C24.5 50 28 44.9 30 37.6C30.6 35.5 31 33.2 30.9 31C30.9 30.9 30.9 30.7 30.9 30.6C31.2 30.6 31.5 30.6 31.8 30.6C34.1 30.6 36.3 30.2 38.4 29.7C45.7 27.7 50.9 24.2 55.9 19.5C57.4 20.1 58.9 20.7 60.4 21.2C62 21.7 63.7 22 65.4 22C69.9 22 72.8 18.7 72.9 15.3C72.9 14.1 72.5 12.9 71.9 11.9C72.3 11.9 72.8 11.8 73.2 11.6C77.1 10 76.6 5.00001 73.9 4.10001ZM36 19.5C35.1 19.3 34.2 19.4 33.4 19.9C33.9 19.6 34.3 19.2 34.7 18.7C34.9 18.5 35 18.3 35.1 18.1C35.3 18.6 35.6 19.1 36 19.5ZM36.3 13.9C36.3 13.6 36.3 13.3 36.2 13H37.6C37.5 13.1 37.3 13.1 37.2 13.2C36.8 13.4 36.5 13.6 36.3 13.9ZM23.8 8.40001C27.3 6.70001 31.9 8.90001 32.9 11.9C34.3 15.9 30.6 18.4 29.1 16.8C28.3 16 27 15.9 26.2 16.7C23.9 18.8 27.6 21.8 31.1 21C31.8 20.8 32.4 20.5 33 20.2C32.1 20.9 31.5 22 31.8 23.3C32.1 24.5 33.6 25.5 34.6 25.1C35.3 24.8 35.6 23.9 35.4 23.4C35.1 22.7 34 22.4 33.6 23.3C32.7 21.9 34.3 20.8 35.3 21C36.3 21.2 36.9 21.6 37.3 22.5C38 24 37.3 25.5 36.2 26.6C34.8 28.2 33 28.6 31.1 28.9C30.9 28.9 30.7 28.9 30.5 28.9C30.3 27.3 30 25.8 29.3 24.3C27.8 20.7 24.8 18.2 21.3 17C21 15.7 20.4 14.5 19.5 13.5C20.3 11.1 21.9 9.30001 23.8 8.40001ZM17.5 11.8C17.3 11.7 17 11.5 16.8 11.4C17.4 11.2 17.9 11 18.4 10.7C18.2 11.1 18 11.5 17.8 11.9C17.7 11.9 17.6 11.8 17.5 11.8ZM12.4 16.8C12.4 16.9 12.5 16.9 12.5 17C12.2 17.1 11.9 17.2 11.5 17.4C11.7 17 11.9 16.6 12 16.1C12.1 16.4 12.3 16.6 12.4 16.8ZM14.4 15.7C14 14.9 13.7 14 13.7 13.1C14.6 13.1 15.5 13.3 16.3 13.8C18.2 14.8 19.1 16.7 19.3 18.7C17.3 18.5 15.4 17.7 14.4 15.7ZM21.5 20.9C21.6 20.3 21.6 19.7 21.6 19.1C24.2 20.2 26.5 22.2 27.7 24.9C28.2 26 28.6 27.3 28.8 28.5C27.7 28.3 26.6 28 25.6 27.5C22.7 26.2 20.6 23.7 19.6 20.9C20.1 20.9 20.8 20.9 21.5 20.9ZM8.50001 23.2C9.40001 21.2 11.4 19.6 13.9 18.8C14.9 19.7 16 20.3 17.3 20.6C18.4 24.3 21 27.5 24.8 29.2C26.1 29.8 27.5 30.1 28.9 30.3C28.9 30.4 28.9 30.4 28.9 30.5C28.6 32.4 28.1 34.2 26.6 35.6C25.5 36.6 24 37.3 22.5 36.7C21.6 36.3 21.2 35.7 21 34.7C20.8 33.7 21.9 32.1 23.3 33C22.5 33.4 22.7 34.6 23.4 34.8C23.9 35 24.8 34.7 25.1 34C25.5 33 24.5 31.4 23.3 31.2C22 30.9 20.9 31.5 20.2 32.4C20.5 31.8 20.8 31.2 21 30.5C21.9 27 18.9 23.3 16.7 25.6C15.9 26.4 16 27.7 16.8 28.5C18.4 30 15.9 33.7 11.9 32.3C9.00003 31.2 6.80001 26.7 8.50001 23.2ZM13.1 35.6C13.4 35.6 13.7 35.6 14 35.7C13.8 36 13.5 36.3 13.3 36.6C13.2 36.7 13.1 36.9 13.1 37V35.6V35.6ZM19.6 35.4C19.2 35 18.7 34.8 18.2 34.6C18.4 34.5 18.6 34.3 18.8 34.2C19.3 33.8 19.6 33.3 20 32.9C19.5 33.5 19.3 34.5 19.6 35.4ZM20.2 64.5C20.1 68.3 17.5 70.2 15.3 70.2C13.9 70.2 12.5 69.4 11.9 68.5C11.1 67.5 11.1 66.1 11.7 64.8C12.2 63.6 13.4 62.8 14.6 62.9C15.1 63 15.7 63.3 16.1 63.7C16.4 64.1 16.5 64.5 16.3 65C16.1 65.5 15.7 65.9 15.4 65.9C15.2 65.9 15.1 65.9 15.1 65.9C15.1 65.9 15.1 65.9 15.1 65.7C15.2 65.2 14.9 64.7 14.4 64.5C13.9 64.3 13.3 64.6 13.2 65.1C13 65.7 13.1 66.6 13.6 67.2C14.2 67.8 14.9 68 15.6 67.9C16.9 67.7 17.8 66.7 18.1 65.7C18.3 65.2 18.4 64.6 18.3 64C18.2 63.4 17.9 62.9 17.5 62.5C17.1 62.1 16.7 61.8 16.3 61.5C15.9 61.3 15.3 61.1 14.8 61C14.2 60.9 13.7 61 13.1 61.2V43.9C13.4 44.8 13.7 45.7 14 46.6C15.7 51 18.2 55.9 19.5 60C19.9 61.5 20.2 63 20.2 64.5ZM18.8 53.6C18.6 53.4 18.5 53.1 18.4 52.8C18.4 51.8 18.3 50.7 18.3 49.7C18.4 47.5 18.8 46.6 18.9 46.1C19.3 44.6 20.9 43.4 22 44.6C21.4 45.5 21.9 46.8 23 46.6C24.3 46.4 24.3 45 23.9 44C23 42 21.1 42.4 20.4 42.7C19.4 43.1 18.6 44.1 18.2 45C17.4 46.7 17.3 48.6 17.4 50.6V50.5C16.1 47.6 14.6 44.6 14 41.6C13.2 37.3 15.8 35 17.7 35.8C20.8 37.1 18.9 40.1 17.8 39.1C17.4 38.8 17.5 38.5 17.5 38.7C17.7 38.2 17.5 37.6 17 37.4C16.5 37.2 15.9 37.4 15.7 37.9C14.8 40.3 18.8 42.5 20.5 39.4C20.9 38.7 20.9 38 20.8 37.3C22.2 38.5 24.3 38.6 26 37.7C27.1 37.1 28 36.2 28.7 35C28.6 35.7 28.4 36.4 28.3 37.1C26.3 43.9 22.9 49.1 18.8 53.6ZM54.2 18.7C49.7 22.7 44.5 26.2 37.7 28C37 28.2 36.3 28.3 35.6 28.4C36.7 27.7 37.7 26.8 38.3 25.7C39.2 24 39.1 21.9 37.9 20.5C38.6 20.7 39.3 20.6 40 20.2C43.2 18.5 40.9 14.5 38.5 15.4C38 15.6 37.8 16.2 38 16.7C38.2 17.2 38.8 17.4 39.3 17.2C39.1 17.2 39.3 17 39.7 17.5C40.7 18.7 37.7 20.5 36.4 17.4C35.6 15.4 37.9 12.8 42.2 13.7C45.2 14.3 48.2 15.7 51.1 17.1H51.2C49.3 17 47.3 17.1 45.6 17.9C44.6 18.3 43.7 19.1 43.3 20.1C43 20.8 42.6 22.7 44.6 23.6C45.6 24.1 46.9 24 47.2 22.7C47.4 21.6 46.1 21.1 45.2 21.7C44 20.6 45.1 19 46.7 18.6C47.2 18.4 48.1 18 50.3 18C51.4 18 52.4 18 53.4 18.1C53.6 18.5 53.9 18.6 54.2 18.7ZM65.1 20.1C63.6 20.1 62.1 19.8 60.6 19.4C56.4 18.2 51.6 15.6 47.2 13.9C46.4 13.6 45.5 13.3 44.5 13H61.8C61.6 13.5 61.6 14.1 61.6 14.7C61.7 15.2 61.8 15.8 62.1 16.2C62.3 16.6 62.7 17.1 63.1 17.4C63.5 17.8 64 18 64.6 18.2C65.2 18.3 65.8 18.2 66.3 18C67.3 17.6 68.3 16.8 68.5 15.5C68.6 14.9 68.4 14.1 67.8 13.5C67.2 12.9 66.3 12.9 65.7 13.1C65.2 13.3 64.9 13.8 65.1 14.3C65.3 14.8 65.8 15.1 66.3 15C66.5 14.9 66.5 15 66.5 15C66.5 15 66.6 15.1 66.5 15.3C66.5 15.6 66.1 16 65.6 16.2C65.1 16.4 64.7 16.3 64.3 16C63.9 15.7 63.6 15.1 63.5 14.5C63.4 13.3 64.1 12.1 65.4 11.6C66.6 11 68 11 69.1 11.8C70 12.5 70.8 13.9 70.8 15.2C70.8 17.4 68.9 20 65.1 20.1Z" fill="#D2A96A"/>
    <path d="M78.2 154.4C79.6 154.8 81.6 154 82.2 152.7C82.8 151.3 81.7 149.6 80.3 149.8C79.4 149.9 78.8 150.7 79.1 151.6C79.4 152.4 80.8 152.1 80.6 151.2C81.2 153.7 78.6 153.3 78.6 153.3C76.4 152.9 76.4 149.2 79 148.1C79.6 147.9 80.3 147.8 81 147.7C81.2 147.9 81.4 148.1 81.7 148.3C82.5 148.9 83.5 149.2 84.5 149.2C85.5 149.2 86.4 148.9 87.3 148.5C88 148.1 88.7 147.6 89.2 146.8L112.6 146C111 146.9 110.1 148.7 110.7 150.4C111.2 151.7 113.3 153.4 114.5 151.8C115.3 150.6 113.8 149 112.7 150.1C112.5 150.3 112.5 150.6 112.6 150.8C112.1 150.3 111.9 149.3 112 148.8C112.1 148.1 112.7 147.4 113.4 147.1C114.4 146.5 115.4 146.6 116.5 146.9C117.1 148 117.9 148.9 118.8 149.6C121.5 151.7 125.8 152.6 129.4 150.6C129.9 150.3 130.4 150 130.8 149.6C130 152.1 130.6 155 133.3 156.6C133.9 156.9 134.3 156.1 133.8 155.7C130.9 153.4 131.4 149.8 133.5 147.8C135.7 145.7 138.8 146.2 140 147.3C141.2 148.4 141.5 151.6 140 151.5C138.5 151.5 138.1 149.4 136.8 150.7C136.1 151.3 136.2 152.6 136.6 153.4C137.4 154.9 139.3 155.3 140.8 154.6C142.5 153.7 143.3 151.7 143.1 149.8C142.9 148.5 142.4 147.5 141.7 146.7C142.5 147.4 143.6 147.9 144.9 147.9C146.7 148 148.8 147.1 149.5 145.3C150.1 143.8 149.6 141.9 148.1 141.2C147.3 140.8 146 140.9 145.5 141.5C144.4 142.9 146.4 143.2 146.5 144.7C146.6 146.2 143.5 146.1 142.3 145C141.2 143.9 140.4 140.9 142.4 138.5C144.3 136.2 147.9 135.5 150.3 138.2C150.7 138.7 151.5 138.2 151.1 137.6C149.4 135.2 146.9 134.6 144.6 135.3C144.9 134.9 145.1 134.5 145.3 134.1C147 130.4 145.8 126.2 143.5 123.6C142.7 122.7 141.7 122 140.6 121.5C140.2 120.5 140.1 119.4 140.6 118.4C140.9 117.7 141.5 117.1 142.2 116.9C142.7 116.8 143.7 116.9 144.3 117.4C144.1 117.3 143.8 117.3 143.6 117.6C142.6 118.8 144.3 120.2 145.4 119.3C146.9 118 145.2 116 143.8 115.6C142 115.1 140.2 116.1 139.5 117.8L138.7 94.4C139.4 93.8 139.9 93.1 140.2 92.4C140.6 91.5 140.8 90.6 140.7 89.6C140.6 88.6 140.3 87.6 139.6 86.9C139.4 86.7 139.2 86.5 139 86.3C139 85.6 139.1 84.9 139.3 84.3C140.2 81.7 143.9 81.4 144.4 83.6C144.4 83.7 144.9 86.2 142.4 85.8C143.3 85.9 143.5 84.5 142.7 84.3C141.8 84 141 84.6 141 85.6C141 87 142.7 87.9 144 87.3C145.3 86.6 145.9 84.6 145.5 83.2C144.6 80.5 139.6 80.2 138.2 84.3C138.1 84.7 138 85.2 138 85.6C137 85 135.8 84.7 134.6 84.7C131.2 84.9 128.1 87.9 128.2 92.4C128.2 94.2 128.7 95.8 129.2 97.4C129.7 98.9 130.4 100.4 131 101.8C126.4 107 123.2 112.3 121.4 119.7C120.9 121.9 120.6 124.1 120.7 126.4C120.7 126.5 120.7 126.7 120.7 126.8C120.4 126.8 120.1 126.8 119.8 126.8C117.5 126.9 115.3 127.3 113.2 128C105.9 130.3 100.9 133.9 96 138.8C94.5 138.2 93 137.7 91.4 137.3C89.8 136.9 88.1 136.6 86.3 136.6C81.8 136.8 79 140.1 79 143.5C79 144.7 79.4 145.9 80.1 146.8C79.7 146.8 79.2 147 78.8 147.1C74.9 148.7 75.5 153.7 78.2 154.4ZM115.6 137.9C116.5 138.1 117.4 137.9 118.2 137.4C117.7 137.8 117.3 138.2 116.9 138.6C116.8 138.8 116.6 139 116.5 139.2C116.3 138.7 116 138.2 115.6 137.9ZM115.5 143.4C115.5 143.7 115.5 144 115.6 144.3H114.2C114.3 144.2 114.5 144.1 114.6 144.1C114.9 143.9 115.2 143.7 115.5 143.4ZM128.2 148.5C124.8 150.3 120.1 148.3 119 145.3C117.4 141.3 121.1 138.7 122.6 140.3C123.4 141.1 124.7 141.1 125.5 140.3C127.7 138.1 123.9 135.2 120.4 136.2C119.7 136.4 119.1 136.7 118.5 137.1C119.4 136.4 119.9 135.2 119.6 134C119.3 132.8 117.7 131.9 116.7 132.3C116 132.6 115.8 133.5 116 134C116.3 134.7 117.5 134.9 117.8 134.1C118.8 135.5 117.2 136.6 116.2 136.5C115.2 136.3 114.6 136 114.1 135.1C113.4 133.6 114 132.1 115 130.9C116.4 129.3 118.1 128.8 120 128.4C120.2 128.4 120.4 128.4 120.6 128.4C120.8 130 121.3 131.5 121.9 132.9C123.6 136.4 126.7 138.9 130.1 139.9C130.5 141.2 131.1 142.4 132 143.3C131.5 145.7 130 147.5 128.2 148.5ZM134.4 144.9C134.6 145 134.9 145.1 135.1 145.2C134.5 145.4 134 145.6 133.5 145.9C133.7 145.5 133.9 145.1 134 144.6C134.2 144.8 134.3 144.9 134.4 144.9ZM139.3 139.7C139.3 139.6 139.2 139.6 139.2 139.5C139.5 139.4 139.8 139.2 140.1 139.1C139.9 139.5 139.8 139.9 139.7 140.4C139.5 140.1 139.4 139.9 139.3 139.7ZM137.3 140.9C137.8 141.7 138 142.6 138.1 143.5C137.2 143.5 136.3 143.3 135.5 142.9C133.5 141.9 132.6 140.1 132.3 138.1C134.3 138.1 136.2 139 137.3 140.9ZM130.1 136C130.1 136.6 130.1 137.2 130.1 137.8C127.4 136.8 125.1 134.9 123.8 132.2C123.2 131.1 122.9 129.9 122.6 128.6C123.7 128.8 124.8 129.1 125.8 129.5C128.8 130.7 131 133.1 132.1 135.9C131.4 135.9 130.7 135.9 130.1 136ZM143 133.2C142.1 135.3 140.2 136.9 137.8 137.8C136.8 136.9 135.6 136.4 134.3 136.1C133.1 132.4 130.4 129.3 126.5 127.8C125.2 127.3 123.8 127 122.4 126.8C122.4 126.7 122.4 126.7 122.4 126.6C122.6 124.7 123 122.9 124.6 121.4C125.7 120.3 127.2 119.6 128.7 120.2C129.6 120.6 130 121.2 130.2 122.2C130.4 123.2 129.4 124.9 128 124C128.8 123.6 128.5 122.4 127.8 122.2C127.3 122 126.4 122.3 126.1 123C125.8 124 126.7 125.6 128 125.8C129.3 126 130.4 125.4 131 124.5C130.7 125.1 130.4 125.7 130.3 126.4C129.5 130 132.7 133.5 134.7 131.2C135.4 130.3 135.3 129.1 134.5 128.3C132.8 126.9 135.2 123.1 139.3 124.3C142.2 125.2 144.5 129.7 143 133.2ZM138 120.9C137.7 120.9 137.4 120.9 137.1 120.9C137.3 120.6 137.6 120.3 137.8 119.9C137.9 119.8 137.9 119.6 138 119.5V120.9ZM131.5 121.4C131.9 121.7 132.4 122 132.9 122.2C132.7 122.3 132.5 122.5 132.3 122.6C131.9 123 131.5 123.5 131.2 124C131.6 123.2 131.8 122.3 131.5 121.4ZM129.9 92.3C129.9 88.5 132.4 86.5 134.6 86.5C136 86.4 137.4 87.2 138.1 88.1C138.9 89.1 138.9 90.5 138.4 91.8C137.9 93 136.7 93.9 135.6 93.7C135.1 93.7 134.5 93.3 134.1 92.9C133.7 92.5 133.7 92.1 133.8 91.6C134 91.1 134.4 90.7 134.7 90.7C134.9 90.7 135 90.7 135 90.7C135 90.7 135 90.7 135 90.9C134.9 91.4 135.2 91.9 135.7 92.1C136.2 92.2 136.8 91.9 136.9 91.4C137.1 90.8 137 89.9 136.4 89.4C135.8 88.8 135 88.7 134.4 88.8C133.1 89 132.3 90.1 132 91.1C131.8 91.6 131.8 92.2 131.9 92.8C132 93.4 132.3 93.9 132.7 94.3C133.1 94.7 133.5 95 134 95.2C134.4 95.4 135 95.6 135.5 95.6C136.1 95.6 136.6 95.6 137.2 95.4L137.8 112.7C137.5 111.8 137.2 110.9 136.8 110.1C135 105.7 132.2 101 130.9 96.9C130.3 95.3 129.9 93.8 129.9 92.3ZM131.6 103.2C131.8 103.4 131.9 103.7 132 104C132.1 105 132.2 106.1 132.2 107.1C132.2 109.3 131.8 110.2 131.7 110.7C131.3 112.2 129.8 113.5 128.7 112.3C129.2 111.3 128.7 110.1 127.6 110.3C126.3 110.6 126.3 111.9 126.8 112.9C127.8 114.8 129.6 114.4 130.3 114.1C131.3 113.6 132 112.7 132.4 111.7C133.1 110 133.2 108 133 106.1V106.2C134.4 109.1 136 112 136.7 115C137.7 119.2 135.2 121.7 133.2 120.9C130.1 119.7 131.8 116.6 133 117.6C133.4 117.9 133.3 118.1 133.3 118C133.1 118.5 133.3 119.1 133.8 119.3C134.3 119.5 134.9 119.3 135.1 118.8C136 116.4 131.9 114.3 130.3 117.5C130 118.2 129.9 118.9 130.1 119.6C128.7 118.5 126.6 118.4 124.9 119.4C123.8 120 122.9 121 122.3 122.2C122.4 121.5 122.5 120.8 122.7 120.1C124.4 113.1 127.7 107.8 131.6 103.2ZM97.4 139.2C101.7 135 106.8 131.4 113.6 129.4C114.3 129.2 115 129 115.7 128.9C114.6 129.6 113.7 130.6 113.1 131.7C112.3 133.4 112.5 135.5 113.7 136.8C113 136.7 112.3 136.7 111.6 137.1C108.5 138.9 110.9 142.8 113.2 141.8C113.7 141.5 113.9 141 113.6 140.5C113.3 140 112.8 139.8 112.3 140.1C112.5 140.1 112.3 140.3 111.9 139.9C110.9 138.7 113.8 136.8 115.2 139.8C116.1 141.7 113.8 144.4 109.5 143.7C106.4 143.2 103.5 141.9 100.5 140.6H100.4C102.3 140.7 104.3 140.4 105.9 139.6C106.9 139.1 107.8 138.3 108.2 137.3C108.5 136.6 108.8 134.7 106.8 133.8C105.8 133.4 104.4 133.5 104.2 134.7C104 135.8 105.3 136.2 106.2 135.6C107.5 136.6 106.3 138.3 104.8 138.7C104.3 138.9 103.4 139.3 101.2 139.5C100.2 139.6 99.1 139.5 98.1 139.5C98 139.5 97.7 139.3 97.4 139.2ZM86.4 138.2C87.9 138.1 89.4 138.4 90.9 138.8C95.1 139.9 100 142.3 104.5 143.8C105.4 144.1 106.3 144.4 107.2 144.6L89.9 145.2C90 144.7 90.1 144.1 90 143.5C89.9 143 89.7 142.5 89.5 142C89.2 141.6 88.9 141.2 88.5 140.8C88.1 140.5 87.5 140.2 86.9 140.1C86.3 140 85.7 140.1 85.2 140.3C84.2 140.7 83.3 141.6 83.1 142.9C83 143.5 83.2 144.3 83.8 144.8C84.4 145.4 85.3 145.4 85.9 145.2C86.4 145 86.7 144.5 86.5 143.9C86.3 143.4 85.8 143.1 85.3 143.3C85.1 143.4 85.1 143.3 85.1 143.3C85.1 143.3 85 143.2 85 143C85 142.7 85.4 142.2 85.9 142C86.4 141.8 86.8 141.9 87.2 142.2C87.6 142.5 88 143.1 88.1 143.6C88.3 144.7 87.5 146 86.3 146.6C85.1 147.2 83.7 147.3 82.6 146.5C81.6 145.9 80.8 144.5 80.8 143.1C80.9 141.1 82.6 138.5 86.4 138.2Z" fill="#D2A96A"/>
    <path d="M74.8 105.9C72.1 105.8 69.5 105.7 66.8 105.1C66.2 105 65.7 105 65.6 105.8C65.3 104.6 64.2 104.3 63.2 104C58.1 102.5 54.1 99.6 51.5 94.7C50.4 92.6 50 90.2 48.9 88.2C48.6 85.2 48 82.1 48.1 79.1C48.1 77.9 48.2 76.6 48.2 75.4C48.8 71.2 49.6 67.1 50.8 63C51.9 60.6 52.9 58.3 54 55.9C57.5 50 62.2 45.2 67.6 41.1C68.2 40.7 68.8 40.4 69.5 40C68.8 42.2 67.8 44.3 67.9 46.7C68.3 52.7 70.8 57.8 74 62.7C79.5 71 86.6 77.7 95.5 82.3C101.4 85.4 107.5 87.6 114.1 84.1C111.6 88.8 107.7 92.3 103.8 95.8C102.5 97 100.8 97.9 99.4 98.9C99.2 98.8 99.1 98.9 99.1 99.1C98.7 99.4 98.3 99.7 97.9 100.1C96.2 100.9 94.5 101.6 92.9 102.4C88.1 104.1 83.2 105.2 78.2 105.9C77 105.9 75.9 105.9 74.8 105.9ZM85.7 91.2C87.5 91.6 89 90.6 90.4 89.3C91 88.7 91.1 88 90.5 87.4C90 86.8 89.4 86.8 88.7 87.2C88.3 87.4 88 87.7 87.6 87.9C85.8 88.9 83.7 88.6 82.4 87.2C81 85.6 80.8 83.6 82.1 81.9C82.7 81.1 83.1 80.4 82.5 79.6C81.8 78.7 80.9 79.3 80.1 79.8C77.8 81.2 76.4 81 74.5 79.2C73.1 77.8 72.9 76.1 74 74C74.5 73.2 75.1 72.3 74.4 71.5C73.5 70.6 72.7 71.3 71.8 71.8C69.6 73.1 68.1 72.9 66.5 71.2C65 69.6 64.9 67.8 66.3 65.5C66.8 64.7 67.3 64 66.3 63.3C65.4 62.6 64.7 63.2 64.1 63.8C62.2 65.8 62.3 68.2 62.8 70.7C63 71.5 63.1 72 62.9 72.9C62.4 74.9 62.2 77.1 63 79.2C63.3 79.9 63.4 80.6 63.1 81.3C62.4 83.2 62.2 85.2 63.1 87.1C63.4 87.7 63.2 88.1 62.5 88.2C59.9 88.7 58.2 87.5 57.4 85C56.9 83.4 57.6 82.5 58.5 81.4C59 80.7 59.2 79.9 58.4 79.3C57.6 78.8 56.8 78.8 56.2 79.6C53 83.4 54.6 89.5 59.3 90.7C61.6 91.3 62.7 92.3 63.1 94.5C63.1 94.6 63.2 94.7 63.2 94.9C64.8 99.7 70.4 100.1 73.3 98.2C74.3 97.6 75.4 96.7 74.6 95.4C73.7 94 72.7 95.1 71.8 95.7C68.8 97.8 66 95.4 65.3 92.9C64.9 91.4 65.8 90.6 67.3 90.9C69.1 91.3 70.9 91.3 72.7 90.7C73.2 90.5 73.7 90.3 74.3 90.6C76.4 91.7 78.6 91.3 80.7 90.7C81.4 90.5 82 90.3 82.6 90.7C83.5 91.2 84.5 91.2 85.7 91.2ZM83.4 82.7C83.4 88.6 78.6 93.3 72.7 93.3C66.8 93.3 62 88.6 62 82.7C62 76.8 66.8 72.1 72.7 72.1C78.6 72.1 83.4 76.8 83.4 82.7Z" fill="#67B7CB"/>
    <path d="M85.4 62.5C90.4258 62.5 94.5 58.5601 94.5 53.7C94.5 48.8399 90.4258 44.9 85.4 44.9C80.3742 44.9 76.3 48.8399 76.3 53.7C76.3 58.5601 80.3742 62.5 85.4 62.5Z" fill="#FF7B8E"/>
    <path d="M114 84.1C107.4 87.7 101.3 85.4 95.4 82.3C92.6 80.9 90.7 79.7 88 77.7C84.8 75.3 78.6 70.7 73.5 62.6C68.6 54.8 67.9 49.1 67.8 46.7C67.6 42.7 68.5 40.7 69.6 39.5C70.9 38.1 72.7 37.6 73.6 37.3C76 36.6 78 36.7 79.1 36.9C79.5 37 80.2 37.1 80.9 37.2C87.1 38.5 91.5 41.5 95.6 44.4C97.2 45.6 99.4 47.2 101.9 49.4C103.4 51 105 52.6 106.5 54.2C107.3 55.2 108 56.1 108.8 57.1C109.5 58.2 110.3 59.4 111 60.6C113.8 65.4 115.6 70.1 116.8 74.3C117 75.2 117.6 77.7 116.5 80.5C115.9 82.3 114.7 83.5 114 84.1ZM91.4 56.9C91.4 53.8 88 49.7 84.6 48.7C83.2 48.3 81.8 48.1 80.7 49.3C79.6 50.5 79.7 51.9 80.2 53.2C81.5 56.6 83.9 58.9 87.4 59.9C89.6 60.6 91.4 59.2 91.4 56.9Z" fill="#FC5263"/>
    <path d="M48.8 88.2C50 90.2 50.3 92.6 51.4 94.7C54 99.6 58 102.5 63.1 104C64.1 104.3 65.2 104.5 65.5 105.8C65.7 110.3 64.5 114.3 61.8 117.8C61.2 118.6 60.8 118.8 60.4 118.9C59.1 119.2 57.9 118.2 55.7 116.4C54.1 115 52.7 113.8 51.6 111.7C51.3 111.2 50.9 110.3 50.6 109.1C49.8 106.1 50.8 105 49.9 104C49.2 103.3 48.3 104 44.9 103.2C44.1 103 43.8 102.9 43.6 102.8C42.1 102.3 41.1 101.4 40.5 100.8C39.6 100 38.7 99.2 37.8 98.4C37.2 97.7 36 96.2 35.1 94.6C34.9 94.3 34.6 93.8 34.8 93.2C34.9 92.7 35.3 92.3 35.6 92.1C39.3 89.3 45.1 88.5 45.1 88.5C45.9 88.5 47.2 88.3 48.8 88.2Z" fill="#33A7C9"/>
    <path d="M85.7 91.2C84.5 91.2 83.5 91.3 82.6 90.7C82 90.3 81.3 90.5 80.7 90.7C78.6 91.3 76.4 91.6 74.3 90.6C73.8 90.3 73.2 90.5 72.7 90.7C70.9 91.4 69.1 91.3 67.3 90.9C65.8 90.6 64.9 91.4 65.3 92.9C66 95.4 68.8 97.9 71.8 95.7C72.6 95.1 73.7 94 74.6 95.4C75.4 96.7 74.3 97.6 73.3 98.2C70.4 100.1 64.8 99.7 63.2 94.9C63.2 94.8 63.1 94.7 63.1 94.5C62.8 92.3 61.6 91.3 59.3 90.7C54.6 89.5 53 83.4 56.2 79.6C56.9 78.8 57.7 78.8 58.4 79.3C59.3 79.9 59.1 80.7 58.5 81.4C57.6 82.5 56.9 83.4 57.4 85C58.2 87.5 59.9 88.7 62.5 88.2C63.3 88.1 63.4 87.7 63.1 87.1C62.2 85.1 62.4 83.2 63.1 81.3C63.4 80.6 63.3 79.9 63 79.2C62.2 77.1 62.4 75 62.9 72.9C63.1 72 63 71.5 62.8 70.7C62.3 68.3 62.2 65.9 64.1 63.8C64.7 63.1 65.4 62.6 66.3 63.3C67.3 64 66.8 64.7 66.3 65.5C64.9 67.8 65 69.6 66.5 71.2C68.1 72.9 69.6 73.1 71.8 71.8C72.7 71.3 73.5 70.6 74.4 71.5C75.2 72.3 74.5 73.2 74 74C72.8 76.1 73 77.7 74.5 79.2C76.3 81 77.8 81.2 80.1 79.8C80.9 79.3 81.8 78.8 82.5 79.6C83.1 80.3 82.7 81.1 82.1 81.9C80.8 83.6 81 85.7 82.4 87.2C83.6 88.6 85.7 88.9 87.6 87.9C88 87.7 88.3 87.4 88.7 87.2C89.3 86.8 90 86.8 90.5 87.4C91.1 88.1 91 88.8 90.4 89.3C89 90.6 87.5 91.5 85.7 91.2ZM69.9 88.6C70.3 88.2 71.6 88.7 71.4 87.4C71.1 84.5 70.4 83.8 67.5 83C67.3 83 67.1 82.9 67 82.8C65.7 82.2 65.4 82.9 65.3 84C65.1 86.2 67.4 88.6 69.9 88.6ZM69.9 80.5C70.9 80.4 71.9 80.3 71 78.7C70.7 78.2 70.5 77.6 70.6 77.1C70.9 75.4 69.8 75.2 68.6 75C68.2 75 67.9 74.9 67.5 74.8C66 74.5 65.2 75.2 65.4 76.7C65.6 78.7 67.7 80.5 69.9 80.5ZM74.6 82.5C73.9 82.4 73.7 82.8 73.5 83.2C73 84.7 73.6 86 74.6 87C75.5 88 76.7 88.6 78.2 88.3C79.1 88.1 79.4 87.7 79.1 86.7C78.8 85.8 78.7 84.8 78.5 83.9C78.4 83.5 78.4 83.2 77.9 83.1C76.7 83 75.4 83.4 74.6 82.5Z" fill="#3D98D0"/>
</svg>
