<svg width="151" height="157" viewBox="0 0 151 157" fill="none" xmlns="http://www.w3.org/2000/svg">
    <path d="M75.7 143.6C111.543 143.6 140.6 114.543 140.6 78.7C140.6 42.8567 111.543 13.8 75.7 13.8C39.8567 13.8 10.8 42.8567 10.8 78.7C10.8 114.543 39.8567 143.6 75.7 143.6Z" fill="#4D5B5B"/>
    <path d="M73.5 4.10001C72.1 3.70001 70.1 4.40001 69.5 5.70001C68.9 7.10001 69.9 8.80001 71.3 8.70001C72.2 8.60001 72.8 7.80001 72.5 7.00001C72.2 6.20001 70.8 6.50001 71 7.40001C70.5 4.90001 73 5.30001 73.1 5.30001C75.3 5.80001 75.2 9.50001 72.5 10.4C71.9 10.6 71.2 10.7 70.5 10.7C70.3 10.5 70.1 10.3 69.8 10.1C69 9.50001 68 9.20001 67 9.10001C66 9.10001 65.1 9.30001 64.2 9.70001C63.4 10.1 62.7 10.6 62.2 11.3H38.8001C40.4001 10.5 41.4 8.70001 40.9 6.90001C40.5 5.50001 38.4 3.80001 37.2 5.40001C36.3 6.50001 37.8 8.20001 38.9 7.20001C39.1 7.00001 39.2 6.70001 39.1 6.50001C39.6 7.00001 39.8 8.00001 39.6 8.60001C39.4 9.30001 38.8 10 38.2 10.3C37.2 10.8 36.1 10.8 35.1 10.4C34.6 9.30001 33.8 8.30001 32.9 7.60001C30.3 5.40001 26 4.30001 22.4 6.20001C21.9 6.50001 21.4 6.80001 21 7.10001C21.9 4.60001 21.4 1.70001 18.7 8.21054e-06C18.1 -0.399992 17.7 0.400008 18.1 0.800008C20.9 3.20001 20.3 6.80001 18.1 8.70001C15.8 10.7 12.7 10.1 11.6 9.00001C10.5 7.90001 10.3001 4.70001 11.8001 4.80001C13.2001 4.90001 13.7 6.90001 15 5.70001C15.7 5.10001 15.7001 3.80001 15.3001 3.00001C14.5001 1.50001 12.6 1.00001 11.1 1.70001C9.29998 2.50001 8.49995 4.60001 8.69995 6.40001C8.79995 7.70001 9.3 8.70001 10 9.50001C9.2 8.80001 8.10003 8.30001 6.90003 8.20001C5.10003 8.00001 2.99995 8.90001 2.19995 10.6C1.49995 12.1 2 14 3.5 14.8C4.3 15.2 5.59995 15.2 6.19995 14.5C7.39995 13.2 5.40005 12.7 5.30005 11.3C5.20005 9.80001 8.4 10 9.5 11.1C10.6 12.2 11.2 15.3 9.19995 17.6C7.29996 19.8 3.60005 20.4 1.30005 17.6C0.900052 17.1 0.100004 17.6 0.500004 18.2C2.1 20.7 4.60003 21.3 6.90003 20.7C6.60003 21.1 6.39995 21.5 6.19995 21.9C4.29995 25.5 5.39998 29.8 7.59998 32.4C8.29998 33.3 9.30003 34.1 10.4 34.6C10.7 35.6 10.8001 36.7 10.3001 37.7C10.0001 38.3 9.29998 39 8.59998 39.1C8.09998 39.2 7.1 39.1 6.5 38.6C6.7 38.7 6.99995 38.7 7.19995 38.4C8.19995 37.3 6.60003 35.8 5.40003 36.7C3.80003 37.9 5.50003 40 6.90003 40.4C8.70003 41 10.5001 40 11.3001 38.3V62C10.6001 62.5 10.1 63.2 9.69995 64C9.29995 64.9 9.09998 65.8 9.09998 66.8C9.09998 67.8 9.49998 68.8 10.1 69.6C10.3 69.8 10.5 70.1 10.7 70.3C10.7 71 10.6 71.7 10.4 72.3C9.40003 74.9 5.70005 75.1 5.30005 72.9C5.30005 72.8 4.90003 70.3 7.40003 70.8C6.50003 70.6 6.2 72 7 72.3C7.9 72.6 8.69995 72 8.69995 71.1C8.79995 69.7 7.09995 68.7 5.69995 69.3C4.29995 69.9 3.69998 71.9 4.09998 73.3C4.89998 76.1 9.9 76.5 11.5 72.4C11.7 72 11.8001 71.5 11.8001 71.1C12.8001 71.7 14 72.1 15.2 72.1C18.6 72 21.8 69.1 21.9 64.6C21.9 62.8 21.5 61.2 21.1 59.6C20.6 58 20 56.6 19.4 55.1C24.1 50 27.6 44.9 29.6 37.6C30.2 35.5 30.6 33.2 30.5 31C30.5 30.9 30.5 30.7 30.5 30.6C30.8 30.6 31.1 30.6 31.4 30.6C33.7 30.6 35.9 30.2 38 29.7C45.3 27.7 50.5 24.2 55.5 19.5C57 20.1 58.5 20.7 60 21.2C61.6 21.7 63.3 22 65 22C69.5 22 72.4 18.7 72.5 15.3C72.5 14.1 72.1 12.9 71.5 11.9C71.9 11.9 72.4 11.8 72.8 11.6C76.7 10 76.3 5.00001 73.5 4.10001ZM35.6 19.5C34.7 19.3 33.8 19.4 33 19.9C33.5 19.6 33.9001 19.2 34.3001 18.7C34.5001 18.5 34.6 18.3 34.7 18.1C35 18.6 35.3 19.1 35.6 19.5ZM35.9 13.9C35.9 13.6 35.9001 13.3 35.8001 13H37.2C37.1 13.1 36.9001 13.1 36.8001 13.2C36.5001 13.4 36.2 13.6 35.9 13.9ZM23.4 8.40001C26.9 6.70001 31.5 8.90001 32.5 11.9C33.9 15.9 30.2 18.4 28.7 16.8C27.9 16 26.6001 15.9 25.8001 16.7C23.5001 18.8 27.2 21.8 30.7 21C31.4 20.8 32 20.5 32.6 20.2C31.7 20.9 31.1 22 31.4 23.3C31.7 24.5 33.2 25.5 34.2 25.1C34.9 24.8 35.2 23.9 35 23.4C34.7 22.7 33.6 22.4 33.2 23.3C32.3 21.9 33.9 20.8 34.9 21C35.9 21.2 36.5 21.6 36.9 22.5C37.6 24 36.9001 25.5 35.8001 26.6C34.4001 28.2 32.6 28.6 30.7 28.9C30.5 28.9 30.3 28.9 30.1 28.9C29.9 27.3 29.6 25.8 28.9 24.3C27.4 20.7 24.4 18.2 20.9 17C20.6 15.7 20 14.5 19.1 13.5C20 11.1 21.5 9.30001 23.4 8.40001ZM17.1 11.8C16.9 11.7 16.6 11.5 16.4 11.4C17 11.2 17.5 11 18 10.7C17.8 11.1 17.6 11.5 17.4 11.9C17.3 11.9 17.2 11.8 17.1 11.8ZM12 16.8C12 16.9 12.1 16.9 12.1 17C11.8 17.1 11.5 17.2 11.1 17.4C11.3 17 11.5 16.6 11.6 16.1C11.8 16.4 11.9 16.6 12 16.8ZM14.1 15.7C13.7 14.9 13.4 14 13.4 13.1C14.3 13.1 15.2 13.3 16 13.8C17.9 14.8 18.8 16.7 19 18.7C16.9 18.5 15.1 17.7 14.1 15.7ZM21.1 20.9C21.2 20.3 21.2 19.7 21.2 19.1C23.8 20.2 26.1001 22.2 27.3001 24.9C27.8001 26 28.2 27.3 28.4 28.5C27.3 28.3 26.2 28 25.2 27.5C22.3 26.2 20.2 23.7 19.2 20.9C19.8 20.9 20.4 20.9 21.1 20.9ZM8.09998 23.2C8.99998 21.2 11 19.6 13.5 18.8C14.5 19.7 15.6 20.3 16.9 20.6C18 24.3 20.6 27.5 24.4 29.2C25.7 29.8 27.1 30.1 28.5 30.3C28.5 30.4 28.5 30.4 28.5 30.5C28.2 32.4 27.7 34.2 26.2 35.6C25.1 36.6 23.6 37.3 22.1 36.7C21.2 36.3 20.8 35.7 20.6 34.7C20.4 33.7 21.5 32.1 22.9 33C22.1 33.4 22.3 34.6 23 34.8C23.5 35 24.4 34.7 24.7 34C25.1 33 24.1 31.4 22.9 31.2C21.6 30.9 20.5001 31.5 19.8001 32.4C20.1001 31.8 20.4 31.2 20.6 30.5C21.5 27 18.5001 23.3 16.3001 25.6C15.5001 26.4 15.6 27.7 16.4 28.5C18 30 15.5 33.7 11.5 32.3C8.6 31.2 6.49998 26.7 8.09998 23.2ZM12.7 35.6C13 35.6 13.3 35.6 13.6 35.7C13.4 36 13.1 36.3 12.9 36.6C12.8 36.7 12.7 36.9 12.7 37V35.6ZM19.2 35.4C18.8 35 18.3001 34.8 17.8001 34.6C18.0001 34.5 18.2 34.3 18.4 34.2C18.9 33.8 19.2 33.3 19.6 32.9C19.1 33.5 19 34.5 19.2 35.4ZM19.8001 64.5C19.7001 68.3 17.1 70.2 14.9 70.2C13.5 70.2 12.1 69.4 11.5 68.5C10.7 67.5 10.7001 66.1 11.3001 64.8C11.8001 63.6 13 62.8 14.2 62.9C14.7 63 15.3 63.3 15.7 63.7C16 64.1 16.1 64.5 15.9 65C15.7 65.5 15.3 65.9 15 65.9C14.8 65.9 14.7 65.9 14.7 65.9C14.7 65.9 14.7 65.9 14.7 65.7C14.8 65.2 14.5 64.7 14 64.5C13.5 64.3 12.9001 64.6 12.8001 65.1C12.6001 65.7 12.7 66.6 13.2 67.2C13.8 67.8 14.5 68 15.2 67.9C16.5 67.7 17.4 66.7 17.7 65.7C17.9 65.2 18 64.6 17.9 64C17.8 63.4 17.5 62.9 17.1 62.5C16.7 62.1 16.3 61.8 15.9 61.5C15.5 61.3 14.9 61.1 14.4 61C13.8 60.9 13.3 61 12.7 61.2V43.9C13 44.8 13.3 45.7 13.6 46.6C15.3 51 17.8 55.9 19.1 60C19.5 61.5 19.8001 63 19.8001 64.5ZM18.5 53.6C18.3 53.4 18.2 53.1 18.1 52.8C18.1 51.8 18 50.7 18 49.7C18.1 47.5 18.5 46.6 18.6 46.1C19 44.6 20.6 43.4 21.7 44.6C21.1 45.5 21.6 46.8 22.7 46.6C24 46.4 24 45 23.6 44C22.7 42 20.8 42.4 20.1 42.7C19.1 43.1 18.3 44.1 17.9 45C17.1 46.7 17 48.6 17.1 50.6V50.5C15.8 47.6 14.3 44.6 13.7 41.6C12.9 37.3 15.5 35 17.4 35.8C20.5 37.1 18.6 40.1 17.5 39.1C17.1 38.8 17.2 38.5 17.2 38.7C17.4 38.2 17.2 37.6 16.7 37.4C16.2 37.2 15.6 37.4 15.4 37.9C14.5 40.3 18.5 42.5 20.2 39.4C20.6 38.7 20.6 38 20.5 37.3C21.9 38.5 24 38.6 25.7 37.7C26.8 37.1 27.7 36.2 28.4 35C28.3 35.7 28.1 36.4 28 37.1C26 43.9 22.5 49.1 18.5 53.6ZM53.8001 18.7C49.3001 22.7 44.1001 26.2 37.3001 28C36.6001 28.2 35.9 28.3 35.2 28.4C36.3 27.7 37.3 26.8 37.9 25.7C38.8 24 38.7 21.9 37.5 20.5C38.2 20.7 38.9 20.6 39.6 20.2C42.8 18.5 40.5 14.5 38.1 15.4C37.6 15.6 37.4 16.2 37.6 16.7C37.8 17.2 38.4 17.4 38.9 17.2C38.7 17.2 38.9001 17 39.3001 17.5C40.3001 18.7 37.3 20.5 36 17.4C35.2 15.4 37.5001 12.8 41.8001 13.7C44.8001 14.3 47.8 15.7 50.7 17.1H50.8001C48.9001 17 46.9 17.1 45.2 17.9C44.2 18.3 43.3 19.1 42.9 20.1C42.6 20.8 42.2 22.7 44.2 23.6C45.2 24.1 46.5001 24 46.8001 22.7C47.0001 21.6 45.7001 21.1 44.8001 21.7C43.6001 20.6 44.7001 19 46.3001 18.6C46.8001 18.4 47.7 18 49.9 18C51 18 52 18 53 18.1C53.3 18.5 53.6001 18.6 53.8001 18.7C53.8001 18.7 53.9001 18.7 53.8001 18.7ZM64.8 20.1C63.3 20.1 61.8001 19.8 60.3001 19.4C56.1001 18.2 51.3 15.6 46.9 13.9C46.1 13.6 45.2 13.3 44.2 13H61.5C61.3 13.5 61.3001 14.1 61.3001 14.7C61.4001 15.2 61.5001 15.8 61.8001 16.2C62.0001 16.6 62.4001 17.1 62.8001 17.4C63.2001 17.8 63.7001 18 64.3001 18.2C64.9001 18.3 65.5 18.2 66 18C67 17.6 68 16.8 68.2 15.5C68.3 14.9 68.1 14.1 67.5 13.5C66.9 12.9 66 12.9 65.4 13.1C64.9 13.3 64.6 13.8 64.8 14.3C65 14.8 65.5 15.1 66 15C66.2 14.9 66.2 15 66.2 15C66.2 15 66.3 15.1 66.2 15.3C66.2 15.6 65.8 16 65.3 16.2C64.8 16.4 64.4 16.3 64 16C63.6 15.7 63.3 15.1 63.2 14.5C63.1 13.3 63.8 12.1 65.1 11.6C66.3 11 67.7 11 68.8 11.8C69.7 12.5 70.5 13.9 70.5 15.2C70.5 17.4 68.6 20 64.8 20.1Z" fill="#D2A96A"/>
    <path d="M77.9 154.4C79.3 154.8 81.3 154 81.9 152.7C82.5 151.3 81.4 149.6 80 149.8C79.1 149.9 78.5001 150.7 78.8001 151.6C79.1001 152.4 80.5001 152.1 80.3001 151.2C80.9001 153.7 78.3001 153.3 78.3001 153.3C76.1001 152.9 76.1 149.2 78.7 148.1C79.3 147.9 80 147.8 80.7 147.7C80.9 147.9 81.1 148.1 81.4 148.3C82.2 148.9 83.2 149.2 84.2 149.2C85.2 149.2 86.1 148.9 87 148.5C87.7 148.1 88.4 147.6 88.9 146.8L112.3 146C110.7 146.9 109.8 148.7 110.4 150.4C110.9 151.7 113 153.4 114.2 151.8C115 150.6 113.5 149 112.4 150.1C112.2 150.3 112.2 150.6 112.3 150.8C111.8 150.3 111.6 149.3 111.7 148.8C111.8 148.1 112.4 147.4 113.1 147.1C114.1 146.5 115.1 146.6 116.2 146.9C116.8 148 117.6 148.9 118.5 149.6C121.2 151.7 125.5 152.6 129.1 150.6C129.6 150.3 130.1 150 130.5 149.6C129.7 152.1 130.3 155 133 156.6C133.6 156.9 134 156.1 133.5 155.7C130.6 153.4 131.1 149.8 133.2 147.8C135.4 145.7 138.5 146.2 139.7 147.3C140.9 148.4 141.2 151.6 139.7 151.5C138.2 151.5 137.8 149.4 136.5 150.7C135.8 151.3 135.9 152.6 136.3 153.4C137.1 154.9 139 155.3 140.5 154.6C142.2 153.7 143 151.7 142.8 149.8C142.6 148.5 142.1 147.5 141.4 146.7C142.2 147.4 143.3 147.9 144.6 147.9C146.4 148 148.5 147.1 149.2 145.3C149.8 143.8 149.3 141.9 147.8 141.2C147 140.8 145.7 140.9 145.2 141.5C144.1 142.9 146.1 143.2 146.2 144.7C146.3 146.2 143.2 146.1 142 145C140.9 143.9 140.1 140.9 142.1 138.5C144 136.2 147.6 135.5 150 138.2C150.4 138.7 151.2 138.2 150.8 137.6C149.1 135.2 146.6 134.6 144.3 135.3C144.6 134.9 144.8 134.5 145 134.1C146.7 130.4 145.5 126.2 143.2 123.6C142.4 122.7 141.4 122 140.3 121.5C139.9 120.5 139.8 119.4 140.3 118.4C140.6 117.7 141.2 117.1 141.9 116.9C142.4 116.8 143.4 116.9 144 117.4C143.8 117.3 143.5 117.3 143.3 117.6C142.3 118.8 144 120.2 145.1 119.3C146.6 118 144.9 116 143.5 115.6C141.7 115.1 139.9 116.1 139.2 117.8L138.4 94.4C139.1 93.8 139.6 93.1 139.9 92.4C140.3 91.5 140.5 90.6 140.4 89.6C140.3 88.6 140 87.6 139.3 86.9C139.1 86.7 138.9 86.5 138.7 86.3C138.7 85.6 138.8 84.9 139 84.3C139.9 81.7 143.6 81.4 144.1 83.6C144.1 83.7 144.6 86.2 142.1 85.8C143 85.9 143.2 84.5 142.4 84.3C141.5 84 140.7 84.6 140.7 85.6C140.7 87 142.4 87.9 143.7 87.3C145 86.6 145.6 84.6 145.2 83.2C144.3 80.5 139.3 80.2 137.9 84.3C137.8 84.7 137.7 85.2 137.7 85.6C136.7 85 135.5 84.7 134.3 84.7C130.9 84.9 127.8 87.9 127.9 92.4C127.9 94.2 128.4 95.8 128.9 97.4C129.4 98.9 130.1 100.4 130.7 101.8C126.1 107 122.9 112.3 121.1 119.7C120.6 121.9 120.3 124.1 120.4 126.4C120.4 126.5 120.4 126.7 120.4 126.8C120.1 126.8 119.8 126.8 119.5 126.8C117.2 126.9 115 127.3 112.9 128C105.6 130.3 100.6 133.9 95.7 138.8C94.2 138.2 92.7 137.7 91.1 137.3C89.5 136.9 87.8 136.6 86 136.6C81.5 136.8 78.7 140.1 78.7 143.5C78.7 144.7 79.1001 145.9 79.8001 146.8C79.4001 146.8 78.9 147 78.5 147.1C74.5 148.7 75.1 153.7 77.9 154.4ZM115.3 137.9C116.2 138.1 117.1 137.9 117.9 137.4C117.4 137.8 117 138.2 116.6 138.6C116.5 138.8 116.3 139 116.2 139.2C115.9 138.7 115.6 138.2 115.3 137.9ZM115.2 143.4C115.2 143.7 115.2 144 115.3 144.3H113.9C114 144.2 114.2 144.1 114.3 144.1C114.6 143.9 114.9 143.7 115.2 143.4ZM127.8 148.5C124.4 150.3 119.7 148.3 118.6 145.3C117 141.3 120.7 138.7 122.2 140.3C123 141.1 124.3 141.1 125.1 140.3C127.3 138.1 123.5 135.2 120 136.2C119.3 136.4 118.7 136.7 118.1 137.1C119 136.4 119.5 135.2 119.2 134C118.9 132.8 117.3 131.9 116.3 132.3C115.6 132.6 115.4 133.5 115.6 134C115.9 134.7 117.1 134.9 117.4 134.1C118.4 135.5 116.8 136.6 115.8 136.5C114.8 136.3 114.2 136 113.7 135.1C113 133.6 113.6 132.1 114.6 130.9C116 129.3 117.7 128.8 119.6 128.4C119.8 128.4 120 128.4 120.2 128.4C120.4 130 120.9 131.5 121.5 132.9C123.2 136.4 126.3 138.9 129.7 139.9C130.1 141.2 130.7 142.4 131.6 143.3C131.2 145.7 129.7 147.5 127.8 148.5ZM134 144.9C134.2 145 134.5 145.1 134.7 145.2C134.1 145.4 133.6 145.6 133.1 145.9C133.3 145.5 133.5 145.1 133.6 144.6C133.8 144.8 133.9 144.9 134 144.9ZM138.9 139.7C138.9 139.6 138.8 139.6 138.8 139.5C139.1 139.4 139.4 139.2 139.7 139.1C139.5 139.5 139.4 139.9 139.3 140.4C139.2 140.1 139.1 139.9 138.9 139.7ZM136.9 140.9C137.4 141.7 137.6 142.6 137.7 143.5C136.8 143.5 135.9 143.3 135.1 142.9C133.1 141.9 132.2 140.1 131.9 138.1C134 138.1 135.9 139 136.9 140.9ZM129.7 136C129.7 136.6 129.7 137.2 129.7 137.8C127 136.8 124.7 134.9 123.4 132.2C122.8 131.1 122.5 129.9 122.2 128.6C123.3 128.8 124.4 129.1 125.4 129.5C128.4 130.7 130.6 133.1 131.7 135.9C131 135.9 130.4 135.9 129.7 136ZM142.6 133.2C141.7 135.3 139.8 136.9 137.4 137.8C136.4 136.9 135.2 136.4 133.9 136.1C132.7 132.4 130 129.3 126.1 127.8C124.8 127.3 123.4 127 122 126.8C122 126.7 122 126.7 122 126.6C122.2 124.7 122.6 122.9 124.2 121.4C125.3 120.3 126.8 119.6 128.3 120.2C129.2 120.6 129.6 121.2 129.8 122.2C130 123.2 129 124.9 127.6 124C128.4 123.6 128.1 122.4 127.4 122.2C126.9 122 126 122.3 125.7 123C125.4 124 126.3 125.6 127.6 125.8C128.9 126 130 125.4 130.6 124.5C130.3 125.1 130 125.7 129.9 126.4C129.1 130 132.3 133.5 134.3 131.2C135 130.3 134.9 129.1 134.1 128.3C132.4 126.9 134.8 123.1 138.9 124.3C141.8 125.2 144.2 129.7 142.6 133.2ZM137.6 120.9C137.3 120.9 137 120.9 136.7 120.9C136.9 120.6 137.2 120.3 137.4 119.9C137.5 119.8 137.5 119.6 137.6 119.5V120.9ZM131.1 121.4C131.5 121.7 132 122 132.5 122.2C132.3 122.3 132.1 122.5 131.9 122.6C131.5 123 131.1 123.5 130.8 124C131.3 123.2 131.4 122.3 131.1 121.4ZM129.5 92.3C129.5 88.5 132 86.5 134.2 86.5C135.6 86.4 137 87.2 137.7 88.1C138.5 89.1 138.5 90.5 138 91.8C137.5 93 136.3 93.9 135.2 93.7C134.7 93.7 134.1 93.3 133.7 92.9C133.3 92.5 133.3 92.1 133.4 91.6C133.6 91.1 134 90.7 134.3 90.7C134.5 90.7 134.6 90.7 134.6 90.7C134.6 90.7 134.6 90.7 134.6 90.9C134.5 91.4 134.8 91.9 135.3 92.1C135.8 92.2 136.4 91.9 136.5 91.4C136.7 90.8 136.6 89.9 136 89.4C135.4 88.8 134.6 88.7 134 88.8C132.7 89 131.9 90.1 131.6 91.1C131.4 91.6 131.4 92.2 131.5 92.8C131.6 93.4 131.9 93.9 132.3 94.3C132.7 94.7 133.1 95 133.6 95.2C134 95.4 134.6 95.6 135.1 95.6C135.7 95.6 136.2 95.6 136.8 95.4L137.4 112.7C137.1 111.8 136.8 110.9 136.4 110.1C134.6 105.7 131.8 101 130.5 96.9C129.9 95.3 129.6 93.8 129.5 92.3ZM131.2 103.2C131.2 103.2 131.3 103.2 131.2 103.2C131.4 103.4 131.5 103.7 131.6 104C131.7 105 131.8 106.1 131.8 107.1C131.8 109.3 131.4 110.2 131.3 110.7C130.9 112.2 129.4 113.5 128.3 112.3C128.8 111.3 128.3 110.1 127.2 110.3C125.9 110.6 125.9 111.9 126.4 112.9C127.4 114.8 129.2 114.4 129.9 114.1C130.9 113.6 131.6 112.7 132 111.7C132.7 110 132.8 108 132.6 106.1V106.2C134 109.1 135.6 112 136.3 115C137.3 119.2 134.8 121.7 132.8 120.9C129.7 119.7 131.4 116.6 132.6 117.6C133 117.9 132.9 118.1 132.9 118C132.7 118.5 132.9 119.1 133.4 119.3C133.9 119.5 134.5 119.3 134.7 118.8C135.6 116.4 131.5 114.3 129.9 117.5C129.6 118.2 129.5 118.9 129.7 119.6C128.3 118.5 126.2 118.4 124.5 119.4C123.4 120 122.5 121 121.9 122.2C122 121.5 122.1 120.8 122.3 120.1C124.1 113.1 127.3 107.8 131.2 103.2ZM97.1 139.2C101.4 135 106.5 131.4 113.3 129.4C114 129.2 114.7 129 115.4 128.9C114.3 129.6 113.4 130.6 112.8 131.7C112 133.4 112.2 135.5 113.4 136.8C112.7 136.7 112 136.7 111.3 137.1C108.2 138.9 110.6 142.8 112.9 141.8C113.4 141.5 113.6 141 113.3 140.5C113 140 112.5 139.8 112 140.1C112.2 140.1 112 140.3 111.6 139.9C110.6 138.7 113.5 136.8 114.9 139.8C115.8 141.7 113.5 144.4 109.2 143.7C106.1 143.2 103.2 141.9 100.2 140.6H100.1C102 140.7 104 140.4 105.6 139.6C106.6 139.1 107.5 138.3 107.9 137.3C108.2 136.6 108.5 134.7 106.5 133.8C105.5 133.4 104.1 133.5 103.9 134.7C103.7 135.8 105 136.2 105.9 135.6C107.2 136.6 106 138.3 104.5 138.7C104 138.9 103.1 139.3 100.9 139.5C99.9 139.6 98.8001 139.5 97.8001 139.5C97.6001 139.5 97.3 139.3 97.1 139.2ZM86.1 138.2C87.6 138.1 89.1 138.4 90.6 138.8C94.8 139.9 99.7 142.3 104.2 143.8C105.1 144.1 106 144.4 106.9 144.6L89.6 145.2C89.7 144.7 89.8 144.1 89.7 143.5C89.6 143 89.4 142.5 89.2 142C88.9 141.6 88.6 141.2 88.2 140.8C87.8 140.5 87.2 140.2 86.6 140.1C86 140 85.4 140.1 84.9 140.3C83.9 140.7 83.0001 141.6 82.8001 142.9C82.7001 143.5 82.9 144.3 83.5 144.8C84.1 145.4 85 145.4 85.6 145.2C86.1 145 86.4 144.5 86.2 143.9C86 143.4 85.5 143.1 85 143.3C84.8 143.4 84.8001 143.3 84.8001 143.3C84.8001 143.3 84.7 143.2 84.7 143C84.7 142.7 85.1 142.2 85.6 142C86.1 141.8 86.5 141.9 86.9 142.2C87.3 142.5 87.7001 143.1 87.8001 143.6C88.0001 144.7 87.2 146 86 146.6C84.8 147.2 83.4001 147.3 82.3001 146.5C81.3001 145.9 80.5 144.5 80.5 143.1C80.5 141.1 82.3 138.5 86.1 138.2Z" fill="#D2A96A"/>
    <path d="M83.7 39.9L43.3 65.7L67.9 104.3L108.3 78.5C108.8 78.2 108.9 77.5 108.6 77L85.1 40.2C84.9 39.7 84.2 39.5 83.7 39.9Z" fill="#AF12AF"/>
    <path d="M84.5 39.3L80.2 42.1L104.8 80.7L109.1 77.9C109.2 77.9 108.9 77.4 108.6 76.9L85.1 40.1C84.9 39.7 84.6 39.3 84.5 39.3Z" fill="#8E0F91"/>
    <path d="M35.7 77.5L60.3 116.1C62 118.8 68.3 118 74.2 114.2C80.2 110.4 83.6 105.1 81.8 102.4L57.2 63.8L35.7 77.5Z" fill="#AF12AF"/>
    <path d="M44.7 71.7L35.7 77.4L60.3 116C61.9 118.4 67 118 72.4 115.1L44.7 71.7Z" fill="#8E0F91"/>
    <path d="M49.6352 75.5711C55.5939 71.7678 59.0033 66.4581 57.2502 63.7115C55.4971 60.9649 49.2455 61.8216 43.2868 65.6248C37.3282 69.4281 33.9188 74.7378 35.6719 77.4844C37.4249 80.2309 43.6766 79.3743 49.6352 75.5711Z" fill="#D82ADD"/>
    <path d="M47.9137 72.8738C50.893 70.9722 52.6579 68.4116 51.8557 67.1547C51.0534 65.8978 47.9878 66.4205 45.0085 68.3221C42.0291 70.2237 40.2642 72.7843 41.0665 74.0412C41.8687 75.2981 44.9343 74.7754 47.9137 72.8738Z" fill="#AF12AF"/>
    <path d="M57.2 63.7L78.7 97.4L80.5 96.3L59 62.6C57.7 60.6 55.2 59.8 52 60.1L43.3 65.7C49.3 61.9 55.5 61 57.2 63.7Z" fill="#8E0F91"/>
</svg>
