<svg width="151" height="157" viewBox="0 0 151 157" fill="none" xmlns="http://www.w3.org/2000/svg">
    <path d="M75.4 143.6C111.243 143.6 140.3 114.543 140.3 78.7C140.3 42.8567 111.243 13.8 75.4 13.8C39.5567 13.8 10.5 42.8567 10.5 78.7C10.5 114.543 39.5567 143.6 75.4 143.6Z" fill="#4D5B5B"/>
    <path d="M73.2 4.10001C71.8 3.70001 69.8 4.40001 69.2 5.70001C68.6 7.10001 69.6 8.80001 71 8.70001C71.9 8.60001 72.5 7.80001 72.2 7.00001C71.9 6.20001 70.5 6.50001 70.7 7.40001C70.2 4.90001 72.7 5.30001 72.8 5.30001C75 5.80001 74.9 9.50001 72.2 10.4C71.6 10.6 70.9 10.7 70.2 10.7C70 10.5 69.8 10.3 69.5 10.1C68.7 9.50001 67.7 9.20001 66.7 9.10001C65.7 9.10001 64.8 9.30001 63.9 9.70001C63.1 10.1 62.4 10.6 61.9 11.3H38.5C40.1 10.5 41.1 8.70001 40.6 6.90001C40.2 5.50001 38.1 3.80001 36.9 5.40001C36 6.50001 37.5 8.20001 38.6 7.20001C38.8 7.00001 38.9 6.70001 38.8 6.50001C39.3 7.00001 39.5 8.00001 39.3 8.60001C39.1 9.30001 38.5 10 37.9 10.3C36.9 10.8 35.8 10.8 34.8 10.4C34.3 9.30001 33.5 8.30001 32.6 7.60001C30 5.40001 25.7 4.30001 22.1 6.20001C21.6 6.50001 21.1 6.80001 20.7 7.10001C21.6 4.60001 21.1 1.70001 18.4 8.21054e-06C17.8 -0.399992 17.4 0.400008 17.8 0.800008C20.6 3.20001 20 6.80001 17.8 8.70001C15.5 10.7 12.4 10.1 11.3 9.00001C10.2 7.90001 10 4.70001 11.5 4.80001C12.9 4.90001 13.4 6.90001 14.7 5.70001C15.4 5.10001 15.4 3.80001 15 3.00001C14.2 1.50001 12.3 1.00001 10.8 1.70001C9 2.50001 8.20003 4.60001 8.40003 6.40001C8.50003 7.70001 9.00002 8.70001 9.70002 9.50001C8.90002 8.80001 7.79999 8.30001 6.59999 8.20001C4.79999 8.00001 2.70003 8.90001 1.90003 10.6C1.20003 12.1 1.70002 14 3.20002 14.8C4.00002 15.2 5.30003 15.2 5.90003 14.5C7.10003 13.2 5.10001 12.7 5.00001 11.3C4.90001 9.80001 8.10002 10 9.20002 11.1C10.3 12.2 10.9 15.3 8.90003 17.6C7.00003 19.8 3.30001 20.4 1.00001 17.6C0.600009 17.1 -0.199978 17.6 0.200022 18.2C1.80002 20.7 4.29999 21.3 6.59999 20.7C6.29999 21.1 6.10003 21.5 5.90003 21.9C4.00003 25.5 5.1 29.8 7.3 32.4C8 33.3 8.99999 34.1 10.1 34.6C10.4 35.6 10.5 36.7 10 37.7C9.70001 38.3 9 39 8.3 39.1C7.8 39.2 6.80002 39.1 6.20002 38.6C6.40002 38.7 6.70003 38.7 6.90003 38.4C7.90003 37.3 6.29999 35.8 5.09999 36.7C3.49999 37.9 5.19999 40 6.59999 40.4C8.39999 41 10.2 40 11 38.3V62C10.3 62.5 9.80003 63.2 9.40003 64C9.00003 64.9 8.8 65.8 8.8 66.8C8.8 67.8 9.2 68.8 9.8 69.6C10 69.8 10.2 70.1 10.4 70.3C10.4 71 10.3 71.7 10.1 72.3C9.09999 74.9 5.40001 75.1 5.00001 72.9C5.00001 72.8 4.59999 70.3 7.09999 70.8C6.19999 70.6 5.90002 72 6.70002 72.3C7.60002 72.6 8.40003 72 8.40003 71.1C8.50003 69.7 6.80003 68.7 5.40003 69.3C4.00003 69.9 3.4 71.9 3.8 73.3C4.6 76.1 9.60002 76.5 11.2 72.4C11.4 72 11.5 71.5 11.5 71.1C12.5 71.7 13.7 72.1 14.9 72.1C18.3 72 21.5 69.1 21.6 64.6C21.6 62.8 21.2 61.2 20.8 59.6C20.3 58 19.7 56.6 19.1 55.1C23.8 50 27.3 44.9 29.3 37.6C29.9 35.5 30.3 33.2 30.2 31C30.2 30.9 30.2 30.7 30.2 30.6C30.5 30.6 30.8 30.6 31.1 30.6C33.4 30.6 35.6 30.2 37.7 29.7C45 27.7 50.2 24.2 55.2 19.5C56.7 20.1 58.2 20.7 59.7 21.2C61.3 21.7 63 22 64.7 22C69.2 22 72.1 18.7 72.2 15.3C72.2 14.1 71.8 12.9 71.2 11.9C71.6 11.9 72.1 11.8 72.5 11.6C76.4 10 76 5.00001 73.2 4.10001ZM35.3 19.5C34.4 19.3 33.5 19.4 32.7 19.9C33.2 19.6 33.6 19.2 34 18.7C34.2 18.5 34.3 18.3 34.4 18.1C34.7 18.6 35 19.1 35.3 19.5ZM35.6 13.9C35.6 13.6 35.6 13.3 35.5 13H36.9C36.8 13.1 36.6 13.1 36.5 13.2C36.2 13.4 35.9 13.6 35.6 13.9ZM23.1 8.40001C26.6 6.70001 31.2 8.90001 32.2 11.9C33.6 15.9 29.9 18.4 28.4 16.8C27.6 16 26.3 15.9 25.5 16.7C23.2 18.8 26.9 21.8 30.4 21C31.1 20.8 31.7 20.5 32.3 20.2C31.4 20.9 30.8 22 31.1 23.3C31.4 24.5 32.9 25.5 33.9 25.1C34.6 24.8 34.9 23.9 34.7 23.4C34.4 22.7 33.3 22.4 32.9 23.3C32 21.9 33.6 20.8 34.6 21C35.6 21.2 36.2 21.6 36.6 22.5C37.3 24 36.6 25.5 35.5 26.6C34.1 28.2 32.3 28.6 30.4 28.9C30.2 28.9 30 28.9 29.8 28.9C29.6 27.3 29.3 25.8 28.6 24.3C27.1 20.7 24.1 18.2 20.6 17C20.3 15.7 19.7 14.5 18.8 13.5C19.7 11.1 21.2 9.30001 23.1 8.40001ZM16.8 11.8C16.6 11.7 16.3 11.5 16.1 11.4C16.7 11.2 17.2 11 17.7 10.7C17.5 11.1 17.3 11.5 17.1 11.9C17 11.9 16.9 11.8 16.8 11.8ZM11.7 16.8C11.7 16.9 11.8 16.9 11.8 17C11.5 17.1 11.2 17.2 10.8 17.4C11 17 11.2 16.6 11.3 16.1C11.5 16.4 11.6 16.6 11.7 16.8ZM13.7 15.7C13.3 14.9 13 14 13 13.1C13.9 13.1 14.8 13.3 15.6 13.8C17.5 14.8 18.4 16.7 18.6 18.7C16.6 18.5 14.8 17.7 13.7 15.7ZM20.8 20.9C20.9 20.3 20.9 19.7 20.9 19.1C23.5 20.2 25.8 22.2 27 24.9C27.5 26 27.9 27.3 28.1 28.5C27 28.3 25.9 28 24.9 27.5C22 26.2 19.9 23.7 18.9 20.9C19.5 20.9 20.1 20.9 20.8 20.9ZM7.8 23.2C8.7 21.2 10.7 19.6 13.2 18.8C14.2 19.7 15.3 20.3 16.6 20.6C17.7 24.3 20.3 27.5 24.1 29.2C25.4 29.8 26.8 30.1 28.2 30.3C28.2 30.4 28.2 30.4 28.2 30.5C27.9 32.4 27.4 34.2 25.9 35.6C24.8 36.6 23.3 37.3 21.8 36.7C20.9 36.3 20.5 35.7 20.3 34.7C20.1 33.7 21.2 32.1 22.6 33C21.8 33.4 22 34.6 22.7 34.8C23.2 35 24.1 34.7 24.4 34C24.8 33 23.8 31.4 22.6 31.2C21.3 30.9 20.2 31.5 19.5 32.4C19.8 31.8 20.1 31.2 20.3 30.5C21.2 27 18.2 23.3 16 25.6C15.2 26.4 15.3 27.7 16.1 28.5C17.7 30 15.2 33.7 11.2 32.3C8.30002 31.2 6.2 26.7 7.8 23.2ZM12.4 35.6C12.7 35.6 13 35.6 13.3 35.7C13.1 36 12.8 36.3 12.6 36.6C12.5 36.7 12.4 36.9 12.4 37V35.6V35.6ZM18.9 35.4C18.5 35 18 34.8 17.5 34.6C17.7 34.5 17.9 34.3 18.1 34.2C18.6 33.8 18.9 33.3 19.3 32.9C18.8 33.5 18.7 34.5 18.9 35.4ZM19.5 64.5C19.4 68.3 16.8 70.2 14.6 70.2C13.2 70.2 11.8 69.4 11.2 68.5C10.4 67.5 10.4 66.1 11 64.8C11.5 63.6 12.7 62.8 13.9 62.9C14.4 63 15 63.3 15.4 63.7C15.7 64.1 15.8 64.5 15.6 65C15.4 65.5 15 65.9 14.7 65.9C14.5 65.9 14.4 65.9 14.4 65.9C14.4 65.9 14.4 65.9 14.4 65.7C14.5 65.2 14.2 64.7 13.7 64.5C13.2 64.3 12.6 64.6 12.5 65.1C12.3 65.7 12.4 66.6 12.9 67.2C13.5 67.8 14.2 68 14.9 67.9C16.2 67.7 17.1 66.7 17.4 65.7C17.6 65.2 17.7 64.6 17.6 64C17.5 63.4 17.2 62.9 16.8 62.5C16.4 62.1 16 61.8 15.6 61.5C15.2 61.3 14.6 61.1 14.1 61C13.5 60.9 13 61 12.4 61.2V43.9C12.7 44.8 13 45.7 13.3 46.6C15 51 17.5 55.9 18.8 60C19.2 61.5 19.5 63 19.5 64.5ZM18.2 53.6C18 53.4 17.9 53.1 17.8 52.8C17.8 51.8 17.7 50.7 17.7 49.7C17.8 47.5 18.2 46.6 18.3 46.1C18.7 44.6 20.3 43.4 21.4 44.6C20.8 45.5 21.3 46.8 22.4 46.6C23.7 46.4 23.7 45 23.3 44C22.4 42 20.5 42.4 19.8 42.7C18.8 43.1 18 44.1 17.6 45C16.8 46.7 16.7 48.6 16.8 50.6V50.5C15.5 47.6 14 44.6 13.4 41.6C12.6 37.3 15.2 35 17.1 35.8C20.2 37.1 18.3 40.1 17.2 39.1C16.8 38.8 16.9 38.5 16.9 38.7C17.1 38.2 16.9 37.6 16.4 37.4C15.9 37.2 15.3 37.4 15.1 37.9C14.2 40.3 18.2 42.5 19.9 39.4C20.3 38.7 20.3 38 20.2 37.3C21.6 38.5 23.7 38.6 25.4 37.7C26.5 37.1 27.4 36.2 28.1 35C28 35.7 27.8 36.4 27.7 37.1C25.7 43.9 22.2 49.1 18.2 53.6ZM53.5 18.7C49 22.7 43.8 26.2 37 28C36.3 28.2 35.6 28.3 34.9 28.4C36 27.7 37 26.8 37.6 25.7C38.5 24 38.4 21.9 37.2 20.5C37.9 20.7 38.6 20.6 39.3 20.2C42.5 18.5 40.2 14.5 37.8 15.4C37.3 15.6 37.1 16.2 37.3 16.7C37.5 17.2 38.1 17.4 38.6 17.2C38.4 17.2 38.6 17 39 17.5C40 18.7 37 20.5 35.7 17.4C34.9 15.4 37.2 12.8 41.5 13.7C44.5 14.3 47.5 15.7 50.4 17.1H50.5C48.6 17 46.6 17.1 44.9 17.9C43.9 18.3 43 19.1 42.6 20.1C42.3 20.8 41.9 22.7 43.9 23.6C44.9 24.1 46.2 24 46.5 22.7C46.7 21.6 45.4 21.1 44.5 21.7C43.3 20.6 44.4 19 46 18.6C46.5 18.4 47.4 18 49.6 18C50.7 18 51.7 18 52.7 18.1C53 18.5 53.3 18.6 53.5 18.7C53.5 18.7 53.6 18.7 53.5 18.7ZM64.5 20.1C63 20.1 61.5 19.8 60 19.4C55.8 18.2 51 15.6 46.6 13.9C45.8 13.6 44.9 13.3 43.9 13H61.2C61 13.5 61 14.1 61 14.7C61.1 15.2 61.2 15.8 61.5 16.2C61.7 16.6 62.1 17.1 62.5 17.4C62.9 17.8 63.4 18 64 18.2C64.6 18.3 65.2 18.2 65.7 18C66.7 17.6 67.7 16.8 67.9 15.5C68 14.9 67.8 14.1 67.2 13.5C66.6 12.9 65.7 12.9 65.1 13.1C64.6 13.3 64.3 13.8 64.5 14.3C64.7 14.8 65.2 15.1 65.7 15C65.9 14.9 65.9 15 65.9 15C65.9 15 66 15.1 65.9 15.3C65.9 15.6 65.5 16 65 16.2C64.5 16.4 64.1 16.3 63.7 16C63.3 15.7 63 15.1 62.9 14.5C62.8 13.3 63.5 12.1 64.8 11.6C66 11 67.4 11 68.5 11.8C69.4 12.5 70.2 13.9 70.2 15.2C70.2 17.4 68.3 20 64.5 20.1Z" fill="#D2A96A"/>
    <path d="M77.6 154.4C79 154.8 81 154 81.6 152.7C82.2 151.3 81.1 149.6 79.7 149.8C78.8 149.9 78.2 150.7 78.5 151.6C78.8 152.4 80.2 152.1 80 151.2C80.6 153.7 78 153.3 78 153.3C75.8 152.9 75.8 149.2 78.4 148.1C79 147.9 79.7 147.8 80.4 147.7C80.6 147.9 80.8 148.1 81.1 148.3C81.9 148.9 82.9 149.2 83.9 149.2C84.9 149.2 85.8 148.9 86.7 148.5C87.4 148.1 88.1 147.6 88.6 146.8L112 146C110.4 146.9 109.5 148.7 110.1 150.4C110.6 151.7 112.7 153.4 113.9 151.8C114.7 150.6 113.2 149 112.1 150.1C111.9 150.3 111.9 150.6 112 150.8C111.5 150.3 111.3 149.3 111.4 148.8C111.5 148.1 112.1 147.4 112.8 147.1C113.8 146.5 114.8 146.6 115.9 146.9C116.5 148 117.3 148.9 118.2 149.6C120.9 151.7 125.2 152.6 128.8 150.6C129.3 150.3 129.8 150 130.2 149.6C129.4 152.1 130 155 132.7 156.6C133.3 156.9 133.7 156.1 133.2 155.7C130.3 153.4 130.8 149.8 132.9 147.8C135.1 145.7 138.2 146.2 139.4 147.3C140.6 148.4 140.9 151.6 139.4 151.5C137.9 151.5 137.5 149.4 136.2 150.7C135.5 151.3 135.6 152.6 136 153.4C136.8 154.9 138.7 155.3 140.2 154.6C141.9 153.7 142.7 151.7 142.5 149.8C142.3 148.5 141.8 147.5 141.1 146.7C141.9 147.4 143 147.9 144.3 147.9C146.1 148 148.2 147.1 148.9 145.3C149.5 143.8 149 141.9 147.5 141.2C146.7 140.8 145.4 140.9 144.9 141.5C143.8 142.9 145.8 143.2 145.9 144.7C146 146.2 142.9 146.1 141.7 145C140.6 143.9 139.8 140.9 141.8 138.5C143.7 136.2 147.3 135.5 149.7 138.2C150.1 138.7 150.9 138.2 150.5 137.6C148.8 135.2 146.3 134.6 144 135.3C144.3 134.9 144.5 134.5 144.7 134.1C146.4 130.4 145.2 126.2 142.9 123.6C142.1 122.7 141.1 122 140 121.5C139.6 120.5 139.5 119.4 140 118.4C140.3 117.7 140.9 117.1 141.6 116.9C142.1 116.8 143.1 116.9 143.7 117.4C143.5 117.3 143.2 117.3 143 117.6C142 118.8 143.7 120.2 144.8 119.3C146.3 118 144.6 116 143.2 115.6C141.4 115.1 139.6 116.1 138.9 117.8L138 94.5C138.7 93.9 139.2 93.2 139.5 92.5C139.9 91.6 140.1 90.7 140 89.7C139.9 88.7 139.6 87.7 138.9 87C138.7 86.8 138.5 86.6 138.3 86.4C138.3 85.7 138.4 85 138.6 84.4C139.5 81.8 143.2 81.5 143.7 83.7C143.7 83.8 144.2 86.3 141.7 85.9C142.6 86 142.8 84.6 142 84.4C141.1 84.1 140.3 84.7 140.3 85.7C140.3 87.1 142 88 143.3 87.4C144.6 86.7 145.2 84.7 144.8 83.3C143.9 80.6 138.9 80.3 137.5 84.4C137.4 84.8 137.3 85.3 137.3 85.7C136.3 85.1 135.1 84.8 133.9 84.8C130.5 85 127.4 88 127.5 92.5C127.5 94.3 128 95.9 128.5 97.5C129 99 129.7 100.5 130.3 101.9C125.7 107.1 122.5 112.4 120.7 119.8C120.2 122 119.9 124.2 120 126.5C120 126.6 120 126.8 120 126.9C119.7 126.9 119.4 126.9 119.1 126.9C116.8 127 114.6 127.4 112.5 128.1C105.2 130.4 100.2 134 95.3 138.9C93.8 138.3 92.3 137.8 90.7 137.4C89.1 137 87.4 136.7 85.6 136.7C81.1 136.9 78.3 140.2 78.3 143.6C78.3 144.8 78.7 146 79.4 146.9C79 146.9 78.5 147.1 78.1 147.2C74.2 148.7 74.8 153.7 77.6 154.4ZM114.9 137.9C115.8 138.1 116.7 137.9 117.5 137.4C117 137.8 116.6 138.2 116.2 138.6C116.1 138.8 115.9 139 115.8 139.2C115.6 138.7 115.3 138.2 114.9 137.9ZM114.8 143.4C114.8 143.7 114.8 144 114.9 144.3H113.5C113.6 144.2 113.8 144.1 113.9 144.1C114.3 143.9 114.6 143.7 114.8 143.4ZM127.5 148.5C124.1 150.3 119.4 148.3 118.3 145.3C116.7 141.3 120.4 138.7 121.9 140.3C122.7 141.1 124 141.1 124.8 140.3C127 138.1 123.2 135.2 119.7 136.2C119 136.4 118.4 136.7 117.8 137.1C118.7 136.4 119.2 135.2 118.9 134C118.6 132.8 117 131.9 116 132.3C115.3 132.6 115.1 133.5 115.3 134C115.6 134.7 116.8 134.9 117.1 134.1C118.1 135.5 116.5 136.6 115.5 136.5C114.5 136.3 113.9 136 113.4 135.1C112.7 133.6 113.3 132.1 114.3 130.9C115.7 129.3 117.4 128.8 119.3 128.4C119.5 128.4 119.7 128.4 119.9 128.4C120.1 130 120.6 131.5 121.2 132.9C122.9 136.4 126 138.9 129.4 139.9C129.8 141.2 130.4 142.4 131.3 143.3C130.9 145.7 129.4 147.5 127.5 148.5ZM133.7 144.9C133.9 145 134.2 145.1 134.4 145.2C133.8 145.4 133.3 145.6 132.8 145.9C133 145.5 133.2 145.1 133.3 144.6C133.5 144.8 133.6 144.9 133.7 144.9ZM138.6 139.7C138.6 139.6 138.5 139.6 138.5 139.5C138.8 139.4 139.1 139.2 139.4 139.1C139.2 139.5 139.1 139.9 139 140.4C138.9 140.1 138.8 139.9 138.6 139.7ZM136.6 140.9C137.1 141.7 137.3 142.6 137.4 143.5C136.5 143.5 135.6 143.3 134.8 142.9C132.8 141.9 131.9 140.1 131.6 138.1C133.7 138.1 135.6 139 136.6 140.9ZM129.4 136C129.4 136.6 129.4 137.2 129.4 137.8C126.7 136.8 124.4 134.9 123.1 132.2C122.5 131.1 122.2 129.9 121.9 128.6C123 128.8 124.1 129.1 125.1 129.5C128.1 130.7 130.3 133.1 131.4 135.9C130.7 135.9 130.1 135.9 129.4 136ZM142.3 133.2C141.4 135.3 139.5 136.9 137.1 137.8C136.1 136.9 134.9 136.4 133.6 136.1C132.4 132.4 129.7 129.3 125.8 127.8C124.5 127.3 123.1 127 121.7 126.8C121.7 126.7 121.7 126.7 121.7 126.6C121.9 124.7 122.3 122.9 123.9 121.4C125 120.3 126.5 119.6 128 120.2C128.9 120.6 129.3 121.2 129.5 122.2C129.7 123.2 128.7 124.9 127.3 124C128.1 123.6 127.8 122.4 127.1 122.2C126.6 122 125.7 122.3 125.4 123C125.1 124 126 125.6 127.3 125.8C128.6 126 129.7 125.4 130.3 124.5C130 125.1 129.7 125.7 129.6 126.4C128.8 130 132 133.5 134 131.2C134.7 130.3 134.6 129.1 133.8 128.3C132.1 126.9 134.5 123.1 138.6 124.3C141.5 125.2 143.9 129.7 142.3 133.2ZM137.3 120.9C137 120.9 136.7 120.9 136.4 120.9C136.6 120.6 136.9 120.3 137.1 119.9C137.2 119.8 137.2 119.6 137.3 119.5V120.9ZM130.8 121.4C131.2 121.7 131.7 122 132.2 122.2C132 122.3 131.8 122.5 131.6 122.6C131.2 123 130.8 123.5 130.5 124C131 123.2 131.1 122.3 130.8 121.4ZM129.2 92.3C129.2 88.5 131.7 86.5 133.9 86.5C135.3 86.4 136.7 87.2 137.4 88.1C138.2 89.1 138.2 90.5 137.7 91.8C137.2 93 136 93.9 134.9 93.7C134.4 93.7 133.8 93.3 133.4 92.9C133 92.5 133 92.1 133.1 91.6C133.3 91.1 133.7 90.7 134 90.7C134.2 90.7 134.3 90.7 134.3 90.7C134.3 90.7 134.3 90.7 134.3 90.9C134.2 91.4 134.5 91.9 135 92.1C135.5 92.2 136.1 91.9 136.2 91.4C136.4 90.8 136.3 89.9 135.7 89.4C135.1 88.8 134.3 88.7 133.7 88.8C132.4 89 131.6 90.1 131.3 91.1C131.1 91.6 131.1 92.2 131.2 92.8C131.3 93.4 131.6 93.9 132 94.3C132.4 94.7 132.8 95 133.3 95.2C133.7 95.4 134.3 95.6 134.8 95.6C135.4 95.6 135.9 95.6 136.5 95.4L137.1 112.7C136.8 111.8 136.5 110.9 136.1 110.1C134.3 105.7 131.5 101 130.2 96.9C129.6 95.3 129.3 93.8 129.2 92.3ZM130.9 103.2C130.9 103.2 131 103.2 130.9 103.2C131.1 103.4 131.2 103.7 131.3 104C131.4 105 131.5 106.1 131.5 107.1C131.5 109.3 131.1 110.2 131 110.7C130.6 112.2 129.1 113.5 128 112.3C128.5 111.3 128 110.1 126.9 110.3C125.6 110.6 125.6 111.9 126.1 112.9C127.1 114.8 128.9 114.4 129.6 114.1C130.6 113.6 131.3 112.7 131.7 111.7C132.4 110 132.5 108 132.3 106.1V106.2C133.7 109.1 135.3 112 136 115C137 119.2 134.5 121.7 132.5 120.9C129.4 119.7 131.1 116.6 132.3 117.6C132.7 117.9 132.6 118.1 132.6 118C132.4 118.5 132.6 119.1 133.1 119.3C133.6 119.5 134.2 119.3 134.4 118.8C135.3 116.4 131.2 114.3 129.6 117.5C129.3 118.2 129.2 118.9 129.4 119.6C128 118.5 125.9 118.4 124.2 119.4C123.1 120 122.2 121 121.6 122.2C121.7 121.5 121.8 120.8 122 120.1C123.8 113.1 127 107.8 130.9 103.2ZM96.8 139.2C101.1 135 106.2 131.4 113 129.4C113.7 129.2 114.4 129 115.1 128.9C114 129.6 113.1 130.6 112.5 131.7C111.7 133.4 111.9 135.5 113.1 136.8C112.4 136.7 111.7 136.7 111 137.1C107.9 138.9 110.3 142.8 112.6 141.8C113.1 141.5 113.3 141 113 140.5C112.7 140 112.2 139.8 111.7 140.1C111.9 140.1 111.7 140.3 111.3 139.9C110.3 138.7 113.2 136.8 114.6 139.8C115.5 141.7 113.2 144.4 108.9 143.7C105.8 143.2 102.9 141.9 99.9 140.6H99.8C101.7 140.7 103.7 140.4 105.3 139.6C106.3 139.1 107.2 138.3 107.6 137.3C107.9 136.6 108.2 134.7 106.2 133.8C105.2 133.4 103.8 133.5 103.6 134.7C103.4 135.8 104.7 136.2 105.6 135.6C106.9 136.6 105.7 138.3 104.2 138.7C103.7 138.9 102.8 139.3 100.6 139.5C99.6 139.6 98.5 139.5 97.5 139.5C97.3 139.5 97 139.3 96.8 139.2ZM85.8 138.2C87.3 138.1 88.8 138.4 90.3 138.8C94.5 139.9 99.4 142.3 103.9 143.8C104.8 144.1 105.7 144.4 106.6 144.6L89.3 145.2C89.4 144.7 89.5 144.1 89.4 143.5C89.3 143 89.1 142.5 88.9 142C88.6 141.6 88.3 141.2 87.9 140.8C87.5 140.5 86.9 140.2 86.3 140.1C85.7 140 85.1 140.1 84.6 140.3C83.6 140.7 82.7 141.6 82.5 142.9C82.4 143.5 82.6 144.3 83.2 144.8C83.8 145.4 84.7 145.4 85.3 145.2C85.8 145 86.1 144.5 85.9 143.9C85.7 143.4 85.2 143.1 84.7 143.3C84.5 143.4 84.5 143.3 84.5 143.3C84.5 143.3 84.4 143.2 84.4 143C84.4 142.7 84.8 142.2 85.3 142C85.8 141.8 86.2 141.9 86.6 142.2C87 142.5 87.4 143.1 87.5 143.6C87.7 144.7 86.9 146 85.7 146.6C84.5 147.2 83.1 147.3 82 146.5C81 145.9 80.2 144.5 80.2 143.1C80.2 141.1 82 138.5 85.8 138.2Z" fill="#D2A96A"/>
    <path d="M93.2 60.9L68 39.7C67.4 39.2 66.7 39.1 66 39.4L64.4 47L85.8 107.1L89.2 114.1L95 104L96.6 72.2L93.2 60.9Z" fill="#8B8892"/>
    <path d="M82.8 102.9L45.1 65.2H38.9L39.4 71.7L50.4 105.4L58.6 114.3H88.5C88.7 114.2 88.9 114.2 89.1 114.1L82.8 102.9Z" fill="#8B8892"/>
    <path d="M38.1 67C37.9 67.3 37.9 67.6 37.9 68V98.9C37.9 99.6 38.2 100.2 38.8 100.7L56.5 113.9C56.9 114.2 57.3 114.3 57.8 114.3H58.7L39 65.3L38.1 67Z" fill="#AEADB3"/>
    <path d="M89.7 113.9L111.8 100.7C112.5 100.3 112.9 99.6 112.9 98.8V85.5C112.9 85 112.7 84.5 112.4 84.1L94.7 62.1C94.6 62 94.5 61.9 94.4 61.8L93.2 60.8L89.2 113.9C89.3 114 89.5 114 89.7 113.9Z" fill="#AEADB3"/>
    <path d="M65.9 39.3C65.8 39.3 65.7 39.3 65.6 39.4L48 48.3C47.6 48.5 47.2 48.9 47 49.3L38.9 65.3L89.1 114.1L65.9 39.3Z" fill="#787780"/>
</svg>
