<svg width="151" height="157" viewBox="0 0 151 157" fill="none" xmlns="http://www.w3.org/2000/svg">
    <path d="M75.7 143.6C111.543 143.6 140.6 114.543 140.6 78.7C140.6 42.8567 111.543 13.8 75.7 13.8C39.8567 13.8 10.8 42.8567 10.8 78.7C10.8 114.543 39.8567 143.6 75.7 143.6Z" fill="#4D5B5B"/>
    <path d="M73.6 4.10001C72.2 3.70001 70.2 4.40001 69.6 5.70001C69 7.10001 70 8.80001 71.4 8.70001C72.3 8.60001 72.9 7.80001 72.6 7.00001C72.3 6.20001 70.9 6.50001 71.1 7.40001C70.6 4.90001 73.1 5.30001 73.2 5.30001C75.4 5.80001 75.3 9.50001 72.6 10.4C72 10.6 71.3 10.7 70.6 10.7C70.4 10.5 70.2 10.3 69.9 10.1C69.1 9.50001 68.1 9.20001 67.1 9.10001C66.1 9.10001 65.2 9.30001 64.3 9.70001C63.5 10.1 62.8 10.6 62.3 11.3H38.9C40.5 10.5 41.5 8.70001 41 6.90001C40.6 5.50001 38.5 3.80001 37.3 5.40001C36.4 6.50001 37.9 8.20001 39 7.20001C39.2 7.00001 39.3 6.70001 39.2 6.50001C39.7 7.00001 39.9 8.00001 39.7 8.60001C39.5 9.30001 38.9 10 38.3 10.3C37.3 10.8 36.2 10.8 35.2 10.4C34.7 9.30001 33.9 8.30001 33 7.60001C30.4 5.40001 26.1 4.30001 22.5 6.20001C22 6.50001 21.5 6.80001 21.1 7.10001C22 4.60001 21.5 1.70001 18.8 8.21054e-06C18.2 -0.399992 17.8 0.400008 18.2 0.800008C21 3.20001 20.4 6.80001 18.2 8.70001C15.9 10.7 12.8 10.1 11.7 9.00001C10.6 7.90001 10.4 4.70001 11.9 4.80001C13.3 4.90001 13.8 6.90001 15.1 5.70001C15.8 5.10001 15.8 3.80001 15.4 3.00001C14.6 1.50001 12.7 1.00001 11.2 1.70001C9.40002 2.50001 8.6 4.60001 8.8 6.40001C8.9 7.70001 9.40002 8.70001 10.1 9.50001C9.30002 8.80001 8.20001 8.30001 7.00001 8.20001C5.20001 8.00001 3.1 8.90001 2.3 10.6C1.6 12.1 2.10002 14 3.60002 14.8C4.40002 15.2 5.7 15.2 6.3 14.5C7.5 13.2 5.5 12.7 5.4 11.3C5.3 9.80001 8.50002 10 9.60002 11.1C10.7 12.2 11.3 15.3 9.3 17.6C7.4 19.8 3.7 20.4 1.4 17.6C1 17.1 0.200015 17.6 0.600015 18.2C2.20002 20.7 4.70001 21.3 7.00001 20.7C6.70001 21.1 6.5 21.5 6.3 21.9C4.4 25.5 5.50002 29.8 7.70002 32.4C8.40002 33.3 9.40001 34.1 10.5 34.6C10.8 35.6 10.9 36.7 10.4 37.7C10.1 38.3 9.40002 39 8.70002 39.1C8.20002 39.2 7.20002 39.1 6.60002 38.6C6.80002 38.7 7.1 38.7 7.3 38.4C8.3 37.3 6.70001 35.8 5.50001 36.7C3.90001 37.9 5.60001 40 7.00001 40.4C8.80001 41 10.6 40 11.4 38.3V62C10.7 62.5 10.2 63.2 9.8 64C9.4 64.9 9.20002 65.8 9.20002 66.8C9.20002 67.8 9.60002 68.8 10.2 69.6C10.4 69.8 10.6 70.1 10.8 70.3C10.8 71 10.7 71.7 10.5 72.3C9.50001 74.9 5.8 75.1 5.4 72.9C5.4 72.8 5.00001 70.3 7.50001 70.8C6.60001 70.6 6.30002 72 7.10002 72.3C8.00002 72.6 8.8 72 8.8 71.1C8.9 69.7 7.2 68.7 5.8 69.3C4.4 69.9 3.80002 71.9 4.20002 73.3C5.00002 76.1 10 76.5 11.6 72.4C11.8 72 11.9 71.5 11.9 71.1C12.9 71.7 14.1 72.1 15.3 72.1C18.7 72 21.9 69.1 22 64.6C22 62.8 21.6 61.2 21.2 59.6C20.7 58 20.1 56.6 19.5 55.1C24.2 50 27.7 44.9 29.7 37.6C30.3 35.5 30.7 33.2 30.6 31C30.6 30.9 30.6 30.7 30.6 30.6C30.9 30.6 31.2 30.6 31.5 30.6C33.8 30.6 36 30.2 38.1 29.7C45.4 27.7 50.6 24.2 55.6 19.5C57.1 20.1 58.6 20.7 60.1 21.2C61.7 21.7 63.4 22 65.1 22C69.6 22 72.5 18.7 72.6 15.3C72.6 14.1 72.2 12.9 71.6 11.9C72 11.9 72.5 11.8 72.9 11.6C76.8 10 76.3 5.00001 73.6 4.10001ZM35.7 19.5C34.8 19.3 33.9 19.4 33.1 19.9C33.6 19.6 34 19.2 34.4 18.7C34.6 18.5 34.7 18.3 34.8 18.1C35 18.6 35.3 19.1 35.7 19.5ZM36 13.9C36 13.6 36 13.3 35.9 13H37.3C37.2 13.1 37 13.1 36.9 13.2C36.5 13.4 36.2 13.6 36 13.9ZM23.5 8.40001C27 6.70001 31.6 8.90001 32.6 11.9C34 15.9 30.3 18.4 28.8 16.8C28 16 26.7 15.9 25.9 16.7C23.6 18.8 27.3 21.8 30.8 21C31.5 20.8 32.1 20.5 32.7 20.2C31.8 20.9 31.2 22 31.5 23.3C31.8 24.5 33.3 25.5 34.3 25.1C35 24.8 35.3 23.9 35.1 23.4C34.8 22.7 33.7 22.4 33.3 23.3C32.4 21.9 34 20.8 35 21C36 21.2 36.6 21.6 37 22.5C37.7 24 37 25.5 35.9 26.6C34.5 28.2 32.7 28.6 30.8 28.9C30.6 28.9 30.4 28.9 30.2 28.9C30 27.3 29.7 25.8 29 24.3C27.5 20.7 24.5 18.2 21 17C20.7 15.7 20.1 14.5 19.2 13.5C20 11.1 21.6 9.30001 23.5 8.40001ZM17.2 11.8C17 11.7 16.7 11.5 16.5 11.4C17.1 11.2 17.6 11 18.1 10.7C17.9 11.1 17.7 11.5 17.5 11.9C17.4 11.9 17.3 11.8 17.2 11.8ZM12.1 16.8C12.1 16.9 12.2 16.9 12.2 17C11.9 17.1 11.6 17.2 11.2 17.4C11.4 17 11.6 16.6 11.7 16.1C11.8 16.4 12 16.6 12.1 16.8ZM14.1 15.7C13.7 14.9 13.4 14 13.4 13.1C14.3 13.1 15.2 13.3 16 13.8C17.9 14.8 18.8 16.7 19 18.7C16.9 18.5 15.1 17.7 14.1 15.7ZM21.2 20.9C21.3 20.3 21.3 19.7 21.3 19.1C23.9 20.2 26.2 22.2 27.4 24.9C27.9 26 28.3 27.3 28.5 28.5C27.4 28.3 26.3 28 25.3 27.5C22.4 26.2 20.3 23.7 19.3 20.9C19.8 20.9 20.5 20.9 21.2 20.9ZM8.20002 23.2C9.10002 21.2 11.1 19.6 13.6 18.8C14.6 19.7 15.7 20.3 17 20.6C18.1 24.3 20.7 27.5 24.5 29.2C25.8 29.8 27.2 30.1 28.6 30.3C28.6 30.4 28.6 30.4 28.6 30.5C28.3 32.4 27.8 34.2 26.3 35.6C25.2 36.6 23.7 37.3 22.2 36.7C21.3 36.3 20.9 35.7 20.7 34.7C20.5 33.7 21.6 32.1 23 33C22.2 33.4 22.4 34.6 23.1 34.8C23.6 35 24.5 34.7 24.8 34C25.2 33 24.2 31.4 23 31.2C21.7 30.9 20.6 31.5 19.9 32.4C20.2 31.8 20.5 31.2 20.7 30.5C21.6 27 18.6 23.3 16.4 25.6C15.6 26.4 15.7 27.7 16.5 28.5C18.1 30 15.6 33.7 11.6 32.3C8.70002 31.2 6.50002 26.7 8.20002 23.2ZM12.8 35.6C13.1 35.6 13.4 35.6 13.7 35.7C13.5 36 13.2 36.3 13 36.6C12.9 36.7 12.8 36.9 12.8 37V35.6ZM19.3 35.4C18.9 35 18.4 34.8 17.9 34.6C18.1 34.5 18.3 34.3 18.5 34.2C19 33.8 19.3 33.3 19.7 32.9C19.2 33.5 19 34.5 19.3 35.4ZM19.8 64.5C19.7 68.3 17.1 70.2 14.9 70.2C13.5 70.2 12.1 69.4 11.5 68.5C10.7 67.5 10.7 66.1 11.3 64.8C11.8 63.6 13 62.8 14.2 62.9C14.7 63 15.3 63.3 15.7 63.7C16 64.1 16.1 64.5 15.9 65C15.7 65.5 15.3 65.9 15 65.9C14.8 65.9 14.7 65.9 14.7 65.9C14.7 65.9 14.7 65.9 14.7 65.7C14.8 65.2 14.5 64.7 14 64.5C13.5 64.3 12.9 64.6 12.8 65.1C12.6 65.7 12.7 66.6 13.2 67.2C13.8 67.8 14.5 68 15.2 67.9C16.5 67.7 17.4 66.7 17.7 65.7C17.9 65.2 18 64.6 17.9 64C17.8 63.4 17.5 62.9 17.1 62.5C16.7 62.1 16.3 61.8 15.9 61.5C15.5 61.3 14.9 61.1 14.4 61C13.8 60.9 13.3 61 12.7 61.2V43.9C13 44.8 13.3 45.7 13.6 46.6C15.3 51 17.8 55.9 19.1 60C19.6 61.5 19.9 63 19.8 64.5ZM18.5 53.6C18.3 53.4 18.2 53.1 18.1 52.8C18.1 51.8 18 50.7 18 49.7C18.1 47.5 18.5 46.6 18.6 46.1C19 44.6 20.6 43.4 21.7 44.6C21.1 45.5 21.6 46.8 22.7 46.6C24 46.4 24 45 23.6 44C22.7 42 20.8 42.4 20.1 42.7C19.1 43.1 18.3 44.1 17.9 45C17.1 46.7 17 48.6 17.1 50.6V50.5C15.8 47.6 14.3 44.6 13.7 41.6C12.9 37.3 15.5 35 17.4 35.8C20.5 37.1 18.6 40.1 17.5 39.1C17.1 38.8 17.2 38.5 17.2 38.7C17.4 38.2 17.2 37.6 16.7 37.4C16.2 37.2 15.6 37.4 15.4 37.9C14.5 40.3 18.5 42.5 20.2 39.4C20.6 38.7 20.6 38 20.5 37.3C21.9 38.5 24 38.6 25.7 37.7C26.8 37.1 27.7 36.2 28.4 35C28.3 35.7 28.1 36.4 28 37.1C26 43.9 22.6 49.1 18.5 53.6ZM53.9 18.7C49.4 22.7 44.2 26.2 37.4 28C36.7 28.2 36 28.3 35.3 28.4C36.4 27.7 37.4 26.8 38 25.7C38.9 24 38.8 21.9 37.6 20.5C38.3 20.7 39 20.6 39.7 20.2C42.9 18.5 40.6 14.5 38.2 15.4C37.7 15.6 37.5 16.2 37.7 16.7C37.9 17.2 38.5 17.4 39 17.2C38.8 17.2 39 17 39.4 17.5C40.4 18.7 37.4 20.5 36.1 17.4C35.3 15.4 37.6 12.8 41.9 13.7C44.9 14.3 47.9 15.7 50.8 17.1H50.9C49 17 47 17.1 45.3 17.9C44.3 18.3 43.4 19.1 43 20.1C42.7 20.8 42.3 22.7 44.3 23.6C45.3 24.1 46.6 24 46.9 22.7C47.1 21.6 45.8 21.1 44.9 21.7C43.7 20.6 44.8 19 46.4 18.6C46.9 18.4 47.8 18 50 18C51.1 18 52.1 18 53.1 18.1C53.3 18.5 53.6 18.6 53.9 18.7ZM64.8 20.1C63.3 20.1 61.8 19.8 60.3 19.4C56.1 18.2 51.3 15.6 46.9 13.9C46.1 13.6 45.2 13.3 44.2 13H61.5C61.3 13.5 61.3 14.1 61.3 14.7C61.4 15.2 61.5 15.8 61.8 16.2C62 16.6 62.4 17.1 62.8 17.4C63.2 17.8 63.7 18 64.3 18.2C64.9 18.3 65.5 18.2 66 18C67 17.6 68 16.8 68.2 15.5C68.3 14.9 68.1 14.1 67.5 13.5C66.9 12.9 66 12.9 65.4 13.1C64.9 13.3 64.6 13.8 64.8 14.3C65 14.8 65.5 15.1 66 15C66.2 14.9 66.2 15 66.2 15C66.2 15 66.3 15.1 66.2 15.3C66.2 15.6 65.8 16 65.3 16.2C64.8 16.4 64.4 16.3 64 16C63.6 15.7 63.3 15.1 63.2 14.5C63.1 13.3 63.8 12.1 65.1 11.6C66.3 11 67.7 11 68.8 11.8C69.7 12.5 70.5 13.9 70.5 15.2C70.5 17.4 68.6 20 64.8 20.1Z" fill="#D2A96A"/>
    <path d="M77.9 154.4C79.3 154.8 81.3 154 81.9 152.7C82.5 151.3 81.4 149.6 80 149.8C79.1 149.9 78.5 150.7 78.8 151.6C79.1 152.4 80.5 152.1 80.3 151.2C80.9 153.7 78.3 153.3 78.3 153.3C76.1 152.9 76.1 149.2 78.7 148.1C79.3 147.9 80 147.8 80.7 147.7C80.9 147.9 81.1 148.1 81.4 148.3C82.2 148.9 83.2 149.2 84.2 149.2C85.2 149.2 86.1 148.9 87 148.5C87.7 148.1 88.4 147.6 88.9 146.8L112.3 146C110.7 146.9 109.8 148.7 110.4 150.4C110.9 151.7 113 153.4 114.2 151.8C115 150.6 113.5 149 112.4 150.1C112.2 150.3 112.2 150.6 112.3 150.8C111.8 150.3 111.6 149.3 111.7 148.8C111.8 148.1 112.4 147.4 113.1 147.1C114.1 146.5 115.1 146.6 116.2 146.9C116.8 148 117.6 148.9 118.5 149.6C121.2 151.7 125.5 152.6 129.1 150.6C129.6 150.3 130.1 150 130.5 149.6C129.7 152.1 130.3 155 133 156.6C133.6 156.9 134 156.1 133.5 155.7C130.6 153.4 131.1 149.8 133.2 147.8C135.4 145.7 138.5 146.2 139.7 147.3C140.9 148.4 141.2 151.6 139.7 151.5C138.2 151.5 137.8 149.4 136.5 150.7C135.8 151.3 135.9 152.6 136.3 153.4C137.1 154.9 139 155.3 140.5 154.6C142.2 153.7 143 151.7 142.8 149.8C142.6 148.5 142.1 147.5 141.4 146.7C142.2 147.4 143.3 147.9 144.6 147.9C146.4 148 148.5 147.1 149.2 145.3C149.8 143.8 149.3 141.9 147.8 141.2C147 140.8 145.7 140.9 145.2 141.5C144.1 142.9 146.1 143.2 146.2 144.7C146.3 146.2 143.2 146.1 142 145C140.9 143.9 140.1 140.9 142.1 138.5C144 136.2 147.6 135.5 150 138.2C150.4 138.7 151.2 138.2 150.8 137.6C149.1 135.2 146.6 134.6 144.3 135.3C144.6 134.9 144.8 134.5 145 134.1C146.7 130.4 145.5 126.2 143.2 123.6C142.4 122.7 141.4 122 140.3 121.5C139.9 120.5 139.8 119.4 140.3 118.4C140.6 117.7 141.2 117.1 141.9 116.9C142.4 116.8 143.4 116.9 144 117.4C143.8 117.3 143.5 117.3 143.3 117.6C142.3 118.8 144 120.2 145.1 119.3C146.6 118 144.9 116 143.5 115.6C141.7 115.1 139.9 116.1 139.2 117.8L138.4 94.4C139.1 93.8 139.6 93.1 139.9 92.4C140.3 91.5 140.5 90.6 140.4 89.6C140.3 88.6 140 87.6 139.3 86.9C139.1 86.7 138.9 86.5 138.7 86.3C138.7 85.6 138.8 84.9 139 84.3C139.9 81.7 143.6 81.4 144.1 83.6C144.1 83.7 144.6 86.2 142.1 85.8C143 85.9 143.2 84.5 142.4 84.3C141.5 84 140.7 84.6 140.7 85.6C140.7 87 142.4 87.9 143.7 87.3C145 86.6 145.6 84.6 145.2 83.2C144.3 80.5 139.3 80.2 137.9 84.3C137.8 84.7 137.7 85.2 137.7 85.6C136.7 85 135.5 84.7 134.3 84.7C130.9 84.9 127.8 87.9 127.9 92.4C127.9 94.2 128.4 95.8 128.9 97.4C129.4 98.9 130.1 100.4 130.7 101.8C126.1 107 122.9 112.3 121.1 119.7C120.6 121.9 120.3 124.1 120.4 126.4C120.4 126.5 120.4 126.7 120.4 126.8C120.1 126.8 119.8 126.8 119.5 126.8C117.2 126.9 115 127.3 112.9 128C105.6 130.3 100.6 133.9 95.7 138.8C94.2 138.2 92.7 137.7 91.1 137.3C89.5 136.9 87.8 136.6 86 136.6C81.5 136.8 78.7 140.1 78.7 143.5C78.7 144.7 79.1 145.9 79.8 146.8C79.4 146.8 78.9 147 78.5 147.1C74.6 148.7 75.1 153.7 77.9 154.4ZM115.3 137.9C116.2 138.1 117.1 137.9 117.9 137.4C117.4 137.8 117 138.2 116.6 138.6C116.5 138.8 116.3 139 116.2 139.2C116 138.7 115.7 138.2 115.3 137.9ZM115.2 143.4C115.2 143.7 115.2 144 115.3 144.3H113.9C114 144.2 114.2 144.1 114.3 144.1C114.6 143.9 114.9 143.7 115.2 143.4ZM127.9 148.5C124.5 150.3 119.8 148.3 118.7 145.3C117.1 141.3 120.8 138.7 122.3 140.3C123.1 141.1 124.4 141.1 125.2 140.3C127.4 138.1 123.6 135.2 120.1 136.2C119.4 136.4 118.8 136.7 118.2 137.1C119.1 136.4 119.6 135.2 119.3 134C119 132.8 117.4 131.9 116.4 132.3C115.7 132.6 115.5 133.5 115.7 134C116 134.7 117.2 134.9 117.5 134.1C118.5 135.5 116.9 136.6 115.9 136.5C114.9 136.3 114.3 136 113.8 135.1C113.1 133.6 113.7 132.1 114.7 130.9C116.1 129.3 117.8 128.8 119.7 128.4C119.9 128.4 120.1 128.4 120.3 128.4C120.5 130 121 131.5 121.6 132.9C123.3 136.4 126.4 138.9 129.8 139.9C130.2 141.2 130.8 142.4 131.7 143.3C131.2 145.7 129.7 147.5 127.9 148.5ZM134.1 144.9C134.3 145 134.6 145.1 134.8 145.2C134.2 145.4 133.7 145.6 133.2 145.9C133.4 145.5 133.6 145.1 133.7 144.6C133.9 144.8 134 144.9 134.1 144.9ZM139 139.7C139 139.6 138.9 139.6 138.9 139.5C139.2 139.4 139.5 139.2 139.8 139.1C139.6 139.5 139.5 139.9 139.4 140.4C139.2 140.1 139.1 139.9 139 139.7ZM137 140.9C137.5 141.7 137.7 142.6 137.8 143.5C136.9 143.5 136 143.3 135.2 142.9C133.2 141.9 132.3 140.1 132 138.1C134 138.1 135.9 139 137 140.9ZM129.8 136C129.8 136.6 129.8 137.2 129.8 137.8C127.1 136.8 124.8 134.9 123.5 132.2C122.9 131.1 122.6 129.9 122.3 128.6C123.4 128.8 124.5 129.1 125.5 129.5C128.5 130.7 130.7 133.1 131.8 135.9C131.1 135.9 130.4 135.9 129.8 136ZM142.6 133.2C141.7 135.3 139.8 136.9 137.4 137.8C136.4 136.9 135.2 136.4 133.9 136.1C132.7 132.4 130 129.3 126.1 127.8C124.8 127.3 123.4 127 122 126.8C122 126.7 122 126.7 122 126.6C122.2 124.7 122.6 122.9 124.2 121.4C125.3 120.3 126.8 119.6 128.3 120.2C129.2 120.6 129.6 121.2 129.8 122.2C130 123.2 129 124.9 127.6 124C128.4 123.6 128.1 122.4 127.4 122.2C126.9 122 126 122.3 125.7 123C125.4 124 126.3 125.6 127.6 125.8C128.9 126 130 125.4 130.6 124.5C130.3 125.1 130 125.7 129.9 126.4C129.1 130 132.3 133.5 134.3 131.2C135 130.3 134.9 129.1 134.1 128.3C132.4 126.9 134.8 123.1 138.9 124.3C141.9 125.2 144.2 129.7 142.6 133.2ZM137.7 120.9C137.4 120.9 137.1 120.9 136.8 120.9C137 120.6 137.3 120.3 137.5 119.9C137.6 119.8 137.6 119.6 137.7 119.5V120.9ZM131.2 121.4C131.6 121.7 132.1 122 132.6 122.2C132.4 122.3 132.2 122.5 132 122.6C131.6 123 131.2 123.5 130.9 124C131.3 123.2 131.4 122.3 131.2 121.4ZM129.6 92.3C129.6 88.5 132.1 86.5 134.3 86.5C135.7 86.4 137.1 87.2 137.8 88.1C138.6 89.1 138.6 90.5 138.1 91.8C137.6 93 136.4 93.9 135.3 93.7C134.8 93.7 134.2 93.3 133.8 92.9C133.4 92.5 133.4 92.1 133.5 91.6C133.7 91.1 134.1 90.7 134.4 90.7C134.6 90.7 134.7 90.7 134.7 90.7C134.7 90.7 134.7 90.7 134.7 90.9C134.6 91.4 134.9 91.9 135.4 92.1C135.9 92.2 136.5 91.9 136.6 91.4C136.8 90.8 136.7 89.9 136.1 89.4C135.5 88.8 134.7 88.7 134.1 88.8C132.8 89 132 90.1 131.7 91.1C131.5 91.6 131.5 92.2 131.6 92.8C131.7 93.4 132 93.9 132.4 94.3C132.8 94.7 133.2 95 133.7 95.2C134.1 95.4 134.7 95.6 135.2 95.6C135.8 95.6 136.3 95.6 136.9 95.4L137.5 112.7C137.2 111.8 136.9 110.9 136.5 110.1C134.7 105.7 131.9 101 130.6 96.9C130 95.3 129.6 93.8 129.6 92.3ZM131.3 103.2C131.5 103.4 131.6 103.7 131.7 104C131.8 105 131.9 106.1 131.9 107.1C131.9 109.3 131.5 110.2 131.4 110.7C131 112.2 129.5 113.5 128.4 112.3C128.9 111.3 128.4 110.1 127.3 110.3C126 110.6 126 111.9 126.5 112.9C127.5 114.8 129.3 114.4 130 114.1C131 113.6 131.7 112.7 132.1 111.7C132.8 110 132.9 108 132.7 106.1V106.2C134.1 109.1 135.7 112 136.4 115C137.4 119.2 134.9 121.7 132.9 120.9C129.8 119.7 131.5 116.6 132.7 117.6C133.1 117.9 133 118.1 133 118C132.8 118.5 133 119.1 133.5 119.3C134 119.5 134.6 119.3 134.8 118.8C135.7 116.4 131.6 114.3 130 117.5C129.7 118.2 129.6 118.9 129.8 119.6C128.4 118.5 126.3 118.4 124.6 119.4C123.5 120 122.6 121 122 122.2C122.1 121.5 122.2 120.8 122.4 120.1C124.1 113.1 127.4 107.8 131.3 103.2ZM97.1 139.2C101.4 135 106.5 131.4 113.3 129.4C114 129.2 114.7 129 115.4 128.9C114.3 129.6 113.4 130.6 112.8 131.7C112 133.4 112.2 135.5 113.4 136.8C112.7 136.7 112 136.7 111.3 137.1C108.2 138.9 110.6 142.8 112.9 141.8C113.4 141.5 113.6 141 113.3 140.5C113 140 112.5 139.8 112 140.1C112.2 140.1 112 140.3 111.6 139.9C110.6 138.7 113.5 136.8 114.9 139.8C115.8 141.7 113.5 144.4 109.2 143.7C106.1 143.2 103.2 141.9 100.2 140.6H100.1C102 140.7 104 140.4 105.6 139.6C106.6 139.1 107.5 138.3 107.9 137.3C108.2 136.6 108.5 134.7 106.5 133.8C105.5 133.4 104.1 133.5 103.9 134.7C103.7 135.8 105 136.2 105.9 135.6C107.2 136.6 106 138.3 104.5 138.7C104 138.9 103.1 139.3 100.9 139.5C99.9 139.6 98.8 139.5 97.8 139.5C97.7 139.5 97.4 139.3 97.1 139.2ZM86.1 138.2C87.6 138.1 89.1 138.4 90.6 138.8C94.8 139.9 99.7 142.3 104.2 143.8C105.1 144.1 106 144.4 106.9 144.6L89.6 145.2C89.7 144.7 89.8 144.1 89.7 143.5C89.6 143 89.4 142.5 89.2 142C88.9 141.6 88.6 141.2 88.2 140.8C87.8 140.5 87.2 140.2 86.6 140.1C86 140 85.4 140.1 84.9 140.3C83.9 140.7 83 141.6 82.8 142.9C82.7 143.5 82.9 144.3 83.5 144.8C84.1 145.4 85 145.4 85.6 145.2C86.1 145 86.4 144.5 86.2 143.9C86 143.4 85.5 143.1 85 143.3C84.8 143.4 84.8 143.3 84.8 143.3C84.8 143.3 84.7 143.2 84.7 143C84.7 142.7 85.1 142.2 85.6 142C86.1 141.8 86.5 141.9 86.9 142.2C87.3 142.5 87.7 143.1 87.8 143.6C88 144.7 87.2 146 86 146.6C84.8 147.2 83.4 147.3 82.3 146.5C81.3 145.9 80.5 144.5 80.5 143.1C80.6 141.1 82.3 138.5 86.1 138.2Z" fill="#D2A96A"/>
    <path d="M73.9 106.2C64.7 113.1 51.6 111.3 44.6 102C37.6 92.7 39.5 79.7 48.8 72.7L83 47.1L108.1 80.5L73.9 106.2Z" fill="#A16B4E"/>
    <path opacity="0.1" d="M80.3 49.1L102.8 79.1L68.6 104.8C64 108.3 58.4 109.5 53.1 108.8C59.7 111.6 67.7 110.9 73.9 106.3L108.1 80.6L83 47.1L80.3 49.1Z" fill="black"/>
    <g opacity="0.1">
        <path opacity="0.1" d="M74 82.4L69.9 85.5C67.7 87.2 64.9 87.9 62.1 87.5C60 87.2 57.9 87.7 56.1 89L48.5 94.7C48 95.1 47.2 95 46.8 94.5C46.4 94 46.5 93.2 47 92.8L54.6 87.1C56.8 85.4 59.6 84.7 62.4 85.1C64.5 85.4 66.6 84.9 68.4 83.6L72.5 80.5C73 80.1 73.8 80.2 74.2 80.7C74.6 81.2 74.6 81.9 74 82.4Z" fill="black"/>
        <path opacity="0.1" d="M76.8 64.3L69.6 69.7C69.1 70.1 68.3 70 67.9 69.5C67.5 69 67.6 68.2 68.1 67.8L75.3 62.4C75.8 62 76.6 62.1 77 62.6C77.5 63.2 77.4 63.9 76.8 64.3Z" fill="black"/>
        <path opacity="0.1" d="M63.7 97.2L55.2 103.6C54.7 104 53.9 103.9 53.5 103.4C53.1 102.9 53.2 102.1 53.7 101.7L62.2 95.3C62.7 94.9 63.5 95 63.9 95.5C64.4 96 64.3 96.8 63.7 97.2Z" fill="black"/>
        <path opacity="0.1" d="M85.6 91L72.3 101C71.8 101.4 71 101.3 70.6 100.8C70.2 100.3 70.3 99.5 70.8 99.1L84.1 89.1C84.6 88.7 85.4 88.8 85.8 89.3C86.3 89.8 86.2 90.6 85.6 91Z" fill="black"/>
    </g>
    <path d="M95.5 84.7C107.043 84.7 116.4 75.3428 116.4 63.8C116.4 52.2573 107.043 42.9 95.5 42.9C83.9572 42.9 74.6 52.2573 74.6 63.8C74.6 75.3428 83.9572 84.7 95.5 84.7Z" fill="#FAD97E"/>
    <path opacity="0.1" d="M97.4 43C101.8 44.2 105.8 46.7 108.7 50.6C115.6 59.8 113.8 72.9 104.5 79.9C100.2 83.1 95.1 84.4 90.1 84C96.1 85.6 102.7 84.5 108 80.5C117.2 73.6 119.1 60.5 112.2 51.2C108.5 46.3 103.1 43.5 97.4 43Z" fill="black"/>
    <g opacity="0.1">
        <path opacity="0.1" d="M102.4 77.5C102.3 77.5 102.3 77.6 102.2 77.6C95.6 80.8 87.7 78.8 83.3 73C78.2 66.2 79.6 56.6 86.3 51.5C89.5 49.1 93.4 48.1 97.3 48.5C98 48.6 98.5 49.2 98.4 49.9C98.3 50.6 97.7 51.1 97 51C93.7 50.6 90.4 51.5 87.8 53.5C82.1 57.8 81 65.8 85.2 71.5C88.9 76.4 95.5 78 101 75.4C101.6 75.1 102.4 75.4 102.7 76C103 76.5 102.8 77.2 102.4 77.5Z" fill="black"/>
        <path opacity="0.1" d="M107.3 73.6C106.9 73.9 106.2 73.9 105.8 73.6C105.3 73.2 105.2 72.4 105.6 71.9C109.2 67.3 109.3 60.9 105.8 56.2C104.7 54.7 103.2 53.5 101.6 52.6C101 52.3 100.8 51.5 101.1 50.9C101.4 50.3 102.2 50.1 102.8 50.4C104.8 51.5 106.5 52.9 107.8 54.7C112 60.3 111.9 68 107.6 73.4C107.5 73.4 107.4 73.5 107.3 73.6Z" fill="black"/>
        <path opacity="0.1" d="M100.5 70.5C99.2 71.5 97.6 72.1 95.9 72.2C95.2 72.2 94.6 71.7 94.6 71C94.6 70.3 95.1 69.7 95.8 69.7C97 69.6 98.1 69.2 99 68.5C100.6 67.3 101.4 65.4 101.3 63.5C101.3 62.8 101.8 62.2 102.5 62.2C103.2 62.2 103.8 62.7 103.8 63.4C104 66.1 102.8 68.8 100.5 70.5Z" fill="black"/>
        <path opacity="0.1" d="M101.9 60.6C101.4 61 100.6 60.9 100.2 60.4C98.8 58.5 96.3 57.6 94 58.3C93.3 58.5 92.7 58.1 92.5 57.4C92.3 56.7 92.7001 56.1 93.4001 55.9C96.7001 55 100.3 56.2 102.3 58.9C102.6 59.4 102.5 60.2 101.9 60.6Z" fill="black"/>
        <path opacity="0.1" d="M91.9 70.3C91.5 70.6 90.8 70.6 90.4 70.3C89.9 69.9 89.4 69.4 88.9 68.8C87 66.3 86.6999 62.9 88.0999 60.1C88.3999 59.5 89.2 59.2 89.8 59.6C90.4 59.9 90.7 60.7 90.3 61.3C89.3 63.3 89.5 65.6 90.8 67.4C91.1 67.8 91.4 68.1 91.8 68.5C92.3 68.9 92.4 69.7 92 70.2C92 70.2 92 70.3 91.9 70.3Z" fill="black"/>
    </g>
    <path d="M58.7 69C61.8 69.4 64 72.3 63.5 75.4C63.1 78.5 60.2 80.7 57.1 80.2L43.2 78.2L44.8 66.9L58.7 69Z" fill="#A16B4E"/>
    <path opacity="0.1" d="M58.7 69C61.8 69.4 64 72.3 63.5 75.4C63.1 78.5 60.2 80.7 57.1 80.2L43.2 78.2L44.8 66.9L58.7 69Z" fill="black"/>
    <path d="M44 78.4C47.148 78.4 49.7 75.848 49.7 72.7C49.7 69.552 47.148 67 44 67C40.852 67 38.3 69.552 38.3 72.7C38.3 75.848 40.852 78.4 44 78.4Z" fill="#FAD97E"/>
</svg>
