<?xml version="1.0" encoding="utf-8"?>
<!-- Generator: Adobe Illustrator 24.2.3, SVG Export Plug-In . SVG Version: 6.00 Build 0)  -->
<svg version="1.1" id="arrow" xmlns="http://www.w3.org/2000/svg" xmlns:xlink="http://www.w3.org/1999/xlink" x="0px" y="0px"
	 viewBox="0 0 224 82" style="enable-background:new 0 0 224 82;" xml:space="preserve">
<style type="text/css">
	.st0{fill:#82A09F;}
	.st1{fill:#BA9361;}
</style>
<g>
	<g>
		<path class="st0" d="M175.8,50.8l0,7.6l38.1-13.2L176,31.8l0,7.6l-166,0.1L9.8,50.9L175.8,50.8z"/>
		<path class="st1" d="M7.1,53.6C6.4,52.8,6,51.9,6,50.9l0.1-11.4c0-1,0.4-2,1.1-2.7s1.7-1.1,2.7-1.1l162.2-0.1l0-3.8
			c0-1.2,0.6-2.4,1.6-3.1c1-0.7,2.3-0.9,3.5-0.5l37.9,13.4c1.5,0.5,2.5,2,2.5,3.6c0,1.6-1,3-2.6,3.6L177,62
			c-1.2,0.4-2.5,0.2-3.5-0.5c-1-0.7-1.6-1.9-1.6-3.1l0-3.8L9.8,54.7C8.8,54.7,7.8,54.3,7.1,53.6L7.1,53.6z M13.6,43.3l0,3.8
			L175.9,47c2.1,0,3.8,1.7,3.8,3.8l0,2.2l22.7-7.9l-22.7-8l0,2.2c0,2.1-1.7,3.8-3.8,3.8L13.6,43.3z"/>
	</g>
	<path class="st1" d="M42.2,65.1c-0.2-0.2-0.4-0.5-0.6-0.7c-1.1-1.8-0.5-4.1,1.3-5.2l17.2-10.2l0-7.1L43.1,31.5
		c-1.8-1.1-2.4-3.4-1.3-5.2c1.1-1.8,3.4-2.4,5.2-1.3L66,36.4c1.1,0.7,1.8,1.9,1.8,3.3l-0.1,11.4c0,1.3-0.7,2.6-1.9,3.3L46.8,65.7
		C45.3,66.6,43.4,66.3,42.2,65.1L42.2,65.1z"/>
	<path class="st1" d="M20.9,65.4c-0.2-0.2-0.4-0.5-0.6-0.7c-1.1-1.8-0.5-4.1,1.3-5.2l17.2-10.2l0-7.1L21.8,31.8
		c-1.8-1.1-2.4-3.4-1.3-5.2c1.1-1.8,3.4-2.4,5.2-1.3l18.9,11.5c1.1,0.7,1.8,1.9,1.8,3.3l-0.1,11.4c0,1.3-0.7,2.6-1.9,3.3L25.5,66
		C24,66.9,22.1,66.6,20.9,65.4L20.9,65.4z"/>
	<path class="st1" d="M61.2,65.2c-0.2-0.2-0.4-0.5-0.6-0.7c-1.1-1.8-0.5-4.1,1.3-5.2L79.1,49l0-7.1L62.1,31.5
		c-1.8-1.1-2.4-3.4-1.3-5.2c1.1-1.8,3.4-2.4,5.2-1.3L85,36.5c1.1,0.7,1.8,1.9,1.8,3.3l-0.1,11.4c0,1.3-0.7,2.6-1.9,3.3L65.8,65.8
		C64.3,66.7,62.4,66.4,61.2,65.2L61.2,65.2z"/>
</g>
</svg>
