<?xml version="1.0" encoding="utf-8"?>
<!-- Generator: Adobe Illustrator 24.2.3, SVG Export Plug-In . SVG Version: 6.00 Build 0)  -->
<svg version="1.1" id="Capa_1" xmlns="http://www.w3.org/2000/svg" xmlns:xlink="http://www.w3.org/1999/xlink" x="0px" y="0px"
	 viewBox="0 0 512 512" style="enable-background:new 0 0 512 512;" xml:space="preserve">
<style type="text/css">
	.st0{fill:#F3D035;}
	.st1{fill:#E39510;}
	.st2{fill:#E2C033;}
	.st3{fill:#D18311;}
</style>
<g>
	<path class="st0" d="M453,130.7L453,130.7C452.9,130.7,453,130.8,453,130.7C441.4,162,399.7,242.1,346.4,241
		c-31.5-0.9-58.3-52.3-71.8-137.6H256h-18.6c-13.5,85.3-40.3,136.7-71.8,137.6c-0.5,0-1,0-1.4,0c-51.8,0-93.7-79.3-105.1-110.2
		c0-0.1,0-0.1,0-0.1v0l-28.2,10.4C33.3,147.8,91,306.6,91,466h165h165c0-159.4,57.7-318.2,60.1-324.9L453,130.7z"/>
	<path class="st1" d="M481.1,141.1L453,130.7v0c0,0,0,0,0,0.1C441.4,162,399.7,242.1,346.4,241c-31.5-0.9-58.3-52.3-71.8-137.6H256
		c-6.8,85.6,10.6,144.5,29,183.5c17.1,36.3,38.9,63.4,33,100c-5.9,36.7-36.4,62.6-62,79.1c55,0,110,0,165,0
		C421,306.6,478.7,147.8,481.1,141.1z"/>
	<g>
		<g>
			<path class="st2" d="M136,391H76c-8.3,0-15-6.7-15-15s6.7-15,15-15h60c8.3,0,15,6.7,15,15S144.3,391,136,391z"/>
		</g>
	</g>
	<g>
		<g>
			<path class="st3" d="M436,391h-60c-8.3,0-15-6.7-15-15s6.7-15,15-15h60c8.3,0,15,6.7,15,15S444.3,391,436,391z"/>
		</g>
	</g>
	<g>
		<g>
			<path class="st3" d="M467,181c-24.8,0-45-20.2-45-45s20.2-45,45-45s45,20.2,45,45S491.8,181,467,181z"/>
		</g>
	</g>
	<g>
		<g>
			<path class="st2" d="M45,181c-24.8,0-45-20.2-45-45s20.2-45,45-45s45,20.2,45,45S69.8,181,45,181z"/>
		</g>
	</g>
	<path class="st2" d="M436,451H256H76c-8.3,0-15,6.7-15,15s6.7,15,15,15h180h180c8.3,0,15-6.7,15-15S444.3,451,436,451z"/>
	<path class="st3" d="M451,466c0-8.3-6.7-15-15-15c-53.1,0-106.2,0-159.3,0c2.7,0.3,12.4,1.6,20.5,9.8c7.9,8,9.2,17.5,9.5,20.2
		c43.1,0,86.2,0,129.3,0C444.3,481,451,474.3,451,466z"/>
	<circle class="st0" cx="256" cy="76" r="45"/>
	<path class="st2" d="M301,76c0-24.8-20.2-45-45-45c2.5,2.1,21.9,19.1,21,46.9c-0.8,25.6-18.2,40.7-21,43.1
		C282.1,116,301,96.5,301,76z"/>
</g>
</svg>
