<?xml version="1.0" encoding="utf-8"?>
<!-- Generator: Adobe Illustrator 24.2.3, SVG Export Plug-In . SVG Version: 6.00 Build 0)  -->
<svg version="1.1" id="Calque_1" xmlns="http://www.w3.org/2000/svg" xmlns:xlink="http://www.w3.org/1999/xlink" x="0px" y="0px"
	 viewBox="0 0 848 1280" style="enable-background:new 0 0 848 1280;" xml:space="preserve">
<style type="text/css">
	.st0{fill:#424242;}
	.st1{fill:#D2A96A;}
	.st2{fill:#4C4C4C;}
	.st3{enable-background:new    ;}
	.st4{fill:#707070;}
</style>
<g transform="translate(0.000000,1280.000000) scale(0.100000,-0.100000)">
	<path class="st0" d="M7752.6,6363.7c-2.3-316.8-7.3-829.6-77.1-1499.5C7516.1,3333.8,7436.3,2568.7,6975,1900
		C6434.9,1117.1,5357.1,365.6,4057.7,435.6c-75.1,4-1519.6,104.7-2404.7,1274.4c-435.5,575.5-527.2,1142.3-674.5,1970.9
		C844,4436.9,909,4680.2,919,6395c12.2,2100.6-81.3,2457.6,146.7,3341c174.3,675.5,314.6,1221.7,797.3,1732
		c940,993.8,2307.6,941.8,2500.6,931.4c154-8.3,1575.3-98.1,2454.5-1225.5c371-475.8,478.7-966.7,694-1948.6
		C7759.8,8095.4,7758.2,7150.6,7752.6,6363.7z"/>
	<path class="st1" d="M4055,12746c-45-20-62-45-73-105s-8-77,15-85c37-15,59,45,26,70c-17,12-17,15-3,41c14,24,22,28,68,31
		c47,3,56,0,82-27c25-25,30-37,30-79c0-69-30-109-109-149c-48-24-83-33-140-37c-126-10-375-46-462-67c-45-11-84-18-86-15
		c-2,2,15,11,38,20c23,10,67,34,98,54c30,20,64,42,76,47c26,14,31,41,9,49c-13,5-25-2-42-23c-52-68-244-149-372-157l-75-5l49,46
		c37,34,46,49,36,55c-9,5-29-9-64-46l-51-53l-135,13c-74,7-128,14-120,15c8,0,29,13,45,27c32,27,30,27-60-8c-90-36-194-17-435,78
		c-91,36-100,38-215,38c-146,1-188-9-368-86c-143-61-287-118-298-118c-4,0,8,15,26,33c19,19,37,47,41,62c9,37-21,95-59,113
		c-25,12-35,12-75-4c-26-10-55-18-66-18c-23-1-41-28-33-50c11-27,54-20,69,12c10,21,21,28,49,30c30,3,37-1,47-23
		c32-69-12-131-114-161c-118-35-261-21-558,52c-82,20-165,34-201,34c-126,0-216-49-231-125c-14-75,27-120,135-152c50-14,53-17,32-25
		c-79-29-64-130,30-198c48-35,173-77,257-86c41-5,63-14,79-31c12-12,30-23,41-23c36,0,92-79,92-132c0-59-67-130-136-144
		c-30-6-35-2-88,70c-99,131-245,253-376,315c-33,16-77,44-98,63c-70,63-133,100-220,128c-87,29-105,30-96,6c3-8,20-13,43-12
		c45,1,168-57,221-104l35-31l-33,6c-17,3-46,8-63,11c-22,4-29,3-25-5c4-6,18-11,30-11c13,0,47-8,75-17c62-20,116-75,181-185
		c24-40,52-84,62-97c12-16,15-28,9-34s-31,7-70,35c-83,63-146,91-213,96c-73,5-98-1-131-34c-34-34-36-78-4-98c35-22,97-30,97-12
		c0,10-11,14-35,13c-43-1-60,14-51,47c16,65,118,77,222,26c75-37,163-114,197-173c56-96,60-122,61-402c1-244,2-264,24-320
		c12-33,31-72,42-87c26-35,26-35-10-30c-80,12-143-30-186-123c-43-91-22-183,53-244c34-28,42-41,56-104c38-166,48-278,84-1017
		c25-499,28-623,27-1230c-1-371-6-787-12-924c-7-174-6-453,2-925c18-1120,14-1704-17-2351c-37-746-45-848-84-1017
		c-14-63-22-76-56-104c-75-61-96-153-53-244c43-93,106-135,186-123c36,5,36,5,10-30c-11-15-30-54-42-87c-22-56-23-76-24-320
		c-1-279-5-307-60-401c-33-58-123-138-199-175c-105-51-204-40-221,27c-9,33,8,48,51,47c24-1,35,3,35,13c0,18-62,10-97-12
		c-32-20-30-64,4-98c33-33,59-40,137-34c70,6,114,26,205,93c65,48,99,50,63,4c-10-13-37-56-60-95c-79-136-163-204-254-204
		c-15,0-30-5-34-11c-7-11,25-9,96,8c22,6,23,4,12-10c-43-52-212-132-256-121c-16,4-25,0-29-10c-8-21,7-28,35-17c13,5,48,17,78,26
		c59,18,138,65,198,119c20,18,66,48,102,66c143,72,276,184,376,316c30,41,62,74,70,74c56,0,139-71,150-127c12-64-37-142-98-157
		c-15-3-29-14-33-25c-4-14-19-19-68-24c-77-7-188-41-245-74c-55-32-102-95-102-140c0-32,28-73,50-73c29,0,3-17-49-32
		c-77-23-121-65-121-116c0-87,78-142,209-150c64-3,104,2,246,36c230,55,285,64,391,64c114,1,190-21,238-66c38-35,45-66,25-110
		s-81-38-99,9c-11,30-46,32-63,3c-14-21,7-48,36-48c12,0,40-7,63-16c36-14,46-14,71-2c38,18,68,76,59,113c-4,15-22,43-41,62
		c-18,18-29,33-25,33s79-30,166-66c88-36,191-78,229-94c149-60,328-64,475-10c215,80,251,90,321,96c60,5,83,3,124-14
		c90-35,92-35,60-8c-16,14-37,27-45,27c-8,1,46,7,120,15l135,12l53-55c38-40,57-52,64-45c8,8-3,24-38,56l-49,45l46,1
		c115,1,342-89,398-158c20-24,35-33,46-28c21,8,16,36-10,50c-11,6-35,21-53,34s-70,41-115,63s-73,38-62,35s46-12,77-20
		c94-24,294-55,433-66c114-10,138-15,195-43c80-40,110-80,110-147c0-58-26-95-75-109c-47-13-87,0-105,33c-14,25-13,28,3,40
		c33,25,15,79-23,69c-26-7-29-21-18-86c17-100,96-140,185-96c66,34,86,73,80,166c-9,164-108,224-437,268c-272,36-385,63-666,159
		c-316,108-504,198-749,361c-378,251-580,456-860,875c-139,208-154,242-36,82c52-70,81-98,81-77c0,15-40,82-129,215
		c-190,287-292,527-365,855c-63,290-84,441-121,880c-46,565-46,564-46,2560s0,1995,46,2560c37,439,58,591,122,880
		c78,352,179,585,389,890c88,129,124,205,85,180c-6-3-43-51-82-106c-74-103-98-130-53-56c239,383,445,636,659,813
		c364,299,670,464,1140,617c207,67,344,98,582,132c100,14,211,34,247,45c128,40,196,121,196,234c0,80-23,124-80,154
		C4120,12763,4098,12765,4055,12746z M2492,12367c75-26,149-47,165-47c15,0,35-5,43-10c12-8,12-10-5-10c-31,0-168-72-222-117
		c-26-22-64-45-84-52c-79-25-185-114-279-232l-36-46l4,51c3,45,0,56-28,94c-106,147-369,124-662-56c-112-69-225-122-291-136
		c-200-45-447,13-519,122c-23,35-23,57,2,82c27,27,56,25,86-7c17-19,28-23,35-16c8,8,0,18-27,36l-37,26l89-6c60-3,119,0,181,11
		c144,25,606,172,928,296c154,59,215,70,380,66C2352,12413,2358,12412,2492,12367z M860,12280c177-44,287-61,398-63l97-1l-135-44
		c-304-97-454-116-620-77c-98,23-135,57-127,116C488,12323,601,12343,860,12280z M3039,12290h34l-24-26c-13-14-57-42-98-62l-75-37
		l-190-3l-191-3l25,21c31,25,123,73,170,89c63,20,153,30,235,25C2969,12292,3020,12290,3039,12290z M3150,12241
		c-80-27-154-52-165-56l-20-7l20,13c11,6,43,29,70,50c45,34,58,38,120,42c39,1,81,4,95,5S3230,12267,3150,12241z M2850,12133
		c-245-112-406-203-578-327c-159-114-163-116-131-80c15,16,58,75,95,131c38,56,102,140,143,187c89,102,86,101,285,94
		c78-3,155-2,171,2C2883,12152,2887,12150,2850,12133z M2378,12093c-65-76-125-155-176-230c-72-105-107-140-187-188
		c-65-39-171-76-214-74c-22,1-20,3,14,14c61,19,138,60,171,92c17,15,62,71,101,123c85,112,190,219,253,254
		C2393,12115,2398,12115,2378,12093z M1910,12034c75-22,120-68,120-122c0-80-80-133-148-98c-17,9-32,25-34,37c-5,34-34,47-55,26
		c-21-20-8-50,23-56c10-2,32-12,47-23c43-31,99-35,142-10l35,21l-22-30c-44-60-146-120-243-143l-30-8l22,24c33,36,38,70,15,121
		c-22,49-69,86-136,107c-49,16-217,8-293-14c-29-8-53-13-53-11c0,6,213,123,265,146C1679,12052,1809,12064,1910,12034z M1670,11848
		c114-49,142-146,59-207c-26-19-43-22-129-22c-142-1-244,31-303,94c-21,22-31,27-39,19c-7-7-10-13-7-14c2-2,25-18,51-36
		c59-41,145-81,178-83c56-4-93-17-197-18c-134-1-159,6-168,50c-4,18-26,50-51,75c-24,23-44,44-44,47c0,2,44,14,98,27
		c53,12,135,35,182,51C1449,11880,1581,11886,1670,11848z M638,11692c73-55,151-136,214-221l32-44l-29,7c-149,35-210,82-304,235
		c-33,54-67,103-75,111c-9,7-16,16-16,21C460,11814,555,11756,638,11692z M2015,11614c-16-14-85-80-152-146l-121-120l-41,23
		c-25,13-41,30-41,41c0,10-9,27-21,39c-14,14-19,30-17,52l3,32l82,7c97,8,216,39,281,73C2048,11646,2052,11645,2015,11614z
		 M1590,11502c0-26-6-41-19-49c-11-7-21-22-23-35c-3-25-69-69-75-51c-11,32-69,97-110,123c-42,27-44,29-22,35c13,3,65,6,114,8
		c50,2,100,4,113,5C1587,11540,1590,11535,1590,11502z M1208,11490c98-24,126-37,169-82c57-59,75-117,77-242c1-123-12-175-66-254
		c-35-51-122-112-160-112c-28,0-55-31-43-50c9-15,52-12,58,5c4,8,25,26,49,41c95,59,161,145,192,254c18,61,23,173,12,236
		c-7,40-6,43,26,61c24,15,47,19,85,17c43-2,64-10,111-40c2-1-34-53-81-116c-92-123-201-286-320-474c-103-162-312-433-324-420
		c-2,2,5,19,16,37c10,19,31,72,45,119c15,47,30,94,35,105c113,247,131,303,131,400c0,125-47,241-133,333c-29,30-70,63-92,75l-40,20
		l43,15c25,8,60,31,80,53c21,21,39,39,42,39S1162,11501,1208,11490z M723,11456c26-14,74-30,105-36c31-7,63-17,70-23
		c23-18,98-177,126-265c35-113,56-237,56-339v-85l-28,30c-16,17-41,34-55,37c-14,4-28,13-31,21c-7,18-40,18-56-1c-21-25,6-48,47-40
		c45,8,83-28,83-81c0-51-53-104-105-104c-50,0-97,24-141,72c-83,93-106,199-92,434c10,150-1,244-38,323c-18,41-21,57-13,67
		C666,11484,667,11484,723,11456z M1071,11299c27-27,65-83,85-124c33-67,38-85,42-173c5-106-6-150-67-282l-30-65v125
		c0,192-39,355-122,522c-22,43-39,80-39,83C940,11400,1030,11342,1071,11299z M1039,10503c-40-143-107-243-177-263
		c-83-23-182-3-235,47c-97,94-9,291,119,267c74-14,113-91,59-116c-32-15-40-43-21-73c18-27,45-32,78-14c18,10,19,17,13,72
		c-4,34-14,74-21,90c-16,31-16,31,23,16c45-17,108-2,145,34c18,18,34,29,36,25S1052,10546,1039,10503z M1255,10468
		c-54-87-138-273-178-396c-22-70-42-128-43-130c-6-11-86,43-94,62c-5,13-17,30-28,37c-14,10-20,30-24,70l-4,56l35,13
		c80,29,214,144,303,261c29,38,54,69,56,69S1269,10491,1255,10468z M730,10169c19-5,53-9,76-9h41l6-52c6-44,3-56-13-73
		c-11-12-20-32-20-46c0-16-13-33-39-52l-40-27l-11,57c-15,74-33,137-54,187c-15,36-15,38,2,31C687,10181,711,10174,730,10169z
		 M1018,9901c2-6-6-53-17-103c-57-251-92-558-145-1248c-7-96-14-153-15-126c-8,328-60,1171-83,1350l-11,89l44,38c37,32,49,37,76,33
		c17-3,39-2,49,4C935,9948,1012,9920,1018,9901z M886,3885c38-464,67-685,115-893c10-45,19-90,19-98c0-22-80-54-104-42
		c-10,6-32,7-48,4c-23-4-39,1-73,27c-49,36-50,41-35,147c19,140,71,988,81,1337c1,27,6-1,10-62C856,4245,871,4056,886,3885z
		 M820,2798c0-15,9-36,21-46c17-17,19-27,13-71l-7-51h-42c-23,0-64-7-91-15s-50-15-51-15s5,17,14,38c20,48,38,112,53,185l11,57
		l40-27C809,2832,820,2818,820,2798z M1078,2717c41-126,119-300,178-397c34-57,22-45-55,52c-75,96-196,200-265,228l-52,22l4,57
		c4,40,10,60,24,70c11,7,23,24,28,37c7,19,69,62,90,63C1033,2850,1054,2790,1078,2717z M862,2550c69-20,137-120,177-261
		c26-94,26-109,1-76c-11,14-40,33-65,42c-41,16-60,16-118-1c-17-5-17-4-4,23c8,15,18,56,22,90c6,55,5,62-13,72c-33,18-60,13-78-14
		c-19-30-11-58,21-73c50-23,22-93-44-113c-78-23-149,28-170,122c-19,84,9,135,94,175C739,2562,802,2566,862,2550z M1051,2415
		c88-97,174-215,307-424c131-204,204-311,305-444c32-43,57-79,55-81c-70-47-142-56-196-23c-32,18-33,21-26,61c11,63,6,175-12,236
		c-30,104-93,190-182,247c-29,19-56,41-59,49c-7,18-50,18-60-1c-6-10-18,8-42,63c-56,127-59,133-91,232c-17,52-40,108-52,124
		C965,2499,991,2480,1051,2415z M1006,2186c27-27,34-42,34-74c0-53-37-85-85-76c-39,7-65-17-45-41c15-18,46-20,57-2c4,7,23,19,41,26
		c18,8,42,25,52,39l20,25v-85c0-103-21-227-56-340c-28-88-103-247-126-265c-7-6-38-16-68-22s-79-23-108-37c-49-24-55-25-70-11
		c-11,11-12,20-5,29c22,28,51,126,57,193c3,39,2,122-2,185c-14,221,15,345,100,427C878,2231,951,2241,1006,2186z M1151,2025
		c44-99,44-101,44-216c0-114,0-116-39-194c-43-87-110-161-175-194c-22-12-41-19-41-16s18,41,40,85c83,165,121,328,121,519
		c0,68,1,122,3,120S1127,2080,1151,2025z M1230,1990c32,0,121-59,149-99c12-17,34-56,49-88c25-53,27-68,26-173c-1-134-20-193-82-253
		c-44-43-87-62-184-82l-71-15l-39,39c-22,23-55,45-78,52l-41,12l43,27c172,108,259,345,199,540c-11,35-15,58-8,51
		C1199,1995,1216,1990,1230,1990z M1831,1352c46-48,113-114,149-145l65-58l-65,30c-73,35-177,60-283,70l-72,6l-3,32
		c-2,22,3,38,17,52c12,12,21,29,21,39c0,15,60,61,81,62C1745,1440,1785,1400,1831,1352z M1518,1410c19-12,32-28,32-40
		c0-11,9-25,20-32c14-9,20-24,20-50v-38l-132,6c-126,6-158,11-131,21c33,12,98,69,121,108c15,25,29,44,32,45
		C1483,1430,1500,1421,1518,1410z M848,1313c-58-84-192-210-289-273c-93-60-120-69-82-27c12,12,45,60,73,107c87,142,153,198,265,226
		c28,7,54,13,58,13C878,1360,866,1339,848,1313z M1445,1201l60-6l-40-9c-46-9-102-36-165-80c-25-17-47-32-49-34c-3-1,0-7,6-13
		c8-8,21-2,45,23c57,56,133,80,274,86c115,4,123,3,152-18c64-47,63-122-1-176c-86-72-235-77-432-14c-49,16-130,39-180,51
		c-49,12-92,23-94,25s17,23,42,47c26,26,48,57,52,76s16,36,28,41C1168,1210,1358,1211,1445,1201z M1873,1174c125-32,213-92,292-199
		c93-126,163-218,197-259l33-40l-52,28c-61,34-183,154-249,246c-94,131-152,179-269,221C1762,1193,1792,1195,1873,1174z M1860,1123
		c72-32,124-68,154-108l25-32l-37,19c-44,23-98,19-139-10c-15-11-37-21-47-23c-31-6-44-36-23-56c21-22,50-8,55,26c5,29,61,56,97,47
		c15-4,40-20,56-36c66-65,21-161-91-194c-105-31-234-18-357,38c-55,26-253,135-253,141c0,1,35-6,78-16c84-21,218-25,271-10
		c61,18,111,59,133,108c23,51,18,85-15,121l-22,24l30-7C1792,1151,1830,1137,1860,1123z M2236,1009c166-123,389-253,589-342
		c33-15,49-24,35-20s-102,6-195,4c-94-1-181,2-194,7c-33,12-148,146-233,272c-39,58-83,118-97,134C2108,1101,2124,1092,2236,1009z
		 M1145,971c34-12,106-47,160-77c210-118,243-134,335-165c78-26,111-32,185-33c104,0,163,22,215,80c34,39,44,70,38,119
		c-2,19-3,35-3,35c1,0,33-36,71-81c79-93,162-159,231-185c27-10,70-36,96-57c53-44,191-117,220-117c38,0,5-17-43-23
		c-29-4-106-26-173-49l-122-43h-165c-188,0-194,2-435,95c-156,60-590,202-755,247c-78,21-119,26-226,27c-105,1-128,3-115,13
		c9,7,21,13,27,13c16,0,26,28,13,36c-5,3-21-6-34-20c-29-31-58-33-85-6c-25,25-25,47-2,82c35,54,93,86,212,119
		C880,1006,1060,1000,1145,971z M1002,680c62-16,167-47,233-68l120-39l-100-1c-113-2-216-18-396-62c-157-39-223-46-287-31
		c-61,15-92,46-99,98c-12,88,86,131,299,132C870,710,906,705,1002,680z M2951,588c41-20,85-48,97-61l23-25l-103-6
		c-108-7-214,3-284,28c-55,19-134,60-164,84l-25,21l191-2l190-2L2951,588z M3150,549l145-48l-95,5c-73,5-101,10-120,25
		c-14,11-45,34-70,51s-36,27-25,23S3070,576,3150,549z"/>
	<path class="st1" d="M4326,12720c-19-17-40-47-47-67c-17-52-5-135,26-189c51-87,149-126,410-164c226-33,339-58,535-122
		c483-157,751-299,1119-591c246-196,445-433,668-792c64-105,58-102-26,13c-52,70-81,98-81,77c0-14,40-81,130-220
		c207-317,281-494,364-870c63-283,102-624,147-1275c16-231,16-4019,0-4250c-49-706-81-979-152-1300c-77-347-157-535-359-845
		c-90-139-130-206-130-220c0-21,29,7,81,77c117,159,106,134-36-82c-203-308-349-483-530-634c-350-293-622-452-1030-600
		c-271-98-397-130-685-175c-294-45-373-76-425-164c-48-83-46-183,6-242c56-63,151-66,202-6c49,59,40,187-11,155c-23-15-27-48-7-64
		c21-17,19-43-5-65c-28-26-117-16-142,15c-61,76-14,186,101,237c36,16,87,27,160,34c139,13,283,35,390,59c47,11,97,22,111,25
		s-2-8-35-23c-33-16-81-45-108-66c-26-20-53-36-61-36c-16,0-29-27-20-41c10-16,43-9,49,10c19,61,282,171,405,170h45l-47-43
		c-33-30-44-46-36-54c7-7,26,5,62,42l51,53l140-6c129-6,138-7,108-19c-17-8-39-22-48-32c-14-16-9-15,42,6c42,17,77,24,129,24
		c79,0,126-12,298-78c120-46,122-46,246-46c150,0,179,7,417,110c94,41,191,81,215,90l43,15l-33-30c-59-55-64-111-14-163
		c29-32,76-37,108-13c10,8,31,15,46,15c34,0,56,34,37,56c-16,19-48,18-56-3c-28-79-113-63-113,22c0,72,95,125,236,133
		c109,6,209-8,401-54c185-44,239-50,314-34c115,25,181,104,149,180c-16,38-41,55-123,86c-34,13-54,23-45,23c9,1,26,13,38,28
		c41,52,3,137-84,188c-46,27-218,75-267,75c-18,0-32,7-39,20c-6,11-21,20-33,20c-24,0-66,38-86,77c-17,34-13,92,9,128
		c24,39,53,59,103,73l36,10l56-73c102-134,243-252,374-314c32-15,82-48,111-73c29-26,75-58,101-73c59-32,181-67,192-56
		c13,13-10,23-53,25c-47,3-153,54-205,100l-40,35l35-9c79-19,90-20,90-10c0,5-10,10-23,10c-46,0-123,33-160,69c-21,20-63,77-94,126
		c-30,50-62,98-71,108c-11,13-13,20-4,29c8,8,22,1,54-25c103-83,205-119,291-103c70,13,112,91,70,128c-10,8-37,18-60,22
		c-36,5-43,3-43-10c0-12,6-15,25-10c61,15,88-44,39-83c-94-74-328,49-404,211c-44,94-50,146-44,366c7,222-3,295-56,388l-29,51l43-4
		c67-8,119,27,165,110c50,91,34,187-44,254c-40,35-44,45-63,128c-35,151-43,253-78,995c-32,672-40,1222-25,1785
		c17,662,18,1308,2,1810c-17,567-11,1091,23,1795c35,742,43,844,78,995c19,83,23,93,63,128c78,67,94,163,44,254
		c-46,83-106,121-175,110l-33-6l29,52c53,94,63,166,56,389c-6,220,0,272,44,366c76,162,310,285,404,211c49-38,26-97-34-84
		c-24,5-30,3-30-9c0-13,8-15,43-10c23,4,50,14,60,22c42,37,0,115-70,128c-83,16-177-17-282-97c-37-28-57-37-64-30s-6,16,5,28
		c9,10,41,59,72,109c30,50,73,107,95,127c37,33,119,67,163,67c10,0,18,5,18,10c0,10-11,9-90-10l-35-9l40,35c53,47,159,98,206,99
		c39,1,69,18,51,29c-15,9-164-41-214-73c-25-16-65-46-87-66c-23-21-68-50-101-66c-133-63-276-183-376-315c-50-67-58-73-82-68
		c-99,24-161,129-121,207c20,39,62,77,86,77c12,0,27,9,33,20c7,14,21,20,43,20c48,0,183,37,244,66c94,45,145,134,109,190
		c-10,14-26,28-37,33c-16,5-9,11,38,25c108,34,146,82,124,156c-15,51-60,85-141,106c-78,20-122,16-320-30c-206-48-284-59-396-54
		c-110,5-175,27-219,74c-30,33-33,82-6,115c16,20,23,22,47,14c16-6,35-23,42-38c14-29,43-35,61-13c19,22-3,56-37,56
		c-15,1-38,7-52,15s-35,14-47,15c-30,0-80-45-88-80c-8-36,18-95,52-117c13-9,22-17,20-19c-4-5-149,54-308,124c-139,62-206,80-319,88
		c-105,8-171-5-315-61c-198-76-286-86-393-43c-67,28-69,12-3-21l35-19l-139-5l-140-5l-51,53c-36,38-55,50-62,43c-8-8,3-24,36-54
		l47-43h-45c-123-1-386,109-405,170c-6,19-39,26-49,10c-9-14,4-41,20-41c8,0,35-16,61-37c27-20,75-49,108-64c72-34,70-34-31-10
		c-112,28-242,49-404,66c-191,20-271,57-306,141c-38,91,8,164,105,164c58,0,93-50,56-80c-20-16-16-49,7-64c32-20,49,11,41,74
		c-5,44-13,62-39,88c-28,28-38,32-88,32C4369,12750,4356,12746,4326,12720z M6544,12375c32-9,127-44,210-77c159-64,622-221,766-259
		c66-18,113-23,212-23c71-1,128-2,128-3s-16-11-35-23c-34-21-39-40-9-40c8,0,14,7,14,15c0,9,11,20,25,27c19,9,29,8,49-5
		c38-25,42-53,13-95c-52-80-226-137-390-128c-128,7-200,32-362,127c-160,94-231,128-330,158c-94,29-215,31-276,4
		c-90-40-143-126-120-195l11-33l-32,40c-79,99-197,205-264,237c-37,17-99,55-138,85c-39,29-104,66-144,82l-74,28l56,7
		c31,3,109,24,174,45c64,22,126,42,137,45C6208,12405,6485,12391,6544,12375z M7972,12259c45-23,69-82,50-124c-27-58-141-91-307-88
		c-111,2-174,16-403,90l-147,48l115,6c135,7,162,11,335,51C7835,12293,7898,12296,7972,12259z M5360,12270c51,0,63-4,97-32
		c21-18,50-41,64-50c13-9-39,5-116,31c-168,58-180,63-136,56C5287,12272,5329,12270,5360,12270z M5772,12269c59-12,207-81,231-107
		c15-16,5-17-156-17c-151,1-179,3-230,22c-60,23-147,79-155,101C5457,12284,5695,12285,5772,12269z M5845,12125c99,0,190-4,202-8
		c29-11,154-160,246-294c39-58,78-114,86-124c7-11-36,18-98,64c-180,134-414,271-606,355c-27,12-41,19-30,15S5746,12125,5845,12125z
		 M6276,11988c36-34,103-112,149-173c113-152,154-184,279-220c31-9,56-18,54-20c-10-10-151,29-215,59c-91,44-155,103-234,219
		c-55,79-115,159-168,221C6105,12116,6210,12049,6276,11988z M6838,12016c29-8,83-28,120-46c69-32,243-132,239-137c-2-1-30,5-62,14
		c-37,10-101,17-165,17c-120,1-162-14-218-79c-41-46-45-115-9-153l22-24l-30,8c-64,15-156,64-205,110c-27,25-50,51-50,57s9,2,20-8
		c10-9,38-19,62-22c35-4,50,0,81,21c21,14,46,26,57,26c25,0,37,38,17,57c-19,19-57,1-57-26c0-44-82-62-133-28c-36,23-54,85-37,127
		c14,33,79,78,133,90C6676,12033,6782,12031,6838,12016z M7092,11836c40-8,105-25,143-39c39-14,106-33,150-43s84-21,89-25
		c5-5-9-26-32-48s-45-55-50-73c-13-50-51-59-227-51c-80,3-145,9-145,13c0,3,23,12,50,19c39,10,121,55,179,97c2,2,0,11-3,21
		c-6,15-10,13-31-13c-72-92-359-136-438-68c-77,66-30,178,91,214C6911,11853,7012,11851,7092,11836z M8002,11723
		c-16-21-48-69-70-108c-66-115-156-184-262-201l-44-7l18,29c37,57,112,138,182,198c69,59,193,140,202,131
		C8030,11763,8019,11744,8002,11723z M6597,11567c63-23,170-44,253-50c32-2,35-5,38-38c2-25-3-40-18-54c-11-10-20-25-20-34
		c0-14-59-61-75-61c-4,0-57,51-118,114c-62,62-132,130-157,151c-44,36-44,37-8,17C6512,11601,6560,11580,6597,11567z M7159,11504
		l32-7l-51-34c-40-27-74-66-106-121c-1-2-18,5-38,14c-26,13-36,24-36,41c0,12-9,28-20,35c-13,9-20,24-20,45v33h104
		C7081,11510,7142,11507,7159,11504z M7419,11452c18-26,60-53,105-67c16-5,12-10-25-34c-172-109-258-349-192-535c7-22,12-40,10-42
		c-9-9-86,19-121,44c-102,73-153,202-142,357c13,173,76,251,234,289C7376,11486,7396,11484,7419,11452z M7841,11391
		c-40-77-45-119-45-371l-1-245l-28-60c-30-64-84-127-129-151c-86-45-190,22-173,112c8,45,39,65,87,58c30-5,39-3,44,11
		c4,10,0,23-10,33c-13,14-19,14-34,4c-9-7-31-19-49-27s-44-27-58-42l-25-28v50c0,174,47,371,125,531c52,108,55,112,92,118
		c60,11,136,37,163,57c23,16,27,16,42,2C7858,11429,7858,11426,7841,11391z M7525,11280c-81-161-120-327-120-517c0-72-1-131-1-130
		c-14,16-86,208-95,255c-24,128,26,286,124,385c46,46,115,92,125,82C7560,11354,7545,11320,7525,11280z M6988,11327
		c32-18,33-20,26-60c-19-102,1-239,48-330c27-53,93-123,145-154c24-14,48-34,54-44c14-28,57-25,61,4c2,15,16-9,46-78
		c24-55,47-109,52-120s18-52,29-91c12-39,32-93,46-120l25-49l-53,56c-77,80-182,223-283,384c-120,192-249,385-329,490
		c-36,48-64,88-63,89C6864,11351,6929,11358,6988,11327z M7537,10510c30-9,53-10,81-3l40,10l-13-31c-23-56-27-132-10-150
		c24-24,62-20,81,9c19,30,12,58-21,75c-33,18-32,54,1,85c26,24,52,31,103,26c62-6,111-81,111-169c0-43-5-57-30-86
		c-62-70-199-86-281-32c-59,40-116,155-153,310l-7,29l28-30C7483,10536,7515,10516,7537,10510z M7293,10414c70-93,200-210,268-242
		l59-27l-6-55c-5-40-13-59-30-73c-13-10-24-27-24-37c0-20-78-57-90-43c-3,4-24,62-45,128c-22,66-74,189-116,274
		c-43,84-74,150-70,145S7267,10448,7293,10414z M7823,10133c-20-49-38-113-53-186l-12-57l-39,31c-29,23-39,38-39,59c0,17-8,34-19,42
		c-15,11-18,22-13,66l5,52l46,1c25,0,64,6,86,14c22,7,43,13,47,14S7832,10153,7823,10133z M7631,9916c22-1,51-12,77-30
		c47-32,47-35,32-154c-16-122-39-464-60-899c-11-227-21-423-21-435c-1-13-7,59-15,158c-49,672-95,1056-159,1307c-7,25-3,29,36,47
		c24,11,51,17,59,13S7611,9916,7631,9916z M7685,3875c17-364,40-699,55-817c15-120,15-121-35-157c-32-23-51-30-66-26
		c-11,4-33,2-49-5c-23-10-34-8-70,10c-35,18-41,25-36,43c59,213,119,704,158,1302l13,190l7-100C7666,4260,7676,4062,7685,3875z
		 M7785,2781c9-41,25-94,36-118c10-23,17-43,16-43s-24,7-51,15s-68,15-91,15h-42l-5,52c-5,44-2,55,13,66c11,8,19,25,19,42
		c0,20,10,36,38,58C7761,2903,7755,2911,7785,2781z M7533,2838c16-6,27-17,27-28c0-10,11-27,24-37c17-14,25-33,30-74l7-54l-58-27
		c-68-31-201-150-270-242c-25-33-50-65-54-70s27,61,70,145c42,85,94,206,115,269c20,63,39,121,42,129c2,8,11,10,22,6
		C7497,2851,7517,2843,7533,2838z M7816,2556c28-13,60-36,72-51c44-56,18-189-46-231c-56-37-155-11-168,43c-5,20,0,32,25,55
		c35,33,38,44,15,76c-19,27-55,29-78,3c-14-16-15-27-7-79c5-34,14-70,20-80c10-19,8-19-30-9c-53,13-113-5-151-45c-15-17-28-28-28-25
		c0,21,55,188,75,227C7580,2569,7694,2613,7816,2556z M7495,2453c-14-25-34-78-46-117c-11-39-24-80-29-91s-28-65-52-120
		c-30-69-44-93-46-77c-4,28-47,31-61,3c-6-10-30-30-54-44c-52-31-118-101-145-154c-47-91-67-228-48-329c7-39,6-42-26-61
		c-42-24-122-23-164,3c-16,10-30,19-32,20c-1,1,31,46,71,100c86,115,199,283,320,476c90,144,202,297,282,386c26,28,49,52,51,52
		S7508,2479,7495,2453z M7639,2226c41-22,100-92,130-155c26-56,26-58,27-301c0-252,6-295,44-371c17-32,17-37,3-51c-13-14-19-13-56,8
		c-23,13-75,31-115,41l-74,17l-54,111c-77,159-124,356-124,530v50l25-28c14-15,40-34,58-42s40-20,49-27c15-10,21-10,34,4
		c10,10,14,23,10,33c-5,14-14,16-44,11c-49-7-79,13-88,58C7448,2203,7553,2270,7639,2226z M7405,2027c0-190,39-355,120-517
		c20-40,34-74,31-77c-10-10-106,59-142,101c-84,97-127,252-104,368c8,45,87,258,95,258C7405,2160,7405,2100,7405,2027z M7311,1987
		c-70-185,10-435,173-537c30-19,55-38,56-41c0-4-15-10-34-13c-21-4-50-22-75-48l-42-41l-68,12c-180,32-253,113-267,296
		c-12,157,40,285,143,356c38,27,108,52,121,44C7319,2014,7316,2001,7311,1987z M6811,1438c23-12,39-29,39-39s9-27,21-38
		c15-13,20-28,17-52c-3-31-6-34-38-36c-131-10-273-47-358-95l-37-21l40,33c22,18,92,86,155,151s117,118,119,118
		C6771,1460,6790,1450,6811,1438z M7065,1402c17-26,52-61,79-79l48-31l-43-6c-24-3-86-7-137-8l-92-3v35c0,24,6,39,20,48
		c11,7,20,21,20,32c0,17,52,61,70,59C7033,1449,7049,1428,7065,1402z M7757,1350c58-25,141-112,186-192c21-37,49-81,63-98
		c15-17,24-33,22-35c-6-7-113,59-177,108c-59,45-171,165-204,218l-21,32l44-7C7694,1372,7733,1361,7757,1350z M7349,1227
		c27-9,37-20,43-45c5-18,27-51,50-73s37-43,32-48c-5-4-45-15-89-26c-44-10-127-34-185-53c-96-33-115-36-220-36c-108-1-118,1-162,27
		c-84,49-104,125-48,182c27,28,40,33,100,39c131,12,306-38,346-99c20-30,34-32,34-5c0,11-6,20-14,20c-7,0-19,7-26,15
		c-21,25-97,65-152,79l-53,14l45,6c42,6,116,10,220,14C7295,1238,7330,1234,7349,1227z M6760,1216c0-3-26-12-57-21
		c-124-36-165-68-278-219c-95-128-191-223-255-256c-40-20-43-20-29-4c77,93,115,142,171,224c36,53,87,115,113,138
		c56,52,168,107,256,126C6756,1221,6760,1221,6760,1216z M6742,1157c-35-37-31-107,10-152c56-65,98-80,218-79c65,0,128,6,165,17
		c32,9,61,15,62,13c2-2-36-26-84-54c-214-122-290-147-418-139c-139,8-226,70-211,151c9,47,32,74,75,87c47,14,92-4,101-40
		c8-36,36-50,57-28c20,20,9,48-23,57c-10,3-31,13-45,23c-44,29-93,33-134,9c-49-30-44-13,13,41c53,49,89,70,166,98
		C6762,1185,6767,1184,6742,1157z M6368,1073c-14-16-54-71-88-123c-72-108-192-255-224-273c-14-8-80-12-206-12c-102-1-194-4-205-8
		s3,3,30,15c190,83,431,224,598,350C6380,1102,6411,1119,6368,1073z M7706,1010c46-11,102-29,123-39c45-24,97-73,106-102
		c7-22-17-66-41-76c-21-8-64,13-64,32c0,17-25,21-35,5c-3-5,10-19,29-31c20-12,36-22,36-22c0-1-55-2-122-3c-80,0-147-6-193-17
		c-132-33-570-179-774-259c-245-96-317-111-490-106c-115,4-137,8-251,46c-69,22-149,44-179,48l-54,7l63,24c73,27,117,52,180,103
		c25,20,79,52,120,72c59,29,93,55,156,120c44,46,92,99,107,118l27,35l-11-33c-24-70,28-154,121-195c33-15,65-20,121-20
		c129,2,239,40,426,149c70,41,157,89,193,106C7421,1029,7568,1043,7706,1010z M7904,726c103-24,138-65,117-136
		c-25-83-144-105-326-61c-194,47-285,63-405,68l-125,6l55,19c165,57,346,108,411,117C7715,750,7823,744,7904,726z M6004,629
		c-22-25-151-88-214-104c-36-10-104-15-200-14h-145l39,34c91,80,178,103,383,101C6006,645,6017,644,6004,629z M5509,590
		c-24-16-55-38-69-49c-19-15-46-20-115-24l-90-5l150,53c83,29,154,53,159,54C5550,619,5534,607,5509,590z"/>
	<path class="st2" d="M1106.4,11970.5"/>
	<g>
		<g class="st3">
			<path class="st1" d="M2731.6,10596.2c-59.1,0-113.1,14.9-162.2,44.7c-49,29.8-88.1,69.8-117,120c-29,50.2-43.5,105.6-43.5,166.4
				c0,79.1,21.7,144.9,65.2,197.3c43.5,52.4,100,83.3,169.7,92.8c-34.6-15-64.2-44.7-89-89c-24.8-44.3-37.2-93.5-37.2-147.5
				l1.7-36.8c0-67.4,29.5-132.4,88.6-194.8v195.6c0,54-13.7,81.1-41,81.1c-3.9,0-9.5-1.4-16.7-4.2c8.9,8.9,21.4,22.3,37.6,40.1
				c84.7,90.8,145.2,149.6,181.4,176.4c7.2-20.6,32-30.9,74.4-30.9c39.6,0,66.3,8.9,80.3,26.8c0-19-5-38-15-57.3
				c-10-19.2-20.6-33.3-31.8-42.2c-14.5-10-30.1-15-46.8-15c-18.4,0-38.7,5.6-61,16.7v-469.8c5-0.6,15.3-0.8,30.9-0.8l26.8,0.8
				c28.4,0,64.6,13.9,108.7,41.8c-15.6-35.1-41.4-62.6-77.3-82.3C2822.3,10606.1,2780.1,10596.2,2731.6,10596.2z M2749.1,10669.8
				v478.2l-9.2,7.5c-5.6,0-20.6-19-45.1-56.8v-298.4l-83.6-55.2C2649.1,10706,2695.1,10680.9,2749.1,10669.8z"/>
			<path class="st1" d="M3047.6,10591.2c-8.4,0-18.1,5.2-29.3,15.5c-11.2,10.3-21,22.3-29.7,35.9c-8.6,13.7-13,25.5-13,35.5v227.4
				c0,15-5.6,22.6-16.7,22.6c-7.8,0-17-5.3-27.6-15.9l-13.4,13.4c4.5,6.1,11.6,14.1,21.3,23.8c9.7,9.7,19.9,18.9,30.5,27.6
				c10.6,8.6,19.5,14.3,26.8,17.1c24-5.6,42.1-17.3,54.3-35.1c15,13.9,28.1,23.4,39.3,28.4l15-20.9c-17.3-11.2-32.3-24-45.1-38.4
				v-214.9c0-27.3,8.6-41,25.9-41c8.9,0,18.9,4.5,30.1,13.4l20.1-19.2c-16.2-10-32.5-21.9-48.9-35.5
				C3070.8,10617.2,3057.6,10604,3047.6,10591.2z M3030,11075.2c-2.8,6.1-7.7,13.4-14.6,21.7c-7,8.4-14.4,16-22.2,23
				c-7.8,7-14.5,11.3-20.1,13c0,7.2,3.3,15.3,10,24.2c6.7,8.9,14.5,16.7,23.4,23.4c8.9,6.7,16.7,10,23.4,10
				c11.1,0,23.5-6.8,37.2-20.5c13.7-13.7,20.5-26.1,20.5-37.2c-5-2.2-11.4-6.8-19.2-13.8c-7.8-7-15.3-14.5-22.6-22.6
				C3038.7,11088.5,3033.4,11081.4,3030,11075.2z"/>
			<path class="st1" d="M3304.2,10590.4c-19,11.7-39.4,28.5-61.4,50.6c-22,22-40,43-53.9,63.1l1.7,168.9
				c-2.2,20.6-12.3,40.4-30.1,59.4l-20.9-15l-8.4,15l13.4,10.9c31.2,25.1,50.2,41,56.8,47.7c24-9.5,41.9-22.7,53.9-39.7
				c12-17,18-35,18-53.9v-189.8c18.4-28.4,39.3-50.7,62.7-66.9c11.7,5,22.3,11.7,31.8,20.1c9.5,8.4,14.2,15.6,14.2,21.7v186.4
				c0,22.8-10,44-30.1,63.5l-20.1-15l-8.4,15c38.5,31.2,61.9,50.7,70.2,58.5c29-8.9,50.2-29.6,63.5-61.9
				c17.8,13.4,29,21.4,33.4,24.2l1.7,0.8c1.7-0.6,3.6-2.2,5.8-5c2.2-2.8,4.2-5.6,5.8-8.4c1.7-2.8,2.5-4.7,2.5-5.9
				c-15-7.8-28.7-20.4-41-37.6v-182.2C3402,10656.9,3348.2,10615.4,3304.2,10590.4z"/>
			<path class="st1" d="M3664.5,10591.2c-8.4,0-18.1,5.2-29.3,15.5c-11.2,10.3-21,22.3-29.7,35.9c-8.7,13.7-13,25.5-13,35.5v227.4
				c0,15-5.6,22.6-16.7,22.6c-7.8,0-17-5.3-27.6-15.9l-13.4,13.4c4.5,6.1,11.6,14.1,21.3,23.8c9.7,9.7,19.9,18.9,30.5,27.6
				c10.6,8.6,19.5,14.3,26.7,17.1c24-5.6,42.1-17.3,54.3-35.1c15,13.9,28.1,23.4,39.3,28.4l15-20.9c-17.3-11.2-32.3-24-45.1-38.4
				v-214.9c0-27.3,8.6-41,25.9-41c8.9,0,18.9,4.5,30.1,13.4l20.1-19.2c-16.2-10-32.5-21.9-48.9-35.5
				C3687.8,10617.2,3674.6,10604,3664.5,10591.2z M3647,11075.2c-2.8,6.1-7.7,13.4-14.6,21.7c-7,8.4-14.4,16-22.1,23
				c-7.8,7-14.5,11.3-20.1,13c0,7.2,3.3,15.3,10,24.2c6.7,8.9,14.5,16.7,23.4,23.4s16.7,10,23.4,10c11.1,0,23.5-6.8,37.2-20.5
				c13.6-13.7,20.5-26.1,20.5-37.2c-5-2.2-11.4-6.8-19.2-13.8c-7.8-7-15.3-14.5-22.6-22.6
				C3655.6,11088.5,3650.3,11081.4,3647,11075.2z"/>
			<path class="st1" d="M3878.5,10591.2c-10,5-19.6,13.1-28.8,24.2c-9.2,11.1-16.3,22-21.3,32.6c-17.3-15-27.9-25.4-31.8-30.9
				l-15,14.2c8.4,8.4,15.5,16.3,21.3,23.8c5.8,7.5,8.8,28.3,8.8,62.3v408.8c69.7,37.9,109.8,61.3,120.4,70.2c1.1,0,3.5-2.2,7.1-6.7
				c3.6-4.5,5.7-6.7,6.3-6.7c-27.9-16.7-44.6-27.9-50.2-33.4v-436.4c4.5-22.3,13.9-37.9,28.4-46.8l34.3,27.6l20.9-20.1
				L3878.5,10591.2z"/>
			<path class="st1" d="M4098.4,10591.2c-8.4,0-18.1,5.2-29.3,15.5c-11.2,10.3-21,22.3-29.7,35.9c-8.7,13.7-13,25.5-13,35.5v227.4
				c0,15-5.6,22.6-16.7,22.6c-7.8,0-17-5.3-27.6-15.9l-13.4,13.4c4.5,6.1,11.6,14.1,21.3,23.8c9.7,9.7,19.9,18.9,30.5,27.6
				c10.6,8.6,19.5,14.3,26.7,17.1c24-5.6,42.1-17.3,54.3-35.1c15,13.9,28.1,23.4,39.3,28.4l15-20.9c-17.3-11.2-32.3-24-45.1-38.4
				v-214.9c0-27.3,8.6-41,25.9-41c8.9,0,18.9,4.5,30.1,13.4l20.1-19.2c-16.2-10-32.5-21.9-48.9-35.5
				C4121.7,10617.2,4108.4,10604,4098.4,10591.2z M4080.8,11075.2c-2.8,6.1-7.7,13.4-14.6,21.7c-7,8.4-14.4,16-22.1,23
				c-7.8,7-14.5,11.3-20.1,13c0,7.2,3.3,15.3,10,24.2c6.7,8.9,14.5,16.7,23.4,23.4s16.7,10,23.4,10c11.1,0,23.5-6.8,37.2-20.5
				c13.6-13.7,20.5-26.1,20.5-37.2c-5-2.2-11.4-6.8-19.2-13.8c-7.8-7-15.3-14.5-22.6-22.6
				C4089.5,11088.5,4084.2,11081.4,4080.8,11075.2z"/>
			<path class="st1" d="M4444.5,10604.6c-6.1,18.4-18.4,36.8-36.8,55.2c-6.7,7.8-29.5,17.8-68.5,30.1c-20.6,0-39.6-5.4-56.8-16.3
				c-17.3-10.9-29.8-23-37.6-36.4l-10-18.4l-15.9,7.5l134.6,267.5c-52.4,0-78.6,14.5-78.6,43.5c12.3-9.5,33.4-14.2,63.5-14.2
				l30.9,0.8l8.4,19.2H4350c-50.2,0-75.2,14.8-75.2,44.3c11.7-10,32.9-15,63.5-15c11.1,0.5,29.8,0.8,56,0.8l85.3,170.5
				c-6.7,0-14.5,3.6-23.4,10.9c-29.5-19.5-57.4-29.3-83.6-29.3c-22.9,0-44.9,7-66,20.9c-21.2,13.9-36.8,29.5-46.8,46.8l-13.4,22.6
				c5,2.8,10.6,4.5,16.7,5c15-20.1,33.7-30.1,56-30.1c13.4,0,27.9,3.8,43.5,11.3c15.6,7.5,28.7,15.7,39.3,24.7l13.4,11.7l4.2-8.4
				c7.8-17.8,18.7-33.2,32.6-46c6.7-6.7,29.5-16.4,68.6-29.3c22.3,0,42.3,6.8,60.2,20.5c17.8,13.6,30.4,29.1,37.6,46.4l3.3,7.5
				l15.9-8.4l-127.9-246.6c12.3,0,24.5-1.1,36.8-3.3c30.1-6.1,45.1-19.8,45.1-41c-4.5,9.5-28.1,14.2-71.1,14.2l-26.7-0.8l-9.2-18.4
				h27.6c18.9,0,36.9-3.3,53.9-10c17-6.7,25.5-18.1,25.5-34.3c-4.5,9.5-28.1,14.2-71.1,14.2c-13.4-0.6-30.9-0.8-52.7-0.8
				l-96.1-186.4c13.9-5.6,24.5-11.4,31.8-17.6c29,18.9,56.8,28.4,83.6,28.4c22.8,0,44.9-7,66-20.9c21.2-13.9,36.8-29.6,46.8-46.8
				l13.4-22.6c-6.1-2.2-11.7-3.6-16.7-4.2c-15,20.1-33.4,30.1-55.2,30.1C4509.7,10653.9,4477.4,10637.4,4444.5,10604.6z"/>
			<path class="st1" d="M4733.7,10587.9c-7.2,0-17.3,3.6-30.1,10.9s-24.4,18-34.7,32.2c-10.3,14.2-15.5,32.2-15.5,53.9
				c0,94.2,31.5,153.8,94.5,178.9c37.3-39,70.5-66.6,99.5-82.8v123.7c-15,17.3-24.2,29.3-27.6,35.9c-28.4-6.1-58-19.2-88.6-39.3
				c-8.4-5-16.7-7.5-25.1-7.5c-13.9,0-26.1,4.7-36.4,14.2c-10.3,9.5-15.5,20.6-15.5,33.4c0,9.5,2.9,18.7,8.8,27.6
				c5.8,8.9,14.1,13.4,24.7,13.4c10,0,18-3.6,23.8-10.9c5.8-7.2,8.8-15.9,8.8-25.9c0-5.6-2-11-5.8-16.3c-3.9-5.3-8.9-8.8-15-10.4
				c3.9-2.8,8.1-4.2,12.5-4.2c2.8,0,5.6,0.8,8.4,2.5c36.2,32.9,83.9,56.3,143,70.2c12.2-19.5,25.4-36.8,39.3-51.8
				c13.9-15,25.4-22.6,34.3-22.6c12.3,1.7,24.2,9.2,35.9,22.6l10-9.2c-10-16.7-27-30.4-51-41v-214c0-15.6,2.8-23.7,8.4-24.2
				c7.8,0,18.7,8.4,32.6,25.1l10-8.4c-5.6-9.5-15.8-19.4-30.5-29.7c-14.8-10.3-30-19.2-45.6-26.8c-15.6-7.5-27-11.3-34.3-11.3
				c-5.6,0-11.2,7.7-16.7,23c-5.6,15.3-8.4,31.1-8.4,47.2c-18.4-19.5-38.2-37.5-59.4-53.9S4748.8,10587.9,4733.7,10587.9z
				 M4767.2,10640.5c11.7,0,25.6,6.8,41.8,20.5c16.2,13.7,29,25.8,38.4,36.4v65.2c-10.6,3.9-21.9,10-33.9,18.4
				c-12,8.4-22.6,16.6-31.8,24.7c-9.2,8.1-15.2,13.8-18,17.1c-16.7-12.3-25.1-54.6-25.1-127.1
				C4738.8,10658.9,4748.2,10640.5,4767.2,10640.5z"/>
			<path class="st1" d="M5130,10591.2c-19,9.5-35.9,28.4-51,56.8c-16.7-15-27.3-25.4-31.8-30.9l-15,14.2
				c8.4,8.4,15.5,16.3,21.3,23.8c5.9,7.5,8.8,28.3,8.8,62.3v229.9h-55.2l28.4,40.1h26.7v138.8c70.8,37.9,111.2,61.3,121.2,70.2
				c0.5,0,1.7-1.4,3.3-4.2c5-6.1,8.1-9.2,9.2-9.2c-27.9-16.7-44.6-27.9-50.2-33.4v-162.2h82.8l-27.6-40.1h-55.2v-234.1
				c5-22.3,14.5-37.9,28.4-46.8l34.3,27.6l21.7-20.1L5130,10591.2z"/>
			<path class="st1" d="M5385,10591.2c-8.4,0-18.1,5.2-29.3,15.5c-11.2,10.3-21,22.3-29.7,35.9c-8.7,13.7-13,25.5-13,35.5v227.4
				c0,15-5.6,22.6-16.7,22.6c-7.8,0-17-5.3-27.6-15.9l-13.4,13.4c4.5,6.1,11.6,14.1,21.3,23.8c9.7,9.7,19.9,18.9,30.5,27.6
				c10.6,8.6,19.5,14.3,26.7,17.1c24-5.6,42.1-17.3,54.3-35.1c15,13.9,28.1,23.4,39.3,28.4l15-20.9c-17.3-11.2-32.3-24-45.1-38.4
				v-214.9c0-27.3,8.6-41,25.9-41c8.9,0,18.9,4.5,30.1,13.4l20.1-19.2c-16.2-10-32.5-21.9-48.9-35.5
				C5408.2,10617.2,5395,10604,5385,10591.2z M5367.4,11075.2c-2.8,6.1-7.7,13.4-14.6,21.7c-7,8.4-14.4,16-22.1,23
				c-7.8,7-14.5,11.3-20.1,13c0,7.2,3.3,15.3,10,24.2c6.7,8.9,14.5,16.7,23.4,23.4s16.7,10,23.4,10c11.1,0,23.5-6.8,37.2-20.5
				c13.6-13.7,20.5-26.1,20.5-37.2c-5-2.2-11.4-6.8-19.2-13.8c-7.8-7-15.3-14.5-22.6-22.6
				C5376,11088.5,5370.8,11081.4,5367.4,11075.2z"/>
			<path class="st1" d="M5659.2,10590.4c-21.7,8.4-46.4,21.2-74,38.4s-46.7,32.6-57.3,46v233.2c8.4,10.6,23,22.7,43.9,36.4
				c20.9,13.7,42.5,25.9,64.8,36.8c22.3,10.9,39.8,17.4,52.7,19.6c11.7-14.5,27.4-29.3,47.2-44.3c19.8-15,36.1-24.2,48.9-27.6
				c5.6,5,12.5,9.7,20.9,14.2s16.2,8.2,23.4,11.3c7.2,3.1,12.5,4.9,15.9,5.4l15.9-15c-25.6-12.8-44.9-27.6-57.7-44.3v-214.9
				c-12.8-5.6-29.3-14.6-49.3-27.2c-20.1-12.5-39.2-25.2-57.3-38C5679.1,10607.6,5666.4,10597.6,5659.2,10590.4z M5665,10637.2
				c7.8,8.9,17.3,17.4,28.4,25.5c11.1,8.1,20.3,13.2,27.6,15.5v224c-17.3,9.5-34.8,24.8-52.7,46c-9.5-2.8-19.5-7.2-30.1-13.4
				c-10.6-6.1-19.2-12.8-25.9-20.1v-244.9C5620.1,10659.8,5637.7,10648.9,5665,10637.2z"/>
			<path class="st1" d="M6170.8,10587.9c-14.5,16.7-34,29.8-58.5,39.3c11.1,16.7,16.7,30.4,16.7,41v214.8
				c-3.3,18.4-10,31.9-20.1,40.5c-10,8.6-21.7,15.7-35.1,21.3l-52.7-39.3v-237.4c0-10.6,6.1-24.2,18.4-41l-10-5
				c-21.2-9.5-38.5-20.9-51.8-34.3c-13.9,16.7-33.2,29.8-57.7,39.3c11.1,16.7,16.7,30.4,16.7,41v201.5c0,7.2-0.6,16.4-1.7,27.6
				c-1.1,11.1-3.1,21.2-5.8,30.1c-2.8,8.9-7,13.4-12.5,13.4l-15.9-10l-9.2,15l64.4,52.7c26.2-8.9,47.9-31.2,65.2-66.9v-3.3
				c11.7,8.9,23.8,18.1,36.4,27.6c12.5,9.5,24,18.2,34.3,26.3c10.3,8.1,17.4,13.8,21.3,17.1c30.1-9.5,57.7-32.3,82.8-68.6
				c23.4,16.7,38.2,26.5,44.3,29.3l13.4-17.6c-17.3-8.9-30.7-21.5-40.1-37.6v-236.6c0-10.6,6.4-24.2,19.2-41l-10-5
				C6201.4,10612.6,6184.2,10601.2,6170.8,10587.9z"/>
		</g>
		<g class="st3">
			<path class="st4" d="M4560.1,10516.3c1.9,0,3.3-0.6,4.3-1.8c1-1.2,1.6-2.7,1.9-4.3l37-417.5c0.2-1.8-0.4-3.6-1.7-5.2
				c-1.3-1.7-3.4-2.5-6.3-2.5h-15.1c-5.1,0-9.4,1.5-12.8,4.5c-3.4,3-5.3,6.6-5.7,10.9l-3.4,58.8h-31.1l-3.4-58.8
				c-0.4-4.3-2.3-8-5.7-10.9c-3.4-3-7.7-4.5-12.8-4.5h-15.1c-2.9,0-5,0.8-6.3,2.5c-1.3,1.6-1.9,3.4-1.7,5.2l37,417.5
				c0.2,1.6,0.8,3.1,1.9,4.3c1,1.2,2.5,1.8,4.3,1.8H4560.1z M4529,10193.7h27.1l-13.5,230.5L4529,10193.7z"/>
			<path class="st4" d="M4862,10516.3c2.1,0,3.6-0.6,4.6-1.8c1-1.2,1.5-2.8,1.5-4.6v-418.4c0-1.9-0.5-3.4-1.5-4.6
				c-1-1.2-2.6-1.8-4.6-1.8h-17.3c-5.3,0-9.4,1.3-12.3,3.9c-2.9,2.6-4.6,6-5.2,10.3c0,2.5-0.8,8.2-2.3,17.2c-1.6,9-3.5,20-5.9,32.8
				c-2.4,12.8-5,27-7.8,42.4c-2.9,15.4-5.8,30.8-8.6,46.4c-2.9,15.5-5.6,30.4-8.2,44.5c-2.6,14.2-4.7,26.4-6.3,36.7l3.1-216
				c0.2-5.4-1.2-9.7-4.3-13.1c-3.1-3.4-7.6-5.1-13.5-5.1H4756c-2.1,0-3.6,0.6-4.6,1.8c-1,1.2-1.5,2.8-1.5,4.6v418.4
				c0,1.9,0.5,3.4,1.5,4.6c1,1.2,2.6,1.8,4.6,1.8h17.3c5.1,0,9.3-1.4,12.5-4.2c3.2-2.8,5-6.4,5.4-10.9c0.4-3.3,1.3-10,2.8-20.2
				c1.4-10.2,3.3-22.3,5.6-36.3c2.3-14.1,4.7-29.4,7.4-45.9c2.7-16.5,5.4-32.8,8.2-48.7c2.8-15.9,5.4-30.8,8-44.5
				c2.6-13.8,4.9-25.1,6.9-33.9l-3.1,228.9c0,4.7,1.6,8.5,4.9,11.4c3.3,2.9,7.6,4.3,12.9,4.3H4862z"/>
			<path class="st4" d="M5137.5,10286.1c2.1,0,3.6-0.6,4.6-1.8c1-1.2,1.5-2.8,1.5-4.6V10133c0-16.4-5.2-29.4-15.6-38.8
				c-10.4-9.4-24.9-14.2-43.6-14.2c-9.1,0-17.2,1.2-24.4,3.7c-7.2,2.5-13.4,6-18.6,10.6c-5.2,4.6-9.2,10.2-12,16.6
				c-2.8,6.5-4.2,13.8-4.2,22v335.2c0,16.4,5.2,29.4,15.6,38.8c10.4,9.4,24.9,14.2,43.6,14.2c8.8,0,16.9-1.2,24.2-3.7
				c7.3-2.5,13.6-6,18.8-10.6c5.2-4.6,9.3-10.2,12-16.6c2.8-6.5,4.2-13.8,4.2-22v-150.7c0-1.8-0.5-3.4-1.5-4.6
				c-1-1.2-2.6-1.8-4.6-1.8h-17.2c-6,0-10.4,1.7-13.4,5.1c-3,3.4-4.5,7.7-4.5,13.1v139c0,5.5-1.4,10-4.3,13.4
				c-2.9,3.4-7.4,5.1-13.5,5.1c-6,0-10.4-1.7-13.4-5.1c-3-3.4-4.5-7.9-4.5-13.4V10133c0-5.5,1.4-10,4.3-13.4
				c2.9-3.4,7.4-5.1,13.6-5.1c6,0,10.4,1.7,13.4,5.1c3,3.4,4.5,7.8,4.5,13.4v111.9c-5.5,0-10,1.5-13.4,4.5c-3.4,3-5.1,7.4-5.1,13.4
				v17.3c0,2,0.6,3.6,1.9,4.6c1.2,1,2.8,1.5,4.6,1.5H5137.5z"/>
			<path class="st4" d="M5416,10133c0-16.4-5.2-29.4-15.6-38.8c-10.4-9.4-24.9-14.2-43.6-14.2c-9.1,0-17.2,1.2-24.4,3.7
				c-7.2,2.5-13.4,6-18.6,10.6c-5.2,4.6-9.2,10.2-12,16.6c-2.8,6.5-4.2,13.8-4.2,22v376.8c0,1.9,0.5,3.4,1.6,4.6
				c1,1.2,2.6,1.8,4.6,1.8h17.2c5.3,0,9.7-1.4,13-4.3c3.3-2.9,4.9-6.7,4.9-11.4V10133c0-5.5,1.4-10,4.3-13.4
				c2.9-3.4,7.4-5.1,13.6-5.1c6,0,10.4,1.7,13.4,5.1c3,3.4,4.5,7.8,4.5,13.4v367.6c0,4.7,1.6,8.5,4.9,11.4c3.3,2.9,7.6,4.3,12.9,4.3
				h17.2c2.1,0,3.6-0.6,4.6-1.8c1-1.2,1.5-2.8,1.5-4.6V10133z"/>
			<path class="st4" d="M5576.2,10084.9c-2.1,0-3.6,0.6-4.6,1.8c-1,1.2-1.5,2.8-1.5,4.6v418.4c0,1.9,0.5,3.4,1.5,4.6
				c1,1.2,2.6,1.8,4.6,1.8h17.3c5.3,0,9.7-1.4,12.9-4.3c3.3-2.9,4.9-6.7,4.9-11.4v-381.1h37.9c4.7,0,8.5-1.6,11.4-4.9
				c2.9-3.3,4.3-7.6,4.3-13v-10.5c0-2.1-0.6-3.6-1.8-4.6s-2.8-1.5-4.6-1.5H5576.2z"/>
			<path class="st4" d="M5880.9,10516.3c1.9,0,3.3-0.6,4.3-1.8c1-1.2,1.6-2.7,1.9-4.3l37-417.5c0.2-1.8-0.4-3.6-1.7-5.2
				c-1.3-1.7-3.4-2.5-6.3-2.5h-15.1c-5.1,0-9.4,1.5-12.8,4.5c-3.4,3-5.3,6.6-5.7,10.9l-3.4,58.8h-31.1l-3.4-58.8
				c-0.4-4.3-2.3-8-5.7-10.9c-3.4-3-7.7-4.5-12.8-4.5h-15.1c-2.9,0-5,0.8-6.3,2.5c-1.3,1.6-1.9,3.4-1.7,5.2l37,417.5
				c0.2,1.6,0.8,3.1,1.9,4.3c1,1.2,2.5,1.8,4.3,1.8H5880.9z M5849.8,10193.7h27.1l-13.5,230.5L5849.8,10193.7z"/>
			<path class="st4" d="M6130.4,10516.3c8.8,0,16.8-1.3,24-3.8c7.2-2.6,13.3-6.1,18.5-10.6c5.1-4.5,9.1-10.1,11.9-16.6
				c2.8-6.6,4.2-13.9,4.2-21.9v-146c0-9-1.8-16.4-5.4-22.2c-3.6-5.8-8.6-10.4-14.9-13.9c6.4-3.5,11.3-8.1,14.9-13.7
				c3.6-5.6,5.4-12.9,5.4-21.7v-154.4c0-1.9-0.5-3.4-1.5-4.6c-1-1.2-2.6-1.8-4.6-1.8h-17.2c-6,0-10.4,1.7-13.4,5.1
				c-3,3.4-4.5,7.7-4.5,13.1v142.6c0,5.5-1.4,10-4.1,13.4c-2.8,3.4-7.4,5.1-13.7,5.1h-17.9v-161.1c0-5.4-1.5-9.7-4.5-13.1
				c-3-3.4-7.5-5.1-13.4-5.1h-17.2c-2.1,0-3.6,0.6-4.6,1.8c-1,1.2-1.6,2.8-1.6,4.6v418.4c0,1.9,0.5,3.4,1.6,4.6
				c1,1.2,2.6,1.8,4.6,1.8H6130.4z M6111.9,10481.8v-183h17.9c6.2,0,10.7,1.7,13.5,5.2c2.9,3.5,4.3,7.9,4.3,13.2v146
				c0,5.3-1.5,9.8-4.5,13.3c-3,3.5-7.4,5.2-13.4,5.2H6111.9z"/>
		</g>
	</g>
</g>
<rect x="240.9" y="245.9" class="st4" width="199.6" height="7"/>
</svg>
