<?xml version="1.0" encoding="utf-8"?>
<!-- Generator: Adobe Illustrator 24.2.3, SVG Export Plug-In . SVG Version: 6.00 Build 0)  -->
<svg version="1.1" id="Calque_1" xmlns="http://www.w3.org/2000/svg" xmlns:xlink="http://www.w3.org/1999/xlink" x="0px" y="0px"
	 viewBox="0 0 1279.1 173.1" style="enable-background:new 0 0 1279.1 173.1;" xml:space="preserve">
<style type="text/css">
	.st0{fill:#4D5B5B;}
	.st1{fill:#D2A96A;}
	.st2{fill:#AC6A00;}
	.st3{fill:#E39510;}
	.st4{fill:#F3D035;}
	.st5{fill:#A4A530;}
	.st6{fill:#898A25;}
	.st7{fill:#B8BA38;}
	.st8{fill:#FFA511;}
	.st9{fill:#A16B4E;}
	.st10{fill:#7F513D;}
	.st11{opacity:0.1;enable-background:new    ;}
	.st12{opacity:0.1;}
	.st13{fill:#FAD97E;}
	.st14{fill:#8B8892;}
	.st15{fill:#AEADB3;}
	.st16{fill:#787780;}
	.st17{fill:#BA9361;}
	.st18{fill:#67B7CB;}
	.st19{fill:#FF7B8E;}
	.st20{fill:#FC5263;}
	.st21{fill:#33A7C9;}
	.st22{fill:#3D98D0;}
	.st23{fill:#AF12AF;}
	.st24{fill:#8E0F91;}
	.st25{fill:#D82ADD;}
</style>
<g>
	<circle class="st0" cx="93.8" cy="89.3" r="64.9"/>
	<path class="st1" d="M91.7,14.7c-1.4-0.4-3.4,0.3-4,1.6c-0.6,1.4,0.4,3.1,1.8,3c0.9-0.1,1.5-0.9,1.2-1.7c-0.3-0.8-1.7-0.5-1.5,0.4
		c-0.5-2.5,2-2.1,2.1-2.1c2.2,0.5,2.1,4.2-0.6,5.1c-0.6,0.2-1.3,0.3-2,0.3c-0.2-0.2-0.4-0.4-0.7-0.6c-0.8-0.6-1.8-0.9-2.8-1
		c-1,0-1.9,0.2-2.8,0.6c-0.8,0.4-1.5,0.9-2,1.6H57c1.6-0.8,2.6-2.6,2.1-4.4c-0.4-1.4-2.5-3.1-3.7-1.5c-0.9,1.1,0.6,2.8,1.7,1.8
		c0.2-0.2,0.3-0.5,0.2-0.7c0.5,0.5,0.7,1.5,0.5,2.1C57.6,20,57,20.6,56.4,21c-1,0.5-2.1,0.5-3.1,0.1C52.8,20,52,19,51.1,18.3
		c-2.6-2.2-6.9-3.3-10.5-1.4c-0.5,0.3-1,0.6-1.4,0.9c0.9-2.5,0.4-5.4-2.3-7.1c-0.6-0.4-1,0.4-0.6,0.8c2.8,2.4,2.2,6,0,7.9
		c-2.3,2-5.4,1.4-6.5,0.3c-1.1-1.1-1.3-4.3,0.2-4.2c1.4,0.1,1.9,2.1,3.2,0.9c0.7-0.6,0.7-1.9,0.3-2.7c-0.8-1.5-2.7-2-4.2-1.3
		c-1.8,0.8-2.6,2.9-2.4,4.7c0.1,1.3,0.6,2.3,1.3,3.1c-0.8-0.7-1.9-1.2-3.1-1.3c-1.8-0.2-3.9,0.7-4.7,2.4c-0.7,1.5-0.2,3.4,1.3,4.2
		c0.8,0.4,2.1,0.4,2.7-0.3c1.2-1.3-0.8-1.8-0.9-3.2c-0.1-1.5,3.1-1.3,4.2-0.2c1.1,1.1,1.7,4.2-0.3,6.5c-1.9,2.2-5.6,2.8-7.9,0
		c-0.4-0.5-1.2,0-0.8,0.6c1.6,2.5,4.1,3.1,6.4,2.5c-0.3,0.4-0.5,0.8-0.7,1.2c-1.9,3.6-0.8,7.9,1.4,10.5c0.7,0.9,1.7,1.7,2.8,2.2
		c0.3,1,0.4,2.1-0.1,3.1c-0.3,0.6-1,1.3-1.7,1.4c-0.5,0.1-1.5,0-2.1-0.5c0.2,0.1,0.5,0.1,0.7-0.2c1-1.1-0.6-2.6-1.8-1.7
		c-1.6,1.2,0.1,3.3,1.5,3.7c1.8,0.6,3.6-0.4,4.4-2.1v23.4c-0.7,0.5-1.2,1.2-1.6,2c-0.4,0.9-0.6,1.8-0.6,2.8c0,1,0.4,2,1,2.8
		c0.2,0.2,0.4,0.5,0.6,0.7c0,0.7-0.1,1.4-0.3,2c-1,2.6-4.7,2.8-5.1,0.6c0-0.1-0.4-2.6,2.1-2.1c-0.9-0.2-1.2,1.2-0.4,1.5
		c0.9,0.3,1.7-0.3,1.7-1.2c0.1-1.4-1.6-2.4-3-1.8c-1.4,0.6-2,2.6-1.6,4c0.8,2.8,5.8,3.2,7.4-0.9c0.2-0.4,0.3-0.9,0.3-1.3
		c1,0.6,2.2,1,3.4,1c3.4-0.1,6.6-3,6.7-7.5c0-1.8-0.4-3.4-0.8-5c-0.5-1.6-1.1-3-1.7-4.5c4.7-5.1,8.2-10.2,10.2-17.5
		c0.6-2.1,1-4.4,0.9-6.6c0-0.1,0-0.3,0-0.4c0.3,0,0.6,0,0.9,0c2.3,0,4.5-0.4,6.6-0.9c7.3-2,12.5-5.5,17.5-10.2
		c1.5,0.6,3,1.2,4.5,1.7c1.6,0.5,3.3,0.8,5,0.8c4.5,0,7.4-3.3,7.5-6.7c0-1.2-0.4-2.4-1-3.4c0.4,0,0.9-0.1,1.3-0.3
		C94.9,20.6,94.4,15.6,91.7,14.7z M53.8,30.1c-0.9-0.2-1.8-0.1-2.6,0.4c0.5-0.3,0.9-0.7,1.3-1.2c0.2-0.2,0.3-0.4,0.4-0.6
		C53.1,29.2,53.4,29.7,53.8,30.1z M54.1,24.5c0-0.3,0-0.6-0.1-0.9h1.4c-0.1,0.1-0.3,0.1-0.4,0.2C54.6,24,54.3,24.2,54.1,24.5z
		 M41.6,19c3.5-1.7,8.1,0.5,9.1,3.5c1.4,4-2.3,6.5-3.8,4.9c-0.8-0.8-2.1-0.9-2.9-0.1c-2.3,2.1,1.4,5.1,4.9,4.3
		c0.7-0.2,1.3-0.5,1.9-0.8c-0.9,0.7-1.5,1.8-1.2,3.1c0.3,1.2,1.8,2.2,2.8,1.8c0.7-0.3,1-1.2,0.8-1.7c-0.3-0.7-1.4-1-1.8-0.1
		c-0.9-1.4,0.7-2.5,1.7-2.3c1,0.2,1.6,0.6,2,1.5c0.7,1.5,0,3-1.1,4.1c-1.4,1.6-3.2,2-5.1,2.3c-0.2,0-0.4,0-0.6,0
		c-0.2-1.6-0.5-3.1-1.2-4.6c-1.5-3.6-4.5-6.1-8-7.3c-0.3-1.3-0.9-2.5-1.8-3.5C38.1,21.7,39.7,19.9,41.6,19z M35.2,22.4
		c-0.2-0.1-0.5-0.3-0.7-0.4c0.6-0.2,1.1-0.4,1.6-0.7c-0.2,0.4-0.4,0.8-0.6,1.2C35.5,22.5,35.4,22.4,35.2,22.4z M30.2,27.4
		c0,0.1,0.1,0.1,0.1,0.2c-0.3,0.1-0.6,0.2-1,0.4c0.2-0.4,0.4-0.8,0.5-1.3C29.9,27,30,27.2,30.2,27.4z M32.2,26.3
		c-0.4-0.8-0.7-1.7-0.7-2.6c0.9,0,1.8,0.2,2.6,0.7c1.9,1,2.8,2.9,3,4.9C35,29.1,33.2,28.3,32.2,26.3z M39.3,31.4
		c0.1-0.6,0.1-1.2,0.1-1.8c2.6,1.1,4.9,3.1,6.1,5.8c0.5,1.1,0.9,2.4,1.1,3.6c-1.1-0.2-2.2-0.5-3.2-1c-2.9-1.3-5-3.8-6-6.6
		C37.9,31.5,38.6,31.5,39.3,31.4z M26.3,33.8c0.9-2,2.9-3.6,5.4-4.4c1,0.9,2.1,1.5,3.4,1.8c1.1,3.7,3.7,6.9,7.5,8.6
		c1.3,0.6,2.7,0.9,4.1,1.1c0,0.1,0,0.1,0,0.2c-0.3,1.9-0.8,3.7-2.3,5.1c-1.1,1-2.6,1.7-4.1,1.1c-0.9-0.4-1.3-1-1.5-2
		c-0.2-1,0.9-2.6,2.3-1.7c-0.8,0.4-0.6,1.6,0.1,1.8c0.5,0.2,1.4-0.1,1.7-0.8c0.4-1-0.6-2.6-1.8-2.8c-1.3-0.3-2.4,0.3-3.1,1.2
		c0.3-0.6,0.6-1.2,0.8-1.9c0.9-3.5-2.1-7.2-4.3-4.9c-0.8,0.8-0.7,2.1,0.1,2.9c1.6,1.5-0.9,5.2-4.9,3.8
		C26.8,41.8,24.6,37.3,26.3,33.8z M30.8,46.2c0.3,0,0.6,0,0.9,0.1c-0.2,0.3-0.5,0.6-0.7,0.9c-0.1,0.1-0.2,0.3-0.2,0.4V46.2z
		 M37.3,46c-0.4-0.4-0.9-0.6-1.4-0.8c0.2-0.1,0.4-0.3,0.6-0.4c0.5-0.4,0.8-0.9,1.2-1.3C37.3,44.1,37.1,45.1,37.3,46z M37.9,75.1
		c-0.1,3.8-2.7,5.7-4.9,5.7c-1.4,0-2.8-0.8-3.4-1.7c-0.8-1-0.8-2.4-0.2-3.7c0.5-1.2,1.7-2,2.9-1.9c0.5,0.1,1.1,0.4,1.5,0.8
		c0.3,0.4,0.4,0.8,0.2,1.3c-0.2,0.5-0.6,0.9-0.9,0.9c-0.2,0-0.3,0-0.3,0c0,0,0,0,0-0.2c0.1-0.5-0.2-1-0.7-1.2
		c-0.5-0.2-1.1,0.1-1.2,0.6l0,0c-0.2,0.6-0.1,1.5,0.4,2.1c0.6,0.6,1.3,0.8,2,0.7c1.3-0.2,2.2-1.2,2.5-2.2c0.2-0.5,0.3-1.1,0.2-1.7
		c-0.1-0.6-0.4-1.1-0.8-1.5c-0.4-0.4-0.8-0.7-1.2-1c-0.4-0.2-1-0.4-1.5-0.5c-0.6-0.1-1.1,0-1.7,0.2V54.5c0.3,0.9,0.6,1.8,0.9,2.7
		c1.7,4.4,4.2,9.3,5.5,13.4C37.6,72.1,38,73.6,37.9,75.1z M36.6,64.2C36.6,64.2,36.6,64.2,36.6,64.2c-0.2-0.2-0.3-0.5-0.4-0.8
		c0-1-0.1-2.1-0.1-3.1c0.1-2.2,0.5-3.1,0.6-3.6c0.4-1.5,2-2.7,3.1-1.5c-0.6,0.9-0.1,2.2,1,2c1.3-0.2,1.3-1.6,0.9-2.6
		c-0.9-2-2.8-1.6-3.5-1.3c-1,0.4-1.8,1.4-2.2,2.3c-0.8,1.7-0.9,3.6-0.8,5.6c0,0,0-0.1,0-0.1c-1.3-2.9-2.8-5.9-3.4-8.9
		c-0.8-4.3,1.8-6.6,3.7-5.8c3.1,1.3,1.2,4.3,0.1,3.3c-0.4-0.3-0.3-0.6-0.3-0.4c0.2-0.5,0-1.1-0.5-1.3c-0.5-0.2-1.1,0-1.3,0.5
		c-0.9,2.4,3.1,4.6,4.8,1.5c0.4-0.7,0.4-1.4,0.3-2.1c1.4,1.2,3.5,1.3,5.2,0.4c1.1-0.6,2-1.5,2.7-2.7c-0.1,0.7-0.3,1.4-0.4,2.1
		C44.1,54.5,40.7,59.7,36.6,64.2z M72,29.3c-4.5,4-9.7,7.5-16.5,9.3c-0.7,0.2-1.4,0.3-2.1,0.4c1.1-0.7,2.1-1.6,2.7-2.7
		c0.9-1.7,0.8-3.8-0.4-5.2c0.7,0.2,1.4,0.1,2.1-0.3c3.2-1.7,0.9-5.7-1.5-4.8c-0.5,0.2-0.7,0.8-0.5,1.3c0.2,0.5,0.8,0.7,1.3,0.5
		c-0.2,0,0-0.2,0.4,0.3c1,1.2-2,3-3.3-0.1c-0.8-2,1.5-4.6,5.8-3.7c3,0.6,6,2,8.9,3.4c0,0,0.1,0,0.1,0c-1.9-0.1-3.9,0-5.6,0.8
		c-1,0.4-1.9,1.2-2.3,2.2c-0.3,0.7-0.7,2.6,1.3,3.5c1,0.5,2.3,0.4,2.6-0.9c0.2-1.1-1.1-1.6-2-1c-1.2-1.1-0.1-2.7,1.5-3.1
		c0.5-0.2,1.4-0.6,3.6-0.6c1.1,0,2.1,0,3.1,0.1C71.4,29,71.7,29.2,72,29.3C72,29.3,72,29.3,72,29.3z M82.9,30.7
		c-1.5,0-3-0.3-4.5-0.7c-4.2-1.2-9-3.8-13.4-5.5c-0.8-0.3-1.7-0.6-2.7-0.9h17.3c-0.2,0.5-0.2,1.1-0.2,1.7c0.1,0.5,0.2,1.1,0.5,1.5
		c0.2,0.4,0.6,0.9,1,1.2c0.4,0.4,0.9,0.6,1.5,0.8c0.6,0.1,1.2,0,1.7-0.2c1-0.4,2-1.2,2.2-2.5c0.1-0.6-0.1-1.4-0.7-2
		c-0.6-0.6-1.5-0.6-2.1-0.4l0,0c-0.5,0.2-0.8,0.7-0.6,1.2c0.2,0.5,0.7,0.8,1.2,0.7c0.2-0.1,0.2,0,0.2,0c0,0,0.1,0.1,0,0.3
		c0,0.3-0.4,0.7-0.9,0.9c-0.5,0.2-0.9,0.1-1.3-0.2c-0.4-0.3-0.7-0.9-0.8-1.5c-0.1-1.2,0.6-2.4,1.9-2.9c1.2-0.6,2.6-0.6,3.7,0.2
		c0.9,0.7,1.7,2.1,1.7,3.4C88.6,28,86.7,30.5,82.9,30.7z"/>
	<path class="st1" d="M96,165c1.4,0.4,3.4-0.4,4-1.7c0.6-1.4-0.5-3.1-1.9-2.9c-0.9,0.1-1.5,0.9-1.2,1.8c0.3,0.8,1.7,0.5,1.5-0.4
		c0.6,2.5-2,2.1-2,2.1c-2.2-0.4-2.2-4.1,0.4-5.2c0.6-0.2,1.3-0.3,2-0.4c0.2,0.2,0.4,0.4,0.7,0.6c0.8,0.6,1.8,0.9,2.8,0.9
		c1,0,1.9-0.3,2.8-0.7c0.7-0.4,1.4-0.9,1.9-1.7l23.4-0.8c-1.6,0.9-2.5,2.7-1.9,4.4c0.5,1.3,2.6,3,3.8,1.4c0.8-1.2-0.7-2.8-1.8-1.7
		c-0.2,0.2-0.2,0.5-0.1,0.7c-0.5-0.5-0.7-1.5-0.6-2c0.1-0.7,0.7-1.4,1.4-1.7c1-0.6,2-0.5,3.1-0.2c0.6,1.1,1.4,2,2.3,2.7
		c2.7,2.1,7,3,10.6,1c0.5-0.3,1-0.6,1.4-1c-0.8,2.5-0.2,5.4,2.5,7c0.6,0.3,1-0.5,0.5-0.9c-2.9-2.3-2.4-5.9-0.3-7.9
		c2.2-2.1,5.3-1.6,6.5-0.5c1.2,1.1,1.5,4.3,0,4.2c-1.5,0-1.9-2.1-3.2-0.8c-0.7,0.6-0.6,1.9-0.2,2.7c0.8,1.5,2.7,1.9,4.2,1.2
		c1.7-0.9,2.5-2.9,2.3-4.8c-0.2-1.3-0.7-2.3-1.4-3.1c0.8,0.7,1.9,1.2,3.2,1.2c1.8,0.1,3.9-0.8,4.6-2.6c0.6-1.5,0.1-3.4-1.4-4.1
		c-0.8-0.4-2.1-0.3-2.6,0.3c-1.1,1.4,0.9,1.7,1,3.2c0.1,1.5-3,1.4-4.2,0.3c-1.1-1.1-1.9-4.1,0.1-6.5c1.9-2.3,5.5-3,7.9-0.3
		c0.4,0.5,1.2,0,0.8-0.6c-1.7-2.4-4.2-3-6.5-2.3c0.3-0.4,0.5-0.8,0.7-1.2c1.7-3.7,0.5-7.9-1.8-10.5c-0.8-0.9-1.8-1.6-2.9-2.1
		c-0.4-1-0.5-2.1,0-3.1c0.3-0.7,0.9-1.3,1.6-1.5c0.5-0.1,1.5,0,2.1,0.5c-0.2-0.1-0.5-0.1-0.7,0.2c-1,1.2,0.7,2.6,1.8,1.7
		c1.5-1.3-0.2-3.3-1.6-3.7c-1.8-0.5-3.6,0.5-4.3,2.2l-0.8-23.4c0.7-0.6,1.2-1.3,1.5-2c0.4-0.9,0.6-1.8,0.5-2.8c-0.1-1-0.4-2-1.1-2.7
		c-0.2-0.2-0.4-0.4-0.6-0.6c0-0.7,0.1-1.4,0.3-2c0.9-2.6,4.6-2.9,5.1-0.7c0,0.1,0.5,2.6-2,2.2c0.9,0.1,1.1-1.3,0.3-1.5
		c-0.9-0.3-1.7,0.3-1.7,1.3c0,1.4,1.7,2.3,3,1.7c1.3-0.7,1.9-2.7,1.5-4.1c-0.9-2.7-5.9-3-7.3,1.1c-0.1,0.4-0.2,0.9-0.2,1.3
		c-1-0.6-2.2-0.9-3.4-0.9c-3.4,0.2-6.5,3.2-6.4,7.7c0,1.8,0.5,3.4,1,5c0.5,1.5,1.2,3,1.8,4.4c-4.6,5.2-7.8,10.5-9.6,17.9
		c-0.5,2.2-0.8,4.4-0.7,6.7c0,0.1,0,0.3,0,0.4c-0.3,0-0.6,0-0.9,0c-2.3,0.1-4.5,0.5-6.6,1.2c-7.3,2.3-12.3,5.9-17.2,10.8
		c-1.5-0.6-3-1.1-4.6-1.5c-1.6-0.4-3.3-0.7-5.1-0.7c-4.5,0.2-7.3,3.5-7.3,6.9c0,1.2,0.4,2.4,1.1,3.3c-0.4,0-0.9,0.2-1.3,0.3
		C92.6,159.3,93.2,164.3,96,165z M133.4,148.5c0.9,0.2,1.8,0,2.6-0.5c-0.5,0.4-0.9,0.8-1.3,1.2c-0.1,0.2-0.3,0.4-0.4,0.6
		C134.1,149.3,133.8,148.8,133.4,148.5z M133.3,154c0,0.3,0,0.6,0.1,0.9l-1.4,0c0.1-0.1,0.3-0.2,0.4-0.2
		C132.7,154.5,133,154.3,133.3,154z M145.9,159.1c-3.4,1.8-8.1-0.2-9.2-3.2c-1.6-4,2.1-6.6,3.6-5c0.8,0.8,2.1,0.8,2.9,0
		c2.2-2.2-1.6-5.1-5.1-4.1c-0.7,0.2-1.3,0.5-1.9,0.9c0.9-0.7,1.4-1.9,1.1-3.1c-0.3-1.2-1.9-2.1-2.9-1.7c-0.7,0.3-0.9,1.2-0.7,1.7
		c0.3,0.7,1.5,0.9,1.8,0.1c1,1.4-0.6,2.5-1.6,2.4c-1-0.2-1.6-0.5-2.1-1.4c-0.7-1.5-0.1-3,0.9-4.2c1.4-1.6,3.1-2.1,5-2.5
		c0.2,0,0.4,0,0.6,0c0.2,1.6,0.7,3.1,1.3,4.5c1.7,3.5,4.8,6,8.2,7c0.4,1.3,1,2.5,1.9,3.4C149.3,156.3,147.8,158.1,145.9,159.1z
		 M152.2,155.5c0.2,0.1,0.5,0.2,0.7,0.3c-0.6,0.2-1.1,0.4-1.6,0.7c0.2-0.4,0.4-0.8,0.5-1.3C151.9,155.4,152,155.4,152.2,155.5z
		 M157.1,150.3c0-0.1-0.1-0.1-0.1-0.2c0.3-0.1,0.6-0.3,0.9-0.4c-0.2,0.4-0.3,0.8-0.4,1.3C157.3,150.7,157.2,150.5,157.1,150.3z
		 M155.1,151.4c0.5,0.8,0.7,1.7,0.8,2.6c-0.9,0-1.8-0.2-2.6-0.6c-2-1-2.9-2.8-3.2-4.8C152.1,148.7,154,149.6,155.1,151.4z
		 M147.8,146.6c0,0.6,0,1.2,0,1.8c-2.7-1-5-2.9-6.3-5.6c-0.6-1.1-0.9-2.3-1.2-3.6c1.1,0.2,2.2,0.5,3.2,0.9c3,1.2,5.2,3.6,6.3,6.4
		C149.2,146.5,148.5,146.5,147.8,146.6z M160.7,143.8c-0.9,2.1-2.8,3.7-5.2,4.6c-1-0.9-2.2-1.4-3.5-1.7c-1.2-3.7-3.9-6.8-7.8-8.3
		c-1.3-0.5-2.7-0.8-4.1-1c0-0.1,0-0.1,0-0.2c0.2-1.9,0.6-3.7,2.2-5.2c1.1-1.1,2.6-1.8,4.1-1.2c0.9,0.4,1.3,1,1.5,2
		c0.2,1-0.8,2.7-2.2,1.8c0.8-0.4,0.5-1.6-0.2-1.8c-0.5-0.2-1.4,0.1-1.7,0.8c-0.3,1,0.6,2.6,1.9,2.8c1.3,0.2,2.4-0.4,3-1.3
		c-0.3,0.6-0.6,1.2-0.7,1.9c-0.8,3.6,2.4,7.1,4.4,4.8c0.7-0.9,0.6-2.1-0.2-2.9c-1.7-1.4,0.7-5.2,4.8-4
		C160,135.8,162.3,140.3,160.7,143.8z M155.8,131.5c-0.3,0-0.6,0-0.9,0c0.2-0.3,0.5-0.6,0.7-1c0.1-0.1,0.1-0.3,0.2-0.4L155.8,131.5z
		 M149.3,132c0.4,0.3,0.9,0.6,1.4,0.8c-0.2,0.1-0.4,0.3-0.6,0.4c-0.4,0.4-0.8,0.9-1.1,1.4C149.4,133.8,149.5,132.9,149.3,132z
		 M147.7,102.9c0-3.8,2.5-5.8,4.7-5.8c1.4-0.1,2.8,0.7,3.5,1.6c0.8,1,0.8,2.4,0.3,3.7c-0.5,1.2-1.7,2.1-2.8,1.9
		c-0.5,0-1.1-0.4-1.5-0.8c-0.4-0.4-0.4-0.8-0.3-1.3c0.2-0.5,0.6-0.9,0.9-0.9c0.2,0,0.3,0,0.3,0c0,0,0,0,0,0.2
		c-0.1,0.5,0.2,1,0.7,1.2c0.5,0.1,1.1-0.2,1.2-0.7l0,0c0.2-0.6,0.1-1.5-0.5-2c-0.6-0.6-1.4-0.7-2-0.6c-1.3,0.2-2.1,1.3-2.4,2.3
		c-0.2,0.5-0.2,1.1-0.1,1.7c0.1,0.6,0.4,1.1,0.8,1.5c0.4,0.4,0.8,0.7,1.3,0.9c0.4,0.2,1,0.4,1.5,0.4c0.6,0,1.1,0,1.7-0.2l0.6,17.3
		c-0.3-0.9-0.6-1.8-1-2.6c-1.8-4.4-4.6-9.1-5.9-13.2C148.1,105.9,147.7,104.4,147.7,102.9z M149.4,113.8
		C149.4,113.8,149.4,113.8,149.4,113.8c0.2,0.2,0.3,0.5,0.4,0.8c0.1,1,0.2,2.1,0.2,3.1c0,2.2-0.4,3.1-0.5,3.6
		c-0.4,1.5-1.9,2.8-3,1.6c0.5-1,0-2.2-1.1-2c-1.3,0.3-1.3,1.6-0.8,2.6c1,1.9,2.8,1.5,3.5,1.2c1-0.5,1.7-1.4,2.1-2.4
		c0.7-1.7,0.8-3.7,0.6-5.6c0,0,0,0.1,0,0.1c1.4,2.9,3,5.8,3.7,8.8c1,4.2-1.5,6.7-3.5,5.9c-3.1-1.2-1.4-4.3-0.2-3.3
		c0.4,0.3,0.3,0.5,0.3,0.4c-0.2,0.5,0,1.1,0.5,1.3c0.5,0.2,1.1,0,1.3-0.5c0.9-2.4-3.2-4.5-4.8-1.3c-0.3,0.7-0.4,1.4-0.2,2.1
		c-1.4-1.1-3.5-1.2-5.2-0.2c-1.1,0.6-2,1.6-2.6,2.8c0.1-0.7,0.2-1.4,0.4-2.1C142.2,123.7,145.5,118.4,149.4,113.8z M115.2,149.8
		c4.3-4.2,9.4-7.8,16.2-9.8c0.7-0.2,1.4-0.4,2.1-0.5c-1.1,0.7-2,1.7-2.6,2.8c-0.8,1.7-0.6,3.8,0.6,5.1c-0.7-0.1-1.4-0.1-2.1,0.3
		c-3.1,1.8-0.7,5.7,1.6,4.7c0.5-0.2,0.7-0.8,0.4-1.3c-0.3-0.5-0.8-0.7-1.3-0.4c0.2,0,0,0.2-0.4-0.2c-1-1.2,1.9-3.1,3.3-0.1
		c0.9,1.9-1.4,4.6-5.7,3.9c-3.1-0.5-6-1.8-9-3.1c0,0-0.1,0-0.1,0c1.9,0.1,3.9-0.2,5.5-1c1-0.5,1.9-1.3,2.3-2.3
		c0.3-0.7,0.6-2.6-1.4-3.5c-1-0.4-2.4-0.3-2.6,0.9c-0.2,1.1,1.1,1.5,2,0.9c1.3,1,0.1,2.7-1.4,3.1c-0.5,0.2-1.4,0.6-3.6,0.8
		c-1,0.1-2.1,0-3.1,0C115.8,150.1,115.5,149.9,115.2,149.8C115.2,149.8,115.2,149.8,115.2,149.8z M104.2,148.8
		c1.5-0.1,3,0.2,4.5,0.6c4.2,1.1,9.1,3.5,13.6,5c0.9,0.3,1.8,0.6,2.7,0.8l-17.3,0.6c0.1-0.5,0.2-1.1,0.1-1.7c-0.1-0.5-0.3-1-0.5-1.5
		c-0.3-0.4-0.6-0.8-1-1.2c-0.4-0.3-1-0.6-1.6-0.7c-0.6-0.1-1.2,0-1.7,0.2c-1,0.4-1.9,1.3-2.1,2.6c-0.1,0.6,0.1,1.4,0.7,1.9
		c0.6,0.6,1.5,0.6,2.1,0.4l0,0c0.5-0.2,0.8-0.7,0.6-1.3c-0.2-0.5-0.7-0.8-1.2-0.6c-0.2,0.1-0.2,0-0.2,0c0,0-0.1-0.1-0.1-0.3
		c0-0.3,0.4-0.8,0.9-1c0.5-0.2,0.9-0.1,1.3,0.2c0.4,0.3,0.8,0.9,0.9,1.4c0.2,1.1-0.6,2.4-1.8,3c-1.2,0.6-2.6,0.7-3.7-0.1
		c-1-0.6-1.8-2-1.8-3.4C98.6,151.7,100.4,149.1,104.2,148.8z"/>
	<g>
		<path class="st2" d="M105.4,100.1c15-15,19.7-32.1,12.3-39.6C110.2,53,93.3,58,78.3,73s-20,31.9-12.5,39.4
			C73.2,119.9,90.4,115.1,105.4,100.1z"/>
		<g>
			<path class="st3" d="M98,87.2c0.6,0.6,1.1,1.1,1.7,1.7c1.9,1.9,4.6,2.1,6,0.5c0,0,0,0,0-0.1c1.4-1.6,1-4.4-0.8-6.2
				c-0.5-0.5-1.1-1.1-1.6-1.6c-1.8-1.8-4.4-2-5.9-0.5c0,0,0,0-0.1,0.1C95.8,82.5,96.1,85.3,98,87.2z"/>
			<path class="st3" d="M92.4,92.7c0.6,0.6,1.1,1.1,1.7,1.7c1.9,1.9,4.7,2.2,6.2,0.7c0,0,0,0,0.1-0.1c1.5-1.5,1.2-4.3-0.7-6.2
				c-0.6-0.6-1.1-1.1-1.7-1.7c-1.9-1.9-4.6-2.1-6.1-0.6c0,0,0,0-0.1,0.1C90.3,88.1,90.6,90.8,92.4,92.7z"/>
			<path class="st3" d="M117.7,60.5C117.7,60.5,117.7,60.5,117.7,60.5c1.3-1.2,1.5-2.9,0.5-3.8c-0.3-0.3-0.6-0.6-0.9-0.9
				c-0.9-0.9-3-1.2-4.7-0.4c0,0,0,0-0.1,0c-1.6,0.8-1.9,2.6-0.6,3.8c0.4,0.4,0.8,0.7,1.1,1.1C114.4,61.7,116.4,61.7,117.7,60.5z"/>
			<path class="st3" d="M103.3,81.5c0.5,0.5,1.1,1.1,1.6,1.6c1.8,1.8,4.4,1.9,5.6,0.3c0,0,0,0,0-0.1c1.3-1.7,0.9-4.4-0.7-6
				c-0.5-0.5-1-1-1.5-1.5c-1.7-1.6-4.2-1.8-5.6-0.3c0,0,0,0-0.1,0.1C101.3,77,101.5,79.7,103.3,81.5z"/>
		</g>
		<path id="SVGCleanerId_0" class="st3" d="M122.7,65.5C122.7,65.5,122.8,65.5,122.7,65.5c0.9-1.6,0.8-3.5-0.1-4.4
			c-0.3-0.3-0.6-0.6-0.9-0.9c-0.9-0.9-2.7-0.9-4,0.2c0,0,0,0,0,0c-1.3,1.1-1.3,3.2,0,4.4c0.4,0.4,0.8,0.7,1.1,1.1
			C120,67.3,121.8,67,122.7,65.5z"/>
		<g>
			<path id="SVGCleanerId_0_1_" class="st3" d="M122.7,65.5C122.7,65.5,122.8,65.5,122.7,65.5c0.9-1.6,0.8-3.5-0.1-4.4
				c-0.3-0.3-0.6-0.6-0.9-0.9c-0.9-0.9-2.7-0.9-4,0.2c0,0,0,0,0,0c-1.3,1.1-1.3,3.2,0,4.4c0.4,0.4,0.8,0.7,1.1,1.1
				C120,67.3,121.8,67,122.7,65.5z"/>
		</g>
		<g>
			<path class="st3" d="M108.4,75.7c0.5,0.5,1,1,1.5,1.5c1.7,1.7,4,1.7,5.2,0c0,0,0,0,0-0.1c1.1-1.7,0.8-4.2-0.6-5.7
				c-0.4-0.4-0.9-0.9-1.3-1.3c-1.5-1.4-3.8-1.5-5.2-0.1c0,0,0,0,0,0C106.5,71.5,106.7,74.1,108.4,75.7z"/>
			<path class="st3" d="M113.2,70.2c0.4,0.4,0.9,0.9,1.3,1.3c1.5,1.5,3.6,1.3,4.6-0.3c0,0,0,0,0-0.1c1-1.6,0.8-3.9-0.4-5.1
				c-0.4-0.4-0.8-0.7-1.1-1.1c-1.2-1.2-3.3-1.2-4.6,0.1c0,0,0,0,0,0C111.6,66.4,111.7,68.7,113.2,70.2z"/>
			<path class="st3" d="M96.8,75c-0.5-0.5-1.1-1.1-1.6-1.6c-1.8-1.8-4.5-2.1-6.1-0.7c0,0,0,0-0.1,0.1c-1.6,1.4-1.3,4.2,0.5,6
				c0.6,0.6,1.1,1.1,1.7,1.7c1.9,1.9,4.6,2.1,6.1,0.6c0,0,0,0,0.1-0.1C98.9,79.4,98.6,76.7,96.8,75z"/>
			<path class="st3" d="M107.8,64.8c-0.4-0.4-0.9-0.9-1.3-1.3c-1.5-1.5-4-1.8-5.6-0.6c0,0,0,0-0.1,0c-1.6,1.2-1.6,3.6,0.1,5.3
				c0.5,0.5,1,1,1.5,1.5c1.7,1.7,4.2,1.8,5.6,0.4c0,0,0,0,0,0C109.4,68.6,109.3,66.3,107.8,64.8z"/>
			<path class="st3" d="M113.1,60.4c-0.4-0.4-0.8-0.7-1.1-1.1c-1.2-1.2-3.6-1.5-5.2-0.5c0,0,0,0-0.1,0c-1.6,1-1.8,3.1-0.2,4.6
				c0.4,0.4,0.9,0.9,1.3,1.3c1.5,1.5,3.8,1.6,5.1,0.2c0,0,0,0,0,0C114.3,63.7,114.3,61.7,113.1,60.4z"/>
			<path class="st3" d="M91.2,80.4c-0.6-0.6-1.1-1.1-1.7-1.7c-1.9-1.9-4.6-2.2-6.2-0.7c0,0,0,0-0.1,0.1c-1.5,1.5-1.2,4.3,0.7,6.2
				c0.6,0.6,1.1,1.1,1.7,1.7c1.9,1.9,4.6,2.2,6.1,0.6c0,0,0,0,0.1-0.1C93.4,85,93.1,82.3,91.2,80.4z"/>
			<path class="st3" d="M85.7,86c-0.6-0.6-1.1-1.1-1.7-1.7c-1.9-1.9-4.6-2.1-6-0.5c0,0,0,0-0.1,0.1c-1.4,1.6-1.1,4.3,0.7,6.1
				c0.5,0.5,1.1,1.1,1.6,1.6c1.8,1.8,4.5,2.1,6,0.6c0,0,0,0,0.1-0.1C87.8,90.6,87.6,87.8,85.7,86z"/>
			<path class="st3" d="M102.4,69.7c-0.5-0.5-1-1-1.5-1.5c-1.7-1.6-4.3-2-6-0.7c0,0,0,0-0.1,0c-1.6,1.3-1.4,3.9,0.4,5.7
				c0.5,0.5,1.1,1.1,1.6,1.6c1.8,1.8,4.5,2,5.9,0.5c0,0,0,0,0.1-0.1C104.2,73.9,104,71.4,102.4,69.7z"/>
			<path class="st3" d="M114,97.7C114,97.6,114,97.6,114,97.7c1.4-1.8,0.9-4.7-0.9-6.5c1.8,1.8,4.3,1.8,5.4,0c0,0,0,0,0-0.1
				c1.1-1.9,0.6-4.7-1.1-6.4c1.7,1.7,3.9,1.5,4.8-0.5c0,0,0,0,0-0.1c0.9-1.9,0.4-4.7-1-6.1c1.5,1.5,3.4,1.1,4.1-0.8c0,0,0,0,0-0.1
				c0.7-1.9,0.3-4.4-1-5.6c-0.4-0.4-0.8-0.7-1.1-1.1c-1.2-1.2-3-0.9-4.1,0.6c0,0,0,0,0,0.1c-1.1,1.6-0.8,4.1,0.7,5.6
				c-1.5-1.4-3.5-1.3-4.7,0.4c0,0,0,0,0,0.1c-1.2,1.7-0.8,4.4,0.8,6c-1.6-1.6-4-1.6-5.3,0c0,0,0,0,0,0.1c-1.3,1.7-0.9,4.4,0.9,6.2
				c-1.8-1.8-4.3-1.9-5.7-0.3c0,0,0,0,0,0.1c-1.4,1.6-1.1,4.4,0.8,6.3c0.6,0.6,1.1,1.1,1.7,1.7C110,99.1,112.7,99.4,114,97.7z"/>
			<path class="st3" d="M88.7,66.8c-0.5-0.5-1.1-1.1-1.6-1.6c-1.8-1.8-4.7-2.2-6.3-0.9c0,0,0,0-0.1,0c-1.7,1.4-1.4,4,0.4,5.9
				c0.6,0.6,1.1,1.1,1.7,1.7c1.9,1.9,4.6,2.2,6.2,0.7c0,0,0,0,0.1-0.1C90.6,71.2,90.5,68.6,88.7,66.8z"/>
			<path class="st3" d="M94.8,62.2c-0.5-0.5-1-1-1.5-1.5c-1.7-1.7-4.5-2.2-6.3-1c0,0,0,0-0.1,0c-1.8,1.2-1.7,3.7,0.1,5.5
				c0.5,0.5,1.1,1.1,1.6,1.6c1.8,1.8,4.6,2.1,6.2,0.8c0,0,0,0,0.1,0C96.5,66.2,96.4,63.8,94.8,62.2z"/>
			<path class="st3" d="M101,58.1c-0.5-0.4-0.9-0.9-1.4-1.3c-1.5-1.5-4.2-2-6.1-1c0,0,0,0-0.1,0c-1.9,1-2,3.2-0.3,4.9
				c0.5,0.5,1,1,1.5,1.5c1.7,1.7,4.4,2,6,0.8c0,0,0,0,0.1,0C102.4,61.7,102.5,59.6,101,58.1z"/>
			<path class="st3" d="M107.4,54.8c-0.4-0.4-0.8-0.8-1.1-1.1c-1.2-1.2-3.8-1.8-5.8-1c0,0,0,0-0.1,0c-1.9,0.7-2.2,2.6-0.7,4.1
				c0.5,0.4,0.9,0.9,1.4,1.3c1.5,1.5,4,1.8,5.6,0.7c0,0,0,0,0.1,0C108.3,57.8,108.6,56,107.4,54.8z"/>
		</g>
		<g>
			<path class="st4" d="M96.4,83.5c0.4,0.5,0.5,0.7,2.3,2.5c2.9,2.9,7,1.5,6.9-2.1c-0.4-0.5-0.5-0.6-2.3-2.4
				C100.5,78.7,96.4,80,96.4,83.5z"/>
			<path class="st4" d="M112.1,57.6c1.8,1.8,4.8,0.9,5.5-1.4c-0.1-0.1-0.2-0.2-0.4-0.4c-1.5-1.5-5.2-1-6,0.9
				C111.6,57,111.9,57.3,112.1,57.6z"/>
			<path class="st4" d="M108.4,75.7c-2.6-2.6-6.6-1.2-6.6,2.1c0.3,0.5,0.4,0.5,2.2,2.3c2.8,2.8,6.5,1.2,6.5-2.3
				C110.1,77.5,110.1,77.4,108.4,75.7z"/>
			<path class="st4" d="M117.8,63.2c1.8,1.8,4.3,0.5,4.6-2.3c-0.2-0.2-0.4-0.4-0.7-0.7c-1.5-1.5-4.5-0.4-5,1.9
				C117.1,62.5,117.4,62.8,117.8,63.2z"/>
			<path class="st4" d="M113.2,70.2c-1.5-1.4-3.8-1.5-5.2-0.1c0,0,0,0,0,0c-0.6,0.6-0.9,1.4-0.9,2.3c0.3,0.3,0.3,0.3,1.9,2
				c2.5,2.5,5.9,1,5.9-2.5C114.6,71.6,114.6,71.6,113.2,70.2z"/>
			<path class="st4" d="M113.6,68.6c2.2,2.2,5.2,0.7,5.3-2.5c-0.1-0.1,0.2,0.1-1.2-1.2c-1.9-1.9-5.4-0.6-5.6,2.1
				C112.1,67.2,112.1,67.2,113.6,68.6z"/>
			<path class="st4" d="M95.2,73.3c-2.8-2.8-7.2-1.7-7.2,1.8c0.4,0.5,0.5,0.6,2.3,2.4c2.9,2.9,7.1,1.6,7.1-1.9
				C97.1,75.2,96.9,75.1,95.2,73.3z"/>
			<path class="st4" d="M101.4,66.8c2.6,2.6,6.3,1.3,6.6-1.8c-0.1-0.2-0.1-0.1-1.5-1.5c-2.3-2.3-6.6-1.4-6.9,1.5
				C99.8,65.2,99.7,65.2,101.4,66.8z"/>
			<path class="st4" d="M106.8,62c2.2,2.2,5.6,1.1,6.1-1.6c-0.3-0.3-0.7-0.7-1-1c-1.9-1.9-6-1.2-6.5,1.3
				C105.6,60.7,105.1,60.3,106.8,62z"/>
			<path class="st4" d="M89.5,78.7c-2.9-2.9-7.2-1.7-7.2,1.9c0.4,0.5,0.5,0.7,2.3,2.5c2.9,2.9,7.2,1.6,7.2-1.9
				C91.5,80.6,91.4,80.6,89.5,78.7z"/>
			<path class="st4" d="M95.9,72.1c2.8,2.8,6.8,1.5,6.9-1.9c-0.2-0.3-0.3-0.3-1.9-2c-2.6-2.6-7-1.6-7.1,1.6
				C94,70.3,94.1,70.3,95.9,72.1z"/>
			<path class="st4" d="M81.8,69.1c2.9,2.9,7.2,1.7,7.3-1.7C88.9,67,88.8,67,87,65.2c-2.8-2.8-7.4-1.9-7.5,1.5
				C79.9,67.2,80,67.2,81.8,69.1z"/>
			<path class="st4" d="M87.7,63.9c2.8,2.8,7.1,1.7,7.4-1.4c-0.2-0.2-0.2-0.2-1.8-1.8c-2.6-2.6-7.3-2-7.6,1.2
				C85.9,62.2,85.9,62.1,87.7,63.9z"/>
			<path class="st4" d="M93.8,59.3c2.6,2.6,6.7,1.6,7.3-1.1c-0.1-0.1-1.3-1.3-1.4-1.4c-2.3-2.3-7-1.9-7.6,0.8
				C92.2,57.7,92.1,57.6,93.8,59.3z"/>
			<path class="st4" d="M100.1,55.3c2.3,2.2,6.1,1.5,7-0.8c-0.3-0.3-0.5-0.5-0.8-0.8c-1.9-1.9-6.5-1.8-7.4,0.4
				C99.3,54.5,99.7,54.9,100.1,55.3z"/>
		</g>
		<path class="st5" d="M112.8,98.4c-20.6-8.5-35.6-3.9-35.6-3.9l-12.6,25.9c25.1,11.5,43.2-11,49.1-18.8
			C114.4,100.5,114,98.9,112.8,98.4z"/>
		<path class="st6" d="M112.8,98.4c-0.2-0.1-0.4-0.2-0.6-0.2l-1.1,1.5c-7.6,10.2-18.7,20.7-32.5,20.7c-4,0-8.2-0.9-12.5-2.9
			l-1.4,2.9c25.1,11.5,43.2-11,49.1-18.8C114.4,100.5,114,98.9,112.8,98.4z"/>
		<path class="st7" d="M80.5,61.3c4.1,7.7,13.1,31.6-15.9,59c-23.2-23.2,4-52,12.2-59.6C77.9,59.6,79.8,59.9,80.5,61.3z"/>
		<path class="st5" d="M80.5,61.3c-0.7-1.4-2.6-1.7-3.8-0.6c-0.1,0-0.1,0.1-0.2,0.1l1.1,2C82.1,71,89.3,92.6,62.4,118
			c0.7,0.8,1.4,1.6,2.2,2.4C93.7,93,84.7,69,80.5,61.3z"/>
	</g>
</g>
<g>
	<circle class="st0" cx="309.4" cy="89.3" r="64.9"/>
	<path class="st1" d="M307.3,14.7c-1.4-0.4-3.4,0.3-4,1.6c-0.6,1.4,0.4,3.1,1.8,3c0.9-0.1,1.5-0.9,1.2-1.7c-0.3-0.8-1.7-0.5-1.5,0.4
		c-0.5-2.5,2-2.1,2.1-2.1c2.2,0.5,2.1,4.2-0.6,5.1c-0.6,0.2-1.3,0.3-2,0.3c-0.2-0.2-0.4-0.4-0.7-0.6c-0.8-0.6-1.8-0.9-2.8-1
		c-1,0-1.9,0.2-2.8,0.6c-0.8,0.4-1.5,0.9-2,1.6h-23.4c1.6-0.8,2.6-2.6,2.1-4.4c-0.4-1.4-2.5-3.1-3.7-1.5c-0.9,1.1,0.6,2.8,1.7,1.8
		c0.2-0.2,0.3-0.5,0.2-0.7c0.5,0.5,0.7,1.5,0.5,2.1c-0.2,0.7-0.8,1.4-1.4,1.7c-1,0.5-2.1,0.5-3.1,0.1c-0.5-1.1-1.3-2.1-2.2-2.8
		c-2.6-2.2-6.9-3.3-10.5-1.4c-0.5,0.3-1,0.6-1.4,0.9c0.9-2.5,0.4-5.4-2.3-7.1c-0.6-0.4-1,0.4-0.6,0.8c2.8,2.4,2.2,6,0,7.9
		c-2.3,2-5.4,1.4-6.5,0.3c-1.1-1.1-1.3-4.3,0.2-4.2c1.4,0.1,1.9,2.1,3.2,0.9c0.7-0.6,0.7-1.9,0.3-2.7c-0.8-1.5-2.7-2-4.2-1.3
		c-1.8,0.8-2.6,2.9-2.4,4.7c0.1,1.3,0.6,2.3,1.3,3.1c-0.8-0.7-1.9-1.2-3.1-1.3c-1.8-0.2-3.9,0.7-4.7,2.4c-0.7,1.5-0.2,3.4,1.3,4.2
		c0.8,0.4,2.1,0.4,2.7-0.3c1.2-1.3-0.8-1.8-0.9-3.2c-0.1-1.5,3.1-1.3,4.2-0.2c1.1,1.1,1.7,4.2-0.3,6.5c-1.9,2.2-5.6,2.8-7.9,0
		c-0.4-0.5-1.2,0-0.8,0.6c1.6,2.5,4.1,3.1,6.4,2.5c-0.3,0.4-0.5,0.8-0.7,1.2c-1.9,3.6-0.8,7.9,1.4,10.5c0.7,0.9,1.7,1.7,2.8,2.2
		c0.3,1,0.4,2.1-0.1,3.1c-0.3,0.6-1,1.3-1.7,1.4c-0.5,0.1-1.5,0-2.1-0.5c0.2,0.1,0.5,0.1,0.7-0.2c1-1.1-0.6-2.6-1.8-1.7
		c-1.6,1.2,0.1,3.3,1.5,3.7c1.8,0.6,3.6-0.4,4.4-2.1v23.4c-0.7,0.5-1.2,1.2-1.6,2c-0.4,0.9-0.6,1.8-0.6,2.8c0,1,0.4,2,1,2.8
		c0.2,0.2,0.4,0.5,0.6,0.7c0,0.7-0.1,1.4-0.3,2c-1,2.6-4.7,2.8-5.1,0.6c0-0.1-0.4-2.6,2.1-2.1c-0.9-0.2-1.2,1.2-0.4,1.5
		c0.9,0.3,1.7-0.3,1.7-1.2c0.1-1.4-1.6-2.4-3-1.8c-1.4,0.6-2,2.6-1.6,4c0.8,2.8,5.8,3.2,7.4-0.9c0.2-0.4,0.3-0.9,0.3-1.3
		c1,0.6,2.2,1,3.4,1c3.4-0.1,6.6-3,6.7-7.5c0-1.8-0.4-3.4-0.8-5c-0.5-1.6-1.1-3-1.7-4.5c4.7-5.1,8.2-10.2,10.2-17.5
		c0.6-2.1,1-4.4,0.9-6.6c0-0.1,0-0.3,0-0.4c0.3,0,0.6,0,0.9,0c2.3,0,4.5-0.4,6.6-0.9c7.3-2,12.5-5.5,17.5-10.2
		c1.5,0.6,3,1.2,4.5,1.7c1.6,0.5,3.3,0.8,5,0.8c4.5,0,7.4-3.3,7.5-6.7c0-1.2-0.4-2.4-1-3.4c0.4,0,0.9-0.1,1.3-0.3
		C310.5,20.6,310.1,15.6,307.3,14.7z M269.4,30.1c-0.9-0.2-1.8-0.1-2.6,0.4c0.5-0.3,0.9-0.7,1.3-1.2c0.2-0.2,0.3-0.4,0.4-0.6
		C268.8,29.2,269.1,29.7,269.4,30.1z M269.7,24.5c0-0.3,0-0.6-0.1-0.9h1.4c-0.1,0.1-0.3,0.1-0.4,0.2C270.3,24,270,24.2,269.7,24.5z
		 M257.2,19c3.5-1.7,8.1,0.5,9.1,3.5c1.4,4-2.3,6.5-3.8,4.9c-0.8-0.8-2.1-0.9-2.9-0.1c-2.3,2.1,1.4,5.1,4.9,4.3
		c0.7-0.2,1.3-0.5,1.9-0.8c-0.9,0.7-1.5,1.8-1.2,3.1c0.3,1.2,1.8,2.2,2.8,1.8c0.7-0.3,1-1.2,0.8-1.7c-0.3-0.7-1.4-1-1.8-0.1
		c-0.9-1.4,0.7-2.5,1.7-2.3c1,0.2,1.6,0.6,2,1.5c0.7,1.5,0,3-1.1,4.1c-1.4,1.6-3.2,2-5.1,2.3c-0.2,0-0.4,0-0.6,0
		c-0.2-1.6-0.5-3.1-1.2-4.6c-1.5-3.6-4.5-6.1-8-7.3c-0.3-1.3-0.9-2.5-1.8-3.5C253.8,21.7,255.3,19.9,257.2,19z M250.9,22.4
		c-0.2-0.1-0.5-0.3-0.7-0.4c0.6-0.2,1.1-0.4,1.6-0.7c-0.2,0.4-0.4,0.8-0.6,1.2C251.1,22.5,251,22.4,250.9,22.4z M245.8,27.4
		c0,0.1,0.1,0.1,0.1,0.2c-0.3,0.1-0.6,0.2-1,0.4c0.2-0.4,0.4-0.8,0.5-1.3C245.6,27,245.7,27.2,245.8,27.4z M247.8,26.3
		c-0.4-0.8-0.7-1.7-0.7-2.6c0.9,0,1.8,0.2,2.6,0.7c1.9,1,2.8,2.9,3,4.9C250.7,29.1,248.9,28.3,247.8,26.3z M254.9,31.4
		c0.1-0.6,0.1-1.2,0.1-1.8c2.6,1.1,4.9,3.1,6.1,5.8c0.5,1.1,0.9,2.4,1.1,3.6c-1.1-0.2-2.2-0.5-3.2-1c-2.9-1.3-5-3.8-6-6.6
		C253.6,31.5,254.2,31.5,254.9,31.4z M241.9,33.8c0.9-2,2.9-3.6,5.4-4.4c1,0.9,2.1,1.5,3.4,1.8c1.1,3.7,3.7,6.9,7.5,8.6
		c1.3,0.6,2.7,0.9,4.1,1.1c0,0.1,0,0.1,0,0.2c-0.3,1.9-0.8,3.7-2.3,5.1c-1.1,1-2.6,1.7-4.1,1.1c-0.9-0.4-1.3-1-1.5-2
		c-0.2-1,0.9-2.6,2.3-1.7c-0.8,0.4-0.6,1.6,0.1,1.8c0.5,0.2,1.4-0.1,1.7-0.8c0.4-1-0.6-2.6-1.8-2.8c-1.3-0.3-2.4,0.3-3.1,1.2
		c0.3-0.6,0.6-1.2,0.8-1.9c0.9-3.5-2.1-7.2-4.3-4.9c-0.8,0.8-0.7,2.1,0.1,2.9c1.6,1.5-0.9,5.2-4.9,3.8
		C242.4,41.8,240.2,37.3,241.9,33.8z M246.5,46.2c0.3,0,0.6,0,0.9,0.1c-0.2,0.3-0.5,0.6-0.7,0.9c-0.1,0.1-0.2,0.3-0.2,0.4V46.2z
		 M253,46c-0.4-0.4-0.9-0.6-1.4-0.8c0.2-0.1,0.4-0.3,0.6-0.4c0.5-0.4,0.8-0.9,1.2-1.3C252.9,44.1,252.8,45.1,253,46z M253.6,75.1
		c-0.1,3.8-2.7,5.7-4.9,5.7c-1.4,0-2.8-0.8-3.4-1.7c-0.8-1-0.8-2.4-0.2-3.7c0.5-1.2,1.7-2,2.9-1.9c0.5,0.1,1.1,0.4,1.5,0.8
		c0.3,0.4,0.4,0.8,0.2,1.3c-0.2,0.5-0.6,0.9-0.9,0.9c-0.2,0-0.3,0-0.3,0c0,0,0,0,0-0.2c0.1-0.5-0.2-1-0.7-1.2
		c-0.5-0.2-1.1,0.1-1.2,0.6l0,0c-0.2,0.6-0.1,1.5,0.4,2.1c0.6,0.6,1.3,0.8,2,0.7c1.3-0.2,2.2-1.2,2.5-2.2c0.2-0.5,0.3-1.1,0.2-1.7
		c-0.1-0.6-0.4-1.1-0.8-1.5c-0.4-0.4-0.8-0.7-1.2-1c-0.4-0.2-1-0.4-1.5-0.5c-0.6-0.1-1.1,0-1.7,0.2V54.5c0.3,0.9,0.6,1.8,0.9,2.7
		c1.7,4.4,4.2,9.3,5.5,13.4C253.3,72.1,253.6,73.6,253.6,75.1z M252.3,64.2C252.3,64.2,252.3,64.2,252.3,64.2
		c-0.2-0.2-0.3-0.5-0.4-0.8c0-1-0.1-2.1-0.1-3.1c0.1-2.2,0.5-3.1,0.6-3.6c0.4-1.5,2-2.7,3.1-1.5c-0.6,0.9-0.1,2.2,1,2
		c1.3-0.2,1.3-1.6,0.9-2.6c-0.9-2-2.8-1.6-3.5-1.3c-1,0.4-1.8,1.4-2.2,2.3c-0.8,1.7-0.9,3.6-0.8,5.6c0,0,0-0.1,0-0.1
		c-1.3-2.9-2.8-5.9-3.4-8.9c-0.8-4.3,1.8-6.6,3.7-5.8c3.1,1.3,1.2,4.3,0.1,3.3c-0.4-0.3-0.3-0.6-0.3-0.4c0.2-0.5,0-1.1-0.5-1.3
		s-1.1,0-1.3,0.5c-0.9,2.4,3.1,4.6,4.8,1.5c0.4-0.7,0.4-1.4,0.3-2.1c1.4,1.2,3.5,1.3,5.2,0.4c1.1-0.6,2-1.5,2.7-2.7
		c-0.1,0.7-0.3,1.4-0.4,2.1C259.8,54.5,256.3,59.7,252.3,64.2z M287.6,29.3c-4.5,4-9.7,7.5-16.5,9.3c-0.7,0.2-1.4,0.3-2.1,0.4
		c1.1-0.7,2.1-1.6,2.7-2.7c0.9-1.7,0.8-3.8-0.4-5.2c0.7,0.2,1.4,0.1,2.1-0.3c3.2-1.7,0.9-5.7-1.5-4.8c-0.5,0.2-0.7,0.8-0.5,1.3
		c0.2,0.5,0.8,0.7,1.3,0.5c-0.2,0,0-0.2,0.4,0.3c1,1.2-2,3-3.3-0.1c-0.8-2,1.5-4.6,5.8-3.7c3,0.6,6,2,8.9,3.4c0,0,0.1,0,0.1,0
		c-1.9-0.1-3.9,0-5.6,0.8c-1,0.4-1.9,1.2-2.3,2.2c-0.3,0.7-0.7,2.6,1.3,3.5c1,0.5,2.3,0.4,2.6-0.9c0.2-1.1-1.1-1.6-2-1
		c-1.2-1.1-0.1-2.7,1.5-3.1c0.5-0.2,1.4-0.6,3.6-0.6c1.1,0,2.1,0,3.1,0.1C287.1,29,287.4,29.2,287.6,29.3
		C287.6,29.3,287.6,29.3,287.6,29.3z M298.6,30.7c-1.5,0-3-0.3-4.5-0.7c-4.2-1.2-9-3.8-13.4-5.5c-0.8-0.3-1.7-0.6-2.7-0.9h17.3
		c-0.2,0.5-0.2,1.1-0.2,1.7c0.1,0.5,0.2,1.1,0.5,1.5c0.2,0.4,0.6,0.9,1,1.2c0.4,0.4,0.9,0.6,1.5,0.8c0.6,0.1,1.2,0,1.7-0.2
		c1-0.4,2-1.2,2.2-2.5c0.1-0.6-0.1-1.4-0.7-2c-0.6-0.6-1.5-0.6-2.1-0.4l0,0c-0.5,0.2-0.8,0.7-0.6,1.2c0.2,0.5,0.7,0.8,1.2,0.7
		c0.2-0.1,0.2,0,0.2,0c0,0,0.1,0.1,0,0.3c0,0.3-0.4,0.7-0.9,0.9c-0.5,0.2-0.9,0.1-1.3-0.2c-0.4-0.3-0.7-0.9-0.8-1.5
		c-0.1-1.2,0.6-2.4,1.9-2.9c1.2-0.6,2.6-0.6,3.7,0.2c0.9,0.7,1.7,2.1,1.7,3.4C304.3,28,302.4,30.5,298.6,30.7z"/>
	<path class="st1" d="M311.7,165c1.4,0.4,3.4-0.4,4-1.7c0.6-1.4-0.5-3.1-1.9-2.9c-0.9,0.1-1.5,0.9-1.2,1.8c0.3,0.8,1.7,0.5,1.5-0.4
		c0.6,2.5-2,2.1-2,2.1c-2.2-0.4-2.2-4.1,0.4-5.2c0.6-0.2,1.3-0.3,2-0.4c0.2,0.2,0.4,0.4,0.7,0.6c0.8,0.6,1.8,0.9,2.8,0.9
		c1,0,1.9-0.3,2.8-0.7c0.7-0.4,1.4-0.9,1.9-1.7l23.4-0.8c-1.6,0.9-2.5,2.7-1.9,4.4c0.5,1.3,2.6,3,3.8,1.4c0.8-1.2-0.7-2.8-1.8-1.7
		c-0.2,0.2-0.2,0.5-0.1,0.7c-0.5-0.5-0.7-1.5-0.6-2c0.1-0.7,0.7-1.4,1.4-1.7c1-0.6,2-0.5,3.1-0.2c0.6,1.1,1.4,2,2.3,2.7
		c2.7,2.1,7,3,10.6,1c0.5-0.3,1-0.6,1.4-1c-0.8,2.5-0.2,5.4,2.5,7c0.6,0.3,1-0.5,0.5-0.9c-2.9-2.3-2.4-5.9-0.3-7.9
		c2.2-2.1,5.3-1.6,6.5-0.5c1.2,1.1,1.5,4.3,0,4.2c-1.5,0-1.9-2.1-3.2-0.8c-0.7,0.6-0.6,1.9-0.2,2.7c0.8,1.5,2.7,1.9,4.2,1.2
		c1.7-0.9,2.5-2.9,2.3-4.8c-0.2-1.3-0.7-2.3-1.4-3.1c0.8,0.7,1.9,1.2,3.2,1.2c1.8,0.1,3.9-0.8,4.6-2.6c0.6-1.5,0.1-3.4-1.4-4.1
		c-0.8-0.4-2.1-0.3-2.6,0.3c-1.1,1.4,0.9,1.7,1,3.2c0.1,1.5-3,1.4-4.2,0.3c-1.1-1.1-1.9-4.1,0.1-6.5c1.9-2.3,5.5-3,7.9-0.3
		c0.4,0.5,1.2,0,0.8-0.6c-1.7-2.4-4.2-3-6.5-2.3c0.3-0.4,0.5-0.8,0.7-1.2c1.7-3.7,0.5-7.9-1.8-10.5c-0.8-0.9-1.8-1.6-2.9-2.1
		c-0.4-1-0.5-2.1,0-3.1c0.3-0.7,0.9-1.3,1.6-1.5c0.5-0.1,1.5,0,2.1,0.5c-0.2-0.1-0.5-0.1-0.7,0.2c-1,1.2,0.7,2.6,1.8,1.7
		c1.5-1.3-0.2-3.3-1.6-3.7c-1.8-0.5-3.6,0.5-4.3,2.2l-0.8-23.4c0.7-0.6,1.2-1.3,1.5-2c0.4-0.9,0.6-1.8,0.5-2.8c-0.1-1-0.4-2-1.1-2.7
		c-0.2-0.2-0.4-0.4-0.6-0.6c0-0.7,0.1-1.4,0.3-2c0.9-2.6,4.6-2.9,5.1-0.7c0,0.1,0.5,2.6-2,2.2c0.9,0.1,1.1-1.3,0.3-1.5
		c-0.9-0.3-1.7,0.3-1.7,1.3c0,1.4,1.7,2.3,3,1.7c1.3-0.7,1.9-2.7,1.5-4.1c-0.9-2.7-5.9-3-7.3,1.1c-0.1,0.4-0.2,0.9-0.2,1.3
		c-1-0.6-2.2-0.9-3.4-0.9c-3.4,0.2-6.5,3.2-6.4,7.7c0,1.8,0.5,3.4,1,5c0.5,1.5,1.2,3,1.8,4.4c-4.6,5.2-7.8,10.5-9.6,17.9
		c-0.5,2.2-0.8,4.4-0.7,6.7c0,0.1,0,0.3,0,0.4c-0.3,0-0.6,0-0.9,0c-2.3,0.1-4.5,0.5-6.6,1.2c-7.3,2.3-12.3,5.9-17.2,10.8
		c-1.5-0.6-3-1.1-4.6-1.5c-1.6-0.4-3.3-0.7-5.1-0.7c-4.5,0.2-7.3,3.5-7.3,6.9c0,1.2,0.4,2.4,1.1,3.3c-0.4,0-0.9,0.2-1.3,0.3
		C308.3,159.3,308.9,164.3,311.7,165z M349,148.5c0.9,0.2,1.8,0,2.6-0.5c-0.5,0.4-0.9,0.8-1.3,1.2c-0.1,0.2-0.3,0.4-0.4,0.6
		C349.7,149.3,349.4,148.8,349,148.5z M348.9,154c0,0.3,0,0.6,0.1,0.9l-1.4,0c0.1-0.1,0.3-0.2,0.4-0.2
		C348.4,154.5,348.7,154.3,348.9,154z M361.6,159.1c-3.4,1.8-8.1-0.2-9.2-3.2c-1.6-4,2.1-6.6,3.6-5c0.8,0.8,2.1,0.8,2.9,0
		c2.2-2.2-1.6-5.1-5.1-4.1c-0.7,0.2-1.3,0.5-1.9,0.9c0.9-0.7,1.4-1.9,1.1-3.1c-0.3-1.2-1.9-2.1-2.9-1.7c-0.7,0.3-0.9,1.2-0.7,1.7
		c0.3,0.7,1.5,0.9,1.8,0.1c1,1.4-0.6,2.5-1.6,2.4c-1-0.2-1.6-0.5-2.1-1.4c-0.7-1.5-0.1-3,0.9-4.2c1.4-1.6,3.1-2.1,5-2.5
		c0.2,0,0.4,0,0.6,0c0.2,1.6,0.7,3.1,1.3,4.5c1.7,3.5,4.8,6,8.2,7c0.4,1.3,1,2.5,1.9,3.4C365,156.3,363.5,158.1,361.6,159.1z
		 M367.8,155.5c0.2,0.1,0.5,0.2,0.7,0.3c-0.6,0.2-1.1,0.4-1.6,0.7c0.2-0.4,0.4-0.8,0.5-1.3C367.6,155.4,367.7,155.4,367.8,155.5z
		 M372.7,150.3c0-0.1-0.1-0.1-0.1-0.2c0.3-0.1,0.6-0.3,0.9-0.4c-0.2,0.4-0.3,0.8-0.4,1.3C373,150.7,372.8,150.5,372.7,150.3z
		 M370.7,151.4c0.5,0.8,0.7,1.7,0.8,2.6c-0.9,0-1.8-0.2-2.6-0.6c-2-1-2.9-2.8-3.2-4.8C367.8,148.7,369.6,149.6,370.7,151.4z
		 M363.5,146.6c0,0.6,0,1.2,0,1.8c-2.7-1-5-2.9-6.3-5.6c-0.6-1.1-0.9-2.3-1.2-3.6c1.1,0.2,2.2,0.5,3.2,0.9c3,1.2,5.2,3.6,6.3,6.4
		C364.8,146.5,364.2,146.5,363.5,146.6z M376.4,143.8c-0.9,2.1-2.8,3.7-5.2,4.6c-1-0.9-2.2-1.4-3.5-1.7c-1.2-3.7-3.9-6.8-7.8-8.3
		c-1.3-0.5-2.7-0.8-4.1-1c0-0.1,0-0.1,0-0.2c0.2-1.9,0.6-3.7,2.2-5.2c1.1-1.1,2.6-1.8,4.1-1.2c0.9,0.4,1.3,1,1.5,2
		c0.2,1-0.8,2.7-2.2,1.8c0.8-0.4,0.5-1.6-0.2-1.8c-0.5-0.2-1.4,0.1-1.7,0.8c-0.3,1,0.6,2.6,1.9,2.8c1.3,0.2,2.4-0.4,3-1.3
		c-0.3,0.6-0.6,1.2-0.7,1.9c-0.8,3.6,2.4,7.1,4.4,4.8c0.7-0.9,0.6-2.1-0.2-2.9c-1.7-1.4,0.7-5.2,4.8-4
		C375.6,135.8,378,140.3,376.4,143.8z M371.4,131.5c-0.3,0-0.6,0-0.9,0c0.2-0.3,0.5-0.6,0.7-1c0.1-0.1,0.1-0.3,0.2-0.4L371.4,131.5z
		 M364.9,132c0.4,0.3,0.9,0.6,1.4,0.8c-0.2,0.1-0.4,0.3-0.6,0.4c-0.4,0.4-0.8,0.9-1.1,1.4C365.1,133.8,365.2,132.9,364.9,132z
		 M363.3,102.9c0-3.8,2.5-5.8,4.7-5.8c1.4-0.1,2.8,0.7,3.5,1.6c0.8,1,0.8,2.4,0.3,3.7c-0.5,1.2-1.7,2.1-2.8,1.9
		c-0.5,0-1.1-0.4-1.5-0.8c-0.4-0.4-0.4-0.8-0.3-1.3c0.2-0.5,0.6-0.9,0.9-0.9c0.2,0,0.3,0,0.3,0c0,0,0,0,0,0.2
		c-0.1,0.5,0.2,1,0.7,1.2c0.5,0.1,1.1-0.2,1.2-0.7l0,0c0.2-0.6,0.1-1.5-0.5-2c-0.6-0.6-1.4-0.7-2-0.6c-1.3,0.2-2.1,1.3-2.4,2.3
		c-0.2,0.5-0.2,1.1-0.1,1.7c0.1,0.6,0.4,1.1,0.8,1.5c0.4,0.4,0.8,0.7,1.3,0.9c0.4,0.2,1,0.4,1.5,0.4c0.6,0,1.1,0,1.7-0.2l0.6,17.3
		c-0.3-0.9-0.6-1.8-1-2.6c-1.8-4.4-4.6-9.1-5.9-13.2C363.7,105.9,363.4,104.4,363.3,102.9z M365,113.8
		C365,113.8,365,113.8,365,113.8c0.2,0.2,0.3,0.5,0.4,0.8c0.1,1,0.2,2.1,0.2,3.1c0,2.2-0.4,3.1-0.5,3.6c-0.4,1.5-1.9,2.8-3,1.6
		c0.5-1,0-2.2-1.1-2c-1.3,0.3-1.3,1.6-0.8,2.6c1,1.9,2.8,1.5,3.5,1.2c1-0.5,1.7-1.4,2.1-2.4c0.7-1.7,0.8-3.7,0.6-5.6
		c0,0,0,0.1,0,0.1c1.4,2.9,3,5.8,3.7,8.8c1,4.2-1.5,6.7-3.5,5.9c-3.1-1.2-1.4-4.3-0.2-3.3c0.4,0.3,0.3,0.5,0.3,0.4
		c-0.2,0.5,0,1.1,0.5,1.3s1.1,0,1.3-0.5c0.9-2.4-3.2-4.5-4.8-1.3c-0.3,0.7-0.4,1.4-0.2,2.1c-1.4-1.1-3.5-1.2-5.2-0.2
		c-1.1,0.6-2,1.6-2.6,2.8c0.1-0.7,0.2-1.4,0.4-2.1C357.9,123.7,361.1,118.4,365,113.8z M330.9,149.8c4.3-4.2,9.4-7.8,16.2-9.8
		c0.7-0.2,1.4-0.4,2.1-0.5c-1.1,0.7-2,1.7-2.6,2.8c-0.8,1.7-0.6,3.8,0.6,5.1c-0.7-0.1-1.4-0.1-2.1,0.3c-3.1,1.8-0.7,5.7,1.6,4.7
		c0.5-0.2,0.7-0.8,0.4-1.3c-0.3-0.5-0.8-0.7-1.3-0.4c0.2,0,0,0.2-0.4-0.2c-1-1.2,1.9-3.1,3.3-0.1c0.9,1.9-1.4,4.6-5.7,3.9
		c-3.1-0.5-6-1.8-9-3.1c0,0-0.1,0-0.1,0c1.9,0.1,3.9-0.2,5.5-1c1-0.5,1.9-1.3,2.3-2.3c0.3-0.7,0.6-2.6-1.4-3.5
		c-1-0.4-2.4-0.3-2.6,0.9c-0.2,1.1,1.1,1.5,2,0.9c1.3,1,0.1,2.7-1.4,3.1c-0.5,0.2-1.4,0.6-3.6,0.8c-1,0.1-2.1,0-3.1,0
		C331.4,150.1,331.1,149.9,330.9,149.8C330.9,149.8,330.9,149.8,330.9,149.8z M319.9,148.8c1.5-0.1,3,0.2,4.5,0.6
		c4.2,1.1,9.1,3.5,13.6,5c0.9,0.3,1.8,0.6,2.7,0.8l-17.3,0.6c0.1-0.5,0.2-1.1,0.1-1.7c-0.1-0.5-0.3-1-0.5-1.5
		c-0.3-0.4-0.6-0.8-1-1.2c-0.4-0.3-1-0.6-1.6-0.7c-0.6-0.1-1.2,0-1.7,0.2c-1,0.4-1.9,1.3-2.1,2.6c-0.1,0.6,0.1,1.4,0.7,1.9
		c0.6,0.6,1.5,0.6,2.1,0.4l0,0c0.5-0.2,0.8-0.7,0.6-1.3c-0.2-0.5-0.7-0.8-1.2-0.6c-0.2,0.1-0.2,0-0.2,0c0,0-0.1-0.1-0.1-0.3
		c0-0.3,0.4-0.8,0.9-1c0.5-0.2,0.9-0.1,1.3,0.2c0.4,0.3,0.8,0.9,0.9,1.4c0.2,1.1-0.6,2.4-1.8,3c-1.2,0.6-2.6,0.7-3.7-0.1
		c-1-0.6-1.8-2-1.8-3.4C314.3,151.7,316.1,149.1,319.9,148.8z"/>
	<g>
		<path class="st4" d="M310.8,135.3c-2.8,1.9-6.6,1.3-8.5-1.5c-1.9-2.8-1.3-6.6,1.5-8.5s6.6-1.3,8.5,1.5
			C314.3,129.6,313.6,133.4,310.8,135.3z"/>
		<path class="st8" d="M313.4,129.4c-0.4,0.8-1.1,1.6-1.9,2.1c-2.8,1.9-6.6,1.3-8.5-1.5c-0.6-0.8-0.9-1.7-1.1-2.6
			c-1.1,2-1,4.5,0.4,6.4c1.9,2.8,5.8,3.4,8.5,1.5C312.8,134,313.7,131.6,313.4,129.4z"/>
		<path class="st4" d="M289.9,114.7c-2.8,1.9-6.6,1.3-8.5-1.5c-1.9-2.8-1.3-6.6,1.5-8.5c2.8-1.9,6.6-1.3,8.5,1.5
			C293.3,108.9,292.6,112.8,289.9,114.7z"/>
		<path class="st4" d="M312.9,128.6c-2.8,1.9-6.6,1.3-8.5-1.5c-1.9-2.8-1.3-6.6,1.5-8.5c2.8-1.9,6.6-1.3,8.5,1.5
			C316.3,122.8,315.7,126.6,312.9,128.6z"/>
		<path class="st4" d="M306,121.4c-2.8,1.9-6.6,1.3-8.5-1.5c-1.9-2.8-1.3-6.6,1.5-8.5c2.8-1.9,6.6-1.3,8.5,1.5
			S308.8,119.5,306,121.4z"/>
		<g>
			<path class="st8" d="M292.4,108.8c-0.4,0.8-1.1,1.6-1.9,2.1c-2.8,1.9-6.6,1.3-8.5-1.5c-0.6-0.8-0.9-1.7-1.1-2.6
				c-1.1,2-1,4.5,0.4,6.4c1.9,2.8,5.8,3.4,8.5,1.5C291.8,113.3,292.7,111,292.4,108.8z"/>
			<path class="st8" d="M315.4,122.7c-0.4,0.8-1.1,1.6-1.9,2.1c-2.8,1.9-6.6,1.3-8.5-1.5c-0.6-0.8-0.9-1.7-1.1-2.6
				c-1.1,2-1,4.5,0.4,6.4c1.9,2.8,5.8,3.4,8.5,1.5C314.9,127.2,315.8,124.9,315.4,122.7z"/>
			<path class="st8" d="M308.5,115.5c-0.4,0.8-1.1,1.6-1.9,2.1c-2.8,1.9-6.6,1.3-8.5-1.5c-0.6-0.8-0.9-1.7-1.1-2.6
				c-1.1,2-1,4.5,0.4,6.4c1.9,2.8,5.8,3.4,8.5,1.5C308,120.1,308.9,117.7,308.5,115.5z"/>
			<path class="st4" d="M296.2,109.4c1-0.7,2.3-1.3,4.3-1c2.3,0.4,3.3,1.8,4,2.8c0.6,0.9,1,1.4,2.1,1.6c1.1,0.2,1.6-0.2,2.5-0.8
				c1-0.7,2.4-1.7,4.7-1.3c2.3,0.4,3.3,1.8,4,2.8c0.1,0.1,0.2,0.2,0.3,0.3c0.2,0.2,0.5,0.1,0.5-0.2l-0.2-14l-18.4-3.2l-4.4,12.6
				C295.6,109.3,295.9,109.5,296.2,109.4C296.2,109.4,296.2,109.4,296.2,109.4z"/>
		</g>
		<path class="st3" d="M318.6,113.6l-0.2-14l-4.2-0.7l-1.6,11.7c0.3,0,0.7,0,1.1,0.1c2.3,0.4,3.3,1.8,4,2.8c0.1,0.1,0.2,0.2,0.3,0.3
			C318.2,114,318.6,113.9,318.6,113.6z"/>
		<path class="st9" d="M281.4,95.4c-0.3-0.5-0.2-1.2,0.3-1.5c0.5-0.3,1.2-0.2,1.5,0.3c2.9,4.2,8.7,5.3,12.9,2.6l-2.4-0.5
			c-3-0.7-5.6-2.8-6.9-5.6l-1.1-2.4c-0.3-0.5,0-1.2,0.5-1.4c0.5-0.3,1.2,0,1.4,0.5l1.1,2.4c1,2.2,3,3.8,5.4,4.4l4.9,1.1
			c0.4,0.1,0.7,0.4,0.8,0.9c0.1,0.4-0.1,0.9-0.4,1.1l-1.6,1.1C292.5,102,285.1,100.7,281.4,95.4z"/>
		<path class="st4" d="M325.9,54.6l-17.6-3c-7.8-1.4-15.3,3.9-16.7,11.7l-0.8,4.8c-1.5,8.4,0.3,17,4.8,24.2l0,0
			c1.4,2.2,3.6,3.6,6.1,4.1l15.3,2.6c2.5,0.4,5.1-0.2,7.1-1.8c6.7-5.2,11.3-12.8,12.7-21.2l0.8-4.8C339,63.4,333.7,55.9,325.9,54.6z
			"/>
		<path class="st3" d="M324.1,97.3c6.7-5.2,11.3-12.8,12.7-21.2l0.8-4.8c1-5.6-1.5-11.1-5.8-14.2c0.6,2,0.7,4.2,0.3,6.4l-0.8,4.8
			c-1.5,8.4-6,16-12.7,21.2c-2,1.6-4.6,2.2-7.1,1.8l-15.3-2.6c-1.1-0.2-2.2-0.6-3.2-1.2c0.7,1.7,1.6,3.4,2.6,5l0,0
			c1.4,2.2,3.6,3.6,6.1,4.1l15.3,2.6C319.5,99.5,322,98.9,324.1,97.3z"/>
		<path class="st10" d="M317.5,102.4l-17.5-3c-1.6-0.3-2.6-1.8-2.3-3.3l0-0.2c0.3-1.6,1.8-2.6,3.3-2.3l17.5,3
			c1.6,0.3,2.6,1.8,2.3,3.3l0,0.2C320.6,101.7,319.1,102.7,317.5,102.4z"/>
		<path class="st9" d="M320.8,100c0.1-0.4,0.1-0.8,0-1.2c-0.6,0.9-1.8,1.5-3,1.3l-17.3-3c-1.2-0.2-2.1-1.1-2.4-2.2
			c-0.2,0.3-0.4,0.7-0.5,1.1c-0.3,1.6,0.8,3.1,2.4,3.4l17.3,3C319,102.7,320.6,101.6,320.8,100z"/>
	</g>
</g>
<g>
	<circle class="st0" cx="525.1" cy="89.3" r="64.9"/>
	<path class="st1" d="M523,14.7c-1.4-0.4-3.4,0.3-4,1.6c-0.6,1.4,0.4,3.1,1.8,3c0.9-0.1,1.5-0.9,1.2-1.7c-0.3-0.8-1.7-0.5-1.5,0.4
		c-0.5-2.5,2-2.1,2.1-2.1c2.2,0.5,2.1,4.2-0.6,5.1c-0.6,0.2-1.3,0.3-2,0.3c-0.2-0.2-0.4-0.4-0.7-0.6c-0.8-0.6-1.8-0.9-2.8-1
		c-1,0-1.9,0.2-2.8,0.6c-0.8,0.4-1.5,0.9-2,1.6h-23.4c1.6-0.8,2.6-2.6,2.1-4.4c-0.4-1.4-2.5-3.1-3.7-1.5c-0.9,1.1,0.6,2.8,1.7,1.8
		c0.2-0.2,0.3-0.5,0.2-0.7c0.5,0.5,0.7,1.5,0.5,2.1c-0.2,0.7-0.8,1.4-1.4,1.7c-1,0.5-2.1,0.5-3.1,0.1c-0.5-1.1-1.3-2.1-2.2-2.8
		c-2.6-2.2-6.9-3.3-10.5-1.4c-0.5,0.3-1,0.6-1.4,0.9c0.9-2.5,0.4-5.4-2.3-7.1c-0.6-0.4-1,0.4-0.6,0.8c2.8,2.4,2.2,6,0,7.9
		c-2.3,2-5.4,1.4-6.5,0.3c-1.1-1.1-1.3-4.3,0.2-4.2c1.4,0.1,1.9,2.1,3.2,0.9c0.7-0.6,0.7-1.9,0.3-2.7c-0.8-1.5-2.7-2-4.2-1.3
		c-1.8,0.8-2.6,2.9-2.4,4.7c0.1,1.3,0.6,2.3,1.3,3.1c-0.8-0.7-1.9-1.2-3.1-1.3c-1.8-0.2-3.9,0.7-4.7,2.4c-0.7,1.5-0.2,3.4,1.3,4.2
		c0.8,0.4,2.1,0.4,2.7-0.3c1.2-1.3-0.8-1.8-0.9-3.2c-0.1-1.5,3.1-1.3,4.2-0.2c1.1,1.1,1.7,4.2-0.3,6.5c-1.9,2.2-5.6,2.8-7.9,0
		c-0.4-0.5-1.2,0-0.8,0.6c1.6,2.5,4.1,3.1,6.4,2.5c-0.3,0.4-0.5,0.8-0.7,1.2c-1.9,3.6-0.8,7.9,1.4,10.5c0.7,0.9,1.7,1.7,2.8,2.2
		c0.3,1,0.4,2.1-0.1,3.1c-0.3,0.6-1,1.3-1.7,1.4c-0.5,0.1-1.5,0-2.1-0.5c0.2,0.1,0.5,0.1,0.7-0.2c1-1.1-0.6-2.6-1.8-1.7
		c-1.6,1.2,0.1,3.3,1.5,3.7c1.8,0.6,3.6-0.4,4.4-2.1v23.4c-0.7,0.5-1.2,1.2-1.6,2c-0.4,0.9-0.6,1.8-0.6,2.8c0,1,0.4,2,1,2.8
		c0.2,0.2,0.4,0.5,0.6,0.7c0,0.7-0.1,1.4-0.3,2c-1,2.6-4.7,2.8-5.1,0.6c0-0.1-0.4-2.6,2.1-2.1c-0.9-0.2-1.2,1.2-0.4,1.5
		c0.9,0.3,1.7-0.3,1.7-1.2c0.1-1.4-1.6-2.4-3-1.8c-1.4,0.6-2,2.6-1.6,4c0.8,2.8,5.8,3.2,7.4-0.9c0.2-0.4,0.3-0.9,0.3-1.3
		c1,0.6,2.2,1,3.4,1c3.4-0.1,6.6-3,6.7-7.5c0-1.8-0.4-3.4-0.8-5c-0.5-1.6-1.1-3-1.7-4.5c4.7-5.1,8.2-10.2,10.2-17.5
		c0.6-2.1,1-4.4,0.9-6.6c0-0.1,0-0.3,0-0.4c0.3,0,0.6,0,0.9,0c2.3,0,4.5-0.4,6.6-0.9c7.3-2,12.5-5.5,17.5-10.2
		c1.5,0.6,3,1.2,4.5,1.7c1.6,0.5,3.3,0.8,5,0.8c4.5,0,7.4-3.3,7.5-6.7c0-1.2-0.4-2.4-1-3.4c0.4,0,0.9-0.1,1.3-0.3
		C526.2,20.6,525.7,15.6,523,14.7z M485.1,30.1c-0.9-0.2-1.8-0.1-2.6,0.4c0.5-0.3,0.9-0.7,1.3-1.2c0.2-0.2,0.3-0.4,0.4-0.6
		C484.4,29.2,484.7,29.7,485.1,30.1z M485.4,24.5c0-0.3,0-0.6-0.1-0.9h1.4c-0.1,0.1-0.3,0.1-0.4,0.2C485.9,24,485.6,24.2,485.4,24.5
		z M472.9,19c3.5-1.7,8.1,0.5,9.1,3.5c1.4,4-2.3,6.5-3.8,4.9c-0.8-0.8-2.1-0.9-2.9-0.1c-2.3,2.1,1.4,5.1,4.9,4.3
		c0.7-0.2,1.3-0.5,1.9-0.8c-0.9,0.7-1.5,1.8-1.2,3.1c0.3,1.2,1.8,2.2,2.8,1.8c0.7-0.3,1-1.2,0.8-1.7c-0.3-0.7-1.4-1-1.8-0.1
		c-0.9-1.4,0.7-2.5,1.7-2.3c1,0.2,1.6,0.6,2,1.5c0.7,1.5,0,3-1.1,4.1c-1.4,1.6-3.2,2-5.1,2.3c-0.2,0-0.4,0-0.6,0
		c-0.2-1.6-0.5-3.1-1.2-4.6c-1.5-3.6-4.5-6.1-8-7.3c-0.3-1.3-0.9-2.5-1.8-3.5C469.4,21.7,471,19.9,472.9,19z M466.6,22.4
		c-0.2-0.1-0.5-0.3-0.7-0.4c0.6-0.2,1.1-0.4,1.6-0.7c-0.2,0.4-0.4,0.8-0.6,1.2C466.8,22.5,466.7,22.4,466.6,22.4z M461.5,27.4
		c0,0.1,0.1,0.1,0.1,0.2c-0.3,0.1-0.6,0.2-1,0.4c0.2-0.4,0.4-0.8,0.5-1.3C461.2,27,461.3,27.2,461.5,27.4z M463.5,26.3
		c-0.4-0.8-0.7-1.7-0.7-2.6c0.9,0,1.8,0.2,2.6,0.7c1.9,1,2.8,2.9,3,4.9C466.3,29.1,464.5,28.3,463.5,26.3z M470.6,31.4
		c0.1-0.6,0.1-1.2,0.1-1.8c2.6,1.1,4.9,3.1,6.1,5.8c0.5,1.1,0.9,2.4,1.1,3.6c-1.1-0.2-2.2-0.5-3.2-1c-2.9-1.3-5-3.8-6-6.6
		C469.2,31.5,469.9,31.5,470.6,31.4z M457.6,33.8c0.9-2,2.9-3.6,5.4-4.4c1,0.9,2.1,1.5,3.4,1.8c1.1,3.7,3.7,6.9,7.5,8.6
		c1.3,0.6,2.7,0.9,4.1,1.1c0,0.1,0,0.1,0,0.2c-0.3,1.9-0.8,3.7-2.3,5.1c-1.1,1-2.6,1.7-4.1,1.1c-0.9-0.4-1.3-1-1.5-2
		c-0.2-1,0.9-2.6,2.3-1.7c-0.8,0.4-0.6,1.6,0.1,1.8c0.5,0.2,1.4-0.1,1.7-0.8c0.4-1-0.6-2.6-1.8-2.8c-1.3-0.3-2.4,0.3-3.1,1.2
		c0.3-0.6,0.6-1.2,0.8-1.9c0.9-3.5-2.1-7.2-4.3-4.9c-0.8,0.8-0.7,2.1,0.1,2.9c1.6,1.5-0.9,5.2-4.9,3.8
		C458.1,41.8,455.9,37.3,457.6,33.8z M462.2,46.2c0.3,0,0.6,0,0.9,0.1c-0.2,0.3-0.5,0.6-0.7,0.9c-0.1,0.1-0.2,0.3-0.2,0.4V46.2z
		 M468.6,46c-0.4-0.4-0.9-0.6-1.4-0.8c0.2-0.1,0.4-0.3,0.6-0.4c0.5-0.4,0.8-0.9,1.2-1.3C468.6,44.1,468.4,45.1,468.6,46z
		 M469.2,75.1c-0.1,3.8-2.7,5.7-4.9,5.7c-1.4,0-2.8-0.8-3.4-1.7c-0.8-1-0.8-2.4-0.2-3.7c0.5-1.2,1.7-2,2.9-1.9
		c0.5,0.1,1.1,0.4,1.5,0.8c0.3,0.4,0.4,0.8,0.2,1.3c-0.2,0.5-0.6,0.9-0.9,0.9c-0.2,0-0.3,0-0.3,0c0,0,0,0,0-0.2
		c0.1-0.5-0.2-1-0.7-1.2c-0.5-0.2-1.1,0.1-1.2,0.6l0,0c-0.2,0.6-0.1,1.5,0.4,2.1c0.6,0.6,1.3,0.8,2,0.7c1.3-0.2,2.2-1.2,2.5-2.2
		c0.2-0.5,0.3-1.1,0.2-1.7c-0.1-0.6-0.4-1.1-0.8-1.5c-0.4-0.4-0.8-0.7-1.2-1c-0.4-0.2-1-0.4-1.5-0.5c-0.6-0.1-1.1,0-1.7,0.2V54.5
		c0.3,0.9,0.6,1.8,0.9,2.7c1.7,4.4,4.2,9.3,5.5,13.4C469,72.1,469.3,73.6,469.2,75.1z M467.9,64.2C467.9,64.2,467.9,64.2,467.9,64.2
		c-0.2-0.2-0.3-0.5-0.4-0.8c0-1-0.1-2.1-0.1-3.1c0.1-2.2,0.5-3.1,0.6-3.6c0.4-1.5,2-2.7,3.1-1.5c-0.6,0.9-0.1,2.2,1,2
		c1.3-0.2,1.3-1.6,0.9-2.6c-0.9-2-2.8-1.6-3.5-1.3c-1,0.4-1.8,1.4-2.2,2.3c-0.8,1.7-0.9,3.6-0.8,5.6c0,0,0-0.1,0-0.1
		c-1.3-2.9-2.8-5.9-3.4-8.9c-0.8-4.3,1.8-6.6,3.7-5.8c3.1,1.3,1.2,4.3,0.1,3.3c-0.4-0.3-0.3-0.6-0.3-0.4c0.2-0.5,0-1.1-0.5-1.3
		s-1.1,0-1.3,0.5c-0.9,2.4,3.1,4.6,4.8,1.5c0.4-0.7,0.4-1.4,0.3-2.1c1.4,1.2,3.5,1.3,5.2,0.4c1.1-0.6,2-1.5,2.7-2.7
		c-0.1,0.7-0.3,1.4-0.4,2.1C475.4,54.5,472,59.7,467.9,64.2z M503.3,29.3c-4.5,4-9.7,7.5-16.5,9.3c-0.7,0.2-1.4,0.3-2.1,0.4
		c1.1-0.7,2.1-1.6,2.7-2.7c0.9-1.7,0.8-3.8-0.4-5.2c0.7,0.2,1.4,0.1,2.1-0.3c3.2-1.7,0.9-5.7-1.5-4.8c-0.5,0.2-0.7,0.8-0.5,1.3
		c0.2,0.5,0.8,0.7,1.3,0.5c-0.2,0,0-0.2,0.4,0.3c1,1.2-2,3-3.3-0.1c-0.8-2,1.5-4.6,5.8-3.7c3,0.6,6,2,8.9,3.4c0,0,0.1,0,0.1,0
		c-1.9-0.1-3.9,0-5.6,0.8c-1,0.4-1.9,1.2-2.3,2.2c-0.3,0.7-0.7,2.6,1.3,3.5c1,0.5,2.3,0.4,2.6-0.9c0.2-1.1-1.1-1.6-2-1
		c-1.2-1.1-0.1-2.7,1.5-3.1c0.5-0.2,1.4-0.6,3.6-0.6c1.1,0,2.1,0,3.1,0.1C502.7,29,503,29.2,503.3,29.3
		C503.3,29.3,503.3,29.3,503.3,29.3z M514.2,30.7c-1.5,0-3-0.3-4.5-0.7c-4.2-1.2-9-3.8-13.4-5.5c-0.8-0.3-1.7-0.6-2.7-0.9h17.3
		c-0.2,0.5-0.2,1.1-0.2,1.7c0.1,0.5,0.2,1.1,0.5,1.5c0.2,0.4,0.6,0.9,1,1.2c0.4,0.4,0.9,0.6,1.5,0.8c0.6,0.1,1.2,0,1.7-0.2
		c1-0.4,2-1.2,2.2-2.5c0.1-0.6-0.1-1.4-0.7-2c-0.6-0.6-1.5-0.6-2.1-0.4l0,0c-0.5,0.2-0.8,0.7-0.6,1.2c0.2,0.5,0.7,0.8,1.2,0.7
		c0.2-0.1,0.2,0,0.2,0c0,0,0.1,0.1,0,0.3c0,0.3-0.4,0.7-0.9,0.9c-0.5,0.2-0.9,0.1-1.3-0.2c-0.4-0.3-0.7-0.9-0.8-1.5
		c-0.1-1.2,0.6-2.4,1.9-2.9c1.2-0.6,2.6-0.6,3.7,0.2c0.9,0.7,1.7,2.1,1.7,3.4C519.9,28,518,30.5,514.2,30.7z"/>
	<path class="st1" d="M527.3,165c1.4,0.4,3.4-0.4,4-1.7c0.6-1.4-0.5-3.1-1.9-2.9c-0.9,0.1-1.5,0.9-1.2,1.8c0.3,0.8,1.7,0.5,1.5-0.4
		c0.6,2.5-2,2.1-2,2.1c-2.2-0.4-2.2-4.1,0.4-5.2c0.6-0.2,1.3-0.3,2-0.4c0.2,0.2,0.4,0.4,0.7,0.6c0.8,0.6,1.8,0.9,2.8,0.9
		c1,0,1.9-0.3,2.8-0.7c0.7-0.4,1.4-0.9,1.9-1.7l23.4-0.8c-1.6,0.9-2.5,2.7-1.9,4.4c0.5,1.3,2.6,3,3.8,1.4c0.8-1.2-0.7-2.8-1.8-1.7
		c-0.2,0.2-0.2,0.5-0.1,0.7c-0.5-0.5-0.7-1.5-0.6-2c0.1-0.7,0.7-1.4,1.4-1.7c1-0.6,2-0.5,3.1-0.2c0.6,1.1,1.4,2,2.3,2.7
		c2.7,2.1,7,3,10.6,1c0.5-0.3,1-0.6,1.4-1c-0.8,2.5-0.2,5.4,2.5,7c0.6,0.3,1-0.5,0.5-0.9c-2.9-2.3-2.4-5.9-0.3-7.9
		c2.2-2.1,5.3-1.6,6.5-0.5c1.2,1.1,1.5,4.3,0,4.2c-1.5,0-1.9-2.1-3.2-0.8c-0.7,0.6-0.6,1.9-0.2,2.7c0.8,1.5,2.7,1.9,4.2,1.2
		c1.7-0.9,2.5-2.9,2.3-4.8c-0.2-1.3-0.7-2.3-1.4-3.1c0.8,0.7,1.9,1.2,3.2,1.2c1.8,0.1,3.9-0.8,4.6-2.6c0.6-1.5,0.1-3.4-1.4-4.1
		c-0.8-0.4-2.1-0.3-2.6,0.3c-1.1,1.4,0.9,1.7,1,3.2c0.1,1.5-3,1.4-4.2,0.3c-1.1-1.1-1.9-4.1,0.1-6.5c1.9-2.3,5.5-3,7.9-0.3
		c0.4,0.5,1.2,0,0.8-0.6c-1.7-2.4-4.2-3-6.5-2.3c0.3-0.4,0.5-0.8,0.7-1.2c1.7-3.7,0.5-7.9-1.8-10.5c-0.8-0.9-1.8-1.6-2.9-2.1
		c-0.4-1-0.5-2.1,0-3.1c0.3-0.7,0.9-1.3,1.6-1.5c0.5-0.1,1.5,0,2.1,0.5c-0.2-0.1-0.5-0.1-0.7,0.2c-1,1.2,0.7,2.6,1.8,1.7
		c1.5-1.3-0.2-3.3-1.6-3.7c-1.8-0.5-3.6,0.5-4.3,2.2l-0.8-23.4c0.7-0.6,1.2-1.3,1.5-2c0.4-0.9,0.6-1.8,0.5-2.8c-0.1-1-0.4-2-1.1-2.7
		c-0.2-0.2-0.4-0.4-0.6-0.6c0-0.7,0.1-1.4,0.3-2c0.9-2.6,4.6-2.9,5.1-0.7c0,0.1,0.5,2.6-2,2.2c0.9,0.1,1.1-1.3,0.3-1.5
		c-0.9-0.3-1.7,0.3-1.7,1.3c0,1.4,1.7,2.3,3,1.7c1.3-0.7,1.9-2.7,1.5-4.1c-0.9-2.7-5.9-3-7.3,1.1c-0.1,0.4-0.2,0.9-0.2,1.3
		c-1-0.6-2.2-0.9-3.4-0.9c-3.4,0.2-6.5,3.2-6.4,7.7c0,1.8,0.5,3.4,1,5c0.5,1.5,1.2,3,1.8,4.4c-4.6,5.2-7.8,10.5-9.6,17.9
		c-0.5,2.2-0.8,4.4-0.7,6.7c0,0.1,0,0.3,0,0.4c-0.3,0-0.6,0-0.9,0c-2.3,0.1-4.5,0.5-6.6,1.2c-7.3,2.3-12.3,5.9-17.2,10.8
		c-1.5-0.6-3-1.1-4.6-1.5c-1.6-0.4-3.3-0.7-5.1-0.7c-4.5,0.2-7.3,3.5-7.3,6.9c0,1.2,0.4,2.4,1.1,3.3c-0.4,0-0.9,0.2-1.3,0.3
		C523.9,159.3,524.5,164.3,527.3,165z M564.7,148.5c0.9,0.2,1.8,0,2.6-0.5c-0.5,0.4-0.9,0.8-1.3,1.2c-0.1,0.2-0.3,0.4-0.4,0.6
		C565.4,149.3,565.1,148.8,564.7,148.5z M564.6,154c0,0.3,0,0.6,0.1,0.9l-1.4,0c0.1-0.1,0.3-0.2,0.4-0.2
		C564,154.5,564.3,154.3,564.6,154z M577.3,159.1c-3.4,1.8-8.1-0.2-9.2-3.2c-1.6-4,2.1-6.6,3.6-5c0.8,0.8,2.1,0.8,2.9,0
		c2.2-2.2-1.6-5.1-5.1-4.1c-0.7,0.2-1.3,0.5-1.9,0.9c0.9-0.7,1.4-1.9,1.1-3.1c-0.3-1.2-1.9-2.1-2.9-1.7c-0.7,0.3-0.9,1.2-0.7,1.7
		c0.3,0.7,1.5,0.9,1.8,0.1c1,1.4-0.6,2.5-1.6,2.4c-1-0.2-1.6-0.5-2.1-1.4c-0.7-1.5-0.1-3,0.9-4.2c1.4-1.6,3.1-2.1,5-2.5
		c0.2,0,0.4,0,0.6,0c0.2,1.6,0.7,3.1,1.3,4.5c1.7,3.5,4.8,6,8.2,7c0.4,1.3,1,2.5,1.9,3.4C580.6,156.3,579.1,158.1,577.3,159.1z
		 M583.5,155.5c0.2,0.1,0.5,0.2,0.7,0.3c-0.6,0.2-1.1,0.4-1.6,0.7c0.2-0.4,0.4-0.8,0.5-1.3C583.3,155.4,583.3,155.4,583.5,155.5z
		 M588.4,150.3c0-0.1-0.1-0.1-0.1-0.2c0.3-0.1,0.6-0.3,0.9-0.4c-0.2,0.4-0.3,0.8-0.4,1.3C588.6,150.7,588.5,150.5,588.4,150.3z
		 M586.4,151.4c0.5,0.8,0.7,1.7,0.8,2.6c-0.9,0-1.8-0.2-2.6-0.6c-2-1-2.9-2.8-3.2-4.8C583.4,148.7,585.3,149.6,586.4,151.4z
		 M579.2,146.6c0,0.6,0,1.2,0,1.8c-2.7-1-5-2.9-6.3-5.6c-0.6-1.1-0.9-2.3-1.2-3.6c1.1,0.2,2.2,0.5,3.2,0.9c3,1.2,5.2,3.6,6.3,6.4
		C580.5,146.5,579.8,146.5,579.2,146.6z M592,143.8c-0.9,2.1-2.8,3.7-5.2,4.6c-1-0.9-2.2-1.4-3.5-1.7c-1.2-3.7-3.9-6.8-7.8-8.3
		c-1.3-0.5-2.7-0.8-4.1-1c0-0.1,0-0.1,0-0.2c0.2-1.9,0.6-3.7,2.2-5.2c1.1-1.1,2.6-1.8,4.1-1.2c0.9,0.4,1.3,1,1.5,2
		c0.2,1-0.8,2.7-2.2,1.8c0.8-0.4,0.5-1.6-0.2-1.8c-0.5-0.2-1.4,0.1-1.7,0.8c-0.3,1,0.6,2.6,1.9,2.8c1.3,0.2,2.4-0.4,3-1.3
		c-0.3,0.6-0.6,1.2-0.7,1.9c-0.8,3.6,2.4,7.1,4.4,4.8c0.7-0.9,0.6-2.1-0.2-2.9c-1.7-1.4,0.7-5.2,4.8-4
		C591.3,135.8,593.6,140.3,592,143.8z M587.1,131.5c-0.3,0-0.6,0-0.9,0c0.2-0.3,0.5-0.6,0.7-1c0.1-0.1,0.1-0.3,0.2-0.4L587.1,131.5z
		 M580.6,132c0.4,0.3,0.9,0.6,1.4,0.8c-0.2,0.1-0.4,0.3-0.6,0.4c-0.4,0.4-0.8,0.9-1.1,1.4C580.7,133.8,580.8,132.9,580.6,132z
		 M579,102.9c0-3.8,2.5-5.8,4.7-5.8c1.4-0.1,2.8,0.7,3.5,1.6c0.8,1,0.8,2.4,0.3,3.7c-0.5,1.2-1.7,2.1-2.8,1.9
		c-0.5,0-1.1-0.4-1.5-0.8c-0.4-0.4-0.4-0.8-0.3-1.3c0.2-0.5,0.6-0.9,0.9-0.9c0.2,0,0.3,0,0.3,0c0,0,0,0,0,0.2
		c-0.1,0.5,0.2,1,0.7,1.2c0.5,0.1,1.1-0.2,1.2-0.7l0,0c0.2-0.6,0.1-1.5-0.5-2c-0.6-0.6-1.4-0.7-2-0.6c-1.3,0.2-2.1,1.3-2.4,2.3
		c-0.2,0.5-0.2,1.1-0.1,1.7c0.1,0.6,0.4,1.1,0.8,1.5c0.4,0.4,0.8,0.7,1.3,0.9c0.4,0.2,1,0.4,1.5,0.4c0.6,0,1.1,0,1.7-0.2l0.6,17.3
		c-0.3-0.9-0.6-1.8-1-2.6c-1.8-4.4-4.6-9.1-5.9-13.2C579.4,105.9,579,104.4,579,102.9z M580.7,113.8
		C580.7,113.8,580.7,113.8,580.7,113.8c0.2,0.2,0.3,0.5,0.4,0.8c0.1,1,0.2,2.1,0.2,3.1c0,2.2-0.4,3.1-0.5,3.6
		c-0.4,1.5-1.9,2.8-3,1.6c0.5-1,0-2.2-1.1-2c-1.3,0.3-1.3,1.6-0.8,2.6c1,1.9,2.8,1.5,3.5,1.2c1-0.5,1.7-1.4,2.1-2.4
		c0.7-1.7,0.8-3.7,0.6-5.6c0,0,0,0.1,0,0.1c1.4,2.9,3,5.8,3.7,8.8c1,4.2-1.5,6.7-3.5,5.9c-3.1-1.2-1.4-4.3-0.2-3.3
		c0.4,0.3,0.3,0.5,0.3,0.4c-0.2,0.5,0,1.1,0.5,1.3s1.1,0,1.3-0.5c0.9-2.4-3.2-4.5-4.8-1.3c-0.3,0.7-0.4,1.4-0.2,2.1
		c-1.4-1.1-3.5-1.2-5.2-0.2c-1.1,0.6-2,1.6-2.6,2.8c0.1-0.7,0.2-1.4,0.4-2.1C573.5,123.7,576.8,118.4,580.7,113.8z M546.5,149.8
		c4.3-4.2,9.4-7.8,16.2-9.8c0.7-0.2,1.4-0.4,2.1-0.5c-1.1,0.7-2,1.7-2.6,2.8c-0.8,1.7-0.6,3.8,0.6,5.1c-0.7-0.1-1.4-0.1-2.1,0.3
		c-3.1,1.8-0.7,5.7,1.6,4.7c0.5-0.2,0.7-0.8,0.4-1.3c-0.3-0.5-0.8-0.7-1.3-0.4c0.2,0,0,0.2-0.4-0.2c-1-1.2,1.9-3.1,3.3-0.1
		c0.9,1.9-1.4,4.6-5.7,3.9c-3.1-0.5-6-1.8-9-3.1c0,0-0.1,0-0.1,0c1.9,0.1,3.9-0.2,5.5-1c1-0.5,1.9-1.3,2.3-2.3
		c0.3-0.7,0.6-2.6-1.4-3.5c-1-0.4-2.4-0.3-2.6,0.9c-0.2,1.1,1.1,1.5,2,0.9c1.3,1,0.1,2.7-1.4,3.1c-0.5,0.2-1.4,0.6-3.6,0.8
		c-1,0.1-2.1,0-3.1,0C547.1,150.1,546.8,149.9,546.5,149.8C546.5,149.8,546.5,149.8,546.5,149.8z M535.5,148.8
		c1.5-0.1,3,0.2,4.5,0.6c4.2,1.1,9.1,3.5,13.6,5c0.9,0.3,1.8,0.6,2.7,0.8l-17.3,0.6c0.1-0.5,0.2-1.1,0.1-1.7c-0.1-0.5-0.3-1-0.5-1.5
		c-0.3-0.4-0.6-0.8-1-1.2c-0.4-0.3-1-0.6-1.6-0.7c-0.6-0.1-1.2,0-1.7,0.2c-1,0.4-1.9,1.3-2.1,2.6c-0.1,0.6,0.1,1.4,0.7,1.9
		c0.6,0.6,1.5,0.6,2.1,0.4l0,0c0.5-0.2,0.8-0.7,0.6-1.3c-0.2-0.5-0.7-0.8-1.2-0.6c-0.2,0.1-0.2,0-0.2,0c0,0-0.1-0.1-0.1-0.3
		c0-0.3,0.4-0.8,0.9-1c0.5-0.2,0.9-0.1,1.3,0.2c0.4,0.3,0.8,0.9,0.9,1.4c0.2,1.1-0.6,2.4-1.8,3c-1.2,0.6-2.6,0.7-3.7-0.1
		c-1-0.6-1.8-2-1.8-3.4C530,151.7,531.7,149.1,535.5,148.8z"/>
	<g>
		<path class="st9" d="M523.3,116.8c-9.2,6.9-22.3,5.1-29.3-4.2s-5.1-22.3,4.2-29.3l34.2-25.7l25.1,33.4L523.3,116.8L523.3,116.8z"
			/>
		<path class="st11" d="M529.7,59.7l22.5,30l-34.2,25.7c-4.6,3.5-10.2,4.7-15.5,4c6.6,2.8,14.6,2.1,20.8-2.5l34.2-25.7l-25.1-33.4
			L529.7,59.7z"/>
		<g class="st12">
			<path d="M523.4,93l-4.1,3.1c-2.2,1.7-5,2.4-7.8,2c-2.1-0.3-4.2,0.2-6,1.5l-7.6,5.7c-0.5,0.4-1.3,0.3-1.7-0.2
				c-0.4-0.5-0.3-1.3,0.2-1.7l7.6-5.7c2.2-1.7,5-2.4,7.8-2c2.1,0.3,4.2-0.2,6-1.5l4.1-3.1c0.5-0.4,1.3-0.3,1.7,0.2
				S524,92.5,523.4,93z"/>
			<path d="M526.2,74.9l-7.2,5.4c-0.5,0.4-1.3,0.3-1.7-0.2s-0.3-1.3,0.2-1.7l7.2-5.4c0.5-0.4,1.3-0.3,1.7,0.2S526.8,74.5,526.2,74.9
				z"/>
			<path d="M513.1,107.8l-8.5,6.4c-0.5,0.4-1.3,0.3-1.7-0.2s-0.3-1.3,0.2-1.7l8.5-6.4c0.5-0.4,1.3-0.3,1.7,0.2
				S513.7,107.4,513.1,107.8z"/>
			<path d="M535,101.6l-13.3,10c-0.5,0.4-1.3,0.3-1.7-0.2s-0.3-1.3,0.2-1.7l13.3-10c0.5-0.4,1.3-0.3,1.7,0.2
				C535.7,100.4,535.6,101.2,535,101.6z"/>
		</g>
		<circle class="st13" cx="544.9" cy="74.4" r="20.9"/>
		<path class="st11" d="M546.8,53.6c4.4,1.2,8.4,3.7,11.3,7.6c6.9,9.2,5.1,22.3-4.2,29.3c-4.3,3.2-9.4,4.5-14.4,4.1
			c6,1.6,12.6,0.5,17.9-3.5c9.2-6.9,11.1-20,4.2-29.3C557.9,56.9,552.5,54.1,546.8,53.6z"/>
		<g class="st12">
			<path d="M551.8,88.1c-0.1,0-0.1,0.1-0.2,0.1c-6.6,3.2-14.5,1.2-18.9-4.6c-5.1-6.8-3.7-16.4,3-21.5c3.2-2.4,7.1-3.4,11-3
				c0.7,0.1,1.2,0.7,1.1,1.4c-0.1,0.7-0.7,1.2-1.4,1.1c-3.3-0.4-6.6,0.5-9.2,2.5c-5.7,4.3-6.8,12.3-2.6,18
				c3.7,4.9,10.3,6.5,15.8,3.9c0.6-0.3,1.4,0,1.7,0.6C552.4,87.1,552.2,87.8,551.8,88.1z"/>
			<path d="M556.7,84.1c-0.4,0.3-1.1,0.3-1.5,0c-0.5-0.4-0.6-1.2-0.2-1.7c3.6-4.6,3.7-11,0.2-15.7c-1.1-1.5-2.6-2.7-4.2-3.6
				c-0.6-0.3-0.8-1.1-0.5-1.7c0.3-0.6,1.1-0.8,1.7-0.5c2,1.1,3.7,2.5,5,4.3c4.2,5.6,4.1,13.3-0.2,18.7
				C556.9,84,556.8,84.1,556.7,84.1z"/>
			<path d="M549.9,81c-1.3,1-2.9,1.6-4.6,1.7c-0.7,0-1.3-0.5-1.3-1.2c0-0.7,0.5-1.3,1.2-1.3c1.2-0.1,2.3-0.5,3.2-1.2
				c1.6-1.2,2.4-3.1,2.3-5c0-0.7,0.5-1.3,1.2-1.3c0.7,0,1.3,0.5,1.3,1.2C553.4,76.7,552.1,79.4,549.9,81z"/>
			<path d="M551.3,71.2c-0.5,0.4-1.3,0.3-1.7-0.2c-1.4-1.9-3.9-2.8-6.2-2.1c-0.7,0.2-1.3-0.2-1.5-0.9c-0.2-0.7,0.2-1.3,0.9-1.5
				c3.3-0.9,6.9,0.3,8.9,3C552,70,551.8,70.8,551.3,71.2z"/>
			<path d="M541.3,80.9c-0.4,0.3-1.1,0.3-1.5,0c-0.5-0.4-1-0.9-1.5-1.5c-1.9-2.5-2.2-5.9-0.8-8.7c0.3-0.6,1.1-0.9,1.7-0.5
				c0.6,0.3,0.9,1.1,0.5,1.7c-1,2-0.8,4.3,0.5,6.1c0.3,0.4,0.6,0.7,1,1.1c0.5,0.4,0.6,1.2,0.2,1.7C541.4,80.8,541.4,80.9,541.3,80.9
				z"/>
		</g>
		<path class="st9" d="M508.1,79.6c3.1,0.4,5.3,3.3,4.8,6.4c-0.4,3.1-3.3,5.3-6.4,4.8l-13.9-2l1.6-11.3L508.1,79.6z"/>
		<path class="st11" d="M508.1,79.6c3.1,0.4,5.3,3.3,4.8,6.4c-0.4,3.1-3.3,5.3-6.4,4.8l-13.9-2l1.6-11.3L508.1,79.6z"/>
		<circle class="st13" cx="493.4" cy="83.3" r="5.7"/>
	</g>
</g>
<g>
	<circle class="st0" cx="740.8" cy="89.3" r="64.9"/>
	<path class="st1" d="M738.6,14.7c-1.4-0.4-3.4,0.3-4,1.6c-0.6,1.4,0.4,3.1,1.8,3c0.9-0.1,1.5-0.9,1.2-1.7c-0.3-0.8-1.7-0.5-1.5,0.4
		c-0.5-2.5,2-2.1,2.1-2.1c2.2,0.5,2.1,4.2-0.6,5.1c-0.6,0.2-1.3,0.3-2,0.3c-0.2-0.2-0.4-0.4-0.7-0.6c-0.8-0.6-1.8-0.9-2.8-1
		c-1,0-1.9,0.2-2.8,0.6c-0.8,0.4-1.5,0.9-2,1.6H704c1.6-0.8,2.6-2.6,2.1-4.4c-0.4-1.4-2.5-3.1-3.7-1.5c-0.9,1.1,0.6,2.8,1.7,1.8
		c0.2-0.2,0.3-0.5,0.2-0.7c0.5,0.5,0.7,1.5,0.5,2.1c-0.2,0.7-0.8,1.4-1.4,1.7c-1,0.5-2.1,0.5-3.1,0.1c-0.5-1.1-1.3-2.1-2.2-2.8
		c-2.6-2.2-6.9-3.3-10.5-1.4c-0.5,0.3-1,0.6-1.4,0.9c0.9-2.5,0.4-5.4-2.3-7.1c-0.6-0.4-1,0.4-0.6,0.8c2.8,2.4,2.2,6,0,7.9
		c-2.3,2-5.4,1.4-6.5,0.3c-1.1-1.1-1.3-4.3,0.2-4.2c1.4,0.1,1.9,2.1,3.2,0.9c0.7-0.6,0.7-1.9,0.3-2.7c-0.8-1.5-2.7-2-4.2-1.3
		c-1.8,0.8-2.6,2.9-2.4,4.7c0.1,1.3,0.6,2.3,1.3,3.1c-0.8-0.7-1.9-1.2-3.1-1.3c-1.8-0.2-3.9,0.7-4.7,2.4c-0.7,1.5-0.2,3.4,1.3,4.2
		c0.8,0.4,2.1,0.4,2.7-0.3c1.2-1.3-0.8-1.8-0.9-3.2c-0.1-1.5,3.1-1.3,4.2-0.2c1.1,1.1,1.7,4.2-0.3,6.5c-1.9,2.2-5.6,2.8-7.9,0
		c-0.4-0.5-1.2,0-0.8,0.6c1.6,2.5,4.1,3.1,6.4,2.5c-0.3,0.4-0.5,0.8-0.7,1.2c-1.9,3.6-0.8,7.9,1.4,10.5c0.7,0.9,1.7,1.7,2.8,2.2
		c0.3,1,0.4,2.1-0.1,3.1c-0.3,0.6-1,1.3-1.7,1.4c-0.5,0.1-1.5,0-2.1-0.5c0.2,0.1,0.5,0.1,0.7-0.2c1-1.1-0.6-2.6-1.8-1.7
		c-1.6,1.2,0.1,3.3,1.5,3.7c1.8,0.6,3.6-0.4,4.4-2.1v23.4c-0.7,0.5-1.2,1.2-1.6,2c-0.4,0.9-0.6,1.8-0.6,2.8c0,1,0.4,2,1,2.8
		c0.2,0.2,0.4,0.5,0.6,0.7c0,0.7-0.1,1.4-0.3,2c-1,2.6-4.7,2.8-5.1,0.6c0-0.1-0.4-2.6,2.1-2.1c-0.9-0.2-1.2,1.2-0.4,1.5
		c0.9,0.3,1.7-0.3,1.7-1.2c0.1-1.4-1.6-2.4-3-1.8c-1.4,0.6-2,2.6-1.6,4c0.8,2.8,5.8,3.2,7.4-0.9c0.2-0.4,0.3-0.9,0.3-1.3
		c1,0.6,2.2,1,3.4,1c3.4-0.1,6.6-3,6.7-7.5c0-1.8-0.4-3.4-0.8-5c-0.5-1.6-1.1-3-1.7-4.5c4.7-5.1,8.2-10.2,10.2-17.5
		c0.6-2.1,1-4.4,0.9-6.6c0-0.1,0-0.3,0-0.4c0.3,0,0.6,0,0.9,0c2.3,0,4.5-0.4,6.6-0.9c7.3-2,12.5-5.5,17.5-10.2
		c1.5,0.6,3,1.2,4.5,1.7c1.6,0.5,3.3,0.8,5,0.8c4.5,0,7.4-3.3,7.5-6.7c0-1.2-0.4-2.4-1-3.4c0.4,0,0.9-0.1,1.3-0.3
		C741.8,20.6,741.4,15.6,738.6,14.7z M700.7,30.1c-0.9-0.2-1.8-0.1-2.6,0.4c0.5-0.3,0.9-0.7,1.3-1.2c0.2-0.2,0.3-0.4,0.4-0.6
		C700.1,29.2,700.4,29.7,700.7,30.1z M701,24.5c0-0.3,0-0.6-0.1-0.9h1.4c-0.1,0.1-0.3,0.1-0.4,0.2C701.6,24,701.3,24.2,701,24.5z
		 M688.5,19c3.5-1.7,8.1,0.5,9.1,3.5c1.4,4-2.3,6.5-3.8,4.9c-0.8-0.8-2.1-0.9-2.9-0.1c-2.3,2.1,1.4,5.1,4.9,4.3
		c0.7-0.2,1.3-0.5,1.9-0.8c-0.9,0.7-1.5,1.8-1.2,3.1c0.3,1.2,1.8,2.2,2.8,1.8c0.7-0.3,1-1.2,0.8-1.7c-0.3-0.7-1.4-1-1.8-0.1
		c-0.9-1.4,0.7-2.5,1.7-2.3c1,0.2,1.6,0.6,2,1.5c0.7,1.5,0,3-1.1,4.1c-1.4,1.6-3.2,2-5.1,2.3c-0.2,0-0.4,0-0.6,0
		c-0.2-1.6-0.5-3.1-1.2-4.6c-1.5-3.6-4.5-6.1-8-7.3c-0.3-1.3-0.9-2.5-1.8-3.5C685.1,21.7,686.6,19.9,688.5,19z M682.2,22.4
		c-0.2-0.1-0.5-0.3-0.7-0.4c0.6-0.2,1.1-0.4,1.6-0.7c-0.2,0.4-0.4,0.8-0.6,1.2C682.4,22.5,682.3,22.4,682.2,22.4z M677.1,27.4
		c0,0.1,0.1,0.1,0.1,0.2c-0.3,0.1-0.6,0.2-1,0.4c0.2-0.4,0.4-0.8,0.5-1.3C676.9,27,677,27.2,677.1,27.4z M679.1,26.3
		c-0.4-0.8-0.7-1.7-0.7-2.6c0.9,0,1.8,0.2,2.6,0.7c1.9,1,2.8,2.9,3,4.9C682,29.1,680.2,28.3,679.1,26.3z M686.2,31.4
		c0.1-0.6,0.1-1.2,0.1-1.8c2.6,1.1,4.9,3.1,6.1,5.8c0.5,1.1,0.9,2.4,1.1,3.6c-1.1-0.2-2.2-0.5-3.2-1c-2.9-1.3-5-3.8-6-6.6
		C684.9,31.5,685.5,31.5,686.2,31.4z M673.2,33.8c0.9-2,2.9-3.6,5.4-4.4c1,0.9,2.1,1.5,3.4,1.8c1.1,3.7,3.7,6.9,7.5,8.6
		c1.3,0.6,2.7,0.9,4.1,1.1c0,0.1,0,0.1,0,0.2c-0.3,1.9-0.8,3.7-2.3,5.1c-1.1,1-2.6,1.7-4.1,1.1c-0.9-0.4-1.3-1-1.5-2
		c-0.2-1,0.9-2.6,2.3-1.7c-0.8,0.4-0.6,1.6,0.1,1.8c0.5,0.2,1.4-0.1,1.7-0.8c0.4-1-0.6-2.6-1.8-2.8c-1.3-0.3-2.4,0.3-3.1,1.2
		c0.3-0.6,0.6-1.2,0.8-1.9c0.9-3.5-2.1-7.2-4.3-4.9c-0.8,0.8-0.7,2.1,0.1,2.9c1.6,1.5-0.9,5.2-4.9,3.8
		C673.7,41.8,671.6,37.3,673.2,33.8z M677.8,46.2c0.3,0,0.6,0,0.9,0.1c-0.2,0.3-0.5,0.6-0.7,0.9c-0.1,0.1-0.2,0.3-0.2,0.4V46.2z
		 M684.3,46c-0.4-0.4-0.9-0.6-1.4-0.8c0.2-0.1,0.4-0.3,0.6-0.4c0.5-0.4,0.8-0.9,1.2-1.3C684.2,44.1,684.1,45.1,684.3,46z
		 M684.9,75.1c-0.1,3.8-2.7,5.7-4.9,5.7c-1.4,0-2.8-0.8-3.4-1.7c-0.8-1-0.8-2.4-0.2-3.7c0.5-1.2,1.7-2,2.9-1.9
		c0.5,0.1,1.1,0.4,1.5,0.8c0.3,0.4,0.4,0.8,0.2,1.3c-0.2,0.5-0.6,0.9-0.9,0.9c-0.2,0-0.3,0-0.3,0c0,0,0,0,0-0.2
		c0.1-0.5-0.2-1-0.7-1.2c-0.5-0.2-1.1,0.1-1.2,0.6l0,0c-0.2,0.6-0.1,1.5,0.4,2.1c0.6,0.6,1.3,0.8,2,0.7c1.3-0.2,2.2-1.2,2.5-2.2
		c0.2-0.5,0.3-1.1,0.2-1.7c-0.1-0.6-0.4-1.1-0.8-1.5c-0.4-0.4-0.8-0.7-1.2-1c-0.4-0.2-1-0.4-1.5-0.5c-0.6-0.1-1.1,0-1.7,0.2V54.5
		c0.3,0.9,0.6,1.8,0.9,2.7c1.7,4.4,4.2,9.3,5.5,13.4C684.6,72.1,684.9,73.6,684.9,75.1z M683.6,64.2
		C683.6,64.2,683.6,64.2,683.6,64.2c-0.2-0.2-0.3-0.5-0.4-0.8c0-1-0.1-2.1-0.1-3.1c0.1-2.2,0.5-3.1,0.6-3.6c0.4-1.5,2-2.7,3.1-1.5
		c-0.6,0.9-0.1,2.2,1,2c1.3-0.2,1.3-1.6,0.9-2.6c-0.9-2-2.8-1.6-3.5-1.3c-1,0.4-1.8,1.4-2.2,2.3c-0.8,1.7-0.9,3.6-0.8,5.6
		c0,0,0-0.1,0-0.1c-1.3-2.9-2.8-5.9-3.4-8.9c-0.8-4.3,1.8-6.6,3.7-5.8c3.1,1.3,1.2,4.3,0.1,3.3c-0.4-0.3-0.3-0.6-0.3-0.4
		c0.2-0.5,0-1.1-0.5-1.3s-1.1,0-1.3,0.5c-0.9,2.4,3.1,4.6,4.8,1.5c0.4-0.7,0.4-1.4,0.3-2.1c1.4,1.2,3.5,1.3,5.2,0.4
		c1.1-0.6,2-1.5,2.7-2.7c-0.1,0.7-0.3,1.4-0.4,2.1C691.1,54.5,687.6,59.7,683.6,64.2z M718.9,29.3c-4.5,4-9.7,7.5-16.5,9.3
		c-0.7,0.2-1.4,0.3-2.1,0.4c1.1-0.7,2.1-1.6,2.7-2.7c0.9-1.7,0.8-3.8-0.4-5.2c0.7,0.2,1.4,0.1,2.1-0.3c3.2-1.7,0.9-5.7-1.5-4.8
		c-0.5,0.2-0.7,0.8-0.5,1.3c0.2,0.5,0.8,0.7,1.3,0.5c-0.2,0,0-0.2,0.4,0.3c1,1.2-2,3-3.3-0.1c-0.8-2,1.5-4.6,5.8-3.7
		c3,0.6,6,2,8.9,3.4c0,0,0.1,0,0.1,0c-1.9-0.1-3.9,0-5.6,0.8c-1,0.4-1.9,1.2-2.3,2.2c-0.3,0.7-0.7,2.6,1.3,3.5
		c1,0.5,2.3,0.4,2.6-0.9c0.2-1.1-1.1-1.6-2-1c-1.2-1.1-0.1-2.7,1.5-3.1c0.5-0.2,1.4-0.6,3.6-0.6c1.1,0,2.1,0,3.1,0.1
		C718.4,29,718.7,29.2,718.9,29.3C719,29.3,718.9,29.3,718.9,29.3z M729.9,30.7c-1.5,0-3-0.3-4.5-0.7c-4.2-1.2-9-3.8-13.4-5.5
		c-0.8-0.3-1.7-0.6-2.7-0.9h17.3c-0.2,0.5-0.2,1.1-0.2,1.7c0.1,0.5,0.2,1.1,0.5,1.5c0.2,0.4,0.6,0.9,1,1.2c0.4,0.4,0.9,0.6,1.5,0.8
		c0.6,0.1,1.2,0,1.7-0.2c1-0.4,2-1.2,2.2-2.5c0.1-0.6-0.1-1.4-0.7-2c-0.6-0.6-1.5-0.6-2.1-0.4l0,0c-0.5,0.2-0.8,0.7-0.6,1.2
		c0.2,0.5,0.7,0.8,1.2,0.7c0.2-0.1,0.2,0,0.2,0c0,0,0.1,0.1,0,0.3c0,0.3-0.4,0.7-0.9,0.9c-0.5,0.2-0.9,0.1-1.3-0.2
		c-0.4-0.3-0.7-0.9-0.8-1.5c-0.1-1.2,0.6-2.4,1.9-2.9c1.2-0.6,2.6-0.6,3.7,0.2c0.9,0.7,1.7,2.1,1.7,3.4
		C735.6,28,733.7,30.5,729.9,30.7z"/>
	<path class="st1" d="M743,165c1.4,0.4,3.4-0.4,4-1.7c0.6-1.4-0.5-3.1-1.9-2.9c-0.9,0.1-1.5,0.9-1.2,1.8c0.3,0.8,1.7,0.5,1.5-0.4
		c0.6,2.5-2,2.1-2,2.1c-2.2-0.4-2.2-4.1,0.4-5.2c0.6-0.2,1.3-0.3,2-0.4c0.2,0.2,0.4,0.4,0.7,0.6c0.8,0.6,1.8,0.9,2.8,0.9
		c1,0,1.9-0.3,2.8-0.7c0.7-0.4,1.4-0.9,1.9-1.7l23.4-0.8c-1.6,0.9-2.5,2.7-1.9,4.4c0.5,1.3,2.6,3,3.8,1.4c0.8-1.2-0.7-2.8-1.8-1.7
		c-0.2,0.2-0.2,0.5-0.1,0.7c-0.5-0.5-0.7-1.5-0.6-2c0.1-0.7,0.7-1.4,1.4-1.7c1-0.6,2-0.5,3.1-0.2c0.6,1.1,1.4,2,2.3,2.7
		c2.7,2.1,7,3,10.6,1c0.5-0.3,1-0.6,1.4-1c-0.8,2.5-0.2,5.4,2.5,7c0.6,0.3,1-0.5,0.5-0.9c-2.9-2.3-2.4-5.9-0.3-7.9
		c2.2-2.1,5.3-1.6,6.5-0.5c1.2,1.1,1.5,4.3,0,4.2c-1.5,0-1.9-2.1-3.2-0.8c-0.7,0.6-0.6,1.9-0.2,2.7c0.8,1.5,2.7,1.9,4.2,1.2
		c1.7-0.9,2.5-2.9,2.3-4.8c-0.2-1.3-0.7-2.3-1.4-3.1c0.8,0.7,1.9,1.2,3.2,1.2c1.8,0.1,3.9-0.8,4.6-2.6c0.6-1.5,0.1-3.4-1.4-4.1
		c-0.8-0.4-2.1-0.3-2.6,0.3c-1.1,1.4,0.9,1.7,1,3.2c0.1,1.5-3,1.4-4.2,0.3c-1.1-1.1-1.9-4.1,0.1-6.5c1.9-2.3,5.5-3,7.9-0.3
		c0.4,0.5,1.2,0,0.8-0.6c-1.7-2.4-4.2-3-6.5-2.3c0.3-0.4,0.5-0.8,0.7-1.2c1.7-3.7,0.5-7.9-1.8-10.5c-0.8-0.9-1.8-1.6-2.9-2.1
		c-0.4-1-0.5-2.1,0-3.1c0.3-0.7,0.9-1.3,1.6-1.5c0.5-0.1,1.5,0,2.1,0.5c-0.2-0.1-0.5-0.1-0.7,0.2c-1,1.2,0.7,2.6,1.8,1.7
		c1.5-1.3-0.2-3.3-1.6-3.7c-1.8-0.5-3.6,0.5-4.3,2.2l-0.8-23.4c0.7-0.6,1.2-1.3,1.5-2c0.4-0.9,0.6-1.8,0.5-2.8c-0.1-1-0.4-2-1.1-2.7
		c-0.2-0.2-0.4-0.4-0.6-0.6c0-0.7,0.1-1.4,0.3-2c0.9-2.6,4.6-2.9,5.1-0.7c0,0.1,0.5,2.6-2,2.2c0.9,0.1,1.1-1.3,0.3-1.5
		c-0.9-0.3-1.7,0.3-1.7,1.3c0,1.4,1.7,2.3,3,1.7c1.3-0.7,1.9-2.7,1.5-4.1c-0.9-2.7-5.9-3-7.3,1.1c-0.1,0.4-0.2,0.9-0.2,1.3
		c-1-0.6-2.2-0.9-3.4-0.9c-3.4,0.2-6.5,3.2-6.4,7.7c0,1.8,0.5,3.4,1,5c0.5,1.5,1.2,3,1.8,4.4c-4.6,5.2-7.8,10.5-9.6,17.9
		c-0.5,2.2-0.8,4.4-0.7,6.7c0,0.1,0,0.3,0,0.4c-0.3,0-0.6,0-0.9,0c-2.3,0.1-4.5,0.5-6.6,1.2c-7.3,2.3-12.3,5.9-17.2,10.8
		c-1.5-0.6-3-1.1-4.6-1.5c-1.6-0.4-3.3-0.7-5.1-0.7c-4.5,0.2-7.3,3.5-7.3,6.9c0,1.2,0.4,2.4,1.1,3.3c-0.4,0-0.9,0.2-1.3,0.3
		C739.6,159.3,740.2,164.3,743,165z M780.3,148.5c0.9,0.2,1.8,0,2.6-0.5c-0.5,0.4-0.9,0.8-1.3,1.2c-0.1,0.2-0.3,0.4-0.4,0.6
		C781,149.3,780.7,148.8,780.3,148.5z M780.2,154c0,0.3,0,0.6,0.1,0.9l-1.4,0c0.1-0.1,0.3-0.2,0.4-0.2
		C779.7,154.5,780,154.3,780.2,154z M792.9,159.1c-3.4,1.8-8.1-0.2-9.2-3.2c-1.6-4,2.1-6.6,3.6-5c0.8,0.8,2.1,0.8,2.9,0
		c2.2-2.2-1.6-5.1-5.1-4.1c-0.7,0.2-1.3,0.5-1.9,0.9c0.9-0.7,1.4-1.9,1.1-3.1c-0.3-1.2-1.9-2.1-2.9-1.7c-0.7,0.3-0.9,1.2-0.7,1.7
		c0.3,0.7,1.5,0.9,1.8,0.1c1,1.4-0.6,2.5-1.6,2.4c-1-0.2-1.6-0.5-2.1-1.4c-0.7-1.5-0.1-3,0.9-4.2c1.4-1.6,3.1-2.1,5-2.5
		c0.2,0,0.4,0,0.6,0c0.2,1.6,0.7,3.1,1.3,4.5c1.7,3.5,4.8,6,8.2,7c0.4,1.3,1,2.5,1.9,3.4C796.3,156.3,794.8,158.1,792.9,159.1z
		 M799.1,155.5c0.2,0.1,0.5,0.2,0.7,0.3c-0.6,0.2-1.1,0.4-1.6,0.7c0.2-0.4,0.4-0.8,0.5-1.3C798.9,155.4,799,155.4,799.1,155.5z
		 M804,150.3c0-0.1-0.1-0.1-0.1-0.2c0.3-0.1,0.6-0.3,0.9-0.4c-0.2,0.4-0.3,0.8-0.4,1.3C804.3,150.7,804.2,150.5,804,150.3z
		 M802,151.4c0.5,0.8,0.7,1.7,0.8,2.6c-0.9,0-1.8-0.2-2.6-0.6c-2-1-2.9-2.8-3.2-4.8C799.1,148.7,801,149.6,802,151.4z M794.8,146.6
		c0,0.6,0,1.2,0,1.8c-2.7-1-5-2.9-6.3-5.6c-0.6-1.1-0.9-2.3-1.2-3.6c1.1,0.2,2.2,0.5,3.2,0.9c3,1.2,5.2,3.6,6.3,6.4
		C796.1,146.5,795.5,146.5,794.8,146.6z M807.7,143.8c-0.9,2.1-2.8,3.7-5.2,4.6c-1-0.9-2.2-1.4-3.5-1.7c-1.2-3.7-3.9-6.8-7.8-8.3
		c-1.3-0.5-2.7-0.8-4.1-1c0-0.1,0-0.1,0-0.2c0.2-1.9,0.6-3.7,2.2-5.2c1.1-1.1,2.6-1.8,4.1-1.2c0.9,0.4,1.3,1,1.5,2
		c0.2,1-0.8,2.7-2.2,1.8c0.8-0.4,0.5-1.6-0.2-1.8c-0.5-0.2-1.4,0.1-1.7,0.8c-0.3,1,0.6,2.6,1.9,2.8c1.3,0.2,2.4-0.4,3-1.3
		c-0.3,0.6-0.6,1.2-0.7,1.9c-0.8,3.6,2.4,7.1,4.4,4.8c0.7-0.9,0.6-2.1-0.2-2.9c-1.7-1.4,0.7-5.2,4.8-4
		C806.9,135.8,809.3,140.3,807.7,143.8z M802.7,131.5c-0.3,0-0.6,0-0.9,0c0.2-0.3,0.5-0.6,0.7-1c0.1-0.1,0.1-0.3,0.2-0.4
		L802.7,131.5z M796.2,132c0.4,0.3,0.9,0.6,1.4,0.8c-0.2,0.1-0.4,0.3-0.6,0.4c-0.4,0.4-0.8,0.9-1.1,1.4
		C796.4,133.8,796.5,132.9,796.2,132z M794.6,102.9c0-3.8,2.5-5.8,4.7-5.8c1.4-0.1,2.8,0.7,3.5,1.6c0.8,1,0.8,2.4,0.3,3.7
		c-0.5,1.2-1.7,2.1-2.8,1.9c-0.5,0-1.1-0.4-1.5-0.8c-0.4-0.4-0.4-0.8-0.3-1.3c0.2-0.5,0.6-0.9,0.9-0.9c0.2,0,0.3,0,0.3,0
		c0,0,0,0,0,0.2c-0.1,0.5,0.2,1,0.7,1.2c0.5,0.1,1.1-0.2,1.2-0.7l0,0c0.2-0.6,0.1-1.5-0.5-2c-0.6-0.6-1.4-0.7-2-0.6
		c-1.3,0.2-2.1,1.3-2.4,2.3c-0.2,0.5-0.2,1.1-0.1,1.7c0.1,0.6,0.4,1.1,0.8,1.5c0.4,0.4,0.8,0.7,1.3,0.9c0.4,0.2,1,0.4,1.5,0.4
		c0.6,0,1.1,0,1.7-0.2l0.6,17.3c-0.3-0.9-0.6-1.8-1-2.6c-1.8-4.4-4.6-9.1-5.9-13.2C795,105.9,794.7,104.4,794.6,102.9z M796.3,113.8
		C796.3,113.8,796.4,113.8,796.3,113.8c0.2,0.2,0.3,0.5,0.4,0.8c0.1,1,0.2,2.1,0.2,3.1c0,2.2-0.4,3.1-0.5,3.6
		c-0.4,1.5-1.9,2.8-3,1.6c0.5-1,0-2.2-1.1-2c-1.3,0.3-1.3,1.6-0.8,2.6c1,1.9,2.8,1.5,3.5,1.2c1-0.5,1.7-1.4,2.1-2.4
		c0.7-1.7,0.8-3.7,0.6-5.6c0,0,0,0.1,0,0.1c1.4,2.9,3,5.8,3.7,8.8c1,4.2-1.5,6.7-3.5,5.9c-3.1-1.2-1.4-4.3-0.2-3.3
		c0.4,0.3,0.3,0.5,0.3,0.4c-0.2,0.5,0,1.1,0.5,1.3s1.1,0,1.3-0.5c0.9-2.4-3.2-4.5-4.8-1.3c-0.3,0.7-0.4,1.4-0.2,2.1
		c-1.4-1.1-3.5-1.2-5.2-0.2c-1.1,0.6-2,1.6-2.6,2.8c0.1-0.7,0.2-1.4,0.4-2.1C789.2,123.7,792.4,118.4,796.3,113.8z M762.2,149.8
		c4.3-4.2,9.4-7.8,16.2-9.8c0.7-0.2,1.4-0.4,2.1-0.5c-1.1,0.7-2,1.7-2.6,2.8c-0.8,1.7-0.6,3.8,0.6,5.1c-0.7-0.1-1.4-0.1-2.1,0.3
		c-3.1,1.8-0.7,5.7,1.6,4.7c0.5-0.2,0.7-0.8,0.4-1.3c-0.3-0.5-0.8-0.7-1.3-0.4c0.2,0,0,0.2-0.4-0.2c-1-1.2,1.9-3.1,3.3-0.1
		c0.9,1.9-1.4,4.6-5.7,3.9c-3.1-0.5-6-1.8-9-3.1c0,0-0.1,0-0.1,0c1.9,0.1,3.9-0.2,5.5-1c1-0.5,1.9-1.3,2.3-2.3
		c0.3-0.7,0.6-2.6-1.4-3.5c-1-0.4-2.4-0.3-2.6,0.9c-0.2,1.1,1.1,1.5,2,0.9c1.3,1,0.1,2.7-1.4,3.1c-0.5,0.2-1.4,0.6-3.6,0.8
		c-1,0.1-2.1,0-3.1,0C762.7,150.1,762.4,149.9,762.2,149.8C762.2,149.8,762.2,149.8,762.2,149.8z M751.2,148.8
		c1.5-0.1,3,0.2,4.5,0.6c4.2,1.1,9.1,3.5,13.6,5c0.9,0.3,1.8,0.6,2.7,0.8l-17.3,0.6c0.1-0.5,0.2-1.1,0.1-1.7c-0.1-0.5-0.3-1-0.5-1.5
		c-0.3-0.4-0.6-0.8-1-1.2c-0.4-0.3-1-0.6-1.6-0.7c-0.6-0.1-1.2,0-1.7,0.2c-1,0.4-1.9,1.3-2.1,2.6c-0.1,0.6,0.1,1.4,0.7,1.9
		c0.6,0.6,1.5,0.6,2.1,0.4l0,0c0.5-0.2,0.8-0.7,0.6-1.3c-0.2-0.5-0.7-0.8-1.2-0.6c-0.2,0.1-0.2,0-0.2,0c0,0-0.1-0.1-0.1-0.3
		c0-0.3,0.4-0.8,0.9-1c0.5-0.2,0.9-0.1,1.3,0.2c0.4,0.3,0.8,0.9,0.9,1.4c0.2,1.1-0.6,2.4-1.8,3c-1.2,0.6-2.6,0.7-3.7-0.1
		c-1-0.6-1.8-2-1.8-3.4C745.6,151.7,747.4,149.1,751.2,148.8z"/>
	<g>
		<g>
			<path class="st14" d="M758.6,71.5l-25.2-21.2c-0.6-0.5-1.3-0.6-2-0.3l-1.6,7.6l21.4,60.1l3.4,7l5.8-10.1l1.6-31.8L758.6,71.5z"/>
			<path class="st14" d="M748.2,113.5l-37.7-37.7l-6.2,0l0.5,6.5l11,33.7l8.2,8.9h29.9c0.2-0.1,0.4-0.1,0.6-0.2L748.2,113.5z"/>
		</g>
		<g>
			<path class="st15" d="M703.5,77.5c-0.2,0.3-0.2,0.6-0.2,1v30.9c0,0.7,0.3,1.3,0.9,1.8l17.7,13.2c0.4,0.3,0.8,0.4,1.3,0.4h0.9
				l-19.7-49L703.5,77.5z"/>
			<path class="st15" d="M755.1,124.5l22.1-13.2c0.7-0.4,1.1-1.1,1.1-1.9V96.1c0-0.5-0.2-1-0.5-1.4l-17.7-22
				c-0.1-0.1-0.2-0.2-0.3-0.3l-1.2-1l0,0l-4,53.1l0,0C754.7,124.6,754.9,124.5,755.1,124.5z"/>
		</g>
		<path class="st16" d="M731.3,49.9c-0.1,0-0.2,0-0.3,0.1l-17.6,8.8c-0.4,0.2-0.8,0.6-1,1l-8.1,16l50.2,48.8L731.3,49.9z"/>
	</g>
</g>
<g>
	<circle class="st17" cx="47.8" cy="136.2" r="22.1"/>
</g>
<g>
	<circle class="st17" cx="269" cy="136.6" r="22.1"/>
</g>
<g>
	<circle class="st17" cx="484.8" cy="134.7" r="22.1"/>
</g>
<g>
	<circle class="st17" cx="695.8" cy="133.8" r="21.1"/>
</g>
<g>
	<circle class="st0" cx="956.4" cy="89.3" r="64.9"/>
	<path class="st1" d="M954.3,14.7c-1.4-0.4-3.4,0.3-4,1.6c-0.6,1.4,0.4,3.1,1.8,3c0.9-0.1,1.5-0.9,1.2-1.7c-0.3-0.8-1.7-0.5-1.5,0.4
		c-0.5-2.5,2-2.1,2.1-2.1c2.2,0.5,2.1,4.2-0.6,5.1c-0.6,0.2-1.3,0.3-2,0.3c-0.2-0.2-0.4-0.4-0.7-0.6c-0.8-0.6-1.8-0.9-2.8-1
		c-1,0-1.9,0.2-2.8,0.6c-0.8,0.4-1.5,0.9-2,1.6h-23.4c1.6-0.8,2.6-2.6,2.1-4.4c-0.4-1.4-2.5-3.1-3.7-1.5c-0.9,1.1,0.6,2.8,1.7,1.8
		c0.2-0.2,0.3-0.5,0.2-0.7c0.5,0.5,0.7,1.5,0.5,2.1c-0.2,0.7-0.8,1.4-1.4,1.7c-1,0.5-2.1,0.5-3.1,0.1c-0.5-1.1-1.3-2.1-2.2-2.8
		c-2.6-2.2-6.9-3.3-10.5-1.4c-0.5,0.3-1,0.6-1.4,0.9c0.9-2.5,0.4-5.4-2.3-7.1c-0.6-0.4-1,0.4-0.6,0.8c2.8,2.4,2.2,6,0,7.9
		c-2.3,2-5.4,1.4-6.5,0.3c-1.1-1.1-1.3-4.3,0.2-4.2c1.4,0.1,1.9,2.1,3.2,0.9c0.7-0.6,0.7-1.9,0.3-2.7c-0.8-1.5-2.7-2-4.2-1.3
		c-1.8,0.8-2.6,2.9-2.4,4.7c0.1,1.3,0.6,2.3,1.3,3.1c-0.8-0.7-1.9-1.2-3.1-1.3c-1.8-0.2-3.9,0.7-4.7,2.4c-0.7,1.5-0.2,3.4,1.3,4.2
		c0.8,0.4,2.1,0.4,2.7-0.3c1.2-1.3-0.8-1.8-0.9-3.2c-0.1-1.5,3.1-1.3,4.2-0.2c1.1,1.1,1.7,4.2-0.3,6.5c-1.9,2.2-5.6,2.8-7.9,0
		c-0.4-0.5-1.2,0-0.8,0.6c1.6,2.5,4.1,3.1,6.4,2.5c-0.3,0.4-0.5,0.8-0.7,1.2c-1.9,3.6-0.8,7.9,1.4,10.5c0.7,0.9,1.7,1.7,2.8,2.2
		c0.3,1,0.4,2.1-0.1,3.1c-0.3,0.6-1,1.3-1.7,1.4c-0.5,0.1-1.5,0-2.1-0.5c0.2,0.1,0.5,0.1,0.7-0.2c1-1.1-0.6-2.6-1.8-1.7
		c-1.6,1.2,0.1,3.3,1.5,3.7c1.8,0.6,3.6-0.4,4.4-2.1v23.4c-0.7,0.5-1.2,1.2-1.6,2c-0.4,0.9-0.6,1.8-0.6,2.8c0,1,0.4,2,1,2.8
		c0.2,0.2,0.4,0.5,0.6,0.7c0,0.7-0.1,1.4-0.3,2c-1,2.6-4.7,2.8-5.1,0.6c0-0.1-0.4-2.6,2.1-2.1c-0.9-0.2-1.2,1.2-0.4,1.5
		c0.9,0.3,1.7-0.3,1.7-1.2c0.1-1.4-1.6-2.4-3-1.8c-1.4,0.6-2,2.6-1.6,4c0.8,2.8,5.8,3.2,7.4-0.9c0.2-0.4,0.3-0.9,0.3-1.3
		c1,0.6,2.2,1,3.4,1c3.4-0.1,6.6-3,6.7-7.5c0-1.8-0.4-3.4-0.8-5c-0.5-1.6-1.1-3-1.7-4.5c4.7-5.1,8.2-10.2,10.2-17.5
		c0.6-2.1,1-4.4,0.9-6.6c0-0.1,0-0.3,0-0.4c0.3,0,0.6,0,0.9,0c2.3,0,4.5-0.4,6.6-0.9c7.3-2,12.5-5.5,17.5-10.2
		c1.5,0.6,3,1.2,4.5,1.7c1.6,0.5,3.3,0.8,5,0.8c4.5,0,7.4-3.3,7.5-6.7c0-1.2-0.4-2.4-1-3.4c0.4,0,0.9-0.1,1.3-0.3
		C957.5,20.6,957,15.6,954.3,14.7z M916.4,30.1c-0.9-0.2-1.8-0.1-2.6,0.4c0.5-0.3,0.9-0.7,1.3-1.2c0.2-0.2,0.3-0.4,0.4-0.6
		C915.7,29.2,916,29.7,916.4,30.1z M916.7,24.5c0-0.3,0-0.6-0.1-0.9h1.4c-0.1,0.1-0.3,0.1-0.4,0.2C917.2,24,916.9,24.2,916.7,24.5z
		 M904.2,19c3.5-1.7,8.1,0.5,9.1,3.5c1.4,4-2.3,6.5-3.8,4.9c-0.8-0.8-2.1-0.9-2.9-0.1c-2.3,2.1,1.4,5.1,4.9,4.3
		c0.7-0.2,1.3-0.5,1.9-0.8c-0.9,0.7-1.5,1.8-1.2,3.1c0.3,1.2,1.8,2.2,2.8,1.8c0.7-0.3,1-1.2,0.8-1.7c-0.3-0.7-1.4-1-1.8-0.1
		c-0.9-1.4,0.7-2.5,1.7-2.3c1,0.2,1.6,0.6,2,1.5c0.7,1.5,0,3-1.1,4.1c-1.4,1.6-3.2,2-5.1,2.3c-0.2,0-0.4,0-0.6,0
		c-0.2-1.6-0.5-3.1-1.2-4.6c-1.5-3.6-4.5-6.1-8-7.3c-0.3-1.3-0.9-2.5-1.8-3.5C900.7,21.7,902.3,19.9,904.2,19z M897.9,22.4
		c-0.2-0.1-0.5-0.3-0.7-0.4c0.6-0.2,1.1-0.4,1.6-0.7c-0.2,0.4-0.4,0.8-0.6,1.2C898.1,22.5,898,22.4,897.9,22.4z M892.8,27.4
		c0,0.1,0.1,0.1,0.1,0.2c-0.3,0.1-0.6,0.2-1,0.4c0.2-0.4,0.4-0.8,0.5-1.3C892.5,27,892.7,27.2,892.8,27.4z M894.8,26.3
		c-0.4-0.8-0.7-1.7-0.7-2.6c0.9,0,1.8,0.2,2.6,0.7c1.9,1,2.8,2.9,3,4.9C897.7,29.1,895.8,28.3,894.8,26.3z M901.9,31.4
		c0.1-0.6,0.1-1.2,0.1-1.8c2.6,1.1,4.9,3.1,6.1,5.8c0.5,1.1,0.9,2.4,1.1,3.6c-1.1-0.2-2.2-0.5-3.2-1c-2.9-1.3-5-3.8-6-6.6
		C900.5,31.5,901.2,31.5,901.9,31.4z M888.9,33.8c0.9-2,2.9-3.6,5.4-4.4c1,0.9,2.1,1.5,3.4,1.8c1.1,3.7,3.7,6.9,7.5,8.6
		c1.3,0.6,2.7,0.9,4.1,1.1c0,0.1,0,0.1,0,0.2c-0.3,1.9-0.8,3.7-2.3,5.1c-1.1,1-2.6,1.7-4.1,1.1c-0.9-0.4-1.3-1-1.5-2
		c-0.2-1,0.9-2.6,2.3-1.7c-0.8,0.4-0.6,1.6,0.1,1.8c0.5,0.2,1.4-0.1,1.7-0.8c0.4-1-0.6-2.6-1.8-2.8c-1.3-0.3-2.4,0.3-3.1,1.2
		c0.3-0.6,0.6-1.2,0.8-1.9c0.9-3.5-2.1-7.2-4.3-4.9c-0.8,0.8-0.7,2.1,0.1,2.9c1.6,1.5-0.9,5.2-4.9,3.8
		C889.4,41.8,887.2,37.3,888.9,33.8z M893.5,46.2c0.3,0,0.6,0,0.9,0.1c-0.2,0.3-0.5,0.6-0.7,0.9c-0.1,0.1-0.2,0.3-0.2,0.4V46.2z
		 M900,46c-0.4-0.4-0.9-0.6-1.4-0.8c0.2-0.1,0.4-0.3,0.6-0.4c0.5-0.4,0.8-0.9,1.2-1.3C899.9,44.1,899.7,45.1,900,46z M900.6,75.1
		c-0.1,3.8-2.7,5.7-4.9,5.7c-1.4,0-2.8-0.8-3.4-1.7c-0.8-1-0.8-2.4-0.2-3.7c0.5-1.2,1.7-2,2.9-1.9c0.5,0.1,1.1,0.4,1.5,0.8
		c0.3,0.4,0.4,0.8,0.2,1.3c-0.2,0.5-0.6,0.9-0.9,0.9c-0.2,0-0.3,0-0.3,0c0,0,0,0,0-0.2c0.1-0.5-0.2-1-0.7-1.2
		c-0.5-0.2-1.1,0.1-1.2,0.6l0,0c-0.2,0.6-0.1,1.5,0.4,2.1c0.6,0.6,1.3,0.8,2,0.7c1.3-0.2,2.2-1.2,2.5-2.2c0.2-0.5,0.3-1.1,0.2-1.7
		c-0.1-0.6-0.4-1.1-0.8-1.5c-0.4-0.4-0.8-0.7-1.2-1c-0.4-0.2-1-0.4-1.5-0.5c-0.6-0.1-1.1,0-1.7,0.2V54.5c0.3,0.9,0.6,1.8,0.9,2.7
		c1.7,4.4,4.2,9.3,5.5,13.4C900.3,72.1,900.6,73.6,900.6,75.1z M899.2,64.2C899.2,64.2,899.2,64.2,899.2,64.2
		c-0.2-0.2-0.3-0.5-0.4-0.8c0-1-0.1-2.1-0.1-3.1c0.1-2.2,0.5-3.1,0.6-3.6c0.4-1.5,2-2.7,3.1-1.5c-0.6,0.9-0.1,2.2,1,2
		c1.3-0.2,1.3-1.6,0.9-2.6c-0.9-2-2.8-1.6-3.5-1.3c-1,0.4-1.8,1.4-2.2,2.3c-0.8,1.7-0.9,3.6-0.8,5.6c0,0,0-0.1,0-0.1
		c-1.3-2.9-2.8-5.9-3.4-8.9c-0.8-4.3,1.8-6.6,3.7-5.8c3.1,1.3,1.2,4.3,0.1,3.3c-0.4-0.3-0.3-0.6-0.3-0.4c0.2-0.5,0-1.1-0.5-1.3
		s-1.1,0-1.3,0.5c-0.9,2.4,3.1,4.6,4.8,1.5c0.4-0.7,0.4-1.4,0.3-2.1c1.4,1.2,3.5,1.3,5.2,0.4c1.1-0.6,2-1.5,2.7-2.7
		c-0.1,0.7-0.3,1.4-0.4,2.1C906.7,54.5,903.3,59.7,899.2,64.2z M934.6,29.3c-4.5,4-9.7,7.5-16.5,9.3c-0.7,0.2-1.4,0.3-2.1,0.4
		c1.1-0.7,2.1-1.6,2.7-2.7c0.9-1.7,0.8-3.8-0.4-5.2c0.7,0.2,1.4,0.1,2.1-0.3c3.2-1.7,0.9-5.7-1.5-4.8c-0.5,0.2-0.7,0.8-0.5,1.3
		c0.2,0.5,0.8,0.7,1.3,0.5c-0.2,0,0-0.2,0.4,0.3c1,1.2-2,3-3.3-0.1c-0.8-2,1.5-4.6,5.8-3.7c3,0.6,6,2,8.9,3.4c0,0,0.1,0,0.1,0
		c-1.9-0.1-3.9,0-5.6,0.8c-1,0.4-1.9,1.2-2.3,2.2c-0.3,0.7-0.7,2.6,1.3,3.5c1,0.5,2.3,0.4,2.6-0.9c0.2-1.1-1.1-1.6-2-1
		c-1.2-1.1-0.1-2.7,1.5-3.1c0.5-0.2,1.4-0.6,3.6-0.6c1.1,0,2.1,0,3.1,0.1C934,29,934.3,29.2,934.6,29.3
		C934.6,29.3,934.6,29.3,934.6,29.3z M945.5,30.7c-1.5,0-3-0.3-4.5-0.7c-4.2-1.2-9-3.8-13.4-5.5c-0.8-0.3-1.7-0.6-2.7-0.9h17.3
		c-0.2,0.5-0.2,1.1-0.2,1.7c0.1,0.5,0.2,1.1,0.5,1.5c0.2,0.4,0.6,0.9,1,1.2c0.4,0.4,0.9,0.6,1.5,0.8c0.6,0.1,1.2,0,1.7-0.2
		c1-0.4,2-1.2,2.2-2.5c0.1-0.6-0.1-1.4-0.7-2c-0.6-0.6-1.5-0.6-2.1-0.4l0,0c-0.5,0.2-0.8,0.7-0.6,1.2c0.2,0.5,0.7,0.8,1.2,0.7
		c0.2-0.1,0.2,0,0.2,0c0,0,0.1,0.1,0,0.3c0,0.3-0.4,0.7-0.9,0.9c-0.5,0.2-0.9,0.1-1.3-0.2c-0.4-0.3-0.7-0.9-0.8-1.5
		c-0.1-1.2,0.6-2.4,1.9-2.9c1.2-0.6,2.6-0.6,3.7,0.2c0.9,0.7,1.7,2.1,1.7,3.4C951.2,28,949.3,30.5,945.5,30.7z"/>
	<path class="st1" d="M958.6,165c1.4,0.4,3.4-0.4,4-1.7c0.6-1.4-0.5-3.1-1.9-2.9c-0.9,0.1-1.5,0.9-1.2,1.8c0.3,0.8,1.7,0.5,1.5-0.4
		c0.6,2.5-2,2.1-2,2.1c-2.2-0.4-2.2-4.1,0.4-5.2c0.6-0.2,1.3-0.3,2-0.4c0.2,0.2,0.4,0.4,0.7,0.6c0.8,0.6,1.8,0.9,2.8,0.9
		c1,0,1.9-0.3,2.8-0.7c0.7-0.4,1.4-0.9,1.9-1.7l23.4-0.8c-1.6,0.9-2.5,2.7-1.9,4.4c0.5,1.3,2.6,3,3.8,1.4c0.8-1.2-0.7-2.8-1.8-1.7
		c-0.2,0.2-0.2,0.5-0.1,0.7c-0.5-0.5-0.7-1.5-0.6-2c0.1-0.7,0.7-1.4,1.4-1.7c1-0.6,2-0.5,3.1-0.2c0.6,1.1,1.4,2,2.3,2.7
		c2.7,2.1,7,3,10.6,1c0.5-0.3,1-0.6,1.4-1c-0.8,2.5-0.2,5.4,2.5,7c0.6,0.3,1-0.5,0.5-0.9c-2.9-2.3-2.4-5.9-0.3-7.9
		c2.2-2.1,5.3-1.6,6.5-0.5c1.2,1.1,1.5,4.3,0,4.2c-1.5,0-1.9-2.1-3.2-0.8c-0.7,0.6-0.6,1.9-0.2,2.7c0.8,1.5,2.7,1.9,4.2,1.2
		c1.7-0.9,2.5-2.9,2.3-4.8c-0.2-1.3-0.7-2.3-1.4-3.1c0.8,0.7,1.9,1.2,3.2,1.2c1.8,0.1,3.9-0.8,4.6-2.6c0.6-1.5,0.1-3.4-1.4-4.1
		c-0.8-0.4-2.1-0.3-2.6,0.3c-1.1,1.4,0.9,1.7,1,3.2c0.1,1.5-3,1.4-4.2,0.3c-1.1-1.1-1.9-4.1,0.1-6.5c1.9-2.3,5.5-3,7.9-0.3
		c0.4,0.5,1.2,0,0.8-0.6c-1.7-2.4-4.2-3-6.5-2.3c0.3-0.4,0.5-0.8,0.7-1.2c1.7-3.7,0.5-7.9-1.8-10.5c-0.8-0.9-1.8-1.6-2.9-2.1
		c-0.4-1-0.5-2.1,0-3.1c0.3-0.7,0.9-1.3,1.6-1.5c0.5-0.1,1.5,0,2.1,0.5c-0.2-0.1-0.5-0.1-0.7,0.2c-1,1.2,0.7,2.6,1.8,1.7
		c1.5-1.3-0.2-3.3-1.6-3.7c-1.8-0.5-3.6,0.5-4.3,2.2l-0.8-23.4c0.7-0.6,1.2-1.3,1.5-2c0.4-0.9,0.6-1.8,0.5-2.8c-0.1-1-0.4-2-1.1-2.7
		c-0.2-0.2-0.4-0.4-0.6-0.6c0-0.7,0.1-1.4,0.3-2c0.9-2.6,4.6-2.9,5.1-0.7c0,0.1,0.5,2.6-2,2.2c0.9,0.1,1.1-1.3,0.3-1.5
		c-0.9-0.3-1.7,0.3-1.7,1.3c0,1.4,1.7,2.3,3,1.7c1.3-0.7,1.9-2.7,1.5-4.1c-0.9-2.7-5.9-3-7.3,1.1c-0.1,0.4-0.2,0.9-0.2,1.3
		c-1-0.6-2.2-0.9-3.4-0.9c-3.4,0.2-6.5,3.2-6.4,7.7c0,1.8,0.5,3.4,1,5c0.5,1.5,1.2,3,1.8,4.4c-4.6,5.2-7.8,10.5-9.6,17.9
		c-0.5,2.2-0.8,4.4-0.7,6.7c0,0.1,0,0.3,0,0.4c-0.3,0-0.6,0-0.9,0c-2.3,0.1-4.5,0.5-6.6,1.2c-7.3,2.3-12.3,5.9-17.2,10.8
		c-1.5-0.6-3-1.1-4.6-1.5c-1.6-0.4-3.3-0.7-5.1-0.7c-4.5,0.2-7.3,3.5-7.3,6.9c0,1.2,0.4,2.4,1.1,3.3c-0.4,0-0.9,0.2-1.3,0.3
		C955.3,159.3,955.9,164.3,958.6,165z M996,148.5c0.9,0.2,1.8,0,2.6-0.5c-0.5,0.4-0.9,0.8-1.3,1.2c-0.1,0.2-0.3,0.4-0.4,0.6
		C996.7,149.3,996.4,148.8,996,148.5z M995.9,154c0,0.3,0,0.6,0.1,0.9l-1.4,0c0.1-0.1,0.3-0.2,0.4-0.2
		C995.3,154.5,995.6,154.3,995.9,154z M1008.6,159.1c-3.4,1.8-8.1-0.2-9.2-3.2c-1.6-4,2.1-6.6,3.6-5c0.8,0.8,2.1,0.8,2.9,0
		c2.2-2.2-1.6-5.1-5.1-4.1c-0.7,0.2-1.3,0.5-1.9,0.9c0.9-0.7,1.4-1.9,1.1-3.1c-0.3-1.2-1.9-2.1-2.9-1.7c-0.7,0.3-0.9,1.2-0.7,1.7
		c0.3,0.7,1.5,0.9,1.8,0.1c1,1.4-0.6,2.5-1.6,2.4c-1-0.2-1.6-0.5-2.1-1.4c-0.7-1.5-0.1-3,0.9-4.2c1.4-1.6,3.1-2.1,5-2.5
		c0.2,0,0.4,0,0.6,0c0.2,1.6,0.7,3.1,1.3,4.5c1.7,3.5,4.8,6,8.2,7c0.4,1.3,1,2.5,1.9,3.4C1011.9,156.3,1010.4,158.1,1008.6,159.1z
		 M1014.8,155.5c0.2,0.1,0.5,0.2,0.7,0.3c-0.6,0.2-1.1,0.4-1.6,0.7c0.2-0.4,0.4-0.8,0.5-1.3C1014.6,155.4,1014.7,155.4,1014.8,155.5
		z M1019.7,150.3c0-0.1-0.1-0.1-0.1-0.2c0.3-0.1,0.6-0.3,0.9-0.4c-0.2,0.4-0.3,0.8-0.4,1.3C1019.9,150.7,1019.8,150.5,1019.7,150.3z
		 M1017.7,151.4c0.5,0.8,0.7,1.7,0.8,2.6c-0.9,0-1.8-0.2-2.6-0.6c-2-1-2.9-2.8-3.2-4.8C1014.7,148.7,1016.6,149.6,1017.7,151.4z
		 M1010.5,146.6c0,0.6,0,1.2,0,1.8c-2.7-1-5-2.9-6.3-5.6c-0.6-1.1-0.9-2.3-1.2-3.6c1.1,0.2,2.2,0.5,3.2,0.9c3,1.2,5.2,3.6,6.3,6.4
		C1011.8,146.5,1011.1,146.5,1010.5,146.6z M1023.3,143.8c-0.9,2.1-2.8,3.7-5.2,4.6c-1-0.9-2.2-1.4-3.5-1.7
		c-1.2-3.7-3.9-6.8-7.8-8.3c-1.3-0.5-2.7-0.8-4.1-1c0-0.1,0-0.1,0-0.2c0.2-1.9,0.6-3.7,2.2-5.2c1.1-1.1,2.6-1.8,4.1-1.2
		c0.9,0.4,1.3,1,1.5,2c0.2,1-0.8,2.7-2.2,1.8c0.8-0.4,0.5-1.6-0.2-1.8c-0.5-0.2-1.4,0.1-1.7,0.8c-0.3,1,0.6,2.6,1.9,2.8
		c1.3,0.2,2.4-0.4,3-1.3c-0.3,0.6-0.6,1.2-0.7,1.9c-0.8,3.6,2.4,7.1,4.4,4.8c0.7-0.9,0.6-2.1-0.2-2.9c-1.7-1.4,0.7-5.2,4.8-4
		C1022.6,135.8,1024.9,140.3,1023.3,143.8z M1018.4,131.5c-0.3,0-0.6,0-0.9,0c0.2-0.3,0.5-0.6,0.7-1c0.1-0.1,0.1-0.3,0.2-0.4
		L1018.4,131.5z M1011.9,132c0.4,0.3,0.9,0.6,1.4,0.8c-0.2,0.1-0.4,0.3-0.6,0.4c-0.4,0.4-0.8,0.9-1.1,1.4
		C1012,133.8,1012.2,132.9,1011.9,132z M1010.3,102.9c0-3.8,2.5-5.8,4.7-5.8c1.4-0.1,2.8,0.7,3.5,1.6c0.8,1,0.8,2.4,0.3,3.7
		c-0.5,1.2-1.7,2.1-2.8,1.9c-0.5,0-1.1-0.4-1.5-0.8c-0.4-0.4-0.4-0.8-0.3-1.3c0.2-0.5,0.6-0.9,0.9-0.9c0.2,0,0.3,0,0.3,0
		c0,0,0,0,0,0.2c-0.1,0.5,0.2,1,0.7,1.2c0.5,0.1,1.1-0.2,1.2-0.7l0,0c0.2-0.6,0.1-1.5-0.5-2c-0.6-0.6-1.4-0.7-2-0.6
		c-1.3,0.2-2.1,1.3-2.4,2.3c-0.2,0.5-0.2,1.1-0.1,1.7c0.1,0.6,0.4,1.1,0.8,1.5c0.4,0.4,0.8,0.7,1.3,0.9c0.4,0.2,1,0.4,1.5,0.4
		c0.6,0,1.1,0,1.7-0.2l0.6,17.3c-0.3-0.9-0.6-1.8-1-2.6c-1.8-4.4-4.6-9.1-5.9-13.2C1010.7,105.9,1010.3,104.4,1010.3,102.9z
		 M1012,113.8C1012,113.8,1012,113.8,1012,113.8c0.2,0.2,0.3,0.5,0.4,0.8c0.1,1,0.2,2.1,0.2,3.1c0,2.2-0.4,3.1-0.5,3.6
		c-0.4,1.5-1.9,2.8-3,1.6c0.5-1,0-2.2-1.1-2c-1.3,0.3-1.3,1.6-0.8,2.6c1,1.9,2.8,1.5,3.5,1.2c1-0.5,1.7-1.4,2.1-2.4
		c0.7-1.7,0.8-3.7,0.6-5.6c0,0,0,0.1,0,0.1c1.4,2.9,3,5.8,3.7,8.8c1,4.2-1.5,6.7-3.5,5.9c-3.1-1.2-1.4-4.3-0.2-3.3
		c0.4,0.3,0.3,0.5,0.3,0.4c-0.2,0.5,0,1.1,0.5,1.3s1.1,0,1.3-0.5c0.9-2.4-3.2-4.5-4.8-1.3c-0.3,0.7-0.4,1.4-0.2,2.1
		c-1.4-1.1-3.5-1.2-5.2-0.2c-1.1,0.6-2,1.6-2.6,2.8c0.1-0.7,0.2-1.4,0.4-2.1C1004.8,123.7,1008.1,118.4,1012,113.8z M977.8,149.8
		c4.3-4.2,9.4-7.8,16.2-9.8c0.7-0.2,1.4-0.4,2.1-0.5c-1.1,0.7-2,1.7-2.6,2.8c-0.8,1.7-0.6,3.8,0.6,5.1c-0.7-0.1-1.4-0.1-2.1,0.3
		c-3.1,1.8-0.7,5.7,1.6,4.7c0.5-0.2,0.7-0.8,0.4-1.3c-0.3-0.5-0.8-0.7-1.3-0.4c0.2,0,0,0.2-0.4-0.2c-1-1.2,1.9-3.1,3.3-0.1
		c0.9,1.9-1.4,4.6-5.7,3.9c-3.1-0.5-6-1.8-9-3.1c0,0-0.1,0-0.1,0c1.9,0.1,3.9-0.2,5.5-1c1-0.5,1.9-1.3,2.3-2.3
		c0.3-0.7,0.6-2.6-1.4-3.5c-1-0.4-2.4-0.3-2.6,0.9c-0.2,1.1,1.1,1.5,2,0.9c1.3,1,0.1,2.7-1.4,3.1c-0.5,0.2-1.4,0.6-3.6,0.8
		c-1,0.1-2.1,0-3.1,0C978.4,150.1,978.1,149.9,977.8,149.8C977.8,149.8,977.8,149.8,977.8,149.8z M966.8,148.8
		c1.5-0.1,3,0.2,4.5,0.6c4.2,1.1,9.1,3.5,13.6,5c0.9,0.3,1.8,0.6,2.7,0.8l-17.3,0.6c0.1-0.5,0.2-1.1,0.1-1.7c-0.1-0.5-0.3-1-0.5-1.5
		c-0.3-0.4-0.6-0.8-1-1.2c-0.4-0.3-1-0.6-1.6-0.7c-0.6-0.1-1.2,0-1.7,0.2c-1,0.4-1.9,1.3-2.1,2.6c-0.1,0.6,0.1,1.4,0.7,1.9
		c0.6,0.6,1.5,0.6,2.1,0.4l0,0c0.5-0.2,0.8-0.7,0.6-1.3c-0.2-0.5-0.7-0.8-1.2-0.6c-0.2,0.1-0.2,0-0.2,0c0,0-0.1-0.1-0.1-0.3
		c0-0.3,0.4-0.8,0.9-1c0.5-0.2,0.9-0.1,1.3,0.2c0.4,0.3,0.8,0.9,0.9,1.4c0.2,1.1-0.6,2.4-1.8,3c-1.2,0.6-2.6,0.7-3.7-0.1
		c-1-0.6-1.8-2-1.8-3.4C961.3,151.7,963,149.1,966.8,148.8z"/>
	<g>
		<path class="st18" d="M955.2,116.5c-2.7-0.1-5.3-0.2-8-0.8c-0.6-0.1-1.1-0.1-1.2,0.7c-0.3-1.2-1.4-1.5-2.4-1.8
			c-5.1-1.5-9.1-4.4-11.7-9.3c-1.1-2.1-1.5-4.5-2.6-6.5c-0.3-3-0.9-6.1-0.8-9.1c0-1.2,0.1-2.5,0.1-3.7c0.6-4.2,1.4-8.3,2.6-12.4
			c1.1-2.4,2.1-4.7,3.2-7.1c3.5-5.9,8.2-10.7,13.6-14.8c0.6-0.4,1.2-0.7,1.9-1.1c-0.7,2.2-1.7,4.3-1.6,6.7c0.4,6,2.9,11.1,6.1,16
			c5.5,8.3,12.6,15,21.5,19.6c5.9,3.1,12,5.3,18.6,1.8c-2.5,4.7-6.4,8.2-10.3,11.7c-1.3,1.2-3,2.1-4.4,3.1c-0.2-0.1-0.3,0-0.3,0.2
			c-0.4,0.3-0.8,0.6-1.2,1c-1.7,0.8-3.4,1.5-5,2.3c-4.8,1.7-9.7,2.8-14.7,3.5C957.4,116.5,956.3,116.5,955.2,116.5z M966.1,101.7
			c1.8,0.4,3.3-0.6,4.7-1.9c0.6-0.6,0.7-1.3,0.1-1.9c-0.5-0.6-1.1-0.6-1.8-0.2c-0.4,0.2-0.7,0.5-1.1,0.7c-1.8,1-3.9,0.7-5.2-0.7
			c-1.4-1.6-1.6-3.6-0.3-5.3c0.6-0.8,1-1.5,0.4-2.3c-0.7-0.9-1.6-0.3-2.4,0.2c-2.3,1.4-3.7,1.2-5.6-0.6c-1.4-1.4-1.6-3.1-0.5-5.2
			c0.5-0.8,1.1-1.7,0.4-2.5c-0.9-0.9-1.7-0.2-2.6,0.3c-2.2,1.3-3.7,1.1-5.3-0.6c-1.5-1.6-1.6-3.4-0.2-5.7c0.5-0.8,1-1.5,0-2.2
			c-0.9-0.7-1.6-0.1-2.2,0.5c-1.9,2-1.8,4.4-1.3,6.9c0.2,0.8,0.3,1.3,0.1,2.2c-0.5,2-0.7,4.2,0.1,6.3c0.3,0.7,0.4,1.4,0.1,2.1
			c-0.7,1.9-0.9,3.9,0,5.8c0.3,0.6,0.1,1-0.6,1.1c-2.6,0.5-4.3-0.7-5.1-3.2c-0.5-1.6,0.2-2.5,1.1-3.6c0.5-0.7,0.7-1.5-0.1-2.1
			c-0.8-0.5-1.6-0.5-2.2,0.3c-3.2,3.8-1.6,9.9,3.1,11.1c2.3,0.6,3.4,1.6,3.8,3.8c0,0.1,0.1,0.2,0.1,0.4c1.6,4.8,7.2,5.2,10.1,3.3
			c1-0.6,2.1-1.5,1.3-2.8c-0.9-1.4-1.9-0.3-2.8,0.3c-3,2.1-5.8-0.3-6.5-2.8c-0.4-1.5,0.5-2.3,2-2c1.8,0.4,3.6,0.4,5.4-0.2
			c0.5-0.2,1-0.4,1.6-0.1c2.1,1.1,4.3,0.7,6.4,0.1c0.7-0.2,1.3-0.4,1.9,0C963.9,101.8,964.9,101.8,966.1,101.7z M963.8,93.3
			c0,5.9-4.8,10.6-10.7,10.6c-5.9,0-10.7-4.7-10.7-10.6c0-5.9,4.8-10.6,10.7-10.6C959,82.7,963.8,87.4,963.8,93.3z"/>
		<ellipse class="st19" cx="965.8" cy="64.3" rx="9.1" ry="8.8"/>
		<path class="st20" d="M994.4,94.7c-6.6,3.6-12.7,1.3-18.6-1.8c-2.8-1.4-4.7-2.6-7.4-4.6c-3.2-2.4-9.4-7-14.5-15.1
			c-4.9-7.8-5.6-13.5-5.7-15.9c-0.2-4,0.7-6,1.8-7.2c1.3-1.4,3.1-1.9,4-2.2c2.4-0.7,4.4-0.6,5.5-0.4c0.4,0.1,1.1,0.2,1.8,0.3
			c6.2,1.3,10.6,4.3,14.7,7.2c1.6,1.2,3.8,2.8,6.3,5c1.5,1.6,3.1,3.2,4.6,4.8c0.8,1,1.5,1.9,2.3,2.9c0.7,1.1,1.5,2.3,2.2,3.5
			c2.8,4.8,4.6,9.5,5.8,13.7c0.2,0.9,0.8,3.4-0.3,6.2C996.3,92.9,995.1,94.1,994.4,94.7z M971.8,67.5c0-3.1-3.4-7.2-6.8-8.2
			c-1.4-0.4-2.8-0.6-3.9,0.6c-1.1,1.2-1,2.6-0.5,3.9c1.3,3.4,3.7,5.7,7.2,6.7C970,71.2,971.8,69.8,971.8,67.5z"/>
		<path class="st21" d="M929.2,98.8c1.2,2,1.5,4.4,2.6,6.5c2.6,4.9,6.6,7.8,11.7,9.3c1,0.3,2.1,0.5,2.4,1.8c0.2,4.5-1,8.5-3.7,12
			c-0.6,0.8-1,1-1.4,1.1c-1.3,0.3-2.5-0.7-4.7-2.5c-1.6-1.4-3-2.6-4.1-4.7c-0.3-0.5-0.7-1.4-1-2.6c-0.8-3,0.2-4.1-0.7-5.1
			c-0.7-0.7-1.6,0-5-0.8c-0.8-0.2-1.1-0.3-1.3-0.4c-1.5-0.5-2.5-1.4-3.1-2c-0.9-0.8-1.8-1.6-2.7-2.4c-0.6-0.7-1.8-2.2-2.7-3.8
			c-0.2-0.3-0.5-0.8-0.3-1.4c0.1-0.5,0.5-0.9,0.8-1.1c3.7-2.8,9.5-3.6,9.5-3.6C926.3,99,927.6,98.9,929.2,98.8z"/>
		<path class="st22" d="M966.1,101.7c-1.2,0-2.2,0.1-3.1-0.5c-0.6-0.4-1.3-0.2-1.9,0c-2.1,0.6-4.3,0.9-6.4-0.1
			c-0.5-0.3-1.1-0.1-1.6,0.1c-1.8,0.7-3.6,0.6-5.4,0.2c-1.5-0.3-2.4,0.5-2,2c0.7,2.5,3.5,5,6.5,2.8c0.8-0.6,1.9-1.7,2.8-0.3
			c0.8,1.3-0.3,2.2-1.3,2.8c-2.9,1.9-8.5,1.5-10.1-3.3c0-0.1-0.1-0.2-0.1-0.4c-0.3-2.2-1.5-3.2-3.8-3.8c-4.7-1.2-6.3-7.3-3.1-11.1
			c0.7-0.8,1.5-0.8,2.2-0.3c0.9,0.6,0.7,1.4,0.1,2.1c-0.9,1.1-1.6,2-1.1,3.6c0.8,2.5,2.5,3.7,5.1,3.2c0.8-0.1,0.9-0.5,0.6-1.1
			c-0.9-2-0.7-3.9,0-5.8c0.3-0.7,0.2-1.4-0.1-2.1c-0.8-2.1-0.6-4.2-0.1-6.3c0.2-0.9,0.1-1.4-0.1-2.2c-0.5-2.4-0.6-4.8,1.3-6.9
			c0.6-0.7,1.3-1.2,2.2-0.5c1,0.7,0.5,1.4,0,2.2c-1.4,2.3-1.3,4.1,0.2,5.7c1.6,1.7,3.1,1.9,5.3,0.6c0.9-0.5,1.7-1.2,2.6-0.3
			c0.8,0.8,0.1,1.7-0.4,2.5c-1.2,2.1-1,3.7,0.5,5.2c1.8,1.8,3.3,2,5.6,0.6c0.8-0.5,1.7-1,2.4-0.2c0.6,0.7,0.2,1.5-0.4,2.3
			c-1.3,1.7-1.1,3.8,0.3,5.3c1.2,1.4,3.3,1.7,5.2,0.7c0.4-0.2,0.7-0.5,1.1-0.7c0.6-0.4,1.3-0.4,1.8,0.2c0.6,0.7,0.5,1.4-0.1,1.9
			C969.4,101.2,967.9,102.1,966.1,101.7z M950.3,99.1c0.4-0.4,1.7,0.1,1.5-1.2c-0.3-2.9-1-3.6-3.9-4.4c-0.2,0-0.4-0.1-0.5-0.2
			c-1.3-0.6-1.6,0.1-1.7,1.2C945.5,96.8,947.8,99.2,950.3,99.1z M950.3,91.1c1-0.1,2-0.2,1.1-1.8c-0.3-0.5-0.5-1.1-0.4-1.6
			c0.3-1.7-0.8-1.9-2-2.1c-0.4,0-0.7-0.1-1.1-0.2c-1.5-0.3-2.3,0.4-2.1,1.9C946,89.3,948.1,91.1,950.3,91.1z M955,93.1
			c-0.7-0.1-0.9,0.3-1.1,0.7c-0.5,1.5,0.1,2.8,1.1,3.8c0.9,1,2.1,1.6,3.6,1.3c0.9-0.2,1.2-0.6,0.9-1.6c-0.3-0.9-0.4-1.9-0.6-2.8
			c-0.1-0.4-0.1-0.7-0.6-0.8C957.1,93.6,955.8,94,955,93.1z"/>
	</g>
</g>
<g>
	<circle class="st17" cx="904.9" cy="134.5" r="21.1"/>
</g>
<g>
	<circle class="st0" cx="1172.1" cy="89.3" r="64.9"/>
	<path class="st1" d="M1169.9,14.7c-1.4-0.4-3.4,0.3-4,1.6c-0.6,1.4,0.4,3.1,1.8,3c0.9-0.1,1.5-0.9,1.2-1.7
		c-0.3-0.8-1.7-0.5-1.5,0.4c-0.5-2.5,2-2.1,2.1-2.1c2.2,0.5,2.1,4.2-0.6,5.1c-0.6,0.2-1.3,0.3-2,0.3c-0.2-0.2-0.4-0.4-0.7-0.6
		c-0.8-0.6-1.8-0.9-2.8-1c-1,0-1.9,0.2-2.8,0.6c-0.8,0.4-1.5,0.9-2,1.6h-23.4c1.6-0.8,2.6-2.6,2.1-4.4c-0.4-1.4-2.5-3.1-3.7-1.5
		c-0.9,1.1,0.6,2.8,1.7,1.8c0.2-0.2,0.3-0.5,0.2-0.7c0.5,0.5,0.7,1.5,0.5,2.1c-0.2,0.7-0.8,1.4-1.4,1.7c-1,0.5-2.1,0.5-3.1,0.1
		c-0.5-1.1-1.3-2.1-2.2-2.8c-2.6-2.2-6.9-3.3-10.5-1.4c-0.5,0.3-1,0.6-1.4,0.9c0.9-2.5,0.4-5.4-2.3-7.1c-0.6-0.4-1,0.4-0.6,0.8
		c2.8,2.4,2.2,6,0,7.9c-2.3,2-5.4,1.4-6.5,0.3c-1.1-1.1-1.3-4.3,0.2-4.2c1.4,0.1,1.9,2.1,3.2,0.9c0.7-0.6,0.7-1.9,0.3-2.7
		c-0.8-1.5-2.7-2-4.2-1.3c-1.8,0.8-2.6,2.9-2.4,4.7c0.1,1.3,0.6,2.3,1.3,3.1c-0.8-0.7-1.9-1.2-3.1-1.3c-1.8-0.2-3.9,0.7-4.7,2.4
		c-0.7,1.5-0.2,3.4,1.3,4.2c0.8,0.4,2.1,0.4,2.7-0.3c1.2-1.3-0.8-1.8-0.9-3.2c-0.1-1.5,3.1-1.3,4.2-0.2c1.1,1.1,1.7,4.2-0.3,6.5
		c-1.9,2.2-5.6,2.8-7.9,0c-0.4-0.5-1.2,0-0.8,0.6c1.6,2.5,4.1,3.1,6.4,2.5c-0.3,0.4-0.5,0.8-0.7,1.2c-1.9,3.6-0.8,7.9,1.4,10.5
		c0.7,0.9,1.7,1.7,2.8,2.2c0.3,1,0.4,2.1-0.1,3.1c-0.3,0.6-1,1.3-1.7,1.4c-0.5,0.1-1.5,0-2.1-0.5c0.2,0.1,0.5,0.1,0.7-0.2
		c1-1.1-0.6-2.6-1.8-1.7c-1.6,1.2,0.1,3.3,1.5,3.7c1.8,0.6,3.6-0.4,4.4-2.1v23.4c-0.7,0.5-1.2,1.2-1.6,2c-0.4,0.9-0.6,1.8-0.6,2.8
		c0,1,0.4,2,1,2.8c0.2,0.2,0.4,0.5,0.6,0.7c0,0.7-0.1,1.4-0.3,2c-1,2.6-4.7,2.8-5.1,0.6c0-0.1-0.4-2.6,2.1-2.1
		c-0.9-0.2-1.2,1.2-0.4,1.5c0.9,0.3,1.7-0.3,1.7-1.2c0.1-1.4-1.6-2.4-3-1.8c-1.4,0.6-2,2.6-1.6,4c0.8,2.8,5.8,3.2,7.4-0.9
		c0.2-0.4,0.3-0.9,0.3-1.3c1,0.6,2.2,1,3.4,1c3.4-0.1,6.6-3,6.7-7.5c0-1.8-0.4-3.4-0.8-5c-0.5-1.6-1.1-3-1.7-4.5
		c4.7-5.1,8.2-10.2,10.2-17.5c0.6-2.1,1-4.4,0.9-6.6c0-0.1,0-0.3,0-0.4c0.3,0,0.6,0,0.9,0c2.3,0,4.5-0.4,6.6-0.9
		c7.3-2,12.5-5.5,17.5-10.2c1.5,0.6,3,1.2,4.5,1.7c1.6,0.5,3.3,0.8,5,0.8c4.5,0,7.4-3.3,7.5-6.7c0-1.2-0.4-2.4-1-3.4
		c0.4,0,0.9-0.1,1.3-0.3C1173.1,20.6,1172.7,15.6,1169.9,14.7z M1132,30.1c-0.9-0.2-1.8-0.1-2.6,0.4c0.5-0.3,0.9-0.7,1.3-1.2
		c0.2-0.2,0.3-0.4,0.4-0.6C1131.4,29.2,1131.7,29.7,1132,30.1z M1132.3,24.5c0-0.3,0-0.6-0.1-0.9h1.4c-0.1,0.1-0.3,0.1-0.4,0.2
		C1132.9,24,1132.6,24.2,1132.3,24.5z M1119.8,19c3.5-1.7,8.1,0.5,9.1,3.5c1.4,4-2.3,6.5-3.8,4.9c-0.8-0.8-2.1-0.9-2.9-0.1
		c-2.3,2.1,1.4,5.1,4.9,4.3c0.7-0.2,1.3-0.5,1.9-0.8c-0.9,0.7-1.5,1.8-1.2,3.1c0.3,1.2,1.8,2.2,2.8,1.8c0.7-0.3,1-1.2,0.8-1.7
		c-0.3-0.7-1.4-1-1.8-0.1c-0.9-1.4,0.7-2.5,1.7-2.3c1,0.2,1.6,0.6,2,1.5c0.7,1.5,0,3-1.1,4.1c-1.4,1.6-3.2,2-5.1,2.3
		c-0.2,0-0.4,0-0.6,0c-0.2-1.6-0.5-3.1-1.2-4.6c-1.5-3.6-4.5-6.1-8-7.3c-0.3-1.3-0.9-2.5-1.8-3.5C1116.4,21.7,1117.9,19.9,1119.8,19
		z M1113.5,22.4c-0.2-0.1-0.5-0.3-0.7-0.4c0.6-0.2,1.1-0.4,1.6-0.7c-0.2,0.4-0.4,0.8-0.6,1.2C1113.7,22.5,1113.6,22.4,1113.5,22.4z
		 M1108.4,27.4c0,0.1,0.1,0.1,0.1,0.2c-0.3,0.1-0.6,0.2-1,0.4c0.2-0.4,0.4-0.8,0.5-1.3C1108.2,27,1108.3,27.2,1108.4,27.4z
		 M1110.5,26.3c-0.4-0.8-0.7-1.7-0.7-2.6c0.9,0,1.8,0.2,2.6,0.7c1.9,1,2.8,2.9,3,4.9C1113.3,29.1,1111.5,28.3,1110.5,26.3z
		 M1117.5,31.4c0.1-0.6,0.1-1.2,0.1-1.8c2.6,1.1,4.9,3.1,6.1,5.8c0.5,1.1,0.9,2.4,1.1,3.6c-1.1-0.2-2.2-0.5-3.2-1
		c-2.9-1.3-5-3.8-6-6.6C1116.2,31.5,1116.8,31.5,1117.5,31.4z M1104.5,33.8c0.9-2,2.9-3.6,5.4-4.4c1,0.9,2.1,1.5,3.4,1.8
		c1.1,3.7,3.7,6.9,7.5,8.6c1.3,0.6,2.7,0.9,4.1,1.1c0,0.1,0,0.1,0,0.2c-0.3,1.9-0.8,3.7-2.3,5.1c-1.1,1-2.6,1.7-4.1,1.1
		c-0.9-0.4-1.3-1-1.5-2c-0.2-1,0.9-2.6,2.3-1.7c-0.8,0.4-0.6,1.6,0.1,1.8c0.5,0.2,1.4-0.1,1.7-0.8c0.4-1-0.6-2.6-1.8-2.8
		c-1.3-0.3-2.4,0.3-3.1,1.2c0.3-0.6,0.6-1.2,0.8-1.9c0.9-3.5-2.1-7.2-4.3-4.9c-0.8,0.8-0.7,2.1,0.1,2.9c1.6,1.5-0.9,5.2-4.9,3.8
		C1105,41.8,1102.9,37.3,1104.5,33.8z M1109.1,46.2c0.3,0,0.6,0,0.9,0.1c-0.2,0.3-0.5,0.6-0.7,0.9c-0.1,0.1-0.2,0.3-0.2,0.4V46.2z
		 M1115.6,46c-0.4-0.4-0.9-0.6-1.4-0.8c0.2-0.1,0.4-0.3,0.6-0.4c0.5-0.4,0.8-0.9,1.2-1.3C1115.5,44.1,1115.4,45.1,1115.6,46z
		 M1116.2,75.1c-0.1,3.8-2.7,5.7-4.9,5.7c-1.4,0-2.8-0.8-3.4-1.7c-0.8-1-0.8-2.4-0.2-3.7c0.5-1.2,1.7-2,2.9-1.9
		c0.5,0.1,1.1,0.4,1.5,0.8c0.3,0.4,0.4,0.8,0.2,1.3c-0.2,0.5-0.6,0.9-0.9,0.9c-0.2,0-0.3,0-0.3,0c0,0,0,0,0-0.2
		c0.1-0.5-0.2-1-0.7-1.2c-0.5-0.2-1.1,0.1-1.2,0.6l0,0c-0.2,0.6-0.1,1.5,0.4,2.1c0.6,0.6,1.3,0.8,2,0.7c1.3-0.2,2.2-1.2,2.5-2.2
		c0.2-0.5,0.3-1.1,0.2-1.7c-0.1-0.6-0.4-1.1-0.8-1.5c-0.4-0.4-0.8-0.7-1.2-1c-0.4-0.2-1-0.4-1.5-0.5c-0.6-0.1-1.1,0-1.7,0.2V54.5
		c0.3,0.9,0.6,1.8,0.9,2.7c1.7,4.4,4.2,9.3,5.5,13.4C1115.9,72.1,1116.2,73.6,1116.2,75.1z M1114.9,64.2
		C1114.9,64.2,1114.9,64.2,1114.9,64.2c-0.2-0.2-0.3-0.5-0.4-0.8c0-1-0.1-2.1-0.1-3.1c0.1-2.2,0.5-3.1,0.6-3.6
		c0.4-1.5,2-2.7,3.1-1.5c-0.6,0.9-0.1,2.2,1,2c1.3-0.2,1.3-1.6,0.9-2.6c-0.9-2-2.8-1.6-3.5-1.3c-1,0.4-1.8,1.4-2.2,2.3
		c-0.8,1.7-0.9,3.6-0.8,5.6c0,0,0-0.1,0-0.1c-1.3-2.9-2.8-5.9-3.4-8.9c-0.8-4.3,1.8-6.6,3.7-5.8c3.1,1.3,1.2,4.3,0.1,3.3
		c-0.4-0.3-0.3-0.6-0.3-0.4c0.2-0.5,0-1.1-0.5-1.3s-1.1,0-1.3,0.5c-0.9,2.4,3.1,4.6,4.8,1.5c0.4-0.7,0.4-1.4,0.3-2.1
		c1.4,1.2,3.5,1.3,5.2,0.4c1.1-0.6,2-1.5,2.7-2.7c-0.1,0.7-0.3,1.4-0.4,2.1C1122.4,54.5,1118.9,59.7,1114.9,64.2z M1150.2,29.3
		c-4.5,4-9.7,7.5-16.5,9.3c-0.7,0.2-1.4,0.3-2.1,0.4c1.1-0.7,2.1-1.6,2.7-2.7c0.9-1.7,0.8-3.8-0.4-5.2c0.7,0.2,1.4,0.1,2.1-0.3
		c3.2-1.7,0.9-5.7-1.5-4.8c-0.5,0.2-0.7,0.8-0.5,1.3c0.2,0.5,0.8,0.7,1.3,0.5c-0.2,0,0-0.2,0.4,0.3c1,1.2-2,3-3.3-0.1
		c-0.8-2,1.5-4.6,5.8-3.7c3,0.6,6,2,8.9,3.4c0,0,0.1,0,0.1,0c-1.9-0.1-3.9,0-5.6,0.8c-1,0.4-1.9,1.2-2.3,2.2
		c-0.3,0.7-0.7,2.6,1.3,3.5c1,0.5,2.3,0.4,2.6-0.9c0.2-1.1-1.1-1.6-2-1c-1.2-1.1-0.1-2.7,1.5-3.1c0.5-0.2,1.4-0.6,3.6-0.6
		c1.1,0,2.1,0,3.1,0.1C1149.7,29,1150,29.2,1150.2,29.3C1150.3,29.3,1150.2,29.3,1150.2,29.3z M1161.2,30.7c-1.5,0-3-0.3-4.5-0.7
		c-4.2-1.2-9-3.8-13.4-5.5c-0.8-0.3-1.7-0.6-2.7-0.9h17.3c-0.2,0.5-0.2,1.1-0.2,1.7c0.1,0.5,0.2,1.1,0.5,1.5c0.2,0.4,0.6,0.9,1,1.2
		c0.4,0.4,0.9,0.6,1.5,0.8c0.6,0.1,1.2,0,1.7-0.2c1-0.4,2-1.2,2.2-2.5c0.1-0.6-0.1-1.4-0.7-2c-0.6-0.6-1.5-0.6-2.1-0.4l0,0
		c-0.5,0.2-0.8,0.7-0.6,1.2c0.2,0.5,0.7,0.8,1.2,0.7c0.2-0.1,0.2,0,0.2,0c0,0,0.1,0.1,0,0.3c0,0.3-0.4,0.7-0.9,0.9
		c-0.5,0.2-0.9,0.1-1.3-0.2c-0.4-0.3-0.7-0.9-0.8-1.5c-0.1-1.2,0.6-2.4,1.9-2.9c1.2-0.6,2.6-0.6,3.7,0.2c0.9,0.7,1.7,2.1,1.7,3.4
		C1166.9,28,1165,30.5,1161.2,30.7z"/>
	<path class="st1" d="M1174.3,165c1.4,0.4,3.4-0.4,4-1.7c0.6-1.4-0.5-3.1-1.9-2.9c-0.9,0.1-1.5,0.9-1.2,1.8c0.3,0.8,1.7,0.5,1.5-0.4
		c0.6,2.5-2,2.1-2,2.1c-2.2-0.4-2.2-4.1,0.4-5.2c0.6-0.2,1.3-0.3,2-0.4c0.2,0.2,0.4,0.4,0.7,0.6c0.8,0.6,1.8,0.9,2.8,0.9
		c1,0,1.9-0.3,2.8-0.7c0.7-0.4,1.4-0.9,1.9-1.7l23.4-0.8c-1.6,0.9-2.5,2.7-1.9,4.4c0.5,1.3,2.6,3,3.8,1.4c0.8-1.2-0.7-2.8-1.8-1.7
		c-0.2,0.2-0.2,0.5-0.1,0.7c-0.5-0.5-0.7-1.5-0.6-2c0.1-0.7,0.7-1.4,1.4-1.7c1-0.6,2-0.5,3.1-0.2c0.6,1.1,1.4,2,2.3,2.7
		c2.7,2.1,7,3,10.6,1c0.5-0.3,1-0.6,1.4-1c-0.8,2.5-0.2,5.4,2.5,7c0.6,0.3,1-0.5,0.5-0.9c-2.9-2.3-2.4-5.9-0.3-7.9
		c2.2-2.1,5.3-1.6,6.5-0.5c1.2,1.1,1.5,4.3,0,4.2c-1.5,0-1.9-2.1-3.2-0.8c-0.7,0.6-0.6,1.9-0.2,2.7c0.8,1.5,2.7,1.9,4.2,1.2
		c1.7-0.9,2.5-2.9,2.3-4.8c-0.2-1.3-0.7-2.3-1.4-3.1c0.8,0.7,1.9,1.2,3.2,1.2c1.8,0.1,3.9-0.8,4.6-2.6c0.6-1.5,0.1-3.4-1.4-4.1
		c-0.8-0.4-2.1-0.3-2.6,0.3c-1.1,1.4,0.9,1.7,1,3.2c0.1,1.5-3,1.4-4.2,0.3c-1.1-1.1-1.9-4.1,0.1-6.5c1.9-2.3,5.5-3,7.9-0.3
		c0.4,0.5,1.2,0,0.8-0.6c-1.7-2.4-4.2-3-6.5-2.3c0.3-0.4,0.5-0.8,0.7-1.2c1.7-3.7,0.5-7.9-1.8-10.5c-0.8-0.9-1.8-1.6-2.9-2.1
		c-0.4-1-0.5-2.1,0-3.1c0.3-0.7,0.9-1.3,1.6-1.5c0.5-0.1,1.5,0,2.1,0.5c-0.2-0.1-0.5-0.1-0.7,0.2c-1,1.2,0.7,2.6,1.8,1.7
		c1.5-1.3-0.2-3.3-1.6-3.7c-1.8-0.5-3.6,0.5-4.3,2.2l-0.8-23.4c0.7-0.6,1.2-1.3,1.5-2c0.4-0.9,0.6-1.8,0.5-2.8c-0.1-1-0.4-2-1.1-2.7
		c-0.2-0.2-0.4-0.4-0.6-0.6c0-0.7,0.1-1.4,0.3-2c0.9-2.6,4.6-2.9,5.1-0.7c0,0.1,0.5,2.6-2,2.2c0.9,0.1,1.1-1.3,0.3-1.5
		c-0.9-0.3-1.7,0.3-1.7,1.3c0,1.4,1.7,2.3,3,1.7c1.3-0.7,1.9-2.7,1.5-4.1c-0.9-2.7-5.9-3-7.3,1.1c-0.1,0.4-0.2,0.9-0.2,1.3
		c-1-0.6-2.2-0.9-3.4-0.9c-3.4,0.2-6.5,3.2-6.4,7.7c0,1.8,0.5,3.4,1,5c0.5,1.5,1.2,3,1.8,4.4c-4.6,5.2-7.8,10.5-9.6,17.9
		c-0.5,2.2-0.8,4.4-0.7,6.7c0,0.1,0,0.3,0,0.4c-0.3,0-0.6,0-0.9,0c-2.3,0.1-4.5,0.5-6.6,1.2c-7.3,2.3-12.3,5.9-17.2,10.8
		c-1.5-0.6-3-1.1-4.6-1.5c-1.6-0.4-3.3-0.7-5.1-0.7c-4.5,0.2-7.3,3.5-7.3,6.9c0,1.2,0.4,2.4,1.1,3.3c-0.4,0-0.9,0.2-1.3,0.3
		C1170.9,159.3,1171.5,164.3,1174.3,165z M1211.6,148.5c0.9,0.2,1.8,0,2.6-0.5c-0.5,0.4-0.9,0.8-1.3,1.2c-0.1,0.2-0.3,0.4-0.4,0.6
		C1212.3,149.3,1212,148.8,1211.6,148.5z M1211.6,154c0,0.3,0,0.6,0.1,0.9l-1.4,0c0.1-0.1,0.3-0.2,0.4-0.2
		C1211,154.5,1211.3,154.3,1211.6,154z M1224.2,159.1c-3.4,1.8-8.1-0.2-9.2-3.2c-1.6-4,2.1-6.6,3.6-5c0.8,0.8,2.1,0.8,2.9,0
		c2.2-2.2-1.6-5.1-5.1-4.1c-0.7,0.2-1.3,0.5-1.9,0.9c0.9-0.7,1.4-1.9,1.1-3.1c-0.3-1.2-1.9-2.1-2.9-1.7c-0.7,0.3-0.9,1.2-0.7,1.7
		c0.3,0.7,1.5,0.9,1.8,0.1c1,1.4-0.6,2.5-1.6,2.4c-1-0.2-1.6-0.5-2.1-1.4c-0.7-1.5-0.1-3,0.9-4.2c1.4-1.6,3.1-2.1,5-2.5
		c0.2,0,0.4,0,0.6,0c0.2,1.6,0.7,3.1,1.3,4.5c1.7,3.5,4.8,6,8.2,7c0.4,1.3,1,2.5,1.9,3.4C1227.6,156.3,1226.1,158.1,1224.2,159.1z
		 M1230.4,155.5c0.2,0.1,0.5,0.2,0.7,0.3c-0.6,0.2-1.1,0.4-1.6,0.7c0.2-0.4,0.4-0.8,0.5-1.3C1230.2,155.4,1230.3,155.4,1230.4,155.5
		z M1235.3,150.3c0-0.1-0.1-0.1-0.1-0.2c0.3-0.1,0.6-0.3,0.9-0.4c-0.2,0.4-0.3,0.8-0.4,1.3C1235.6,150.7,1235.5,150.5,1235.3,150.3z
		 M1233.3,151.4c0.5,0.8,0.7,1.7,0.8,2.6c-0.9,0-1.8-0.2-2.6-0.6c-2-1-2.9-2.8-3.2-4.8C1230.4,148.7,1232.3,149.6,1233.3,151.4z
		 M1226.1,146.6c0,0.6,0,1.2,0,1.8c-2.7-1-5-2.9-6.3-5.6c-0.6-1.1-0.9-2.3-1.2-3.6c1.1,0.2,2.2,0.5,3.2,0.9c3,1.2,5.2,3.6,6.3,6.4
		C1227.4,146.5,1226.8,146.5,1226.1,146.6z M1239,143.8c-0.9,2.1-2.8,3.7-5.2,4.6c-1-0.9-2.2-1.4-3.5-1.7c-1.2-3.7-3.9-6.8-7.8-8.3
		c-1.3-0.5-2.7-0.8-4.1-1c0-0.1,0-0.1,0-0.2c0.2-1.9,0.6-3.7,2.2-5.2c1.1-1.1,2.6-1.8,4.1-1.2c0.9,0.4,1.3,1,1.5,2
		c0.2,1-0.8,2.7-2.2,1.8c0.8-0.4,0.5-1.6-0.2-1.8c-0.5-0.2-1.4,0.1-1.7,0.8c-0.3,1,0.6,2.6,1.9,2.8c1.3,0.2,2.4-0.4,3-1.3
		c-0.3,0.6-0.6,1.2-0.7,1.9c-0.8,3.6,2.4,7.1,4.4,4.8c0.7-0.9,0.6-2.1-0.2-2.9c-1.7-1.4,0.7-5.2,4.8-4
		C1238.2,135.8,1240.6,140.3,1239,143.8z M1234,131.5c-0.3,0-0.6,0-0.9,0c0.2-0.3,0.5-0.6,0.7-1c0.1-0.1,0.1-0.3,0.2-0.4L1234,131.5
		z M1227.5,132c0.4,0.3,0.9,0.6,1.4,0.8c-0.2,0.1-0.4,0.3-0.6,0.4c-0.4,0.4-0.8,0.9-1.1,1.4C1227.7,133.8,1227.8,132.9,1227.5,132z
		 M1225.9,102.9c0-3.8,2.5-5.8,4.7-5.8c1.4-0.1,2.8,0.7,3.5,1.6c0.8,1,0.8,2.4,0.3,3.7c-0.5,1.2-1.7,2.1-2.8,1.9
		c-0.5,0-1.1-0.4-1.5-0.8c-0.4-0.4-0.4-0.8-0.3-1.3c0.2-0.5,0.6-0.9,0.9-0.9c0.2,0,0.3,0,0.3,0c0,0,0,0,0,0.2
		c-0.1,0.5,0.2,1,0.7,1.2c0.5,0.1,1.1-0.2,1.2-0.7l0,0c0.2-0.6,0.1-1.5-0.5-2c-0.6-0.6-1.4-0.7-2-0.6c-1.3,0.2-2.1,1.3-2.4,2.3
		c-0.2,0.5-0.2,1.1-0.1,1.7c0.1,0.6,0.4,1.1,0.8,1.5c0.4,0.4,0.8,0.7,1.3,0.9c0.4,0.2,1,0.4,1.5,0.4c0.6,0,1.1,0,1.7-0.2l0.6,17.3
		c-0.3-0.9-0.6-1.8-1-2.6c-1.8-4.4-4.6-9.1-5.9-13.2C1226.3,105.9,1226,104.4,1225.9,102.9z M1227.6,113.8
		C1227.6,113.8,1227.7,113.8,1227.6,113.8c0.2,0.2,0.3,0.5,0.4,0.8c0.1,1,0.2,2.1,0.2,3.1c0,2.2-0.4,3.1-0.5,3.6
		c-0.4,1.5-1.9,2.8-3,1.6c0.5-1,0-2.2-1.1-2c-1.3,0.3-1.3,1.6-0.8,2.6c1,1.9,2.8,1.5,3.5,1.2c1-0.5,1.7-1.4,2.1-2.4
		c0.7-1.7,0.8-3.7,0.6-5.6c0,0,0,0.1,0,0.1c1.4,2.9,3,5.8,3.7,8.8c1,4.2-1.5,6.7-3.5,5.9c-3.1-1.2-1.4-4.3-0.2-3.3
		c0.4,0.3,0.3,0.5,0.3,0.4c-0.2,0.5,0,1.1,0.5,1.3c0.5,0.2,1.1,0,1.3-0.5c0.9-2.4-3.2-4.5-4.8-1.3c-0.3,0.7-0.4,1.4-0.2,2.1
		c-1.4-1.1-3.5-1.2-5.2-0.2c-1.1,0.6-2,1.6-2.6,2.8c0.1-0.7,0.2-1.4,0.4-2.1C1220.5,123.7,1223.7,118.4,1227.6,113.8z M1193.5,149.8
		c4.3-4.2,9.4-7.8,16.2-9.8c0.7-0.2,1.4-0.4,2.1-0.5c-1.1,0.7-2,1.7-2.6,2.8c-0.8,1.7-0.6,3.8,0.6,5.1c-0.7-0.1-1.4-0.1-2.1,0.3
		c-3.1,1.8-0.7,5.7,1.6,4.7c0.5-0.2,0.7-0.8,0.4-1.3c-0.3-0.5-0.8-0.7-1.3-0.4c0.2,0,0,0.2-0.4-0.2c-1-1.2,1.9-3.1,3.3-0.1
		c0.9,1.9-1.4,4.6-5.7,3.9c-3.1-0.5-6-1.8-9-3.1c0,0-0.1,0-0.1,0c1.9,0.1,3.9-0.2,5.5-1c1-0.5,1.9-1.3,2.3-2.3
		c0.3-0.7,0.6-2.6-1.4-3.5c-1-0.4-2.4-0.3-2.6,0.9c-0.2,1.1,1.1,1.5,2,0.9c1.3,1,0.1,2.7-1.4,3.1c-0.5,0.2-1.4,0.6-3.6,0.8
		c-1,0.1-2.1,0-3.1,0C1194,150.1,1193.7,149.9,1193.5,149.8C1193.5,149.8,1193.5,149.8,1193.5,149.8z M1182.5,148.8
		c1.5-0.1,3,0.2,4.5,0.6c4.2,1.1,9.1,3.5,13.6,5c0.9,0.3,1.8,0.6,2.7,0.8l-17.3,0.6c0.1-0.5,0.2-1.1,0.1-1.7c-0.1-0.5-0.3-1-0.5-1.5
		c-0.3-0.4-0.6-0.8-1-1.2c-0.4-0.3-1-0.6-1.6-0.7c-0.6-0.1-1.2,0-1.7,0.2c-1,0.4-1.9,1.3-2.1,2.6c-0.1,0.6,0.1,1.4,0.7,1.9
		c0.6,0.6,1.5,0.6,2.1,0.4l0,0c0.5-0.2,0.8-0.7,0.6-1.3c-0.2-0.5-0.7-0.8-1.2-0.6c-0.2,0.1-0.2,0-0.2,0c0,0-0.1-0.1-0.1-0.3
		c0-0.3,0.4-0.8,0.9-1c0.5-0.2,0.9-0.1,1.3,0.2c0.4,0.3,0.8,0.9,0.9,1.4c0.2,1.1-0.6,2.4-1.8,3c-1.2,0.6-2.6,0.7-3.7-0.1
		c-1-0.6-1.8-2-1.8-3.4C1176.9,151.7,1178.7,149.1,1182.5,148.8z"/>
	<g>
		<path class="st23" d="M1180.1,50.4l-40.4,25.8l24.6,38.6l40.4-25.8c0.5-0.3,0.6-1,0.3-1.5l-23.5-36.8
			C1181.3,50.3,1180.6,50.1,1180.1,50.4z"/>
		<path class="st24" d="M1180.9,49.9l-4.3,2.8l24.6,38.6l4.3-2.8c0.1,0-0.2-0.5-0.5-1l-23.5-36.8C1181.3,50.3,1181,49.9,1180.9,49.9
			z"/>
		<path class="st23" d="M1132.1,88.1l24.6,38.6c1.7,2.7,8,1.9,13.9-1.9s9.4-9.1,7.6-11.8l-24.6-38.6L1132.1,88.1z"/>
		<path class="st24" d="M1141.1,82.3l-9,5.7l24.6,38.6c1.6,2.4,6.7,2,12.1-0.9L1141.1,82.3z"/>
		
			<ellipse transform="matrix(0.8429 -0.538 0.538 0.8429 135.8278 627.6324)" class="st25" cx="1142.9" cy="81.2" rx="12.8" ry="5.9"/>
		
			<ellipse transform="matrix(0.8429 -0.538 0.538 0.8429 135.8278 627.6324)" class="st23" cx="1142.9" cy="81.2" rx="6.4" ry="2.7"/>
		<path class="st24" d="M1153.6,74.3l21.5,33.7l1.8-1.1l-21.5-33.7c-1.3-2-3.8-2.8-7-2.5l-8.7,5.6
			C1145.7,72.4,1151.9,71.6,1153.6,74.3z"/>
	</g>
</g>
<g>
	<circle class="st17" cx="1120.5" cy="132.8" r="21.1"/>
</g>
</svg>
