<?xml version="1.0" encoding="utf-8"?>
<!-- Generator: Adobe Illustrator 24.2.3, SVG Export Plug-In . SVG Version: 6.00 Build 0)  -->
<svg version="1.1" id="Calque_1" xmlns="http://www.w3.org/2000/svg" xmlns:xlink="http://www.w3.org/1999/xlink" x="0px" y="0px"
	 viewBox="0 0 888.5 502.9" style="enable-background:new 0 0 888.5 502.9;" xml:space="preserve">
<style type="text/css">
	.st0{fill:#4D5B5B;}
	.st1{fill:#D2A96A;}
</style>
<path class="st0" d="M829.2,461.8H51.3c-11.4,0-20.7-15.9-20.7-35.5V74c0-19.6,9.3-35.5,20.7-35.5h777.9c11.4,0,20.7,15.9,20.7,35.5
	v352.4C849.9,445.9,840.6,461.8,829.2,461.8z"/>
<g>
	<g>
		<path class="st1" d="M362.7,55.4c0,0.3-0.1,0.4-0.2,0.4c-0.1,0-0.2,0-0.1-0.2c0.3-0.4,0.9-0.6,1.6-0.5c2.4,0.2,5.5,5.3-0.5,7.8
			c-4.3,2-8.9-0.2-10.8-4.2c-2.1-4.4-0.2-8.9,3.6-11.9c5.9-4.8,13.9-5.5,21.5-5.1c5.2,0.3,10.3,1.2,15.5,2.1
			c10.4,1.9,21.5,4.2,31.9,2.7c5.4-0.8,10.8-2.7,15.2-6.1c4.6-3.5,8-8.5,8.4-14.3c0.5-5.9-2.4-11.5-6.5-15.4
			c-6.2-5.9-14.5-6.9-20.1-4c-7.2,3.4-12.8,9.6-11.1,17.3c1.4,6.5,7.4,11.1,13.7,10.2c1.6-0.2,3.1-0.8,4.4-1.5
			c1.3-0.8,2.7-1.8,3.6-3.2c1.6-2.3,2-5.2,0.7-7.8c-3.5-6.8-12.4-3.8-11.9,1.6c0.2,1.5,1.5,2.6,3.1,2.5c1.5-0.2,2.6-1.5,2.5-3.1
			c0,0.1-0.3,0.5-0.3,0.4c-0.1-0.1,0.2-0.3,0.6-0.4c1.8-0.6,3.7,2,2,4.5c-1,1.5-3.2,2.8-5.2,3.1c-4.3,0.7-8.5-2.6-9.4-7
			c-1.4-5.9,3.3-10.6,8.9-13.3c10.3-5,22.8,5.5,22,16c-0.3,4.8-3.3,9.1-7.2,12.1c-4,3.1-8.8,4.8-13.8,5.6c-9.8,1.4-21-0.8-31-2.6
			c-5.2-0.9-10.4-1.9-15.8-2.3c-8.4-0.6-17,0.3-23.7,5.5c-1.1,0.9-2.2,1.9-3.1,3.1c-3.2,4.3-3.6,9-1.8,13c2.7,6.1,9.6,9,15.7,6.3
			c12.7-5.3,2.8-19.9-5.6-15.6c-2.4,1.2-3.8,4.2-2.7,7.1c0.8,1.6,2.7,2.4,4.3,1.6C362.7,59,363.4,57.1,362.7,55.4z"/>
	</g>
	<g>
		<path class="st1" d="M523.6,55.4c0,0.3,0.1,0.4,0.2,0.4c0.1,0,0.2,0,0.1-0.2c-0.3-0.4-0.9-0.6-1.6-0.5c-2.4,0.2-5.5,5.3,0.5,7.8
			c4.3,2,8.9-0.2,10.8-4.2c2.1-4.4,0.2-8.9-3.6-11.9c-5.9-4.8-13.9-5.5-21.5-5.1c-5.2,0.3-10.3,1.2-15.5,2.1
			c-10.4,1.9-21.5,4.2-31.9,2.7c-5.4-0.8-10.8-2.7-15.2-6.1c-4.6-3.5-8-8.5-8.4-14.3c-0.5-5.9,2.4-11.5,6.5-15.4
			c6.2-5.9,14.5-6.9,20.1-4c7.2,3.4,12.8,9.6,11.1,17.3c-1.4,6.5-7.4,11.1-13.7,10.2c-1.6-0.2-3.1-0.8-4.4-1.5
			c-1.3-0.8-2.7-1.8-3.6-3.2c-1.6-2.3-2-5.2-0.7-7.8c3.5-6.8,12.4-3.8,11.9,1.6c-0.2,1.5-1.5,2.6-3.1,2.5c-1.5-0.2-2.6-1.5-2.5-3.1
			c0,0.1,0.3,0.5,0.3,0.4c0.1-0.1-0.2-0.3-0.6-0.4c-1.8-0.6-3.7,2-2,4.5c1,1.5,3.2,2.8,5.2,3.1c4.3,0.7,8.5-2.6,9.4-7
			c1.4-5.9-3.3-10.6-8.9-13.3c-10.3-5-22.8,5.5-22,16c0.3,4.8,3.3,9.1,7.2,12.1c4,3.1,8.8,4.8,13.8,5.6c9.8,1.4,21-0.8,31-2.6
			c5.2-0.9,10.4-1.9,15.8-2.3c8.4-0.6,17,0.3,23.7,5.5c1.1,0.9,2.2,1.9,3.1,3.1c3.2,4.3,3.6,9,1.8,13c-2.7,6.1-9.6,9-15.7,6.3
			c-12.7-5.3-2.8-19.9,5.6-15.6c2.4,1.2,3.8,4.2,2.7,7.1c-0.8,1.6-2.7,2.4-4.3,1.6S522.9,57.1,523.6,55.4z"/>
	</g>
	<g>
		<path class="st1" d="M383.7,55.2c3.3,1.2,6.3-3.1,4.3-6.2c-1.3-2-4.4-3.1-7-1.5c-2.4,1.4-4.3,5.2-2.6,8.4c1.5,3,5.5,5.4,11.8,4.3
			c2.8-0.5,5.4-1.4,7.9-2.4s5-2.1,7.4-3.3c4.9-2.2,9.7-4.6,14.7-6.2c4.5-1.4,10.5-2.4,14,0.8c4.2,3.6,3.8,9.1,0.3,11.6
			c-4.7,3.7-12.5-2.8-7.9-6.8c1.6-1.3,3.6,0.1,3.7,1.1c0,0.3,0,0.4-0.1,0.4c-0.2,0-2-0.4-2.3,1.2c-0.5,2.3,2.9,2.8,4.6,1.2
			c3.9-3.6-3-10.8-8-6.3c-2.6,2.3-3.2,6.2-1.1,9.4c2.7,3.9,8.8,5.5,12.9,2.3c5-3.7,5.5-11.4-0.2-16.4c-4.3-4-11.2-3-16.8-1.3
			c-5.3,1.7-10.1,4.1-15,6.5c-4.8,2.3-9.6,4.8-14.6,5.8c-9.5,2-12.4-6-7.7-8.5c2.5-1.4,5,1.5,3.1,2.7c-0.3,0.2-0.5,0.1-0.2,0.1
			C383.1,51.3,381.8,54.3,383.7,55.2z"/>
	</g>
	<g>
		<path class="st1" d="M502.6,55.2c-3.3,1.2-6.3-3.1-4.3-6.2c1.3-2,4.4-3.1,7-1.5c2.4,1.4,4.3,5.2,2.6,8.4c-1.5,3-5.5,5.4-11.8,4.3
			c-2.8-0.5-5.4-1.4-7.9-2.4s-5-2.1-7.4-3.3c-4.9-2.2-9.7-4.6-14.7-6.2c-4.5-1.4-10.5-2.4-14,0.8c-4.2,3.6-3.8,9.1-0.3,11.6
			c4.7,3.7,12.5-2.8,7.9-6.8c-1.6-1.3-3.6,0.1-3.7,1.1c0,0.3,0,0.4,0.1,0.4c0.2,0,2-0.4,2.3,1.2c0.5,2.3-2.9,2.8-4.6,1.2
			c-3.9-3.6,3-10.8,8-6.3c2.6,2.3,3.2,6.2,1.1,9.4c-2.7,3.9-8.8,5.5-12.9,2.3c-5-3.7-5.5-11.4,0.2-16.4c4.3-4,11.2-3,16.8-1.3
			c5.3,1.7,10.1,4.1,15,6.5c4.8,2.3,9.6,4.8,14.6,5.8c9.5,2,12.4-6,7.7-8.5c-2.5-1.4-5,1.5-3.1,2.7c0.3,0.2,0.5,0.1,0.2,0.1
			C503.2,51.3,504.6,54.3,502.6,55.2z"/>
	</g>
	<g>
		<path class="st1" d="M382.3,32.2c1.5-3.1,5.3-4.4,8.4-2.8c3.7,1.8,4.5,6.4,6.9,9.3c-0.9-1.6-1.4-3.4-1.1-5.5c0.4-3,2.5-6,5.6-6.7
			c2.7-0.5,5.6,0.9,6.3,3.7c0.4,1.4-0.1,3.5-1.4,4.2c-2.6,1.4-2.5-2-4.8-2.7c-2.4-0.7-3.2,4.5-1.8,6.7s6.1,4.3,10.6,1.9
			c4.3-2.3,6.6-7.9,2.9-12.8c-0.6-0.8,0.4-1.9,1.2-1.2c8.3,8.5-3.1,22.2-14,15.8c-2.7-0.4-4.4-2-5.9-4.2c-1.2-1.7-2-3.7-3.4-5.3
			c-2.6-2.8-5.1-2.1-6.5-0.7c-2.5,2.5-0.8,5.3,1,5c-1.1-1.1,0.6-2.6,1.7-1.6c2.3,1.9-0.4,4.4-2.7,4.1
			C381.9,38.9,381.1,34.8,382.3,32.2z"/>
	</g>
	<g>
		<path class="st1" d="M504,32.2c-1.5-3.1-5.3-4.4-8.4-2.8c-3.7,1.8-4.5,6.4-6.9,9.3c0.9-1.6,1.4-3.4,1.1-5.5c-0.4-3-2.5-6-5.6-6.7
			c-2.7-0.5-5.6,0.9-6.3,3.7c-0.4,1.4,0.1,3.5,1.4,4.2c2.6,1.4,2.5-2,4.8-2.7c2.4-0.7,3.2,4.5,1.8,6.7c-1.4,2.2-6.1,4.3-10.6,1.9
			c-4.3-2.3-6.6-7.9-2.9-12.8c0.6-0.8-0.4-1.9-1.2-1.2c-8.3,8.5,3.1,22.2,14,15.8c2.7-0.4,4.4-2,5.9-4.2c1.2-1.7,2-3.7,3.4-5.3
			c2.6-2.8,5.1-2.1,6.5-0.7c2.5,2.5,0.8,5.3-1,5c1.1-1.1-0.6-2.6-1.7-1.6c-2.3,1.9,0.4,4.4,2.7,4.1C504.4,38.9,505.2,34.8,504,32.2z
			"/>
	</g>
	<g>
		<path class="st1" d="M393.4,72.8c-2.4-1.8-3.3-5.5-2.7-8.5c1.2-5.7,6.5-8.9,11.9-9.5c0.3,0,0.5,0.4,0.2,0.5
			c-3.1,1.4-6.5,3.2-8.4,6.2c-0.9,1.5-1.4,3.1-1.4,4.8c0.1,1.9,1,4.6,2.7,4.4c2-0.3,2.3-4,4.6-2.8c1.3,0.7,1.1,2.8,0,4.2
			C398.4,74.6,395.2,74.1,393.4,72.8z"/>
	</g>
	<g>
		<path class="st1" d="M492.9,72.8c2.4-1.8,3.3-5.5,2.7-8.5c-1.2-5.7-6.5-8.9-11.9-9.5c-0.3,0-0.5,0.4-0.2,0.5
			c3.1,1.4,6.5,3.2,8.4,6.2c0.9,1.5,1.4,3.1,1.4,4.8c-0.1,1.9-1,4.6-2.7,4.4c-2-0.3-2.3-4-4.6-2.8c-1.3,0.7-1.1,2.8,0,4.2
			C487.9,74.6,491.1,74.1,492.9,72.8z"/>
	</g>
	<g>
		<path class="st1" d="M337.7,44.8c1.2-3.1,4.7-4.2,7.8-3.5c3.8,0.9,6.4,3.7,7.1,7.5c0,0.2,0,0.3-0.1,0.4c-0.1,0.2-0.2,0.3-0.4,0.4
			c-0.3,0.2-0.8,0.2-1-0.3c-0.1-0.1-0.1-0.3-0.2-0.4c-0.1-0.2-0.3-0.4-0.5-0.5c-0.5-0.4-1-0.7-1.6-0.9c-0.6-0.1-1.2-0.2-1.8,0
			c-0.3,0.1-0.5,0.3-0.7,0.5c0.5,0,1,0.3,1.1,0.9c0,0.2,0.1,0.3,0.1,0.5c0.1,1-0.6,1.6-1.6,1.5c-1.2-0.2-2-1.5-1.8-2.7
			c0.2-1.2,1.3-2.1,2.4-2.4c0.9-0.2,1.9-0.2,2.7,0.1c-0.8-1.1-1.8-1.9-3.5-2.3c-1.2-0.3-2.5-0.4-3.7,0.1c-0.6,0.3-1.3,0.7-1.6,1.3
			c-0.1,0.2-0.3,0.5-0.4,0.7c-0.2,0.5-0.2,1,0.1,1.4c0.1-0.2,0.3-0.4,0.5-0.6c2.4-1.7,4.3,2.7,1.2,3.8
			C338.5,51.5,336.6,47.5,337.7,44.8z"/>
	</g>
	<g>
		<path class="st1" d="M548.6,44.8c-1.2-3.1-4.7-4.2-7.8-3.5c-3.8,0.9-6.4,3.7-7.1,7.5c0,0.2,0,0.3,0.1,0.4c0.1,0.2,0.2,0.3,0.4,0.4
			c0.3,0.2,0.8,0.2,1-0.3c0.1-0.1,0.1-0.3,0.2-0.4c0.1-0.2,0.3-0.4,0.5-0.5c0.5-0.4,1-0.7,1.6-0.9c0.6-0.1,1.2-0.2,1.8,0
			c0.3,0.1,0.5,0.3,0.7,0.5c-0.5,0-1,0.3-1.1,0.9c0,0.2-0.1,0.3-0.1,0.5c-0.1,1,0.6,1.6,1.6,1.5c1.2-0.2,2-1.5,1.8-2.7
			s-1.3-2.1-2.4-2.4c-0.9-0.2-1.9-0.2-2.7,0.1c0.8-1.1,1.8-1.9,3.5-2.3c1.2-0.3,2.5-0.4,3.7,0.1c0.6,0.3,1.3,0.7,1.6,1.3
			c0.1,0.2,0.3,0.5,0.4,0.7c0.2,0.5,0.2,1-0.1,1.4c-0.1-0.2-0.3-0.4-0.5-0.6c-2.4-1.7-4.3,2.7-1.2,3.8
			C547.8,51.5,549.7,47.5,548.6,44.8z"/>
	</g>
	<g>
		<path class="st1" d="M369.9,44.5c2.8-3,9.2-5.5,13.1-3.4c0.3,0.2,0.2,0.7-0.2,0.7c-3.9-0.3-8,0.3-10.8,3.3
			c-1.7,1.8-2.7,4.3-1.4,6.5c0.7,1.3,1.9,2.2,3.4,2c1.5-0.1,3.8-1.4,2.5-3.5c0.7,1.1-0.8,1.9-1.7,1.2c-0.1-0.1-0.2-0.1-0.2-0.2
			c-0.3-0.2-0.4-0.7-0.3-1.1c1.1-3,5.1-1,4.9,1.7c-0.3,3.9-5.4,5.3-8.4,3.5C366.9,53,367.1,47.5,369.9,44.5z"/>
	</g>
	<g>
		<path class="st1" d="M516.5,44.5c-2.8-3-9.2-5.5-13.1-3.4c-0.3,0.2-0.2,0.7,0.2,0.7c3.9-0.3,8,0.3,10.8,3.3
			c1.7,1.8,2.7,4.3,1.4,6.5c-0.7,1.3-1.9,2.2-3.4,2c-1.5-0.1-3.8-1.4-2.5-3.5c-0.7,1.1,0.8,1.9,1.7,1.2c0.1-0.1,0.2-0.1,0.2-0.2
			c0.3-0.2,0.4-0.7,0.3-1.1c-1.1-3-5.1-1-4.9,1.7c0.3,3.9,5.4,5.3,8.4,3.5C519.4,53,519.2,47.5,516.5,44.5z"/>
	</g>
	<g>
		<rect x="302.9" y="38.6" class="st1" width="97.5" height="2.6"/>
	</g>
	<g>
		<rect x="485.9" y="38.5" class="st1" width="97.5" height="2.6"/>
	</g>
	<g>
		<g>
			<path class="st1" d="M282.6,39.8c3.9-4.8,9.3-7.7,15.3-5.9c3.4,0.9,6.1,3.2,7.8,5.9c-1.7,2.8-4.4,5-7.8,5.9
				C291.9,47.6,286.5,44.6,282.6,39.8z M300.8,39.8c-1.1-1-2.4-1.8-3.9-2.3c-3.5-1.1-6.6,0.1-9.3,2.3c2.7,2.2,5.8,3.3,9.3,2.3
				C298.4,41.7,299.7,40.9,300.8,39.8z"/>
		</g>
		<g>
			<path class="st1" d="M308.6,39.8c1.8-0.1,3.6-0.8,5.3-2.1c2.4-1.9,3.8-5.3,2.7-8.3c-1-2.6-3.7-4.2-6.4-3.4
				c-1.4,0.4-2.9,1.9-2.8,3.4c0.2,3,3,1.1,4.8,2.7c1.9,1.6-2.1,5.1-4.7,5.1s-6.9-2.8-7.2-7.9c-0.3-4.8,3.2-9.8,9.3-9.3
				c1,0.1,1.4-1.4,0.3-1.6c-11.6-2.5-17.1,14.5-6,20.2c0.4,0.5,0.9,0.9,1.4,1.2c-0.5,0.3-0.9,0.7-1.4,1.2c-11.2,5.8-5.7,22.8,6,20.2
				c1.1-0.2,0.7-1.7-0.3-1.6c-6.1,0.6-9.6-4.4-9.3-9.3c0.3-5.1,4.7-7.9,7.2-7.9c2.6,0,6.6,3.5,4.7,5.1c-1.8,1.6-4.7-0.3-4.8,2.7
				c-0.1,1.5,1.4,3,2.8,3.4c2.7,0.9,5.5-0.8,6.4-3.4c1.1-3-0.3-6.4-2.7-8.3C312.3,40.6,310.4,39.9,308.6,39.8z"/>
		</g>
	</g>
	<g>
		<g>
			<path class="st1" d="M603.7,39.8c-3.9-4.8-9.3-7.7-15.3-5.9c-3.4,0.9-6.1,3.2-7.8,5.9c1.7,2.8,4.4,5,7.8,5.9
				C594.4,47.6,599.8,44.6,603.7,39.8z M585.5,39.8c1.1-1,2.4-1.8,3.9-2.3c3.5-1.1,6.6,0.1,9.3,2.3c-2.7,2.2-5.8,3.3-9.3,2.3
				C587.9,41.7,586.6,40.9,585.5,39.8z"/>
		</g>
		<g>
			<path class="st1" d="M577.7,39.8c-1.8-0.1-3.6-0.8-5.3-2.1c-2.4-1.9-3.8-5.3-2.7-8.3c1-2.6,3.7-4.2,6.4-3.4
				c1.4,0.4,2.9,1.9,2.8,3.4c-0.2,3-3,1.1-4.8,2.7c-1.9,1.6,2.1,5.1,4.7,5.1c2.6,0,6.9-2.8,7.2-7.9c0.3-4.8-3.2-9.8-9.3-9.3
				c-1,0.1-1.4-1.4-0.3-1.6c11.6-2.5,17.1,14.5,6,20.2c-0.4,0.5-0.9,0.9-1.4,1.2c0.5,0.3,0.9,0.7,1.4,1.2c11.2,5.8,5.7,22.8-6,20.2
				c-1.1-0.2-0.7-1.7,0.3-1.6c6.1,0.6,9.6-4.4,9.3-9.3c-0.3-5.1-4.7-7.9-7.2-7.9c-2.6,0-6.6,3.5-4.7,5.1c1.8,1.6,4.7-0.3,4.8,2.7
				c0.1,1.5-1.4,3-2.8,3.4c-2.7,0.9-5.5-0.8-6.4-3.4c-1.1-3,0.3-6.4,2.7-8.3C574,40.6,575.9,39.9,577.7,39.8z"/>
		</g>
	</g>
</g>
<g>
	<g>
		<path class="st1" d="M362.7,445.9c0-0.3-0.1-0.4-0.2-0.4c-0.1,0-0.2,0-0.1,0.2c0.3,0.4,0.9,0.6,1.6,0.5c2.4-0.2,5.5-5.3-0.5-7.8
			c-4.3-2-8.9,0.2-10.8,4.2c-2.1,4.4-0.2,8.9,3.6,11.9c5.9,4.8,13.9,5.5,21.5,5.1c5.2-0.3,10.3-1.2,15.5-2.1
			c10.4-1.9,21.5-4.2,31.9-2.7c5.4,0.8,10.8,2.7,15.2,6.1c4.6,3.5,8,8.5,8.4,14.3c0.5,5.9-2.4,11.5-6.5,15.4
			c-6.2,5.9-14.5,6.9-20.1,4c-7.2-3.4-12.8-9.6-11.1-17.3c1.4-6.5,7.4-11.1,13.7-10.2c1.6,0.2,3.1,0.8,4.4,1.5
			c1.3,0.8,2.7,1.8,3.6,3.2c1.6,2.3,2,5.2,0.7,7.8c-3.5,6.8-12.4,3.8-11.9-1.6c0.2-1.5,1.5-2.6,3.1-2.5c1.5,0.2,2.6,1.5,2.5,3.1
			c0-0.1-0.3-0.5-0.3-0.4c-0.1,0.1,0.2,0.3,0.6,0.4c1.8,0.6,3.7-2,2-4.5c-1-1.5-3.2-2.8-5.2-3.1c-4.3-0.7-8.5,2.6-9.4,7
			c-1.4,5.9,3.3,10.6,8.9,13.3c10.3,5,22.8-5.5,22-16c-0.3-4.8-3.3-9.1-7.2-12.1c-4-3.1-8.8-4.8-13.8-5.6c-9.8-1.4-21,0.8-31,2.6
			c-5.2,0.9-10.4,1.9-15.8,2.3c-8.4,0.6-17-0.3-23.7-5.5c-1.1-0.9-2.2-1.9-3.1-3.1c-3.2-4.3-3.6-9-1.8-13c2.7-6.1,9.6-9,15.7-6.3
			c12.7,5.3,2.8,19.9-5.6,15.6c-2.4-1.2-3.8-4.2-2.7-7.1c0.8-1.6,2.7-2.4,4.3-1.6C362.7,442.3,363.4,444.3,362.7,445.9z"/>
	</g>
	<g>
		<path class="st1" d="M523.6,445.9c0-0.3,0.1-0.4,0.2-0.4c0.1,0,0.2,0,0.1,0.2c-0.3,0.4-0.9,0.6-1.6,0.5c-2.4-0.2-5.5-5.3,0.5-7.8
			c4.3-2,8.9,0.2,10.8,4.2c2.1,4.4,0.2,8.9-3.6,11.9c-5.9,4.8-13.9,5.5-21.5,5.1c-5.2-0.3-10.3-1.2-15.5-2.1
			c-10.4-1.9-21.5-4.2-31.9-2.7c-5.4,0.8-10.8,2.7-15.2,6.1c-4.6,3.5-8,8.5-8.4,14.3c-0.5,5.9,2.4,11.5,6.5,15.4
			c6.2,5.9,14.5,6.9,20.1,4c7.2-3.4,12.8-9.6,11.1-17.3c-1.4-6.5-7.4-11.1-13.7-10.2c-1.6,0.2-3.1,0.8-4.4,1.5
			c-1.3,0.8-2.7,1.8-3.6,3.2c-1.6,2.3-2,5.2-0.7,7.8c3.5,6.8,12.4,3.8,11.9-1.6c-0.2-1.5-1.5-2.6-3.1-2.5c-1.5,0.2-2.6,1.5-2.5,3.1
			c0-0.1,0.3-0.5,0.3-0.4c0.1,0.1-0.2,0.3-0.6,0.4c-1.8,0.6-3.7-2-2-4.5c1-1.5,3.2-2.8,5.2-3.1c4.3-0.7,8.5,2.6,9.4,7
			c1.4,5.9-3.3,10.6-8.9,13.3c-10.3,5-22.8-5.5-22-16c0.3-4.8,3.3-9.1,7.2-12.1c4-3.1,8.8-4.8,13.8-5.6c9.8-1.4,21,0.8,31,2.6
			c5.2,0.9,10.4,1.9,15.8,2.3c8.4,0.6,17-0.3,23.7-5.5c1.1-0.9,2.2-1.9,3.1-3.1c3.2-4.3,3.6-9,1.8-13c-2.7-6.1-9.6-9-15.7-6.3
			c-12.7,5.3-2.8,19.9,5.6,15.6c2.4-1.2,3.8-4.2,2.7-7.1c-0.8-1.6-2.7-2.4-4.3-1.6C523.6,442.3,522.9,444.3,523.6,445.9z"/>
	</g>
	<g>
		<path class="st1" d="M383.7,446.2c3.3-1.2,6.3,3.1,4.3,6.2c-1.3,2-4.4,3.1-7,1.5c-2.4-1.4-4.3-5.2-2.6-8.4c1.5-3,5.5-5.4,11.8-4.3
			c2.8,0.5,5.4,1.4,7.9,2.4s5,2.1,7.4,3.3c4.9,2.2,9.7,4.6,14.7,6.2c4.5,1.4,10.5,2.4,14-0.8c4.2-3.6,3.8-9.1,0.3-11.6
			c-4.7-3.7-12.5,2.8-7.9,6.8c1.6,1.3,3.6-0.1,3.7-1.1c0-0.3,0-0.4-0.1-0.4c-0.2,0-2,0.4-2.3-1.2c-0.5-2.3,2.9-2.8,4.6-1.2
			c3.9,3.6-3,10.8-8,6.3c-2.6-2.3-3.2-6.2-1.1-9.4c2.7-3.9,8.8-5.5,12.9-2.3c5,3.7,5.5,11.4-0.2,16.4c-4.3,4-11.2,3-16.8,1.3
			c-5.3-1.7-10.1-4.1-15-6.5c-4.8-2.3-9.6-4.8-14.6-5.8c-9.5-2-12.4,6-7.7,8.5c2.5,1.4,5-1.5,3.1-2.7c-0.3-0.2-0.5-0.1-0.2-0.1
			C383.1,450,381.8,447,383.7,446.2z"/>
	</g>
	<g>
		<path class="st1" d="M502.6,446.2c-3.3-1.2-6.3,3.1-4.3,6.2c1.3,2,4.4,3.1,7,1.5c2.4-1.4,4.3-5.2,2.6-8.4c-1.5-3-5.5-5.4-11.8-4.3
			c-2.8,0.5-5.4,1.4-7.9,2.4s-5,2.1-7.4,3.3c-4.9,2.2-9.7,4.6-14.7,6.2c-4.5,1.4-10.5,2.4-14-0.8c-4.2-3.6-3.8-9.1-0.3-11.6
			c4.7-3.7,12.5,2.8,7.9,6.8c-1.6,1.3-3.6-0.1-3.7-1.1c0-0.3,0-0.4,0.1-0.4c0.2,0,2,0.4,2.3-1.2c0.5-2.3-2.9-2.8-4.6-1.2
			c-3.9,3.6,3,10.8,8,6.3c2.6-2.3,3.2-6.2,1.1-9.4c-2.7-3.9-8.8-5.5-12.9-2.3c-5,3.7-5.5,11.4,0.2,16.4c4.3,4,11.2,3,16.8,1.3
			c5.3-1.7,10.1-4.1,15-6.5c4.8-2.3,9.6-4.8,14.6-5.8c9.5-2,12.4,6,7.7,8.5c-2.5,1.4-5-1.5-3.1-2.7c0.3-0.2,0.5-0.1,0.2-0.1
			C503.2,450,504.6,447,502.6,446.2z"/>
	</g>
	<g>
		<path class="st1" d="M382.3,469.2c1.5,3.1,5.3,4.4,8.4,2.8c3.7-1.8,4.5-6.4,6.9-9.3c-0.9,1.6-1.4,3.4-1.1,5.5c0.4,3,2.5,6,5.6,6.7
			c2.7,0.5,5.6-0.9,6.3-3.7c0.4-1.4-0.1-3.5-1.4-4.2c-2.6-1.4-2.5,2-4.8,2.7c-2.4,0.7-3.2-4.5-1.8-6.7c1.4-2.2,6.1-4.3,10.6-1.9
			c4.3,2.3,6.6,7.9,2.9,12.8c-0.6,0.8,0.4,1.9,1.2,1.2c8.3-8.5-3.1-22.2-14-15.8c-2.7,0.4-4.4,2-5.9,4.2c-1.2,1.7-2,3.7-3.4,5.3
			c-2.6,2.8-5.1,2.1-6.5,0.7c-2.5-2.5-0.8-5.3,1-5c-1.1,1.1,0.6,2.6,1.7,1.6c2.3-1.9-0.4-4.4-2.7-4.1
			C381.9,462.5,381.1,466.5,382.3,469.2z"/>
	</g>
	<g>
		<path class="st1" d="M504,469.2c-1.5,3.1-5.3,4.4-8.4,2.8c-3.7-1.8-4.5-6.4-6.9-9.3c0.9,1.6,1.4,3.4,1.1,5.5c-0.4,3-2.5,6-5.6,6.7
			c-2.7,0.5-5.6-0.9-6.3-3.7c-0.4-1.4,0.1-3.5,1.4-4.2c2.6-1.4,2.5,2,4.8,2.7c2.4,0.7,3.2-4.5,1.8-6.7c-1.4-2.2-6.1-4.3-10.6-1.9
			c-4.3,2.3-6.6,7.9-2.9,12.8c0.6,0.8-0.4,1.9-1.2,1.2c-8.3-8.5,3.1-22.2,14-15.8c2.7,0.4,4.4,2,5.9,4.2c1.2,1.7,2,3.7,3.4,5.3
			c2.6,2.8,5.1,2.1,6.5,0.7c2.5-2.5,0.8-5.3-1-5c1.1,1.1-0.6,2.6-1.7,1.6c-2.3-1.9,0.4-4.4,2.7-4.1
			C504.4,462.5,505.2,466.5,504,469.2z"/>
	</g>
	<g>
		<path class="st1" d="M393.4,428.6c-2.4,1.8-3.3,5.5-2.7,8.5c1.2,5.7,6.5,8.9,11.9,9.5c0.3,0,0.5-0.4,0.2-0.5
			c-3.1-1.4-6.5-3.2-8.4-6.2c-0.9-1.5-1.4-3.1-1.4-4.8c0.1-1.9,1-4.6,2.7-4.4c2,0.3,2.3,4,4.6,2.8c1.3-0.7,1.1-2.8,0-4.2
			C398.4,426.7,395.2,427.2,393.4,428.6z"/>
	</g>
	<g>
		<path class="st1" d="M492.9,428.6c2.4,1.8,3.3,5.5,2.7,8.5c-1.2,5.7-6.5,8.9-11.9,9.5c-0.3,0-0.5-0.4-0.2-0.5
			c3.1-1.4,6.5-3.2,8.4-6.2c0.9-1.5,1.4-3.1,1.4-4.8c-0.1-1.9-1-4.6-2.7-4.4c-2,0.3-2.3,4-4.6,2.8c-1.3-0.7-1.1-2.8,0-4.2
			C487.9,426.7,491.1,427.2,492.9,428.6z"/>
	</g>
	<g>
		<path class="st1" d="M337.7,456.5c1.2,3.1,4.7,4.2,7.8,3.5c3.8-0.9,6.4-3.7,7.1-7.5c0-0.2,0-0.3-0.1-0.4c-0.1-0.2-0.2-0.3-0.4-0.4
			c-0.3-0.2-0.8-0.2-1,0.3c-0.1,0.1-0.1,0.3-0.2,0.4c-0.1,0.2-0.3,0.4-0.5,0.5c-0.5,0.4-1,0.7-1.6,0.9c-0.6,0.1-1.2,0.2-1.8,0
			c-0.3-0.1-0.5-0.3-0.7-0.5c0.5,0,1-0.3,1.1-0.9c0-0.2,0.1-0.3,0.1-0.5c0.1-1-0.6-1.6-1.6-1.5c-1.2,0.2-2,1.5-1.8,2.7
			c0.2,1.2,1.3,2.1,2.4,2.4c0.9,0.2,1.9,0.2,2.7-0.1c-0.8,1.1-1.8,1.9-3.5,2.3c-1.2,0.3-2.5,0.4-3.7-0.1c-0.6-0.3-1.3-0.7-1.6-1.3
			c-0.1-0.2-0.3-0.5-0.4-0.7c-0.2-0.5-0.2-1,0.1-1.4c0.1,0.2,0.3,0.4,0.5,0.6c2.4,1.7,4.3-2.7,1.2-3.8
			C338.5,449.8,336.6,453.8,337.7,456.5z"/>
	</g>
	<g>
		<path class="st1" d="M548.6,456.5c-1.2,3.1-4.7,4.2-7.8,3.5c-3.8-0.9-6.4-3.7-7.1-7.5c0-0.2,0-0.3,0.1-0.4
			c0.1-0.2,0.2-0.3,0.4-0.4c0.3-0.2,0.8-0.2,1,0.3c0.1,0.1,0.1,0.3,0.2,0.4c0.1,0.2,0.3,0.4,0.5,0.5c0.5,0.4,1,0.7,1.6,0.9
			c0.6,0.1,1.2,0.2,1.8,0c0.3-0.1,0.5-0.3,0.7-0.5c-0.5,0-1-0.3-1.1-0.9c0-0.2-0.1-0.3-0.1-0.5c-0.1-1,0.6-1.6,1.6-1.5
			c1.2,0.2,2,1.5,1.8,2.7c-0.2,1.2-1.3,2.1-2.4,2.4c-0.9,0.2-1.9,0.2-2.7-0.1c0.8,1.1,1.8,1.9,3.5,2.3c1.2,0.3,2.5,0.4,3.7-0.1
			c0.6-0.3,1.3-0.7,1.6-1.3c0.1-0.2,0.3-0.5,0.4-0.7c0.2-0.5,0.2-1-0.1-1.4c-0.1,0.2-0.3,0.4-0.5,0.6c-2.4,1.7-4.3-2.7-1.2-3.8
			C547.8,449.8,549.7,453.8,548.6,456.5z"/>
	</g>
	<g>
		<path class="st1" d="M369.9,456.8c2.8,3,9.2,5.5,13.1,3.4c0.3-0.2,0.2-0.7-0.2-0.7c-3.9,0.3-8-0.3-10.8-3.3
			c-1.7-1.8-2.7-4.3-1.4-6.5c0.7-1.3,1.9-2.2,3.4-2c1.5,0.1,3.8,1.4,2.5,3.5c0.7-1.1-0.8-1.9-1.7-1.2c-0.1,0.1-0.2,0.1-0.2,0.2
			c-0.3,0.2-0.4,0.7-0.3,1.1c1.1,3,5.1,1,4.9-1.7c-0.3-3.9-5.4-5.3-8.4-3.5C366.9,448.4,367.1,453.8,369.9,456.8z"/>
	</g>
	<g>
		<path class="st1" d="M516.5,456.8c-2.8,3-9.2,5.5-13.1,3.4c-0.3-0.2-0.2-0.7,0.2-0.7c3.9,0.3,8-0.3,10.8-3.3
			c1.7-1.8,2.7-4.3,1.4-6.5c-0.7-1.3-1.9-2.2-3.4-2c-1.5,0.1-3.8,1.4-2.5,3.5c-0.7-1.1,0.8-1.9,1.7-1.2c0.1,0.1,0.2,0.1,0.2,0.2
			c0.3,0.2,0.4,0.7,0.3,1.1c-1.1,3-5.1,1-4.9-1.7c0.3-3.9,5.4-5.3,8.4-3.5C519.4,448.4,519.2,453.8,516.5,456.8z"/>
	</g>
	<g>
		<rect x="302.9" y="460.2" class="st1" width="97.5" height="2.6"/>
	</g>
	<g>
		<rect x="485.9" y="460.2" class="st1" width="97.5" height="2.6"/>
	</g>
	<g>
		<g>
			<path class="st1" d="M282.6,461.5c3.9,4.8,9.3,7.7,15.3,5.9c3.4-0.9,6.1-3.2,7.8-5.9c-1.7-2.8-4.4-5-7.8-5.9
				C291.9,453.8,286.5,456.7,282.6,461.5z M300.8,461.5c-1.1,1-2.4,1.8-3.9,2.3c-3.5,1.1-6.6-0.1-9.3-2.3c2.7-2.2,5.8-3.3,9.3-2.3
				C298.4,459.6,299.7,460.4,300.8,461.5z"/>
		</g>
		<g>
			<path class="st1" d="M308.6,461.5c1.8,0.1,3.6,0.8,5.3,2.1c2.4,1.9,3.8,5.3,2.7,8.3c-1,2.6-3.7,4.2-6.4,3.4
				c-1.4-0.4-2.9-1.9-2.8-3.4c0.2-3,3-1.1,4.8-2.7c1.9-1.6-2.1-5.1-4.7-5.1s-6.9,2.8-7.2,7.9c-0.3,4.8,3.2,9.8,9.3,9.3
				c1-0.1,1.4,1.4,0.3,1.6c-11.6,2.5-17.1-14.5-6-20.2c0.4-0.5,0.9-0.9,1.4-1.2c-0.5-0.3-0.9-0.7-1.4-1.2c-11.2-5.8-5.7-22.8,6-20.2
				c1.1,0.2,0.7,1.7-0.3,1.6c-6.1-0.6-9.6,4.4-9.3,9.3c0.3,5.1,4.7,7.9,7.2,7.9c2.6,0,6.6-3.5,4.7-5.1c-1.8-1.6-4.7,0.3-4.8-2.7
				c-0.1-1.5,1.4-3,2.8-3.4c2.7-0.9,5.5,0.8,6.4,3.4c1.1,3-0.3,6.4-2.7,8.3C312.3,460.7,310.4,461.4,308.6,461.5z"/>
		</g>
	</g>
	<g>
		<g>
			<path class="st1" d="M603.7,461.5c-3.9,4.8-9.3,7.7-15.3,5.9c-3.4-0.9-6.1-3.2-7.8-5.9c1.7-2.8,4.4-5,7.8-5.9
				C594.4,453.8,599.8,456.7,603.7,461.5z M585.5,461.5c1.1,1,2.4,1.8,3.9,2.3c3.5,1.1,6.6-0.1,9.3-2.3c-2.7-2.2-5.8-3.3-9.3-2.3
				C587.9,459.6,586.6,460.4,585.5,461.5z"/>
		</g>
		<g>
			<path class="st1" d="M577.7,461.5c-1.8,0.1-3.6,0.8-5.3,2.1c-2.4,1.9-3.8,5.3-2.7,8.3c1,2.6,3.7,4.2,6.4,3.4
				c1.4-0.4,2.9-1.9,2.8-3.4c-0.2-3-3-1.1-4.8-2.7c-1.9-1.6,2.1-5.1,4.7-5.1c2.6,0,6.9,2.8,7.2,7.9c0.3,4.8-3.2,9.8-9.3,9.3
				c-1-0.1-1.4,1.4-0.3,1.6c11.6,2.5,17.1-14.5,6-20.2c-0.4-0.5-0.9-0.9-1.4-1.2c0.5-0.3,0.9-0.7,1.4-1.2c11.2-5.8,5.7-22.8-6-20.2
				c-1.1,0.2-0.7,1.7,0.3,1.6c6.1-0.6,9.6,4.4,9.3,9.3c-0.3,5.1-4.7,7.9-7.2,7.9c-2.6,0-6.6-3.5-4.7-5.1c1.8-1.6,4.7,0.3,4.8-2.7
				c0.1-1.5-1.4-3-2.8-3.4c-2.7-0.9-5.5,0.8-6.4,3.4c-1.1,3,0.3,6.4,2.7,8.3C574,460.7,575.9,461.4,577.7,461.5z"/>
		</g>
	</g>
</g>
</svg>
