<?xml version="1.0" encoding="utf-8"?>
<!-- Generator: Adobe Illustrator 24.2.3, SVG Export Plug-In . SVG Version: 6.00 Build 0)  -->
<svg version="1.1" id="Calque_1" xmlns="http://www.w3.org/2000/svg" xmlns:xlink="http://www.w3.org/1999/xlink" x="0px" y="0px"
	 viewBox="0 0 1279.1 173.1" style="enable-background:new 0 0 1279.1 173.1;" xml:space="preserve">
<style type="text/css">
	.st0{fill:#4D5B5B;}
	.st1{fill:#D2A96A;}
	.st2{fill:#AC6A00;}
	.st3{fill:#E39510;}
	.st4{fill:#F3D035;}
	.st5{fill:#A4A530;}
	.st6{fill:#898A25;}
	.st7{fill:#B8BA38;}
	.st8{fill:#FFA511;}
	.st9{fill:#A16B4E;}
	.st10{fill:#7F513D;}
	.st11{opacity:0.1;enable-background:new    ;}
	.st12{opacity:0.1;}
	.st13{fill:#FAD97E;}
	.st14{fill:#8B8892;}
	.st15{fill:#AEADB3;}
	.st16{fill:#787780;}
	.st17{fill:#67B7CB;}
	.st18{fill:#FF7B8E;}
	.st19{fill:#FC5263;}
	.st20{fill:#33A7C9;}
	.st21{fill:#3D98D0;}
	.st22{fill:#AF12AF;}
	.st23{fill:#8E0F91;}
	.st24{fill:#D82ADD;}
	.st25{fill:#BA9361;}
</style>
<g>
	<circle class="st0" cx="104.7" cy="86.9" r="64.9"/>
	<path class="st1" d="M102.6,12.3c-1.4-0.4-3.4,0.3-4,1.6c-0.6,1.4,0.4,3.1,1.8,3c0.9-0.1,1.5-0.9,1.2-1.7c-0.3-0.8-1.7-0.5-1.5,0.4
		c-0.5-2.5,2-2.1,2.1-2.1c2.2,0.5,2.1,4.2-0.6,5.1c-0.6,0.2-1.3,0.3-2,0.3c-0.2-0.2-0.4-0.4-0.7-0.6c-0.8-0.6-1.8-0.9-2.8-1
		c-1,0-1.9,0.2-2.8,0.6c-0.8,0.4-1.5,0.9-2,1.6H67.9c1.6-0.8,2.6-2.6,2.1-4.4c-0.4-1.4-2.5-3.1-3.7-1.5c-0.9,1.1,0.6,2.8,1.7,1.8
		c0.2-0.2,0.3-0.5,0.2-0.7c0.5,0.5,0.7,1.5,0.5,2.1c-0.2,0.8-0.8,1.4-1.4,1.8c-1,0.5-2.1,0.5-3.1,0.1c-0.5-1.1-1.3-2.1-2.2-2.8
		c-2.6-2.2-6.9-3.3-10.5-1.4c-0.5,0.3-1,0.6-1.4,0.9c0.9-2.5,0.4-5.4-2.3-7.1c-0.6-0.4-1,0.4-0.6,0.8c2.8,2.4,2.2,6,0,7.9
		c-2.3,2-5.4,1.4-6.5,0.3c-1.1-1.1-1.3-4.3,0.2-4.2c1.4,0.1,1.9,2.1,3.2,0.9c0.7-0.6,0.7-1.9,0.3-2.7c-0.8-1.5-2.7-2-4.2-1.3
		c-1.8,0.8-2.6,2.9-2.4,4.7c0.1,1.3,0.6,2.3,1.3,3.1c-0.8-0.7-1.9-1.2-3.1-1.3c-1.8-0.2-3.9,0.7-4.7,2.4c-0.7,1.5-0.2,3.4,1.3,4.2
		c0.8,0.4,2.1,0.4,2.7-0.3c1.2-1.3-0.8-1.8-0.9-3.2c-0.1-1.5,3.1-1.3,4.2-0.2c1.1,1.1,1.7,4.2-0.3,6.5c-1.9,2.2-5.6,2.8-7.9,0
		c-0.4-0.5-1.2,0-0.8,0.6c1.6,2.5,4.1,3.1,6.4,2.5c-0.3,0.4-0.5,0.8-0.7,1.2c-1.9,3.6-0.8,7.9,1.4,10.5c0.7,0.9,1.7,1.7,2.8,2.2
		c0.3,1,0.4,2.1-0.1,3.1c-0.3,0.6-1,1.3-1.7,1.4c-0.5,0.1-1.5,0-2.1-0.5c0.2,0.1,0.5,0.1,0.7-0.2c1-1.1-0.6-2.6-1.8-1.7
		c-1.6,1.2,0.1,3.3,1.5,3.7c1.8,0.6,3.6-0.4,4.4-2.1V70c-0.7,0.5-1.2,1.2-1.6,2c-0.4,0.9-0.6,1.8-0.6,2.8s0.4,2,1,2.8
		c0.2,0.2,0.4,0.5,0.6,0.7c0,0.7-0.1,1.4-0.3,2c-1,2.6-4.7,2.8-5.1,0.6c0-0.1-0.4-2.6,2.1-2.1c-0.9-0.2-1.2,1.2-0.4,1.5
		c0.9,0.3,1.7-0.3,1.7-1.2c0.1-1.4-1.6-2.4-3-1.8c-1.4,0.6-2,2.6-1.6,4c0.8,2.8,5.8,3.2,7.4-0.9c0.2-0.4,0.3-0.9,0.3-1.3
		c1,0.6,2.2,1,3.4,1c3.4-0.1,6.6-3,6.7-7.5c0-1.8-0.4-3.4-0.8-5c-0.5-1.6-1.1-3-1.7-4.5c4.7-5.1,8.2-10.2,10.2-17.5
		c0.6-2.1,1-4.4,0.9-6.6c0-0.1,0-0.3,0-0.4c0.3,0,0.6,0,0.9,0c2.3,0,4.5-0.4,6.6-0.9c7.3-2,12.5-5.5,17.5-10.2
		c1.5,0.6,3,1.2,4.5,1.7c1.6,0.5,3.3,0.8,5,0.8c4.5,0,7.4-3.3,7.5-6.7c0-1.2-0.4-2.4-1-3.4c0.4,0,0.9-0.1,1.3-0.3
		C105.8,18.2,105.3,13.2,102.6,12.3z M64.7,27.7c-0.9-0.2-1.8-0.1-2.6,0.4c0.5-0.3,0.9-0.7,1.3-1.2c0.2-0.2,0.3-0.4,0.4-0.6
		C64,26.8,64.3,27.3,64.7,27.7z M65,22.1c0-0.3,0-0.6-0.1-0.9h1.4c-0.1,0.1-0.3,0.1-0.4,0.2C65.5,21.6,65.2,21.8,65,22.1z
		 M52.5,16.6c3.5-1.7,8.1,0.5,9.1,3.5c1.4,4-2.3,6.5-3.8,4.9c-0.8-0.8-2.1-0.9-2.9-0.1c-2.3,2.1,1.4,5.1,4.9,4.3
		c0.7-0.2,1.3-0.5,1.9-0.8c-0.9,0.7-1.5,1.8-1.2,3.1c0.3,1.2,1.8,2.2,2.8,1.8c0.7-0.3,1-1.2,0.8-1.7c-0.3-0.7-1.4-1-1.8-0.1
		C61.4,30.1,63,29,64,29.2c1,0.2,1.6,0.6,2,1.5c0.7,1.5,0,3-1.1,4.1c-1.4,1.6-3.2,2-5.1,2.3c-0.2,0-0.4,0-0.6,0
		C59,35.5,58.7,34,58,32.5c-1.5-3.6-4.5-6.1-8-7.3c-0.3-1.3-0.9-2.5-1.8-3.5C49,19.3,50.6,17.5,52.5,16.6z M46.1,20
		c-0.2-0.1-0.5-0.3-0.7-0.4c0.6-0.2,1.1-0.4,1.6-0.7c-0.2,0.4-0.4,0.8-0.6,1.2C46.4,20.1,46.3,20,46.1,20z M41.1,25
		c0,0.1,0.1,0.1,0.1,0.2c-0.3,0.1-0.6,0.2-1,0.4c0.2-0.4,0.4-0.8,0.5-1.3C40.8,24.6,40.9,24.8,41.1,25z M43.1,23.9
		c-0.4-0.8-0.7-1.7-0.7-2.6c0.9,0,1.8,0.2,2.6,0.7c1.9,1,2.8,2.9,3,4.9C45.9,26.7,44.1,25.9,43.1,23.9z M50.2,29
		c0.1-0.6,0.1-1.2,0.1-1.8c2.6,1.1,4.9,3.1,6.1,5.8c0.5,1.1,0.9,2.4,1.1,3.6c-1.1-0.2-2.2-0.5-3.2-1c-2.9-1.3-5-3.8-6-6.6
		C48.8,29.1,49.5,29.1,50.2,29z M37.2,31.4c0.9-2,2.9-3.6,5.4-4.4c1,0.9,2.1,1.5,3.4,1.8c1.1,3.7,3.7,6.9,7.5,8.6
		c1.3,0.6,2.7,0.9,4.1,1.1c0,0.1,0,0.1,0,0.2c-0.3,1.9-0.8,3.7-2.3,5.1c-1.1,1-2.6,1.7-4.1,1.1c-0.9-0.4-1.3-1-1.5-2
		s0.9-2.6,2.3-1.7c-0.8,0.4-0.6,1.6,0.1,1.8c0.5,0.2,1.4-0.1,1.7-0.8c0.4-1-0.6-2.6-1.8-2.8c-1.3-0.3-2.4,0.3-3.1,1.2
		c0.3-0.6,0.6-1.2,0.8-1.9c0.9-3.5-2.1-7.2-4.3-4.9c-0.8,0.8-0.7,2.1,0.1,2.9c1.6,1.5-0.9,5.2-4.9,3.8
		C37.7,39.4,35.5,34.9,37.2,31.4z M41.7,43.8c0.3,0,0.6,0,0.9,0.1c-0.2,0.3-0.5,0.6-0.7,0.9c-0.1,0.1-0.2,0.3-0.2,0.4
		C41.7,45.2,41.7,43.8,41.7,43.8z M48.2,43.6c-0.4-0.4-0.9-0.6-1.4-0.8c0.2-0.1,0.4-0.3,0.6-0.4c0.5-0.4,0.8-0.9,1.2-1.3
		C48.2,41.7,48,42.7,48.2,43.6z M48.8,72.7c-0.1,3.8-2.7,5.7-4.9,5.7c-1.4,0-2.8-0.8-3.4-1.7c-0.8-1-0.8-2.4-0.2-3.7
		c0.5-1.2,1.7-2,2.9-1.9c0.5,0.1,1.1,0.4,1.5,0.8c0.3,0.4,0.4,0.8,0.2,1.3s-0.6,0.9-0.9,0.9c-0.2,0-0.3,0-0.3,0s0,0,0-0.2
		c0.1-0.5-0.2-1-0.7-1.2s-1.1,0.1-1.2,0.6l0,0c-0.2,0.6-0.1,1.5,0.4,2.1c0.6,0.6,1.3,0.8,2,0.7c1.3-0.2,2.2-1.2,2.5-2.2
		c0.2-0.5,0.3-1.1,0.2-1.7s-0.4-1.1-0.8-1.5c-0.4-0.4-0.8-0.7-1.2-1c-0.4-0.2-1-0.4-1.5-0.5c-0.6-0.1-1.1,0-1.7,0.2V52.1
		c0.3,0.9,0.6,1.8,0.9,2.7c1.7,4.4,4.2,9.3,5.5,13.4C48.5,69.7,48.9,71.2,48.8,72.7z M47.5,61.8L47.5,61.8c-0.2-0.2-0.3-0.5-0.4-0.8
		c0-1-0.1-2.1-0.1-3.1c0.1-2.2,0.5-3.1,0.6-3.6c0.4-1.5,2-2.7,3.1-1.5c-0.6,0.9-0.1,2.2,1,2c1.3-0.2,1.3-1.6,0.9-2.6
		c-0.9-2-2.8-1.6-3.5-1.3c-1,0.4-1.8,1.4-2.2,2.3c-0.8,1.7-0.9,3.6-0.8,5.6v-0.1c-1.3-2.9-2.8-5.9-3.4-8.9c-0.8-4.3,1.8-6.6,3.7-5.8
		c3.1,1.3,1.2,4.3,0.1,3.3c-0.4-0.3-0.3-0.6-0.3-0.4c0.2-0.5,0-1.1-0.5-1.3s-1.1,0-1.3,0.5c-0.9,2.4,3.1,4.6,4.8,1.5
		c0.4-0.7,0.4-1.4,0.3-2.1c1.4,1.2,3.5,1.3,5.2,0.4c1.1-0.6,2-1.5,2.7-2.7c-0.1,0.7-0.3,1.4-0.4,2.1C55,52.1,51.6,57.3,47.5,61.8z
		 M82.9,26.9c-4.5,4-9.7,7.5-16.5,9.3c-0.7,0.2-1.4,0.3-2.1,0.4c1.1-0.7,2.1-1.6,2.7-2.7c0.9-1.7,0.8-3.8-0.4-5.2
		c0.7,0.2,1.4,0.1,2.1-0.3c3.2-1.7,0.9-5.7-1.5-4.8c-0.5,0.2-0.7,0.8-0.5,1.3c0.2,0.5,0.8,0.7,1.3,0.5c-0.2,0,0-0.2,0.4,0.3
		c1,1.2-2,3-3.3-0.1c-0.8-2,1.5-4.6,5.8-3.7c3,0.6,6,2,8.9,3.4h0.1c-1.9-0.1-3.9,0-5.6,0.8c-1,0.4-1.9,1.2-2.3,2.2
		c-0.3,0.7-0.7,2.6,1.3,3.5c1,0.5,2.3,0.4,2.6-0.9c0.2-1.1-1.1-1.6-2-1c-1.2-1.1-0.1-2.7,1.5-3.1c0.5-0.2,1.4-0.6,3.6-0.6
		c1.1,0,2.1,0,3.1,0.1C82.3,26.6,82.6,26.8,82.9,26.9L82.9,26.9z M93.8,28.3c-1.5,0-3-0.3-4.5-0.7c-4.2-1.2-9-3.8-13.4-5.5
		c-0.8-0.3-1.7-0.6-2.7-0.9h17.3c-0.2,0.5-0.2,1.1-0.2,1.7c0.1,0.5,0.2,1.1,0.5,1.5c0.2,0.4,0.6,0.9,1,1.2c0.4,0.4,0.9,0.6,1.5,0.8
		c0.6,0.1,1.2,0,1.7-0.2c1-0.4,2-1.2,2.2-2.5c0.1-0.6-0.1-1.4-0.7-2s-1.5-0.6-2.1-0.4l0,0c-0.5,0.2-0.8,0.7-0.6,1.2
		c0.2,0.5,0.7,0.8,1.2,0.7c0.2-0.1,0.2,0,0.2,0s0.1,0.1,0,0.3c0,0.3-0.4,0.7-0.9,0.9c-0.5,0.2-0.9,0.1-1.3-0.2
		c-0.4-0.3-0.7-0.9-0.8-1.5c-0.1-1.2,0.6-2.4,1.9-2.9c1.2-0.6,2.6-0.6,3.7,0.2c0.9,0.7,1.7,2.1,1.7,3.4
		C99.5,25.6,97.6,28.1,93.8,28.3z"/>
	<path class="st1" d="M106.9,162.6c1.4,0.4,3.4-0.4,4-1.7c0.6-1.4-0.5-3.1-1.9-2.9c-0.9,0.1-1.5,0.9-1.2,1.8
		c0.3,0.8,1.7,0.5,1.5-0.4c0.6,2.5-2,2.1-2,2.1c-2.2-0.4-2.2-4.1,0.4-5.2c0.6-0.2,1.3-0.3,2-0.4c0.2,0.2,0.4,0.4,0.7,0.6
		c0.8,0.6,1.8,0.9,2.8,0.9s1.9-0.3,2.8-0.7c0.7-0.4,1.4-0.9,1.9-1.7l23.4-0.8c-1.6,0.9-2.5,2.7-1.9,4.4c0.5,1.3,2.6,3,3.8,1.4
		c0.8-1.2-0.7-2.8-1.8-1.7c-0.2,0.2-0.2,0.5-0.1,0.7c-0.5-0.5-0.7-1.5-0.6-2c0.1-0.7,0.7-1.4,1.4-1.7c1-0.6,2-0.5,3.1-0.2
		c0.6,1.1,1.4,2,2.3,2.7c2.7,2.1,7,3,10.6,1c0.5-0.3,1-0.6,1.4-1c-0.8,2.5-0.2,5.4,2.5,7c0.6,0.3,1-0.5,0.5-0.9
		c-2.9-2.3-2.4-5.9-0.3-7.9c2.2-2.1,5.3-1.6,6.5-0.5s1.5,4.3,0,4.2c-1.5,0-1.9-2.1-3.2-0.8c-0.7,0.6-0.6,1.9-0.2,2.7
		c0.8,1.5,2.7,1.9,4.2,1.2c1.7-0.9,2.5-2.9,2.3-4.8c-0.2-1.3-0.7-2.3-1.4-3.1c0.8,0.7,1.9,1.2,3.2,1.2c1.8,0.1,3.9-0.8,4.6-2.6
		c0.6-1.5,0.1-3.4-1.4-4.1c-0.8-0.4-2.1-0.3-2.6,0.3c-1.1,1.4,0.9,1.7,1,3.2s-3,1.4-4.2,0.3c-1.1-1.1-1.9-4.1,0.1-6.5
		c1.9-2.3,5.5-3,7.9-0.3c0.4,0.5,1.2,0,0.8-0.6c-1.7-2.4-4.2-3-6.5-2.3c0.3-0.4,0.5-0.8,0.7-1.2c1.7-3.7,0.5-7.9-1.8-10.5
		c-0.8-0.9-1.8-1.6-2.9-2.1c-0.4-1-0.5-2.1,0-3.1c0.3-0.7,0.9-1.3,1.6-1.5c0.5-0.1,1.5,0,2.1,0.5c-0.2-0.1-0.5-0.1-0.7,0.2
		c-1,1.2,0.7,2.6,1.8,1.7c1.5-1.3-0.2-3.3-1.6-3.7c-1.8-0.5-3.6,0.5-4.3,2.2l-0.8-23.4c0.7-0.6,1.2-1.3,1.5-2
		c0.4-0.9,0.6-1.8,0.5-2.8s-0.4-2-1.1-2.7c-0.2-0.2-0.4-0.4-0.6-0.6c0-0.7,0.1-1.4,0.3-2c0.9-2.6,4.6-2.9,5.1-0.7
		c0,0.1,0.5,2.6-2,2.2c0.9,0.1,1.1-1.3,0.3-1.5c-0.9-0.3-1.7,0.3-1.7,1.3c0,1.4,1.7,2.3,3,1.7c1.3-0.7,1.9-2.7,1.5-4.1
		c-0.9-2.7-5.9-3-7.3,1.1c-0.1,0.4-0.2,0.9-0.2,1.3c-1-0.6-2.2-0.9-3.4-0.9c-3.4,0.2-6.5,3.2-6.4,7.7c0,1.8,0.5,3.4,1,5
		c0.5,1.5,1.2,3,1.8,4.4c-4.6,5.2-7.8,10.5-9.6,17.9c-0.5,2.2-0.8,4.4-0.7,6.7c0,0.1,0,0.3,0,0.4c-0.3,0-0.6,0-0.9,0
		c-2.3,0.1-4.5,0.5-6.6,1.2c-7.3,2.3-12.3,5.9-17.2,10.8c-1.5-0.6-3-1.1-4.6-1.5s-3.3-0.7-5.1-0.7c-4.5,0.2-7.3,3.5-7.3,6.9
		c0,1.2,0.4,2.4,1.1,3.3c-0.4,0-0.9,0.2-1.3,0.3C103.5,156.9,104.1,161.9,106.9,162.6z M144.3,146.1c0.9,0.2,1.8,0,2.6-0.5
		c-0.5,0.4-0.9,0.8-1.3,1.2c-0.1,0.2-0.3,0.4-0.4,0.6C145,146.9,144.7,146.4,144.3,146.1z M144.2,151.6c0,0.3,0,0.6,0.1,0.9h-1.4
		c0.1-0.1,0.3-0.2,0.4-0.2C143.6,152.1,143.9,151.9,144.2,151.6z M156.8,156.7c-3.4,1.8-8.1-0.2-9.2-3.2c-1.6-4,2.1-6.6,3.6-5
		c0.8,0.8,2.1,0.8,2.9,0c2.2-2.2-1.6-5.1-5.1-4.1c-0.7,0.2-1.3,0.5-1.9,0.9c0.9-0.7,1.4-1.9,1.1-3.1c-0.3-1.2-1.9-2.1-2.9-1.7
		c-0.7,0.3-0.9,1.2-0.7,1.7c0.3,0.7,1.5,0.9,1.8,0.1c1,1.4-0.6,2.5-1.6,2.4c-1-0.2-1.6-0.5-2.1-1.4c-0.7-1.5-0.1-3,0.9-4.2
		c1.4-1.6,3.1-2.1,5-2.5c0.2,0,0.4,0,0.6,0c0.2,1.6,0.7,3.1,1.3,4.5c1.7,3.5,4.8,6,8.2,7c0.4,1.3,1,2.5,1.9,3.4
		C160.2,153.9,158.7,155.7,156.8,156.7z M163.1,153.1c0.2,0.1,0.5,0.2,0.7,0.3c-0.6,0.2-1.1,0.4-1.6,0.7c0.2-0.4,0.4-0.8,0.5-1.3
		C162.8,153,162.9,153,163.1,153.1z M168,147.9c0-0.1-0.1-0.1-0.1-0.2c0.3-0.1,0.6-0.3,0.9-0.4c-0.2,0.4-0.3,0.8-0.4,1.3
		C168.2,148.3,168.1,148.1,168,147.9z M166,149c0.5,0.8,0.7,1.7,0.8,2.6c-0.9,0-1.8-0.2-2.6-0.6c-2-1-2.9-2.8-3.2-4.8
		C163,146.3,164.9,147.2,166,149z M158.7,144.2c0,0.6,0,1.2,0,1.8c-2.7-1-5-2.9-6.3-5.6c-0.6-1.1-0.9-2.3-1.2-3.6
		c1.1,0.2,2.2,0.5,3.2,0.9c3,1.2,5.2,3.6,6.3,6.4C160.1,144.1,159.4,144.1,158.7,144.2z M171.6,141.4c-0.9,2.1-2.8,3.7-5.2,4.6
		c-1-0.9-2.2-1.4-3.5-1.7c-1.2-3.7-3.9-6.8-7.8-8.3c-1.3-0.5-2.7-0.8-4.1-1c0-0.1,0-0.1,0-0.2c0.2-1.9,0.6-3.7,2.2-5.2
		c1.1-1.1,2.6-1.8,4.1-1.2c0.9,0.4,1.3,1,1.5,2s-0.8,2.7-2.2,1.8c0.8-0.4,0.5-1.6-0.2-1.8c-0.5-0.2-1.4,0.1-1.7,0.8
		c-0.3,1,0.6,2.6,1.9,2.8c1.3,0.2,2.4-0.4,3-1.3c-0.3,0.6-0.6,1.2-0.7,1.9c-0.8,3.6,2.4,7.1,4.4,4.8c0.7-0.9,0.6-2.1-0.2-2.9
		c-1.7-1.4,0.7-5.2,4.8-4C170.9,133.4,173.2,137.9,171.6,141.4z M166.7,129.1c-0.3,0-0.6,0-0.9,0c0.2-0.3,0.5-0.6,0.7-1
		c0.1-0.1,0.1-0.3,0.2-0.4V129.1z M160.2,129.6c0.4,0.3,0.9,0.6,1.4,0.8c-0.2,0.1-0.4,0.3-0.6,0.4c-0.4,0.4-0.8,0.9-1.1,1.4
		C160.3,131.4,160.4,130.5,160.2,129.6z M158.6,100.5c0-3.8,2.5-5.8,4.7-5.8c1.4-0.1,2.8,0.7,3.5,1.6c0.8,1,0.8,2.4,0.3,3.7
		c-0.5,1.2-1.7,2.1-2.8,1.9c-0.5,0-1.1-0.4-1.5-0.8s-0.4-0.8-0.3-1.3c0.2-0.5,0.6-0.9,0.9-0.9c0.2,0,0.3,0,0.3,0s0,0,0,0.2
		c-0.1,0.5,0.2,1,0.7,1.2c0.5,0.1,1.1-0.2,1.2-0.7l0,0c0.2-0.6,0.1-1.5-0.5-2c-0.6-0.6-1.4-0.7-2-0.6c-1.3,0.2-2.1,1.3-2.4,2.3
		c-0.2,0.5-0.2,1.1-0.1,1.7c0.1,0.6,0.4,1.1,0.8,1.5c0.4,0.4,0.8,0.7,1.3,0.9c0.4,0.2,1,0.4,1.5,0.4c0.6,0,1.1,0,1.7-0.2l0.6,17.3
		c-0.3-0.9-0.6-1.8-1-2.6c-1.8-4.4-4.6-9.1-5.9-13.2C159,103.5,158.6,102,158.6,100.5z M160.3,111.4L160.3,111.4
		c0.2,0.2,0.3,0.5,0.4,0.8c0.1,1,0.2,2.1,0.2,3.1c0,2.2-0.4,3.1-0.5,3.6c-0.4,1.5-1.9,2.8-3,1.6c0.5-1,0-2.2-1.1-2
		c-1.3,0.3-1.3,1.6-0.8,2.6c1,1.9,2.8,1.5,3.5,1.2c1-0.5,1.7-1.4,2.1-2.4c0.7-1.7,0.8-3.7,0.6-5.6v0.1c1.4,2.9,3,5.8,3.7,8.8
		c1,4.2-1.5,6.7-3.5,5.9c-3.1-1.2-1.4-4.3-0.2-3.3c0.4,0.3,0.3,0.5,0.3,0.4c-0.2,0.5,0,1.1,0.5,1.3s1.1,0,1.3-0.5
		c0.9-2.4-3.2-4.5-4.8-1.3c-0.3,0.7-0.4,1.4-0.2,2.1c-1.4-1.1-3.5-1.2-5.2-0.2c-1.1,0.6-2,1.6-2.6,2.8c0.1-0.7,0.2-1.4,0.4-2.1
		C153.1,121.3,156.4,116,160.3,111.4z M126.1,147.4c4.3-4.2,9.4-7.8,16.2-9.8c0.7-0.2,1.4-0.4,2.1-0.5c-1.1,0.7-2,1.7-2.6,2.8
		c-0.8,1.7-0.6,3.8,0.6,5.1c-0.7-0.1-1.4-0.1-2.1,0.3c-3.1,1.8-0.7,5.7,1.6,4.7c0.5-0.2,0.7-0.8,0.4-1.3s-0.8-0.7-1.3-0.4
		c0.2,0,0,0.2-0.4-0.2c-1-1.2,1.9-3.1,3.3-0.1c0.9,1.9-1.4,4.6-5.7,3.9c-3.1-0.5-6-1.8-9-3.1h-0.1c1.9,0.1,3.9-0.2,5.5-1
		c1-0.5,1.9-1.3,2.3-2.3c0.3-0.7,0.6-2.6-1.4-3.5c-1-0.4-2.4-0.3-2.6,0.9c-0.2,1.1,1.1,1.5,2,0.9c1.3,1,0.1,2.7-1.4,3.1
		c-0.5,0.2-1.4,0.6-3.6,0.8c-1,0.1-2.1,0-3.1,0C126.7,147.7,126.4,147.5,126.1,147.4L126.1,147.4z M115.1,146.4
		c1.5-0.1,3,0.2,4.5,0.6c4.2,1.1,9.1,3.5,13.6,5c0.9,0.3,1.8,0.6,2.7,0.8l-17.3,0.6c0.1-0.5,0.2-1.1,0.1-1.7c-0.1-0.5-0.3-1-0.5-1.5
		c-0.3-0.4-0.6-0.8-1-1.2c-0.4-0.3-1-0.6-1.6-0.7c-0.6-0.1-1.2,0-1.7,0.2c-1,0.4-1.9,1.3-2.1,2.6c-0.1,0.6,0.1,1.4,0.7,1.9
		c0.6,0.6,1.5,0.6,2.1,0.4l0,0c0.5-0.2,0.8-0.7,0.6-1.3c-0.2-0.5-0.7-0.8-1.2-0.6c-0.2,0.1-0.2,0-0.2,0s-0.1-0.1-0.1-0.3
		c0-0.3,0.4-0.8,0.9-1s0.9-0.1,1.3,0.2s0.8,0.9,0.9,1.4c0.2,1.1-0.6,2.4-1.8,3c-1.2,0.6-2.6,0.7-3.7-0.1c-1-0.6-1.8-2-1.8-3.4
		C109.5,149.3,111.3,146.7,115.1,146.4z"/>
	<g>
		<path class="st2" d="M116.3,97.7c15-15,19.7-32.1,12.3-39.6c-7.5-7.5-24.4-2.5-39.4,12.5s-20,31.9-12.5,39.4
			C84.1,117.5,101.3,112.7,116.3,97.7z"/>
		<g>
			<path class="st3" d="M108.9,84.8c0.6,0.6,1.1,1.1,1.7,1.7c1.9,1.9,4.6,2.1,6,0.5c0,0,0,0,0-0.1c1.4-1.6,1-4.4-0.8-6.2
				c-0.5-0.5-1.1-1.1-1.6-1.6c-1.8-1.8-4.4-2-5.9-0.5c0,0,0,0-0.1,0.1C106.7,80.1,107,82.9,108.9,84.8z"/>
			<path class="st3" d="M103.3,90.3c0.6,0.6,1.1,1.1,1.7,1.7c1.9,1.9,4.7,2.2,6.2,0.7c0,0,0,0,0.1-0.1c1.5-1.5,1.2-4.3-0.7-6.2
				c-0.6-0.6-1.1-1.1-1.7-1.7c-1.9-1.9-4.6-2.1-6.1-0.6c0,0,0,0-0.1,0.1C101.2,85.7,101.5,88.4,103.3,90.3z"/>
			<path class="st3" d="M128.6,58.1L128.6,58.1c1.3-1.2,1.5-2.9,0.5-3.8c-0.3-0.3-0.6-0.6-0.9-0.9c-0.9-0.9-3-1.2-4.7-0.4
				c0,0,0,0-0.1,0c-1.6,0.8-1.9,2.6-0.6,3.8c0.4,0.4,0.8,0.7,1.1,1.1C125.3,59.3,127.3,59.3,128.6,58.1z"/>
			<path class="st3" d="M114.2,79.1c0.5,0.5,1.1,1.1,1.6,1.6c1.8,1.8,4.4,1.9,5.6,0.3c0,0,0,0,0-0.1c1.3-1.7,0.9-4.4-0.7-6
				c-0.5-0.5-1-1-1.5-1.5c-1.7-1.6-4.2-1.8-5.6-0.3c0,0,0,0-0.1,0.1C112.2,74.6,112.4,77.3,114.2,79.1z"/>
		</g>
		<path id="SVGCleanerId_0" class="st3" d="M133.6,63.1C133.6,63.1,133.7,63.1,133.6,63.1c0.9-1.6,0.8-3.5-0.1-4.4
			c-0.3-0.3-0.6-0.6-0.9-0.9c-0.9-0.9-2.7-0.9-4,0.2l0,0c-1.3,1.1-1.3,3.2,0,4.4c0.4,0.4,0.8,0.7,1.1,1.1
			C130.9,64.9,132.7,64.6,133.6,63.1z"/>
		<g>
			<path id="SVGCleanerId_0_1_" class="st3" d="M133.6,63.1C133.6,63.1,133.7,63.1,133.6,63.1c0.9-1.6,0.8-3.5-0.1-4.4
				c-0.3-0.3-0.6-0.6-0.9-0.9c-0.9-0.9-2.7-0.9-4,0.2l0,0c-1.3,1.1-1.3,3.2,0,4.4c0.4,0.4,0.8,0.7,1.1,1.1
				C130.9,64.9,132.7,64.6,133.6,63.1z"/>
		</g>
		<g>
			<path class="st3" d="M119.3,73.3c0.5,0.5,1,1,1.5,1.5c1.7,1.7,4,1.7,5.2,0c0,0,0,0,0-0.1c1.1-1.7,0.8-4.2-0.6-5.7
				c-0.4-0.4-0.9-0.9-1.3-1.3c-1.5-1.4-3.8-1.5-5.2-0.1l0,0C117.4,69.1,117.6,71.7,119.3,73.3z"/>
			<path class="st3" d="M124.1,67.8c0.4,0.4,0.9,0.9,1.3,1.3c1.5,1.5,3.6,1.3,4.6-0.3c0,0,0,0,0-0.1c1-1.6,0.8-3.9-0.4-5.1
				c-0.4-0.4-0.8-0.7-1.1-1.1c-1.2-1.2-3.3-1.2-4.6,0.1l0,0C122.5,64,122.6,66.3,124.1,67.8z"/>
			<path class="st3" d="M107.7,72.6c-0.5-0.5-1.1-1.1-1.6-1.6c-1.8-1.8-4.5-2.1-6.1-0.7c0,0,0,0-0.1,0.1c-1.6,1.4-1.3,4.2,0.5,6
				c0.6,0.6,1.1,1.1,1.7,1.7c1.9,1.9,4.6,2.1,6.1,0.6c0,0,0,0,0.1-0.1C109.8,77,109.5,74.3,107.7,72.6z"/>
			<path class="st3" d="M118.7,62.4c-0.4-0.4-0.9-0.9-1.3-1.3c-1.5-1.5-4-1.8-5.6-0.6c0,0,0,0-0.1,0c-1.6,1.2-1.6,3.6,0.1,5.3
				c0.5,0.5,1,1,1.5,1.5c1.7,1.7,4.2,1.8,5.6,0.4l0,0C120.3,66.2,120.2,63.9,118.7,62.4z"/>
			<path class="st3" d="M124,58c-0.4-0.4-0.8-0.7-1.1-1.1c-1.2-1.2-3.6-1.5-5.2-0.5c0,0,0,0-0.1,0c-1.6,1-1.8,3.1-0.2,4.6
				c0.4,0.4,0.9,0.9,1.3,1.3c1.5,1.5,3.8,1.6,5.1,0.2l0,0C125.2,61.3,125.2,59.3,124,58z"/>
			<path class="st3" d="M102.1,78c-0.6-0.6-1.1-1.1-1.7-1.7c-1.9-1.9-4.6-2.2-6.2-0.7c0,0,0,0-0.1,0.1c-1.5,1.5-1.2,4.3,0.7,6.2
				c0.6,0.6,1.1,1.1,1.7,1.7c1.9,1.9,4.6,2.2,6.1,0.6c0,0,0,0,0.1-0.1C104.3,82.6,104,79.9,102.1,78z"/>
			<path class="st3" d="M96.6,83.6c-0.6-0.6-1.1-1.1-1.7-1.7c-1.9-1.9-4.6-2.1-6-0.5c0,0,0,0-0.1,0.1c-1.4,1.6-1.1,4.3,0.7,6.1
				c0.5,0.5,1.1,1.1,1.6,1.6c1.8,1.8,4.5,2.1,6,0.6c0,0,0,0,0.1-0.1C98.7,88.2,98.5,85.4,96.6,83.6z"/>
			<path class="st3" d="M113.3,67.3c-0.5-0.5-1-1-1.5-1.5c-1.7-1.6-4.3-2-6-0.7c0,0,0,0-0.1,0c-1.6,1.3-1.4,3.9,0.4,5.7
				c0.5,0.5,1.1,1.1,1.6,1.6c1.8,1.8,4.5,2,5.9,0.5c0,0,0,0,0.1-0.1C115.1,71.5,114.9,69,113.3,67.3z"/>
			<path class="st3" d="M124.9,95.3C124.9,95.2,124.9,95.2,124.9,95.3c1.4-1.8,0.9-4.7-0.9-6.5c1.8,1.8,4.3,1.8,5.4,0c0,0,0,0,0-0.1
				c1.1-1.9,0.6-4.7-1.1-6.4c1.7,1.7,3.9,1.5,4.8-0.5c0,0,0,0,0-0.1c0.9-1.9,0.4-4.7-1-6.1c1.5,1.5,3.4,1.1,4.1-0.8c0,0,0,0,0-0.1
				c0.7-1.9,0.3-4.4-1-5.6c-0.4-0.4-0.8-0.7-1.1-1.1c-1.2-1.2-3-0.9-4.1,0.6c0,0,0,0,0,0.1c-1.1,1.6-0.8,4.1,0.7,5.6
				c-1.5-1.4-3.5-1.3-4.7,0.4c0,0,0,0,0,0.1c-1.2,1.7-0.8,4.4,0.8,6c-1.6-1.6-4-1.6-5.3,0c0,0,0,0,0,0.1c-1.3,1.7-0.9,4.4,0.9,6.2
				c-1.8-1.8-4.3-1.9-5.7-0.3c0,0,0,0,0,0.1c-1.4,1.6-1.1,4.4,0.8,6.3c0.6,0.6,1.1,1.1,1.7,1.7C120.9,96.7,123.6,97,124.9,95.3z"/>
			<path class="st3" d="M99.6,64.4c-0.5-0.5-1.1-1.1-1.6-1.6c-1.8-1.8-4.7-2.2-6.3-0.9c0,0,0,0-0.1,0c-1.7,1.4-1.4,4,0.4,5.9
				c0.6,0.6,1.1,1.1,1.7,1.7c1.9,1.9,4.6,2.2,6.2,0.7c0,0,0,0,0.1-0.1C101.5,68.8,101.4,66.2,99.6,64.4z"/>
			<path class="st3" d="M105.7,59.8c-0.5-0.5-1-1-1.5-1.5c-1.7-1.7-4.5-2.2-6.3-1c0,0,0,0-0.1,0c-1.8,1.2-1.7,3.7,0.1,5.5
				c0.5,0.5,1.1,1.1,1.6,1.6c1.8,1.8,4.6,2.1,6.2,0.8c0,0,0,0,0.1,0C107.4,63.8,107.3,61.4,105.7,59.8z"/>
			<path class="st3" d="M111.9,55.7c-0.5-0.4-0.9-0.9-1.4-1.3c-1.5-1.5-4.2-2-6.1-1c0,0,0,0-0.1,0c-1.9,1-2,3.2-0.3,4.9
				c0.5,0.5,1,1,1.5,1.5c1.7,1.7,4.4,2,6,0.8c0,0,0,0,0.1,0C113.3,59.3,113.4,57.2,111.9,55.7z"/>
			<path class="st3" d="M118.3,52.4c-0.4-0.4-0.8-0.8-1.1-1.1c-1.2-1.2-3.8-1.8-5.8-1c0,0,0,0-0.1,0c-1.9,0.7-2.2,2.6-0.7,4.1
				c0.5,0.4,0.9,0.9,1.4,1.3c1.5,1.5,4,1.8,5.6,0.7c0,0,0,0,0.1,0C119.2,55.4,119.5,53.6,118.3,52.4z"/>
		</g>
		<g>
			<path class="st4" d="M107.3,81.1c0.4,0.5,0.5,0.7,2.3,2.5c2.9,2.9,7,1.5,6.9-2.1c-0.4-0.5-0.5-0.6-2.3-2.4
				C111.4,76.3,107.3,77.6,107.3,81.1z"/>
			<path class="st4" d="M123,55.2c1.8,1.8,4.8,0.9,5.5-1.4c-0.1-0.1-0.2-0.2-0.4-0.4c-1.5-1.5-5.2-1-6,0.9
				C122.5,54.6,122.8,54.9,123,55.2z"/>
			<path class="st4" d="M119.3,73.3c-2.6-2.6-6.6-1.2-6.6,2.1c0.3,0.5,0.4,0.5,2.2,2.3c2.8,2.8,6.5,1.2,6.5-2.3
				C121,75.1,121,75,119.3,73.3z"/>
			<path class="st4" d="M128.7,60.8c1.8,1.8,4.3,0.5,4.6-2.3c-0.2-0.2-0.4-0.4-0.7-0.7c-1.5-1.5-4.5-0.4-5,1.9
				C128,60.1,128.3,60.4,128.7,60.8z"/>
			<path class="st4" d="M124.1,67.8c-1.5-1.4-3.8-1.5-5.2-0.1l0,0c-0.6,0.6-0.9,1.4-0.9,2.3c0.3,0.3,0.3,0.3,1.9,2
				c2.5,2.5,5.9,1,5.9-2.5C125.5,69.2,125.5,69.2,124.1,67.8z"/>
			<path class="st4" d="M124.5,66.2c2.2,2.2,5.2,0.7,5.3-2.5c-0.1-0.1,0.2,0.1-1.2-1.2c-1.9-1.9-5.4-0.6-5.6,2.1
				C123,64.8,123,64.8,124.5,66.2z"/>
			<path class="st4" d="M106.1,70.9c-2.8-2.8-7.2-1.7-7.2,1.8c0.4,0.5,0.5,0.6,2.3,2.4c2.9,2.9,7.1,1.6,7.1-1.9
				C108,72.8,107.8,72.7,106.1,70.9z"/>
			<path class="st4" d="M112.3,64.4c2.6,2.6,6.3,1.3,6.6-1.8c-0.1-0.2-0.1-0.1-1.5-1.5c-2.3-2.3-6.6-1.4-6.9,1.5
				C110.7,62.8,110.6,62.8,112.3,64.4z"/>
			<path class="st4" d="M117.7,59.6c2.2,2.2,5.6,1.1,6.1-1.6c-0.3-0.3-0.7-0.7-1-1c-1.9-1.9-6-1.2-6.5,1.3
				C116.5,58.3,116,57.9,117.7,59.6z"/>
			<path class="st4" d="M100.4,76.3c-2.9-2.9-7.2-1.7-7.2,1.9c0.4,0.5,0.5,0.7,2.3,2.5c2.9,2.9,7.2,1.6,7.2-1.9
				C102.4,78.2,102.3,78.2,100.4,76.3z"/>
			<path class="st4" d="M106.8,69.7c2.8,2.8,6.8,1.5,6.9-1.9c-0.2-0.3-0.3-0.3-1.9-2c-2.6-2.6-7-1.6-7.1,1.6
				C104.9,67.9,105,67.9,106.8,69.7z"/>
			<path class="st4" d="M92.7,66.7c2.9,2.9,7.2,1.7,7.3-1.7c-0.2-0.4-0.3-0.4-2.1-2.2c-2.8-2.8-7.4-1.9-7.5,1.5
				C90.8,64.8,90.9,64.8,92.7,66.7z"/>
			<path class="st4" d="M98.6,61.5c2.8,2.8,7.1,1.7,7.4-1.4c-0.2-0.2-0.2-0.2-1.8-1.8c-2.6-2.6-7.3-2-7.6,1.2
				C96.8,59.8,96.8,59.7,98.6,61.5z"/>
			<path class="st4" d="M104.7,56.9c2.6,2.6,6.7,1.6,7.3-1.1c-0.1-0.1-1.3-1.3-1.4-1.4c-2.3-2.3-7-1.9-7.6,0.8
				C103.1,55.3,103,55.2,104.7,56.9z"/>
			<path class="st4" d="M111,52.9c2.3,2.2,6.1,1.5,7-0.8c-0.3-0.3-0.5-0.5-0.8-0.8c-1.9-1.9-6.5-1.8-7.4,0.4
				C110.2,52.1,110.6,52.5,111,52.9z"/>
		</g>
		<path class="st5" d="M123.7,96c-20.6-8.5-35.6-3.9-35.6-3.9L75.5,118c25.1,11.5,43.2-11,49.1-18.8C125.3,98.1,124.9,96.5,123.7,96
			z"/>
		<path class="st6" d="M123.7,96c-0.2-0.1-0.4-0.2-0.6-0.2l-1.1,1.5c-7.6,10.2-18.7,20.7-32.5,20.7c-4,0-8.2-0.9-12.5-2.9l-1.4,2.9
			c25.1,11.5,43.2-11,49.1-18.8C125.3,98.1,124.9,96.5,123.7,96z"/>
		<path class="st7" d="M91.4,58.9c4.1,7.7,13.1,31.6-15.9,59c-23.2-23.2,4-52,12.2-59.6C88.8,57.2,90.7,57.5,91.4,58.9z"/>
		<path class="st5" d="M91.4,58.9c-0.7-1.4-2.6-1.7-3.8-0.6c-0.1,0-0.1,0.1-0.2,0.1l1.1,2c4.5,8.2,11.7,29.8-15.2,55.2
			c0.7,0.8,1.4,1.6,2.2,2.4C104.6,90.6,95.6,66.6,91.4,58.9z"/>
	</g>
</g>
<g>
	<circle class="st0" cx="1174.3" cy="87" r="64.9"/>
	<path class="st1" d="M1172.2,12.4c-1.4-0.4-3.4,0.3-4,1.6c-0.6,1.4,0.4,3.1,1.8,3c0.9-0.1,1.5-0.9,1.2-1.7
		c-0.3-0.8-1.7-0.5-1.5,0.4c-0.5-2.5,2-2.1,2.1-2.1c2.2,0.5,2.1,4.2-0.6,5.1c-0.6,0.2-1.3,0.3-2,0.3c-0.2-0.2-0.4-0.4-0.7-0.6
		c-0.8-0.6-1.8-0.9-2.8-1c-1,0-1.9,0.2-2.8,0.6c-0.8,0.4-1.5,0.9-2,1.6h-23.4c1.6-0.8,2.6-2.6,2.1-4.4c-0.4-1.4-2.5-3.1-3.7-1.5
		c-0.9,1.1,0.6,2.8,1.7,1.8c0.2-0.2,0.3-0.5,0.2-0.7c0.5,0.5,0.7,1.5,0.5,2.1c-0.2,0.7-0.8,1.4-1.4,1.7c-1,0.5-2.1,0.5-3.1,0.1
		c-0.5-1.1-1.3-2.1-2.2-2.8c-2.6-2.2-6.9-3.3-10.5-1.4c-0.5,0.3-1,0.6-1.4,0.9c0.9-2.5,0.4-5.4-2.3-7.1c-0.6-0.4-1,0.4-0.6,0.8
		c2.8,2.4,2.2,6,0,7.9c-2.3,2-5.4,1.4-6.5,0.3c-1.1-1.1-1.3-4.3,0.2-4.2c1.4,0.1,1.9,2.1,3.2,0.9c0.7-0.6,0.7-1.9,0.3-2.7
		c-0.8-1.5-2.7-2-4.2-1.3c-1.8,0.8-2.6,2.9-2.4,4.7c0.1,1.3,0.6,2.3,1.3,3.1c-0.8-0.7-1.9-1.2-3.1-1.3c-1.8-0.2-3.9,0.7-4.7,2.4
		c-0.7,1.5-0.2,3.4,1.3,4.2c0.8,0.4,2.1,0.4,2.7-0.3c1.2-1.3-0.8-1.8-0.9-3.2c-0.1-1.5,3.1-1.3,4.2-0.2c1.1,1.1,1.7,4.2-0.3,6.5
		c-1.9,2.2-5.6,2.8-7.9,0c-0.4-0.5-1.2,0-0.8,0.6c1.6,2.5,4.1,3.1,6.4,2.5c-0.3,0.4-0.5,0.8-0.7,1.2c-1.9,3.6-0.8,7.9,1.4,10.5
		c0.7,0.9,1.7,1.7,2.8,2.2c0.3,1,0.4,2.1-0.1,3.1c-0.3,0.6-1,1.3-1.7,1.4c-0.5,0.1-1.5,0-2.1-0.5c0.2,0.1,0.5,0.1,0.7-0.2
		c1-1.1-0.6-2.6-1.8-1.7c-1.6,1.2,0.1,3.3,1.5,3.7c1.8,0.6,3.6-0.4,4.4-2.1V70c-0.7,0.5-1.2,1.2-1.6,2c-0.4,0.9-0.6,1.8-0.6,2.8
		s0.4,2,1,2.8c0.2,0.2,0.4,0.5,0.6,0.7c0,0.7-0.1,1.4-0.3,2c-1,2.6-4.7,2.8-5.1,0.6c0-0.1-0.4-2.6,2.1-2.1c-0.9-0.2-1.2,1.2-0.4,1.5
		c0.9,0.3,1.7-0.3,1.7-1.2c0.1-1.4-1.6-2.4-3-1.8c-1.4,0.6-2,2.6-1.6,4c0.8,2.8,5.8,3.2,7.4-0.9c0.2-0.4,0.3-0.9,0.3-1.3
		c1,0.6,2.2,1,3.4,1c3.4-0.1,6.6-3,6.7-7.5c0-1.8-0.4-3.4-0.8-5c-0.5-1.6-1.1-3-1.7-4.5c4.7-5.1,8.2-10.2,10.2-17.5
		c0.6-2.1,1-4.4,0.9-6.6c0-0.1,0-0.3,0-0.4c0.3,0,0.6,0,0.9,0c2.3,0,4.5-0.4,6.6-0.9c7.3-2,12.5-5.5,17.5-10.2
		c1.5,0.6,3,1.2,4.5,1.7c1.6,0.5,3.3,0.8,5,0.8c4.5,0,7.4-3.3,7.5-6.7c0-1.2-0.4-2.4-1-3.4c0.4,0,0.9-0.1,1.3-0.3
		C1175.4,18.3,1175,13.3,1172.2,12.4z M1134.3,27.8c-0.9-0.2-1.8-0.1-2.6,0.4c0.5-0.3,0.9-0.7,1.3-1.2c0.2-0.2,0.3-0.4,0.4-0.6
		C1133.7,26.9,1134,27.4,1134.3,27.8z M1134.6,22.2c0-0.3,0-0.6-0.1-0.9h1.4c-0.1,0.1-0.3,0.1-0.4,0.2
		C1135.2,21.7,1134.9,21.9,1134.6,22.2z M1122.1,16.7c3.5-1.7,8.1,0.5,9.1,3.5c1.4,4-2.3,6.5-3.8,4.9c-0.8-0.8-2.1-0.9-2.9-0.1
		c-2.3,2.1,1.4,5.1,4.9,4.3c0.7-0.2,1.3-0.5,1.9-0.8c-0.9,0.7-1.5,1.8-1.2,3.1c0.3,1.2,1.8,2.2,2.8,1.8c0.7-0.3,1-1.2,0.8-1.7
		c-0.3-0.7-1.4-1-1.8-0.1c-0.9-1.4,0.7-2.5,1.7-2.3s1.6,0.6,2,1.5c0.7,1.5,0,3-1.1,4.1c-1.4,1.6-3.2,2-5.1,2.3c-0.2,0-0.4,0-0.6,0
		c-0.2-1.6-0.5-3.1-1.2-4.6c-1.5-3.6-4.5-6.1-8-7.3c-0.3-1.3-0.9-2.5-1.8-3.5C1118.7,19.4,1120.2,17.6,1122.1,16.7z M1115.8,20.1
		c-0.2-0.1-0.5-0.3-0.7-0.4c0.6-0.2,1.1-0.4,1.6-0.7c-0.2,0.4-0.4,0.8-0.6,1.2C1116,20.2,1115.9,20.1,1115.8,20.1z M1110.7,25.1
		c0,0.1,0.1,0.1,0.1,0.2c-0.3,0.1-0.6,0.2-1,0.4c0.2-0.4,0.4-0.8,0.5-1.3C1110.5,24.7,1110.6,24.9,1110.7,25.1z M1112.7,24
		c-0.4-0.8-0.7-1.7-0.7-2.6c0.9,0,1.8,0.2,2.6,0.7c1.9,1,2.8,2.9,3,4.9C1115.6,26.8,1113.8,26,1112.7,24z M1119.8,29.1
		c0.1-0.6,0.1-1.2,0.1-1.8c2.6,1.1,4.9,3.1,6.1,5.8c0.5,1.1,0.9,2.4,1.1,3.6c-1.1-0.2-2.2-0.5-3.2-1c-2.9-1.3-5-3.8-6-6.6
		C1118.5,29.2,1119.1,29.2,1119.8,29.1z M1106.8,31.5c0.9-2,2.9-3.6,5.4-4.4c1,0.9,2.1,1.5,3.4,1.8c1.1,3.7,3.7,6.9,7.5,8.6
		c1.3,0.6,2.7,0.9,4.1,1.1c0,0.1,0,0.1,0,0.2c-0.3,1.9-0.8,3.7-2.3,5.1c-1.1,1-2.6,1.7-4.1,1.1c-0.9-0.4-1.3-1-1.5-2
		c-0.2-1,0.9-2.6,2.3-1.7c-0.8,0.4-0.6,1.6,0.1,1.8c0.5,0.2,1.4-0.1,1.7-0.8c0.4-1-0.6-2.6-1.8-2.8c-1.3-0.3-2.4,0.3-3.1,1.2
		c0.3-0.6,0.6-1.2,0.8-1.9c0.9-3.5-2.1-7.2-4.3-4.9c-0.8,0.8-0.7,2.1,0.1,2.9c1.6,1.5-0.9,5.2-4.9,3.8
		C1107.3,39.5,1105.1,35,1106.8,31.5z M1111.4,43.9c0.3,0,0.6,0,0.9,0.1c-0.2,0.3-0.5,0.6-0.7,0.9c-0.1,0.1-0.2,0.3-0.2,0.4V43.9z
		 M1117.9,43.7c-0.4-0.4-0.9-0.6-1.4-0.8c0.2-0.1,0.4-0.3,0.6-0.4c0.5-0.4,0.8-0.9,1.2-1.3C1117.8,41.8,1117.7,42.8,1117.9,43.7z
		 M1118.5,72.8c-0.1,3.8-2.7,5.7-4.9,5.7c-1.4,0-2.8-0.8-3.4-1.7c-0.8-1-0.8-2.4-0.2-3.7c0.5-1.2,1.7-2,2.9-1.9
		c0.5,0.1,1.1,0.4,1.5,0.8c0.3,0.4,0.4,0.8,0.2,1.3c-0.2,0.5-0.6,0.9-0.9,0.9c-0.2,0-0.3,0-0.3,0s0,0,0-0.2c0.1-0.5-0.2-1-0.7-1.2
		s-1.1,0.1-1.2,0.6l0,0c-0.2,0.6-0.1,1.5,0.4,2.1c0.6,0.6,1.3,0.8,2,0.7c1.3-0.2,2.2-1.2,2.5-2.2c0.2-0.5,0.3-1.1,0.2-1.7
		s-0.4-1.1-0.8-1.5c-0.4-0.4-0.8-0.7-1.2-1c-0.4-0.2-1-0.4-1.5-0.5c-0.6-0.1-1.1,0-1.7,0.2V52.2c0.3,0.9,0.6,1.8,0.9,2.7
		c1.7,4.4,4.2,9.3,5.5,13.4C1118.2,69.8,1118.5,71.3,1118.5,72.8z M1117.2,61.9L1117.2,61.9c-0.2-0.2-0.3-0.5-0.4-0.8
		c0-1-0.1-2.1-0.1-3.1c0.1-2.2,0.5-3.1,0.6-3.6c0.4-1.5,2-2.7,3.1-1.5c-0.6,0.9-0.1,2.2,1,2c1.3-0.2,1.3-1.6,0.9-2.6
		c-0.9-2-2.8-1.6-3.5-1.3c-1,0.4-1.8,1.4-2.2,2.3c-0.8,1.7-0.9,3.6-0.8,5.6v-0.1c-1.3-2.9-2.8-5.9-3.4-8.9c-0.8-4.3,1.8-6.6,3.7-5.8
		c3.1,1.3,1.2,4.3,0.1,3.3c-0.4-0.3-0.3-0.6-0.3-0.4c0.2-0.5,0-1.1-0.5-1.3s-1.1,0-1.3,0.5c-0.9,2.4,3.1,4.6,4.8,1.5
		c0.4-0.7,0.4-1.4,0.3-2.1c1.4,1.2,3.5,1.3,5.2,0.4c1.1-0.6,2-1.5,2.7-2.7c-0.1,0.7-0.3,1.4-0.4,2.1
		C1124.7,52.2,1121.2,57.4,1117.2,61.9z M1152.5,27c-4.5,4-9.7,7.5-16.5,9.3c-0.7,0.2-1.4,0.3-2.1,0.4c1.1-0.7,2.1-1.6,2.7-2.7
		c0.9-1.7,0.8-3.8-0.4-5.2c0.7,0.2,1.4,0.1,2.1-0.3c3.2-1.7,0.9-5.7-1.5-4.8c-0.5,0.2-0.7,0.8-0.5,1.3c0.2,0.5,0.8,0.7,1.3,0.5
		c-0.2,0,0-0.2,0.4,0.3c1,1.2-2,3-3.3-0.1c-0.8-2,1.5-4.6,5.8-3.7c3,0.6,6,2,8.9,3.4h0.1c-1.9-0.1-3.9,0-5.6,0.8
		c-1,0.4-1.9,1.2-2.3,2.2c-0.3,0.7-0.7,2.6,1.3,3.5c1,0.5,2.3,0.4,2.6-0.9c0.2-1.1-1.1-1.6-2-1c-1.2-1.1-0.1-2.7,1.5-3.1
		c0.5-0.2,1.4-0.6,3.6-0.6c1.1,0,2.1,0,3.1,0.1C1152,26.7,1152.3,26.9,1152.5,27L1152.5,27z M1163.5,28.4c-1.5,0-3-0.3-4.5-0.7
		c-4.2-1.2-9-3.8-13.4-5.5c-0.8-0.3-1.7-0.6-2.7-0.9h17.3c-0.2,0.5-0.2,1.1-0.2,1.7c0.1,0.5,0.2,1.1,0.5,1.5c0.2,0.4,0.6,0.9,1,1.2
		c0.4,0.4,0.9,0.6,1.5,0.8c0.6,0.1,1.2,0,1.7-0.2c1-0.4,2-1.2,2.2-2.5c0.1-0.6-0.1-1.4-0.7-2s-1.5-0.6-2.1-0.4l0,0
		c-0.5,0.2-0.8,0.7-0.6,1.2c0.2,0.5,0.7,0.8,1.2,0.7c0.2-0.1,0.2,0,0.2,0s0.1,0.1,0,0.3c0,0.3-0.4,0.7-0.9,0.9
		c-0.5,0.2-0.9,0.1-1.3-0.2c-0.4-0.3-0.7-0.9-0.8-1.5c-0.1-1.2,0.6-2.4,1.9-2.9c1.2-0.6,2.6-0.6,3.7,0.2c0.9,0.7,1.7,2.1,1.7,3.4
		C1169.2,25.7,1167.3,28.2,1163.5,28.4z"/>
	<path class="st1" d="M1176.6,162.7c1.4,0.4,3.4-0.4,4-1.7c0.6-1.4-0.5-3.1-1.9-2.9c-0.9,0.1-1.5,0.9-1.2,1.8
		c0.3,0.8,1.7,0.5,1.5-0.4c0.6,2.5-2,2.1-2,2.1c-2.2-0.4-2.2-4.1,0.4-5.2c0.6-0.2,1.3-0.3,2-0.4c0.2,0.2,0.4,0.4,0.7,0.6
		c0.8,0.6,1.8,0.9,2.8,0.9s1.9-0.3,2.8-0.7c0.7-0.4,1.4-0.9,1.9-1.7l23.4-0.8c-1.6,0.9-2.5,2.7-1.9,4.4c0.5,1.3,2.6,3,3.8,1.4
		c0.8-1.2-0.7-2.8-1.8-1.7c-0.2,0.2-0.2,0.5-0.1,0.7c-0.5-0.5-0.7-1.5-0.6-2c0.1-0.7,0.7-1.4,1.4-1.7c1-0.6,2-0.5,3.1-0.2
		c0.6,1.1,1.4,2,2.3,2.7c2.7,2.1,7,3,10.6,1c0.5-0.3,1-0.6,1.4-1c-0.8,2.5-0.2,5.4,2.5,7c0.6,0.3,1-0.5,0.5-0.9
		c-2.9-2.3-2.4-5.9-0.3-7.9c2.2-2.1,5.3-1.6,6.5-0.5c1.2,1.1,1.5,4.3,0,4.2c-1.5,0-1.9-2.1-3.2-0.8c-0.7,0.6-0.6,1.9-0.2,2.7
		c0.8,1.5,2.7,1.9,4.2,1.2c1.7-0.9,2.5-2.9,2.3-4.8c-0.2-1.3-0.7-2.3-1.4-3.1c0.8,0.7,1.9,1.2,3.2,1.2c1.8,0.1,3.9-0.8,4.6-2.6
		c0.6-1.5,0.1-3.4-1.4-4.1c-0.8-0.4-2.1-0.3-2.6,0.3c-1.1,1.4,0.9,1.7,1,3.2c0.1,1.5-3,1.4-4.2,0.3c-1.1-1.1-1.9-4.1,0.1-6.5
		c1.9-2.3,5.5-3,7.9-0.3c0.4,0.5,1.2,0,0.8-0.6c-1.7-2.4-4.2-3-6.5-2.3c0.3-0.4,0.5-0.8,0.7-1.2c1.7-3.7,0.5-7.9-1.8-10.5
		c-0.8-0.9-1.8-1.6-2.9-2.1c-0.4-1-0.5-2.1,0-3.1c0.3-0.7,0.9-1.3,1.6-1.5c0.5-0.1,1.5,0,2.1,0.5c-0.2-0.1-0.5-0.1-0.7,0.2
		c-1,1.2,0.7,2.6,1.8,1.7c1.5-1.3-0.2-3.3-1.6-3.7c-1.8-0.5-3.6,0.5-4.3,2.2l-0.8-23.4c0.7-0.6,1.2-1.3,1.5-2
		c0.4-0.9,0.6-1.8,0.5-2.8s-0.4-2-1.1-2.7c-0.2-0.2-0.4-0.4-0.6-0.6c0-0.7,0.1-1.4,0.3-2c0.9-2.6,4.6-2.9,5.1-0.7
		c0,0.1,0.5,2.6-2,2.2c0.9,0.1,1.1-1.3,0.3-1.5c-0.9-0.3-1.7,0.3-1.7,1.3c0,1.4,1.7,2.3,3,1.7c1.3-0.7,1.9-2.7,1.5-4.1
		c-0.9-2.7-5.9-3-7.3,1.1c-0.1,0.4-0.2,0.9-0.2,1.3c-1-0.6-2.2-0.9-3.4-0.9c-3.4,0.2-6.5,3.2-6.4,7.7c0,1.8,0.5,3.4,1,5
		c0.5,1.5,1.2,3,1.8,4.4c-4.6,5.2-7.8,10.5-9.6,17.9c-0.5,2.2-0.8,4.4-0.7,6.7c0,0.1,0,0.3,0,0.4c-0.3,0-0.6,0-0.9,0
		c-2.3,0.1-4.5,0.5-6.6,1.2c-7.3,2.3-12.3,5.9-17.2,10.8c-1.5-0.6-3-1.1-4.6-1.5c-1.6-0.4-3.3-0.7-5.1-0.7c-4.5,0.2-7.3,3.5-7.3,6.9
		c0,1.2,0.4,2.4,1.1,3.3c-0.4,0-0.9,0.2-1.3,0.3C1173.2,157,1173.8,162,1176.6,162.7z M1213.9,146.2c0.9,0.2,1.8,0,2.6-0.5
		c-0.5,0.4-0.9,0.8-1.3,1.2c-0.1,0.2-0.3,0.4-0.4,0.6C1214.6,147,1214.3,146.5,1213.9,146.2z M1213.8,151.7c0,0.3,0,0.6,0.1,0.9
		h-1.4c0.1-0.1,0.3-0.2,0.4-0.2C1213.3,152.2,1213.6,152,1213.8,151.7z M1226.5,156.8c-3.4,1.8-8.1-0.2-9.2-3.2
		c-1.6-4,2.1-6.6,3.6-5c0.8,0.8,2.1,0.8,2.9,0c2.2-2.2-1.6-5.1-5.1-4.1c-0.7,0.2-1.3,0.5-1.9,0.9c0.9-0.7,1.4-1.9,1.1-3.1
		c-0.3-1.2-1.9-2.1-2.9-1.7c-0.7,0.3-0.9,1.2-0.7,1.7c0.3,0.7,1.5,0.9,1.8,0.1c1,1.4-0.6,2.5-1.6,2.4c-1-0.2-1.6-0.5-2.1-1.4
		c-0.7-1.5-0.1-3,0.9-4.2c1.4-1.6,3.1-2.1,5-2.5c0.2,0,0.4,0,0.6,0c0.2,1.6,0.7,3.1,1.3,4.5c1.7,3.5,4.8,6,8.2,7
		c0.4,1.3,1,2.5,1.9,3.4C1229.9,154,1228.4,155.8,1226.5,156.8z M1232.7,153.2c0.2,0.1,0.5,0.2,0.7,0.3c-0.6,0.2-1.1,0.4-1.6,0.7
		c0.2-0.4,0.4-0.8,0.5-1.3C1232.5,153.1,1232.6,153.1,1232.7,153.2z M1237.6,148c0-0.1-0.1-0.1-0.1-0.2c0.3-0.1,0.6-0.3,0.9-0.4
		c-0.2,0.4-0.3,0.8-0.4,1.3C1237.9,148.4,1237.7,148.2,1237.6,148z M1235.6,149.1c0.5,0.8,0.7,1.7,0.8,2.6c-0.9,0-1.8-0.2-2.6-0.6
		c-2-1-2.9-2.8-3.2-4.8C1232.7,146.4,1234.5,147.3,1235.6,149.1z M1228.4,144.3c0,0.6,0,1.2,0,1.8c-2.7-1-5-2.9-6.3-5.6
		c-0.6-1.1-0.9-2.3-1.2-3.6c1.1,0.2,2.2,0.5,3.2,0.9c3,1.2,5.2,3.6,6.3,6.4C1229.7,144.2,1229.1,144.2,1228.4,144.3z M1241.3,141.5
		c-0.9,2.1-2.8,3.7-5.2,4.6c-1-0.9-2.2-1.4-3.5-1.7c-1.2-3.7-3.9-6.8-7.8-8.3c-1.3-0.5-2.7-0.8-4.1-1c0-0.1,0-0.1,0-0.2
		c0.2-1.9,0.6-3.7,2.2-5.2c1.1-1.1,2.6-1.8,4.1-1.2c0.9,0.4,1.3,1,1.5,2c0.2,1-0.8,2.7-2.2,1.8c0.8-0.4,0.5-1.6-0.2-1.8
		c-0.5-0.2-1.4,0.1-1.7,0.8c-0.3,1,0.6,2.6,1.9,2.8c1.3,0.2,2.4-0.4,3-1.3c-0.3,0.6-0.6,1.2-0.7,1.9c-0.8,3.6,2.4,7.1,4.4,4.8
		c0.7-0.9,0.6-2.1-0.2-2.9c-1.7-1.4,0.7-5.2,4.8-4C1240.5,133.5,1242.9,138,1241.3,141.5z M1236.3,129.2c-0.3,0-0.6,0-0.9,0
		c0.2-0.3,0.5-0.6,0.7-1c0.1-0.1,0.1-0.3,0.2-0.4L1236.3,129.2z M1229.8,129.7c0.4,0.3,0.9,0.6,1.4,0.8c-0.2,0.1-0.4,0.3-0.6,0.4
		c-0.4,0.4-0.8,0.9-1.1,1.4C1230,131.5,1230.1,130.6,1229.8,129.7z M1228.2,100.6c0-3.8,2.5-5.8,4.7-5.8c1.4-0.1,2.8,0.7,3.5,1.6
		c0.8,1,0.8,2.4,0.3,3.7c-0.5,1.2-1.7,2.1-2.8,1.9c-0.5,0-1.1-0.4-1.5-0.8c-0.4-0.4-0.4-0.8-0.3-1.3c0.2-0.5,0.6-0.9,0.9-0.9
		c0.2,0,0.3,0,0.3,0s0,0,0,0.2c-0.1,0.5,0.2,1,0.7,1.2c0.5,0.1,1.1-0.2,1.2-0.7l0,0c0.2-0.6,0.1-1.5-0.5-2c-0.6-0.6-1.4-0.7-2-0.6
		c-1.3,0.2-2.1,1.3-2.4,2.3c-0.2,0.5-0.2,1.1-0.1,1.7c0.1,0.6,0.4,1.1,0.8,1.5s0.8,0.7,1.3,0.9c0.4,0.2,1,0.4,1.5,0.4
		c0.6,0,1.1,0,1.7-0.2l0.6,17.3c-0.3-0.9-0.6-1.8-1-2.6c-1.8-4.4-4.6-9.1-5.9-13.2C1228.6,103.6,1228.3,102.1,1228.2,100.6z
		 M1229.9,111.5L1229.9,111.5c0.2,0.2,0.3,0.5,0.4,0.8c0.1,1,0.2,2.1,0.2,3.1c0,2.2-0.4,3.1-0.5,3.6c-0.4,1.5-1.9,2.8-3,1.6
		c0.5-1,0-2.2-1.1-2c-1.3,0.3-1.3,1.6-0.8,2.6c1,1.9,2.8,1.5,3.5,1.2c1-0.5,1.7-1.4,2.1-2.4c0.7-1.7,0.8-3.7,0.6-5.6v0.1
		c1.4,2.9,3,5.8,3.7,8.8c1,4.2-1.5,6.7-3.5,5.9c-3.1-1.2-1.4-4.3-0.2-3.3c0.4,0.3,0.3,0.5,0.3,0.4c-0.2,0.5,0,1.1,0.5,1.3
		s1.1,0,1.3-0.5c0.9-2.4-3.2-4.5-4.8-1.3c-0.3,0.7-0.4,1.4-0.2,2.1c-1.4-1.1-3.5-1.2-5.2-0.2c-1.1,0.6-2,1.6-2.6,2.8
		c0.1-0.7,0.2-1.4,0.4-2.1C1222.8,121.4,1226,116.1,1229.9,111.5z M1195.8,147.5c4.3-4.2,9.4-7.8,16.2-9.8c0.7-0.2,1.4-0.4,2.1-0.5
		c-1.1,0.7-2,1.7-2.6,2.8c-0.8,1.7-0.6,3.8,0.6,5.1c-0.7-0.1-1.4-0.1-2.1,0.3c-3.1,1.8-0.7,5.7,1.6,4.7c0.5-0.2,0.7-0.8,0.4-1.3
		s-0.8-0.7-1.3-0.4c0.2,0,0,0.2-0.4-0.2c-1-1.2,1.9-3.1,3.3-0.1c0.9,1.9-1.4,4.6-5.7,3.9c-3.1-0.5-6-1.8-9-3.1h-0.1
		c1.9,0.1,3.9-0.2,5.5-1c1-0.5,1.9-1.3,2.3-2.3c0.3-0.7,0.6-2.6-1.4-3.5c-1-0.4-2.4-0.3-2.6,0.9c-0.2,1.1,1.1,1.5,2,0.9
		c1.3,1,0.1,2.7-1.4,3.1c-0.5,0.2-1.4,0.6-3.6,0.8c-1,0.1-2.1,0-3.1,0C1196.3,147.8,1196,147.6,1195.8,147.5L1195.8,147.5z
		 M1184.8,146.5c1.5-0.1,3,0.2,4.5,0.6c4.2,1.1,9.1,3.5,13.6,5c0.9,0.3,1.8,0.6,2.7,0.8l-17.3,0.6c0.1-0.5,0.2-1.1,0.1-1.7
		c-0.1-0.5-0.3-1-0.5-1.5c-0.3-0.4-0.6-0.8-1-1.2c-0.4-0.3-1-0.6-1.6-0.7c-0.6-0.1-1.2,0-1.7,0.2c-1,0.4-1.9,1.3-2.1,2.6
		c-0.1,0.6,0.1,1.4,0.7,1.9c0.6,0.6,1.5,0.6,2.1,0.4l0,0c0.5-0.2,0.8-0.7,0.6-1.3c-0.2-0.5-0.7-0.8-1.2-0.6c-0.2,0.1-0.2,0-0.2,0
		s-0.1-0.1-0.1-0.3c0-0.3,0.4-0.8,0.9-1s0.9-0.1,1.3,0.2s0.8,0.9,0.9,1.4c0.2,1.1-0.6,2.4-1.8,3s-2.6,0.7-3.7-0.1
		c-1-0.6-1.8-2-1.8-3.4C1179.2,149.4,1181,146.8,1184.8,146.5z"/>
	<g>
		<path class="st4" d="M1175.7,133c-2.8,1.9-6.6,1.3-8.5-1.5s-1.3-6.6,1.5-8.5c2.8-1.9,6.6-1.3,8.5,1.5
			C1179.2,127.3,1178.5,131.1,1175.7,133z"/>
		<path class="st8" d="M1178.3,127.1c-0.4,0.8-1.1,1.6-1.9,2.1c-2.8,1.9-6.6,1.3-8.5-1.5c-0.6-0.8-0.9-1.7-1.1-2.6
			c-1.1,2-1,4.5,0.4,6.4c1.9,2.8,5.8,3.4,8.5,1.5C1177.7,131.7,1178.6,129.3,1178.3,127.1z"/>
		<path class="st4" d="M1154.8,112.4c-2.8,1.9-6.6,1.3-8.5-1.5c-1.9-2.8-1.3-6.6,1.5-8.5c2.8-1.9,6.6-1.3,8.5,1.5
			C1158.2,106.6,1157.5,110.5,1154.8,112.4z"/>
		<path class="st4" d="M1177.8,126.3c-2.8,1.9-6.6,1.3-8.5-1.5c-1.9-2.8-1.3-6.6,1.5-8.5c2.8-1.9,6.6-1.3,8.5,1.5
			C1181.2,120.5,1180.6,124.3,1177.8,126.3z"/>
		<path class="st4" d="M1170.9,119.1c-2.8,1.9-6.6,1.3-8.5-1.5c-1.9-2.8-1.3-6.6,1.5-8.5c2.8-1.9,6.6-1.3,8.5,1.5
			C1174.3,113.4,1173.7,117.2,1170.9,119.1z"/>
		<g>
			<path class="st8" d="M1157.3,106.5c-0.4,0.8-1.1,1.6-1.9,2.1c-2.8,1.9-6.6,1.3-8.5-1.5c-0.6-0.8-0.9-1.7-1.1-2.6
				c-1.1,2-1,4.5,0.4,6.4c1.9,2.8,5.8,3.4,8.5,1.5C1156.7,111,1157.6,108.7,1157.3,106.5z"/>
			<path class="st8" d="M1180.3,120.4c-0.4,0.8-1.1,1.6-1.9,2.1c-2.8,1.9-6.6,1.3-8.5-1.5c-0.6-0.8-0.9-1.7-1.1-2.6
				c-1.1,2-1,4.5,0.4,6.4c1.9,2.8,5.8,3.4,8.5,1.5C1179.8,124.9,1180.7,122.6,1180.3,120.4z"/>
			<path class="st8" d="M1173.4,113.2c-0.4,0.8-1.1,1.6-1.9,2.1c-2.8,1.9-6.6,1.3-8.5-1.5c-0.6-0.8-0.9-1.7-1.1-2.6
				c-1.1,2-1,4.5,0.4,6.4c1.9,2.8,5.8,3.4,8.5,1.5C1172.9,117.8,1173.8,115.4,1173.4,113.2z"/>
			<path class="st4" d="M1161.1,107.1c1-0.7,2.3-1.3,4.3-1c2.3,0.4,3.3,1.8,4,2.8c0.6,0.9,1,1.4,2.1,1.6s1.6-0.2,2.5-0.8
				c1-0.7,2.4-1.7,4.7-1.3c2.3,0.4,3.3,1.8,4,2.8c0.1,0.1,0.2,0.2,0.3,0.3c0.2,0.2,0.5,0.1,0.5-0.2l-0.2-14l-18.4-3.2l-4.4,12.6
				C1160.5,107,1160.8,107.2,1161.1,107.1L1161.1,107.1z"/>
		</g>
		<path class="st3" d="M1183.5,111.3l-0.2-14l-4.2-0.7l-1.6,11.7c0.3,0,0.7,0,1.1,0.1c2.3,0.4,3.3,1.8,4,2.8
			c0.1,0.1,0.2,0.2,0.3,0.3C1183.1,111.7,1183.5,111.6,1183.5,111.3z"/>
		<path class="st9" d="M1146.3,93.1c-0.3-0.5-0.2-1.2,0.3-1.5s1.2-0.2,1.5,0.3c2.9,4.2,8.7,5.3,12.9,2.6l-2.4-0.5
			c-3-0.7-5.6-2.8-6.9-5.6l-1.1-2.4c-0.3-0.5,0-1.2,0.5-1.4c0.5-0.3,1.2,0,1.4,0.5l1.1,2.4c1,2.2,3,3.8,5.4,4.4l4.9,1.1
			c0.4,0.1,0.7,0.4,0.8,0.9c0.1,0.4-0.1,0.9-0.4,1.1l-1.6,1.1C1157.4,99.7,1150,98.4,1146.3,93.1z"/>
		<path class="st4" d="M1190.8,52.3l-17.6-3c-7.8-1.4-15.3,3.9-16.7,11.7l-0.8,4.8c-1.5,8.4,0.3,17,4.8,24.2l0,0
			c1.4,2.2,3.6,3.6,6.1,4.1l15.3,2.6c2.5,0.4,5.1-0.2,7.1-1.8c6.7-5.2,11.3-12.8,12.7-21.2l0.8-4.8
			C1203.9,61.1,1198.6,53.6,1190.8,52.3z"/>
		<path class="st3" d="M1189,95c6.7-5.2,11.3-12.8,12.7-21.2l0.8-4.8c1-5.6-1.5-11.1-5.8-14.2c0.6,2,0.7,4.2,0.3,6.4l-0.8,4.8
			c-1.5,8.4-6,16-12.7,21.2c-2,1.6-4.6,2.2-7.1,1.8l-15.3-2.6c-1.1-0.2-2.2-0.6-3.2-1.2c0.7,1.7,1.6,3.4,2.6,5l0,0
			c1.4,2.2,3.6,3.6,6.1,4.1l15.3,2.6C1184.4,97.2,1186.9,96.6,1189,95z"/>
		<path class="st10" d="M1182.4,100.1l-17.5-3c-1.6-0.3-2.6-1.8-2.3-3.3v-0.2c0.3-1.6,1.8-2.6,3.3-2.3l17.5,3
			c1.6,0.3,2.6,1.8,2.3,3.3v0.2C1185.5,99.4,1184,100.4,1182.4,100.1z"/>
		<path class="st9" d="M1185.7,97.7c0.1-0.4,0.1-0.8,0-1.2c-0.6,0.9-1.8,1.5-3,1.3l-17.3-3c-1.2-0.2-2.1-1.1-2.4-2.2
			c-0.2,0.3-0.4,0.7-0.5,1.1c-0.3,1.6,0.8,3.1,2.4,3.4l17.3,3C1183.9,100.4,1185.5,99.3,1185.7,97.7z"/>
	</g>
</g>
<g>
	<circle class="st0" cx="532.6" cy="87" r="64.9"/>
	<path class="st1" d="M530.5,12.4c-1.4-0.4-3.4,0.3-4,1.6c-0.6,1.4,0.4,3.1,1.8,3c0.9-0.1,1.5-0.9,1.2-1.7c-0.3-0.8-1.7-0.5-1.5,0.4
		c-0.5-2.5,2-2.1,2.1-2.1c2.2,0.5,2.1,4.2-0.6,5.1c-0.6,0.2-1.3,0.3-2,0.3c-0.2-0.2-0.4-0.4-0.7-0.6c-0.8-0.6-1.8-0.9-2.8-1
		c-1,0-1.9,0.2-2.8,0.6c-0.8,0.4-1.5,0.9-2,1.6h-23.4c1.6-0.8,2.6-2.6,2.1-4.4c-0.4-1.4-2.5-3.1-3.7-1.5c-0.9,1.1,0.6,2.8,1.7,1.8
		c0.2-0.2,0.3-0.5,0.2-0.7c0.5,0.5,0.7,1.5,0.5,2.1c-0.2,0.7-0.8,1.4-1.4,1.7c-1,0.5-2.1,0.5-3.1,0.1c-0.5-1.1-1.3-2.1-2.2-2.8
		c-2.6-2.2-6.9-3.3-10.5-1.4c-0.5,0.3-1,0.6-1.4,0.9c0.9-2.5,0.4-5.4-2.3-7.1c-0.6-0.4-1,0.4-0.6,0.8c2.8,2.4,2.2,6,0,7.9
		c-2.3,2-5.4,1.4-6.5,0.3s-1.3-4.3,0.2-4.2c1.4,0.1,1.9,2.1,3.2,0.9c0.7-0.6,0.7-1.9,0.3-2.7c-0.8-1.5-2.7-2-4.2-1.3
		c-1.8,0.8-2.6,2.9-2.4,4.7c0.1,1.3,0.6,2.3,1.3,3.1c-0.8-0.7-1.9-1.2-3.1-1.3c-1.8-0.2-3.9,0.7-4.7,2.4c-0.7,1.5-0.2,3.4,1.3,4.2
		c0.8,0.4,2.1,0.4,2.7-0.3c1.2-1.3-0.8-1.8-0.9-3.2c-0.1-1.5,3.1-1.3,4.2-0.2c1.1,1.1,1.7,4.2-0.3,6.5c-1.9,2.2-5.6,2.8-7.9,0
		c-0.4-0.5-1.2,0-0.8,0.6c1.6,2.5,4.1,3.1,6.4,2.5c-0.3,0.4-0.5,0.8-0.7,1.2c-1.9,3.6-0.8,7.9,1.4,10.5c0.7,0.9,1.7,1.7,2.8,2.2
		c0.3,1,0.4,2.1-0.1,3.1c-0.3,0.6-1,1.3-1.7,1.4c-0.5,0.1-1.5,0-2.1-0.5c0.2,0.1,0.5,0.1,0.7-0.2c1-1.1-0.6-2.6-1.8-1.7
		c-1.6,1.2,0.1,3.3,1.5,3.7c1.8,0.6,3.6-0.4,4.4-2.1V70c-0.7,0.5-1.2,1.2-1.6,2c-0.4,0.9-0.6,1.8-0.6,2.8s0.4,2,1,2.8
		c0.2,0.2,0.4,0.5,0.6,0.7c0,0.7-0.1,1.4-0.3,2c-1,2.6-4.7,2.8-5.1,0.6c0-0.1-0.4-2.6,2.1-2.1c-0.9-0.2-1.2,1.2-0.4,1.5
		c0.9,0.3,1.7-0.3,1.7-1.2c0.1-1.4-1.6-2.4-3-1.8s-2,2.6-1.6,4c0.8,2.8,5.8,3.2,7.4-0.9c0.2-0.4,0.3-0.9,0.3-1.3c1,0.6,2.2,1,3.4,1
		c3.4-0.1,6.6-3,6.7-7.5c0-1.8-0.4-3.4-0.8-5c-0.5-1.6-1.1-3-1.7-4.5c4.7-5.1,8.2-10.2,10.2-17.5c0.6-2.1,1-4.4,0.9-6.6
		c0-0.1,0-0.3,0-0.4c0.3,0,0.6,0,0.9,0c2.3,0,4.5-0.4,6.6-0.9c7.3-2,12.5-5.5,17.5-10.2c1.5,0.6,3,1.2,4.5,1.7
		c1.6,0.5,3.3,0.8,5,0.8c4.5,0,7.4-3.3,7.5-6.7c0-1.2-0.4-2.4-1-3.4c0.4,0,0.9-0.1,1.3-0.3C533.7,18.3,533.2,13.3,530.5,12.4z
		 M492.6,27.8c-0.9-0.2-1.8-0.1-2.6,0.4c0.5-0.3,0.9-0.7,1.3-1.2c0.2-0.2,0.3-0.4,0.4-0.6C491.9,26.9,492.2,27.4,492.6,27.8z
		 M492.9,22.2c0-0.3,0-0.6-0.1-0.9h1.4c-0.1,0.1-0.3,0.1-0.4,0.2C493.4,21.7,493.1,21.9,492.9,22.2z M480.4,16.7
		c3.5-1.7,8.1,0.5,9.1,3.5c1.4,4-2.3,6.5-3.8,4.9c-0.8-0.8-2.1-0.9-2.9-0.1c-2.3,2.1,1.4,5.1,4.9,4.3c0.7-0.2,1.3-0.5,1.9-0.8
		c-0.9,0.7-1.5,1.8-1.2,3.1c0.3,1.2,1.8,2.2,2.8,1.8c0.7-0.3,1-1.2,0.8-1.7c-0.3-0.7-1.4-1-1.8-0.1c-0.9-1.4,0.7-2.5,1.7-2.3
		s1.6,0.6,2,1.5c0.7,1.5,0,3-1.1,4.1c-1.4,1.6-3.2,2-5.1,2.3c-0.2,0-0.4,0-0.6,0c-0.2-1.6-0.5-3.1-1.2-4.6c-1.5-3.6-4.5-6.1-8-7.3
		c-0.3-1.3-0.9-2.5-1.8-3.5C476.9,19.4,478.5,17.6,480.4,16.7z M474.1,20.1c-0.2-0.1-0.5-0.3-0.7-0.4c0.6-0.2,1.1-0.4,1.6-0.7
		c-0.2,0.4-0.4,0.8-0.6,1.2C474.3,20.2,474.2,20.1,474.1,20.1z M469,25.1c0,0.1,0.1,0.1,0.1,0.2c-0.3,0.1-0.6,0.2-1,0.4
		c0.2-0.4,0.4-0.8,0.5-1.3C468.7,24.7,468.8,24.9,469,25.1z M471,24c-0.4-0.8-0.7-1.7-0.7-2.6c0.9,0,1.8,0.2,2.6,0.7
		c1.9,1,2.8,2.9,3,4.9C473.8,26.8,472,26,471,24z M478.1,29.1c0.1-0.6,0.1-1.2,0.1-1.8c2.6,1.1,4.9,3.1,6.1,5.8
		c0.5,1.1,0.9,2.4,1.1,3.6c-1.1-0.2-2.2-0.5-3.2-1c-2.9-1.3-5-3.8-6-6.6C476.7,29.2,477.4,29.2,478.1,29.1z M465.1,31.5
		c0.9-2,2.9-3.6,5.4-4.4c1,0.9,2.1,1.5,3.4,1.8c1.1,3.7,3.7,6.9,7.5,8.6c1.3,0.6,2.7,0.9,4.1,1.1c0,0.1,0,0.1,0,0.2
		c-0.3,1.9-0.8,3.7-2.3,5.1c-1.1,1-2.6,1.7-4.1,1.1c-0.9-0.4-1.3-1-1.5-2s0.9-2.6,2.3-1.7c-0.8,0.4-0.6,1.6,0.1,1.8
		c0.5,0.2,1.4-0.1,1.7-0.8c0.4-1-0.6-2.6-1.8-2.8c-1.3-0.3-2.4,0.3-3.1,1.2c0.3-0.6,0.6-1.2,0.8-1.9c0.9-3.5-2.1-7.2-4.3-4.9
		c-0.8,0.8-0.7,2.1,0.1,2.9c1.6,1.5-0.9,5.2-4.9,3.8C465.6,39.5,463.4,35,465.1,31.5z M469.7,43.9c0.3,0,0.6,0,0.9,0.1
		c-0.2,0.3-0.5,0.6-0.7,0.9c-0.1,0.1-0.2,0.3-0.2,0.4L469.7,43.9L469.7,43.9z M476.1,43.7c-0.4-0.4-0.9-0.6-1.4-0.8
		c0.2-0.1,0.4-0.3,0.6-0.4c0.5-0.4,0.8-0.9,1.2-1.3C476.1,41.8,475.9,42.8,476.1,43.7z M476.7,72.8c-0.1,3.8-2.7,5.7-4.9,5.7
		c-1.4,0-2.8-0.8-3.4-1.7c-0.8-1-0.8-2.4-0.2-3.7c0.5-1.2,1.7-2,2.9-1.9c0.5,0.1,1.1,0.4,1.5,0.8c0.3,0.4,0.4,0.8,0.2,1.3
		c-0.2,0.5-0.6,0.9-0.9,0.9c-0.2,0-0.3,0-0.3,0s0,0,0-0.2c0.1-0.5-0.2-1-0.7-1.2s-1.1,0.1-1.2,0.6l0,0c-0.2,0.6-0.1,1.5,0.4,2.1
		c0.6,0.6,1.3,0.8,2,0.7c1.3-0.2,2.2-1.2,2.5-2.2c0.2-0.5,0.3-1.1,0.2-1.7c-0.1-0.6-0.4-1.1-0.8-1.5s-0.8-0.7-1.2-1
		c-0.4-0.2-1-0.4-1.5-0.5c-0.6-0.1-1.1,0-1.7,0.2V52.2c0.3,0.9,0.6,1.8,0.9,2.7c1.7,4.4,4.2,9.3,5.5,13.4
		C476.5,69.8,476.8,71.3,476.7,72.8z M475.4,61.9L475.4,61.9c-0.2-0.2-0.3-0.5-0.4-0.8c0-1-0.1-2.1-0.1-3.1c0.1-2.2,0.5-3.1,0.6-3.6
		c0.4-1.5,2-2.7,3.1-1.5c-0.6,0.9-0.1,2.2,1,2c1.3-0.2,1.3-1.6,0.9-2.6c-0.9-2-2.8-1.6-3.5-1.3c-1,0.4-1.8,1.4-2.2,2.3
		c-0.8,1.7-0.9,3.6-0.8,5.6v-0.1c-1.3-2.9-2.8-5.9-3.4-8.9c-0.8-4.3,1.8-6.6,3.7-5.8c3.1,1.3,1.2,4.3,0.1,3.3
		c-0.4-0.3-0.3-0.6-0.3-0.4c0.2-0.5,0-1.1-0.5-1.3s-1.1,0-1.3,0.5c-0.9,2.4,3.1,4.6,4.8,1.5c0.4-0.7,0.4-1.4,0.3-2.1
		c1.4,1.2,3.5,1.3,5.2,0.4c1.1-0.6,2-1.5,2.7-2.7c-0.1,0.7-0.3,1.4-0.4,2.1C482.9,52.2,479.5,57.4,475.4,61.9z M510.8,27
		c-4.5,4-9.7,7.5-16.5,9.3c-0.7,0.2-1.4,0.3-2.1,0.4c1.1-0.7,2.1-1.6,2.7-2.7c0.9-1.7,0.8-3.8-0.4-5.2c0.7,0.2,1.4,0.1,2.1-0.3
		c3.2-1.7,0.9-5.7-1.5-4.8c-0.5,0.2-0.7,0.8-0.5,1.3s0.8,0.7,1.3,0.5c-0.2,0,0-0.2,0.4,0.3c1,1.2-2,3-3.3-0.1
		c-0.8-2,1.5-4.6,5.8-3.7c3,0.6,6,2,8.9,3.4h0.1c-1.9-0.1-3.9,0-5.6,0.8c-1,0.4-1.9,1.2-2.3,2.2c-0.3,0.7-0.7,2.6,1.3,3.5
		c1,0.5,2.3,0.4,2.6-0.9c0.2-1.1-1.1-1.6-2-1c-1.2-1.1-0.1-2.7,1.5-3.1c0.5-0.2,1.4-0.6,3.6-0.6c1.1,0,2.1,0,3.1,0.1
		C510.2,26.7,510.5,26.9,510.8,27L510.8,27z M521.7,28.4c-1.5,0-3-0.3-4.5-0.7c-4.2-1.2-9-3.8-13.4-5.5c-0.8-0.3-1.7-0.6-2.7-0.9
		h17.3c-0.2,0.5-0.2,1.1-0.2,1.7c0.1,0.5,0.2,1.1,0.5,1.5c0.2,0.4,0.6,0.9,1,1.2c0.4,0.4,0.9,0.6,1.5,0.8c0.6,0.1,1.2,0,1.7-0.2
		c1-0.4,2-1.2,2.2-2.5c0.1-0.6-0.1-1.4-0.7-2c-0.6-0.6-1.5-0.6-2.1-0.4l0,0c-0.5,0.2-0.8,0.7-0.6,1.2s0.7,0.8,1.2,0.7
		c0.2-0.1,0.2,0,0.2,0s0.1,0.1,0,0.3c0,0.3-0.4,0.7-0.9,0.9c-0.5,0.2-0.9,0.1-1.3-0.2c-0.4-0.3-0.7-0.9-0.8-1.5
		c-0.1-1.2,0.6-2.4,1.9-2.9c1.2-0.6,2.6-0.6,3.7,0.2c0.9,0.7,1.7,2.1,1.7,3.4C527.4,25.7,525.5,28.2,521.7,28.4z"/>
	<path class="st1" d="M534.8,162.7c1.4,0.4,3.4-0.4,4-1.7c0.6-1.4-0.5-3.1-1.9-2.9c-0.9,0.1-1.5,0.9-1.2,1.8
		c0.3,0.8,1.7,0.5,1.5-0.4c0.6,2.5-2,2.1-2,2.1c-2.2-0.4-2.2-4.1,0.4-5.2c0.6-0.2,1.3-0.3,2-0.4c0.2,0.2,0.4,0.4,0.7,0.6
		c0.8,0.6,1.8,0.9,2.8,0.9s1.9-0.3,2.8-0.7c0.7-0.4,1.4-0.9,1.9-1.7l23.4-0.8c-1.6,0.9-2.5,2.7-1.9,4.4c0.5,1.3,2.6,3,3.8,1.4
		c0.8-1.2-0.7-2.8-1.8-1.7c-0.2,0.2-0.2,0.5-0.1,0.7c-0.5-0.5-0.7-1.5-0.6-2c0.1-0.7,0.7-1.4,1.4-1.7c1-0.6,2-0.5,3.1-0.2
		c0.6,1.1,1.4,2,2.3,2.7c2.7,2.1,7,3,10.6,1c0.5-0.3,1-0.6,1.4-1c-0.8,2.5-0.2,5.4,2.5,7c0.6,0.3,1-0.5,0.5-0.9
		c-2.9-2.3-2.4-5.9-0.3-7.9c2.2-2.1,5.3-1.6,6.5-0.5s1.5,4.3,0,4.2c-1.5,0-1.9-2.1-3.2-0.8c-0.7,0.6-0.6,1.9-0.2,2.7
		c0.8,1.5,2.7,1.9,4.2,1.2c1.7-0.9,2.5-2.9,2.3-4.8c-0.2-1.3-0.7-2.3-1.4-3.1c0.8,0.7,1.9,1.2,3.2,1.2c1.8,0.1,3.9-0.8,4.6-2.6
		c0.6-1.5,0.1-3.4-1.4-4.1c-0.8-0.4-2.1-0.3-2.6,0.3c-1.1,1.4,0.9,1.7,1,3.2s-3,1.4-4.2,0.3c-1.1-1.1-1.9-4.1,0.1-6.5
		c1.9-2.3,5.5-3,7.9-0.3c0.4,0.5,1.2,0,0.8-0.6c-1.7-2.4-4.2-3-6.5-2.3c0.3-0.4,0.5-0.8,0.7-1.2c1.7-3.7,0.5-7.9-1.8-10.5
		c-0.8-0.9-1.8-1.6-2.9-2.1c-0.4-1-0.5-2.1,0-3.1c0.3-0.7,0.9-1.3,1.6-1.5c0.5-0.1,1.5,0,2.1,0.5c-0.2-0.1-0.5-0.1-0.7,0.2
		c-1,1.2,0.7,2.6,1.8,1.7c1.5-1.3-0.2-3.3-1.6-3.7c-1.8-0.5-3.6,0.5-4.3,2.2l-0.8-23.4c0.7-0.6,1.2-1.3,1.5-2
		c0.4-0.9,0.6-1.8,0.5-2.8s-0.4-2-1.1-2.7c-0.2-0.2-0.4-0.4-0.6-0.6c0-0.7,0.1-1.4,0.3-2c0.9-2.6,4.6-2.9,5.1-0.7
		c0,0.1,0.5,2.6-2,2.2c0.9,0.1,1.1-1.3,0.3-1.5c-0.9-0.3-1.7,0.3-1.7,1.3c0,1.4,1.7,2.3,3,1.7c1.3-0.7,1.9-2.7,1.5-4.1
		c-0.9-2.7-5.9-3-7.3,1.1c-0.1,0.4-0.2,0.9-0.2,1.3c-1-0.6-2.2-0.9-3.4-0.9c-3.4,0.2-6.5,3.2-6.4,7.7c0,1.8,0.5,3.4,1,5
		c0.5,1.5,1.2,3,1.8,4.4c-4.6,5.2-7.8,10.5-9.6,17.9c-0.5,2.2-0.8,4.4-0.7,6.7c0,0.1,0,0.3,0,0.4c-0.3,0-0.6,0-0.9,0
		c-2.3,0.1-4.5,0.5-6.6,1.2c-7.3,2.3-12.3,5.9-17.2,10.8c-1.5-0.6-3-1.1-4.6-1.5s-3.3-0.7-5.1-0.7c-4.5,0.2-7.3,3.5-7.3,6.9
		c0,1.2,0.4,2.4,1.1,3.3c-0.4,0-0.9,0.2-1.3,0.3C531.4,157,532,162,534.8,162.7z M572.2,146.2c0.9,0.2,1.8,0,2.6-0.5
		c-0.5,0.4-0.9,0.8-1.3,1.2c-0.1,0.2-0.3,0.4-0.4,0.6C572.9,147,572.6,146.5,572.2,146.2z M572.1,151.7c0,0.3,0,0.6,0.1,0.9h-1.4
		c0.1-0.1,0.3-0.2,0.4-0.2C571.5,152.2,571.8,152,572.1,151.7z M584.8,156.8c-3.4,1.8-8.1-0.2-9.2-3.2c-1.6-4,2.1-6.6,3.6-5
		c0.8,0.8,2.1,0.8,2.9,0c2.2-2.2-1.6-5.1-5.1-4.1c-0.7,0.2-1.3,0.5-1.9,0.9c0.9-0.7,1.4-1.9,1.1-3.1c-0.3-1.2-1.9-2.1-2.9-1.7
		c-0.7,0.3-0.9,1.2-0.7,1.7c0.3,0.7,1.5,0.9,1.8,0.1c1,1.4-0.6,2.5-1.6,2.4c-1-0.2-1.6-0.5-2.1-1.4c-0.7-1.5-0.1-3,0.9-4.2
		c1.4-1.6,3.1-2.1,5-2.5c0.2,0,0.4,0,0.6,0c0.2,1.6,0.7,3.1,1.3,4.5c1.7,3.5,4.8,6,8.2,7c0.4,1.3,1,2.5,1.9,3.4
		C588.1,154,586.6,155.8,584.8,156.8z M591,153.2c0.2,0.1,0.5,0.2,0.7,0.3c-0.6,0.2-1.1,0.4-1.6,0.7c0.2-0.4,0.4-0.8,0.5-1.3
		C590.8,153.1,590.8,153.1,591,153.2z M595.9,148c0-0.1-0.1-0.1-0.1-0.2c0.3-0.1,0.6-0.3,0.9-0.4c-0.2,0.4-0.3,0.8-0.4,1.3
		C596.1,148.4,596,148.2,595.9,148z M593.9,149.1c0.5,0.8,0.7,1.7,0.8,2.6c-0.9,0-1.8-0.2-2.6-0.6c-2-1-2.9-2.8-3.2-4.8
		C590.9,146.4,592.8,147.3,593.9,149.1z M586.7,144.3c0,0.6,0,1.2,0,1.8c-2.7-1-5-2.9-6.3-5.6c-0.6-1.1-0.9-2.3-1.2-3.6
		c1.1,0.2,2.2,0.5,3.2,0.9c3,1.2,5.2,3.6,6.3,6.4C588,144.2,587.3,144.2,586.7,144.3z M599.5,141.5c-0.9,2.1-2.8,3.7-5.2,4.6
		c-1-0.9-2.2-1.4-3.5-1.7c-1.2-3.7-3.9-6.8-7.8-8.3c-1.3-0.5-2.7-0.8-4.1-1c0-0.1,0-0.1,0-0.2c0.2-1.9,0.6-3.7,2.2-5.2
		c1.1-1.1,2.6-1.8,4.1-1.2c0.9,0.4,1.3,1,1.5,2s-0.8,2.7-2.2,1.8c0.8-0.4,0.5-1.6-0.2-1.8c-0.5-0.2-1.4,0.1-1.7,0.8
		c-0.3,1,0.6,2.6,1.9,2.8c1.3,0.2,2.4-0.4,3-1.3c-0.3,0.6-0.6,1.2-0.7,1.9c-0.8,3.6,2.4,7.1,4.4,4.8c0.7-0.9,0.6-2.1-0.2-2.9
		c-1.7-1.4,0.7-5.2,4.8-4C598.8,133.5,601.1,138,599.5,141.5z M594.6,129.2c-0.3,0-0.6,0-0.9,0c0.2-0.3,0.5-0.6,0.7-1
		c0.1-0.1,0.1-0.3,0.2-0.4V129.2z M588.1,129.7c0.4,0.3,0.9,0.6,1.4,0.8c-0.2,0.1-0.4,0.3-0.6,0.4c-0.4,0.4-0.8,0.9-1.1,1.4
		C588.2,131.5,588.3,130.6,588.1,129.7z M586.5,100.6c0-3.8,2.5-5.8,4.7-5.8c1.4-0.1,2.8,0.7,3.5,1.6c0.8,1,0.8,2.4,0.3,3.7
		c-0.5,1.2-1.7,2.1-2.8,1.9c-0.5,0-1.1-0.4-1.5-0.8s-0.4-0.8-0.3-1.3c0.2-0.5,0.6-0.9,0.9-0.9c0.2,0,0.3,0,0.3,0s0,0,0,0.2
		c-0.1,0.5,0.2,1,0.7,1.2c0.5,0.1,1.1-0.2,1.2-0.7l0,0c0.2-0.6,0.1-1.5-0.5-2c-0.6-0.6-1.4-0.7-2-0.6c-1.3,0.2-2.1,1.3-2.4,2.3
		c-0.2,0.5-0.2,1.1-0.1,1.7c0.1,0.6,0.4,1.1,0.8,1.5c0.4,0.4,0.8,0.7,1.3,0.9c0.4,0.2,1,0.4,1.5,0.4c0.6,0,1.1,0,1.7-0.2l0.6,17.3
		c-0.3-0.9-0.6-1.8-1-2.6c-1.8-4.4-4.6-9.1-5.9-13.2C586.9,103.6,586.5,102.1,586.5,100.6z M588.2,111.5L588.2,111.5
		c0.2,0.2,0.3,0.5,0.4,0.8c0.1,1,0.2,2.1,0.2,3.1c0,2.2-0.4,3.1-0.5,3.6c-0.4,1.5-1.9,2.8-3,1.6c0.5-1,0-2.2-1.1-2
		c-1.3,0.3-1.3,1.6-0.8,2.6c1,1.9,2.8,1.5,3.5,1.2c1-0.5,1.7-1.4,2.1-2.4c0.7-1.7,0.8-3.7,0.6-5.6v0.1c1.4,2.9,3,5.8,3.7,8.8
		c1,4.2-1.5,6.7-3.5,5.9c-3.1-1.2-1.4-4.3-0.2-3.3c0.4,0.3,0.3,0.5,0.3,0.4c-0.2,0.5,0,1.1,0.5,1.3s1.1,0,1.3-0.5
		c0.9-2.4-3.2-4.5-4.8-1.3c-0.3,0.7-0.4,1.4-0.2,2.1c-1.4-1.1-3.5-1.2-5.2-0.2c-1.1,0.6-2,1.6-2.6,2.8c0.1-0.7,0.2-1.4,0.4-2.1
		C581,121.4,584.3,116.1,588.2,111.5z M554,147.5c4.3-4.2,9.4-7.8,16.2-9.8c0.7-0.2,1.4-0.4,2.1-0.5c-1.1,0.7-2,1.7-2.6,2.8
		c-0.8,1.7-0.6,3.8,0.6,5.1c-0.7-0.1-1.4-0.1-2.1,0.3c-3.1,1.8-0.7,5.7,1.6,4.7c0.5-0.2,0.7-0.8,0.4-1.3s-0.8-0.7-1.3-0.4
		c0.2,0,0,0.2-0.4-0.2c-1-1.2,1.9-3.1,3.3-0.1c0.9,1.9-1.4,4.6-5.7,3.9c-3.1-0.5-6-1.8-9-3.1H557c1.9,0.1,3.9-0.2,5.5-1
		c1-0.5,1.9-1.3,2.3-2.3c0.3-0.7,0.6-2.6-1.4-3.5c-1-0.4-2.4-0.3-2.6,0.9c-0.2,1.1,1.1,1.5,2,0.9c1.3,1,0.1,2.7-1.4,3.1
		c-0.5,0.2-1.4,0.6-3.6,0.8c-1,0.1-2.1,0-3.1,0C554.6,147.8,554.3,147.6,554,147.5L554,147.5z M543,146.5c1.5-0.1,3,0.2,4.5,0.6
		c4.2,1.1,9.1,3.5,13.6,5c0.9,0.3,1.8,0.6,2.7,0.8l-17.3,0.6c0.1-0.5,0.2-1.1,0.1-1.7c-0.1-0.5-0.3-1-0.5-1.5
		c-0.3-0.4-0.6-0.8-1-1.2c-0.4-0.3-1-0.6-1.6-0.7c-0.6-0.1-1.2,0-1.7,0.2c-1,0.4-1.9,1.3-2.1,2.6c-0.1,0.6,0.1,1.4,0.7,1.9
		c0.6,0.6,1.5,0.6,2.1,0.4l0,0c0.5-0.2,0.8-0.7,0.6-1.3c-0.2-0.5-0.7-0.8-1.2-0.6c-0.2,0.1-0.2,0-0.2,0s-0.1-0.1-0.1-0.3
		c0-0.3,0.4-0.8,0.9-1s0.9-0.1,1.3,0.2c0.4,0.3,0.8,0.9,0.9,1.4c0.2,1.1-0.6,2.4-1.8,3s-2.6,0.7-3.7-0.1c-1-0.6-1.8-2-1.8-3.4
		C537.5,149.4,539.2,146.8,543,146.5z"/>
	<g>
		<path class="st9" d="M530.8,114.5c-9.2,6.9-22.3,5.1-29.3-4.2S496.4,88,505.7,81l34.2-25.7L565,88.7L530.8,114.5L530.8,114.5z"/>
		<path class="st11" d="M537.2,57.4l22.5,30l-34.2,25.7c-4.6,3.5-10.2,4.7-15.5,4c6.6,2.8,14.6,2.1,20.8-2.5L565,88.9l-25.1-33.4
			L537.2,57.4z"/>
		<g class="st12">
			<path d="M530.9,90.7l-4.1,3.1c-2.2,1.7-5,2.4-7.8,2c-2.1-0.3-4.2,0.2-6,1.5l-7.6,5.7c-0.5,0.4-1.3,0.3-1.7-0.2
				c-0.4-0.5-0.3-1.3,0.2-1.7l7.6-5.7c2.2-1.7,5-2.4,7.8-2c2.1,0.3,4.2-0.2,6-1.5l4.1-3.1c0.5-0.4,1.3-0.3,1.7,0.2
				S531.5,90.2,530.9,90.7z"/>
			<path d="M533.7,72.6l-7.2,5.4c-0.5,0.4-1.3,0.3-1.7-0.2s-0.3-1.3,0.2-1.7l7.2-5.4c0.5-0.4,1.3-0.3,1.7,0.2S534.3,72.2,533.7,72.6
				z"/>
			<path d="M520.6,105.5l-8.5,6.4c-0.5,0.4-1.3,0.3-1.7-0.2s-0.3-1.3,0.2-1.7l8.5-6.4c0.5-0.4,1.3-0.3,1.7,0.2
				S521.2,105.1,520.6,105.5z"/>
			<path d="M542.5,99.3l-13.3,10c-0.5,0.4-1.3,0.3-1.7-0.2s-0.3-1.3,0.2-1.7l13.3-10c0.5-0.4,1.3-0.3,1.7,0.2
				C543.2,98.1,543.1,98.9,542.5,99.3z"/>
		</g>
		<circle class="st13" cx="552.4" cy="72.1" r="20.9"/>
		<path class="st11" d="M554.3,51.3c4.4,1.2,8.4,3.7,11.3,7.6c6.9,9.2,5.1,22.3-4.2,29.3c-4.3,3.2-9.4,4.5-14.4,4.1
			c6,1.6,12.6,0.5,17.9-3.5c9.2-6.9,11.1-20,4.2-29.3C565.4,54.6,560,51.8,554.3,51.3z"/>
		<g class="st12">
			<path d="M559.3,85.8c-0.1,0-0.1,0.1-0.2,0.1c-6.6,3.2-14.5,1.2-18.9-4.6c-5.1-6.8-3.7-16.4,3-21.5c3.2-2.4,7.1-3.4,11-3
				c0.7,0.1,1.2,0.7,1.1,1.4c-0.1,0.7-0.7,1.2-1.4,1.1c-3.3-0.4-6.6,0.5-9.2,2.5c-5.7,4.3-6.8,12.3-2.6,18
				c3.7,4.9,10.3,6.5,15.8,3.9c0.6-0.3,1.4,0,1.7,0.6C559.9,84.8,559.7,85.5,559.3,85.8z"/>
			<path d="M564.2,81.8c-0.4,0.3-1.1,0.3-1.5,0c-0.5-0.4-0.6-1.2-0.2-1.7c3.6-4.6,3.7-11,0.2-15.7c-1.1-1.5-2.6-2.7-4.2-3.6
				c-0.6-0.3-0.8-1.1-0.5-1.7c0.3-0.6,1.1-0.8,1.7-0.5c2,1.1,3.7,2.5,5,4.3c4.2,5.6,4.1,13.3-0.2,18.7
				C564.4,81.7,564.3,81.8,564.2,81.8z"/>
			<path d="M557.4,78.7c-1.3,1-2.9,1.6-4.6,1.7c-0.7,0-1.3-0.5-1.3-1.2s0.5-1.3,1.2-1.3c1.2-0.1,2.3-0.5,3.2-1.2
				c1.6-1.2,2.4-3.1,2.3-5c0-0.7,0.5-1.3,1.2-1.3s1.3,0.5,1.3,1.2C560.9,74.4,559.6,77.1,557.4,78.7z"/>
			<path d="M558.8,68.9c-0.5,0.4-1.3,0.3-1.7-0.2c-1.4-1.9-3.9-2.8-6.2-2.1c-0.7,0.2-1.3-0.2-1.5-0.9c-0.2-0.7,0.2-1.3,0.9-1.5
				c3.3-0.9,6.9,0.3,8.9,3C559.5,67.7,559.3,68.5,558.8,68.9z"/>
			<path d="M548.8,78.6c-0.4,0.3-1.1,0.3-1.5,0c-0.5-0.4-1-0.9-1.5-1.5c-1.9-2.5-2.2-5.9-0.8-8.7c0.3-0.6,1.1-0.9,1.7-0.5
				c0.6,0.3,0.9,1.1,0.5,1.7c-1,2-0.8,4.3,0.5,6.1c0.3,0.4,0.6,0.7,1,1.1c0.5,0.4,0.6,1.2,0.2,1.7C548.9,78.5,548.9,78.6,548.8,78.6
				z"/>
		</g>
		<path class="st9" d="M515.6,77.3c3.1,0.4,5.3,3.3,4.8,6.4c-0.4,3.1-3.3,5.3-6.4,4.8l-13.9-2l1.6-11.3L515.6,77.3z"/>
		<path class="st11" d="M515.6,77.3c3.1,0.4,5.3,3.3,4.8,6.4c-0.4,3.1-3.3,5.3-6.4,4.8l-13.9-2l1.6-11.3L515.6,77.3z"/>
		<circle class="st13" cx="500.9" cy="81" r="5.7"/>
	</g>
</g>
<g>
	<circle class="st0" cx="746.5" cy="87" r="64.9"/>
	<path class="st1" d="M744.3,12.4c-1.4-0.4-3.4,0.3-4,1.6c-0.6,1.4,0.4,3.1,1.8,3c0.9-0.1,1.5-0.9,1.2-1.7c-0.3-0.8-1.7-0.5-1.5,0.4
		c-0.5-2.5,2-2.1,2.1-2.1c2.2,0.5,2.1,4.2-0.6,5.1c-0.6,0.2-1.3,0.3-2,0.3c-0.2-0.2-0.4-0.4-0.7-0.6c-0.8-0.6-1.8-0.9-2.8-1
		c-1,0-1.9,0.2-2.8,0.6c-0.8,0.4-1.5,0.9-2,1.6h-23.3c1.6-0.8,2.6-2.6,2.1-4.4c-0.4-1.4-2.5-3.1-3.7-1.5c-0.9,1.1,0.6,2.8,1.7,1.8
		c0.2-0.2,0.3-0.5,0.2-0.7c0.5,0.5,0.7,1.5,0.5,2.1c-0.2,0.7-0.8,1.4-1.4,1.7c-1,0.5-2.1,0.5-3.1,0.1c-0.5-1.1-1.3-2.1-2.2-2.8
		c-2.6-2.2-6.9-3.3-10.5-1.4c-0.5,0.3-1,0.6-1.4,0.9c0.9-2.5,0.4-5.4-2.3-7.1c-0.6-0.4-1,0.4-0.6,0.8c2.8,2.4,2.2,6,0,7.9
		c-2.3,2-5.4,1.4-6.5,0.3s-1.3-4.3,0.2-4.2c1.4,0.1,1.9,2.1,3.2,0.9c0.7-0.6,0.7-1.9,0.3-2.7c-0.8-1.5-2.7-2-4.2-1.3
		c-1.8,0.8-2.6,2.9-2.4,4.7c0.1,1.3,0.6,2.3,1.3,3.1c-0.8-0.7-1.9-1.2-3.1-1.3c-1.8-0.2-3.9,0.7-4.7,2.4c-0.7,1.5-0.2,3.4,1.3,4.2
		c0.8,0.4,2.1,0.4,2.7-0.3c1.2-1.3-0.8-1.8-0.9-3.2c-0.1-1.5,3.1-1.3,4.2-0.2c1.1,1.1,1.7,4.2-0.3,6.5c-1.9,2.2-5.6,2.8-7.9,0
		c-0.4-0.5-1.2,0-0.8,0.6c1.6,2.5,4.1,3.1,6.4,2.5c-0.3,0.4-0.5,0.8-0.7,1.2c-1.9,3.6-0.8,7.9,1.4,10.5c0.7,0.9,1.7,1.7,2.8,2.2
		c0.3,1,0.4,2.1-0.1,3.1c-0.3,0.6-1,1.3-1.7,1.4c-0.5,0.1-1.5,0-2.1-0.5c0.2,0.1,0.5,0.1,0.7-0.2c1-1.1-0.6-2.6-1.8-1.7
		c-1.6,1.2,0.1,3.3,1.5,3.7c1.8,0.6,3.6-0.4,4.4-2.1V70c-0.7,0.5-1.2,1.2-1.6,2c-0.4,0.9-0.6,1.8-0.6,2.8s0.4,2,1,2.8
		c0.2,0.2,0.4,0.5,0.6,0.7c0,0.7-0.1,1.4-0.3,2c-1,2.6-4.7,2.8-5.1,0.6c0-0.1-0.4-2.6,2.1-2.1c-0.9-0.2-1.2,1.2-0.4,1.5
		c0.9,0.3,1.7-0.3,1.7-1.2c0.1-1.4-1.6-2.4-3-1.8s-2,2.6-1.6,4c0.8,2.8,5.8,3.2,7.4-0.9c0.2-0.4,0.3-0.9,0.3-1.3c1,0.6,2.2,1,3.4,1
		c3.4-0.1,6.6-3,6.7-7.5c0-1.8-0.4-3.4-0.8-5c-0.5-1.6-1.1-3-1.7-4.5c4.7-5.1,8.2-10.2,10.2-17.5c0.6-2.1,1-4.4,0.9-6.6
		c0-0.1,0-0.3,0-0.4c0.3,0,0.6,0,0.9,0c2.3,0,4.5-0.4,6.6-0.9c7.3-2,12.5-5.5,17.5-10.2c1.5,0.6,3,1.2,4.5,1.7
		c1.6,0.5,3.3,0.8,5,0.8c4.5,0,7.4-3.3,7.5-6.7c0-1.2-0.4-2.4-1-3.4c0.4,0,0.9-0.1,1.3-0.3C747.5,18.3,747.1,13.3,744.3,12.4z
		 M706.4,27.8c-0.9-0.2-1.8-0.1-2.6,0.4c0.5-0.3,0.9-0.7,1.3-1.2c0.2-0.2,0.3-0.4,0.4-0.6C705.8,26.9,706.1,27.4,706.4,27.8z
		 M706.7,22.2c0-0.3,0-0.6-0.1-0.9h1.4c-0.1,0.1-0.3,0.1-0.4,0.2C707.3,21.7,707,21.9,706.7,22.2z M694.2,16.7
		c3.5-1.7,8.1,0.5,9.1,3.5c1.4,4-2.3,6.5-3.8,4.9c-0.8-0.8-2.1-0.9-2.9-0.1c-2.3,2.1,1.4,5.1,4.9,4.3c0.7-0.2,1.3-0.5,1.9-0.8
		c-0.9,0.7-1.5,1.8-1.2,3.1c0.3,1.2,1.8,2.2,2.8,1.8c0.7-0.3,1-1.2,0.8-1.7c-0.3-0.7-1.4-1-1.8-0.1c-0.9-1.4,0.7-2.5,1.7-2.3
		s1.6,0.6,2,1.5c0.7,1.5,0,3-1.1,4.1c-1.4,1.6-3.2,2-5.1,2.3c-0.2,0-0.4,0-0.6,0c-0.2-1.6-0.5-3.1-1.2-4.6c-1.5-3.6-4.5-6.1-8-7.3
		c-0.3-1.3-0.9-2.5-1.8-3.5C690.8,19.4,692.3,17.6,694.2,16.7z M687.9,20.1c-0.2-0.1-0.5-0.3-0.7-0.4c0.6-0.2,1.1-0.4,1.6-0.7
		c-0.2,0.4-0.4,0.8-0.6,1.2C688.1,20.2,688,20.1,687.9,20.1z M682.8,25.1c0,0.1,0.1,0.1,0.1,0.2c-0.3,0.1-0.6,0.2-1,0.4
		c0.2-0.4,0.4-0.8,0.5-1.3C682.6,24.7,682.7,24.9,682.8,25.1z M684.8,24c-0.4-0.8-0.7-1.7-0.7-2.6c0.9,0,1.8,0.2,2.6,0.7
		c1.9,1,2.8,2.9,3,4.9C687.7,26.8,685.9,26,684.8,24z M691.9,29.1c0.1-0.6,0.1-1.2,0.1-1.8c2.6,1.1,4.9,3.1,6.1,5.8
		c0.5,1.1,0.9,2.4,1.1,3.6c-1.1-0.2-2.2-0.5-3.2-1c-2.9-1.3-5-3.8-6-6.6C690.6,29.2,691.2,29.2,691.9,29.1z M678.9,31.5
		c0.9-2,2.9-3.6,5.4-4.4c1,0.9,2.1,1.5,3.4,1.8c1.1,3.7,3.7,6.9,7.5,8.6c1.3,0.6,2.7,0.9,4.1,1.1c0,0.1,0,0.1,0,0.2
		c-0.3,1.9-0.8,3.7-2.3,5.1c-1.1,1-2.6,1.7-4.1,1.1c-0.9-0.4-1.3-1-1.5-2s0.9-2.6,2.3-1.7c-0.8,0.4-0.6,1.6,0.1,1.8
		c0.5,0.2,1.4-0.1,1.7-0.8c0.4-1-0.6-2.6-1.8-2.8c-1.3-0.3-2.4,0.3-3.1,1.2c0.3-0.6,0.6-1.2,0.8-1.9c0.9-3.5-2.1-7.2-4.3-4.9
		c-0.8,0.8-0.7,2.1,0.1,2.9c1.6,1.5-0.9,5.2-4.9,3.8C679.4,39.5,677.3,35,678.9,31.5z M683.5,43.9c0.3,0,0.6,0,0.9,0.1
		c-0.2,0.3-0.5,0.6-0.7,0.9c-0.1,0.1-0.2,0.3-0.2,0.4V43.9z M690,43.7c-0.4-0.4-0.9-0.6-1.4-0.8c0.2-0.1,0.4-0.3,0.6-0.4
		c0.5-0.4,0.8-0.9,1.2-1.3C689.9,41.8,689.8,42.8,690,43.7z M690.6,72.8c-0.1,3.8-2.7,5.7-4.9,5.7c-1.4,0-2.8-0.8-3.4-1.7
		c-0.8-1-0.8-2.4-0.2-3.7c0.5-1.2,1.7-2,2.9-1.9c0.5,0.1,1.1,0.4,1.5,0.8c0.3,0.4,0.4,0.8,0.2,1.3s-0.6,0.9-0.9,0.9
		c-0.2,0-0.3,0-0.3,0s0,0,0-0.2c0.1-0.5-0.2-1-0.7-1.2s-1.1,0.1-1.2,0.6l0,0c-0.2,0.6-0.1,1.5,0.4,2.1c0.6,0.6,1.3,0.8,2,0.7
		c1.3-0.2,2.2-1.2,2.5-2.2c0.2-0.5,0.3-1.1,0.2-1.7s-0.4-1.1-0.8-1.5c-0.4-0.4-0.8-0.7-1.2-1c-0.4-0.2-1-0.4-1.5-0.5
		c-0.6-0.1-1.1,0-1.7,0.2V52.2c0.3,0.9,0.6,1.8,0.9,2.7c1.7,4.4,4.2,9.3,5.5,13.4C690.3,69.8,690.6,71.3,690.6,72.8z M689.3,61.9
		L689.3,61.9c-0.2-0.2-0.3-0.5-0.4-0.8c0-1-0.1-2.1-0.1-3.1c0.1-2.2,0.5-3.1,0.6-3.6c0.4-1.5,2-2.7,3.1-1.5c-0.6,0.9-0.1,2.2,1,2
		c1.3-0.2,1.3-1.6,0.9-2.6c-0.9-2-2.8-1.6-3.5-1.3c-1,0.4-1.8,1.4-2.2,2.3c-0.8,1.7-0.9,3.6-0.8,5.6v-0.1c-1.3-2.9-2.8-5.9-3.4-8.9
		c-0.8-4.3,1.8-6.6,3.7-5.8c3.1,1.3,1.2,4.3,0.1,3.3c-0.4-0.3-0.3-0.6-0.3-0.4c0.2-0.5,0-1.1-0.5-1.3s-1.1,0-1.3,0.5
		c-0.9,2.4,3.1,4.6,4.8,1.5c0.4-0.7,0.4-1.4,0.3-2.1c1.4,1.2,3.5,1.3,5.2,0.4c1.1-0.6,2-1.5,2.7-2.7c-0.1,0.7-0.3,1.4-0.4,2.1
		C696.8,52.2,693.3,57.4,689.3,61.9z M724.6,27c-4.5,4-9.7,7.5-16.5,9.3c-0.7,0.2-1.4,0.3-2.1,0.4c1.1-0.7,2.1-1.6,2.7-2.7
		c0.9-1.7,0.8-3.8-0.4-5.2c0.7,0.2,1.4,0.1,2.1-0.3c3.2-1.7,0.9-5.7-1.5-4.8c-0.5,0.2-0.7,0.8-0.5,1.3s0.8,0.7,1.3,0.5
		c-0.2,0,0-0.2,0.4,0.3c1,1.2-2,3-3.3-0.1c-0.8-2,1.5-4.6,5.8-3.7c3,0.6,6,2,8.9,3.4h0.1c-1.9-0.1-3.9,0-5.6,0.8
		c-1,0.4-1.9,1.2-2.3,2.2c-0.3,0.7-0.7,2.6,1.3,3.5c1,0.5,2.3,0.4,2.6-0.9c0.2-1.1-1.1-1.6-2-1c-1.2-1.1-0.1-2.7,1.5-3.1
		c0.5-0.2,1.4-0.6,3.6-0.6c1.1,0,2.1,0,3.1,0.1C724.1,26.7,724.4,26.9,724.6,27C724.7,27,724.6,27,724.6,27z M735.6,28.4
		c-1.5,0-3-0.3-4.5-0.7c-4.2-1.2-9-3.8-13.4-5.5c-0.8-0.3-1.7-0.6-2.7-0.9h17.3c-0.2,0.5-0.2,1.1-0.2,1.7c0.1,0.5,0.2,1.1,0.5,1.5
		c0.2,0.4,0.6,0.9,1,1.2c0.4,0.4,0.9,0.6,1.5,0.8c0.6,0.1,1.2,0,1.7-0.2c1-0.4,2-1.2,2.2-2.5c0.1-0.6-0.1-1.4-0.7-2
		c-0.6-0.6-1.5-0.6-2.1-0.4l0,0c-0.5,0.2-0.8,0.7-0.6,1.2s0.7,0.8,1.2,0.7c0.2-0.1,0.2,0,0.2,0s0.1,0.1,0,0.3c0,0.3-0.4,0.7-0.9,0.9
		c-0.5,0.2-0.9,0.1-1.3-0.2c-0.4-0.3-0.7-0.9-0.8-1.5c-0.1-1.2,0.6-2.4,1.9-2.9c1.2-0.6,2.6-0.6,3.7,0.2c0.9,0.7,1.7,2.1,1.7,3.4
		C741.3,25.7,739.4,28.2,735.6,28.4z"/>
	<path class="st1" d="M748.7,162.7c1.4,0.4,3.4-0.4,4-1.7c0.6-1.4-0.5-3.1-1.9-2.9c-0.9,0.1-1.5,0.9-1.2,1.8
		c0.3,0.8,1.7,0.5,1.5-0.4c0.6,2.5-2,2.1-2,2.1c-2.2-0.4-2.2-4.1,0.4-5.2c0.6-0.2,1.3-0.3,2-0.4c0.2,0.2,0.4,0.4,0.7,0.6
		c0.8,0.6,1.8,0.9,2.8,0.9s1.9-0.3,2.8-0.7c0.7-0.4,1.4-0.9,1.9-1.7l23.4-0.8c-1.6,0.9-2.5,2.7-1.9,4.4c0.5,1.3,2.6,3,3.8,1.4
		c0.8-1.2-0.7-2.8-1.8-1.7c-0.2,0.2-0.2,0.5-0.1,0.7c-0.5-0.5-0.7-1.5-0.6-2c0.1-0.7,0.7-1.4,1.4-1.7c1-0.6,2-0.5,3.1-0.2
		c0.6,1.1,1.4,2,2.3,2.7c2.7,2.1,7,3,10.6,1c0.5-0.3,1-0.6,1.4-1c-0.8,2.5-0.2,5.4,2.5,7c0.6,0.3,1-0.5,0.5-0.9
		c-2.9-2.3-2.4-5.9-0.3-7.9c2.2-2.1,5.3-1.6,6.5-0.5s1.5,4.3,0,4.2c-1.5,0-1.9-2.1-3.2-0.8c-0.7,0.6-0.6,1.9-0.2,2.7
		c0.8,1.5,2.7,1.9,4.2,1.2c1.7-0.9,2.5-2.9,2.3-4.8c-0.2-1.3-0.7-2.3-1.4-3.1c0.8,0.7,1.9,1.2,3.2,1.2c1.8,0.1,3.9-0.8,4.6-2.6
		c0.6-1.5,0.1-3.4-1.4-4.1c-0.8-0.4-2.1-0.3-2.6,0.3c-1.1,1.4,0.9,1.7,1,3.2s-3,1.4-4.2,0.3c-1.1-1.1-1.9-4.1,0.1-6.5
		c1.9-2.3,5.5-3,7.9-0.3c0.4,0.5,1.2,0,0.8-0.6c-1.7-2.4-4.2-3-6.5-2.3c0.3-0.4,0.5-0.8,0.7-1.2c1.7-3.7,0.5-7.9-1.8-10.5
		c-0.8-0.9-1.8-1.6-2.9-2.1c-0.4-1-0.5-2.1,0-3.1c0.3-0.7,0.9-1.3,1.6-1.5c0.5-0.1,1.5,0,2.1,0.5c-0.2-0.1-0.5-0.1-0.7,0.2
		c-1,1.2,0.7,2.6,1.8,1.7c1.5-1.3-0.2-3.3-1.6-3.7c-1.8-0.5-3.6,0.5-4.3,2.2l-0.8-23.4c0.7-0.6,1.2-1.3,1.5-2
		c0.4-0.9,0.6-1.8,0.5-2.8s-0.4-2-1.1-2.7c-0.2-0.2-0.4-0.4-0.6-0.6c0-0.7,0.1-1.4,0.3-2c0.9-2.6,4.6-2.9,5.1-0.7
		c0,0.1,0.5,2.6-2,2.2c0.9,0.1,1.1-1.3,0.3-1.5c-0.9-0.3-1.7,0.3-1.7,1.3c0,1.4,1.7,2.3,3,1.7c1.3-0.7,1.9-2.7,1.5-4.1
		c-0.9-2.7-5.9-3-7.3,1.1c-0.1,0.4-0.2,0.9-0.2,1.3c-1-0.6-2.2-0.9-3.4-0.9c-3.4,0.2-6.5,3.2-6.4,7.7c0,1.8,0.5,3.4,1,5
		c0.5,1.5,1.2,3,1.8,4.4c-4.6,5.2-7.8,10.5-9.6,17.9c-0.5,2.2-0.8,4.4-0.7,6.7c0,0.1,0,0.3,0,0.4c-0.3,0-0.6,0-0.9,0
		c-2.3,0.1-4.5,0.5-6.6,1.2c-7.3,2.3-12.3,5.9-17.2,10.8c-1.5-0.6-3-1.1-4.6-1.5s-3.3-0.7-5.1-0.7c-4.5,0.2-7.3,3.5-7.3,6.9
		c0,1.2,0.4,2.4,1.1,3.3c-0.4,0-0.9,0.2-1.3,0.3C745.3,157,745.9,162,748.7,162.7z M786,146.2c0.9,0.2,1.8,0,2.6-0.5
		c-0.5,0.4-0.9,0.8-1.3,1.2c-0.1,0.2-0.3,0.4-0.4,0.6C786.7,147,786.4,146.5,786,146.2z M785.9,151.7c0,0.3,0,0.6,0.1,0.9h-1.4
		c0.1-0.1,0.3-0.2,0.4-0.2C785.4,152.2,785.7,152,785.9,151.7z M798.6,156.8c-3.4,1.8-8.1-0.2-9.2-3.2c-1.6-4,2.1-6.6,3.6-5
		c0.8,0.8,2.1,0.8,2.9,0c2.2-2.2-1.6-5.1-5.1-4.1c-0.7,0.2-1.3,0.5-1.9,0.9c0.9-0.7,1.4-1.9,1.1-3.1c-0.3-1.2-1.9-2.1-2.9-1.7
		c-0.7,0.3-0.9,1.2-0.7,1.7c0.3,0.7,1.5,0.9,1.8,0.1c1,1.4-0.6,2.5-1.6,2.4c-1-0.2-1.6-0.5-2.1-1.4c-0.7-1.5-0.1-3,0.9-4.2
		c1.4-1.6,3.1-2.1,5-2.5c0.2,0,0.4,0,0.6,0c0.2,1.6,0.7,3.1,1.3,4.5c1.7,3.5,4.8,6,8.2,7c0.4,1.3,1,2.5,1.9,3.4
		C802,154,800.5,155.8,798.6,156.8z M804.8,153.2c0.2,0.1,0.5,0.2,0.7,0.3c-0.6,0.2-1.1,0.4-1.6,0.7c0.2-0.4,0.4-0.8,0.5-1.3
		C804.6,153.1,804.7,153.1,804.8,153.2z M809.7,148c0-0.1-0.1-0.1-0.1-0.2c0.3-0.1,0.6-0.3,0.9-0.4c-0.2,0.4-0.3,0.8-0.4,1.3
		C810,148.4,809.9,148.2,809.7,148z M807.7,149.1c0.5,0.8,0.7,1.7,0.8,2.6c-0.9,0-1.8-0.2-2.6-0.6c-2-1-2.9-2.8-3.2-4.8
		C804.8,146.4,806.7,147.3,807.7,149.1z M800.5,144.3c0,0.6,0,1.2,0,1.8c-2.7-1-5-2.9-6.3-5.6c-0.6-1.1-0.9-2.3-1.2-3.6
		c1.1,0.2,2.2,0.5,3.2,0.9c3,1.2,5.2,3.6,6.3,6.4C801.8,144.2,801.2,144.2,800.5,144.3z M813.4,141.5c-0.9,2.1-2.8,3.7-5.2,4.6
		c-1-0.9-2.2-1.4-3.5-1.7c-1.2-3.7-3.9-6.8-7.8-8.3c-1.3-0.5-2.7-0.8-4.1-1c0-0.1,0-0.1,0-0.2c0.2-1.9,0.6-3.7,2.2-5.2
		c1.1-1.1,2.6-1.8,4.1-1.2c0.9,0.4,1.3,1,1.5,2s-0.8,2.7-2.2,1.8c0.8-0.4,0.5-1.6-0.2-1.8c-0.5-0.2-1.4,0.1-1.7,0.8
		c-0.3,1,0.6,2.6,1.9,2.8c1.3,0.2,2.4-0.4,3-1.3c-0.3,0.6-0.6,1.2-0.7,1.9c-0.8,3.6,2.4,7.1,4.4,4.8c0.7-0.9,0.6-2.1-0.2-2.9
		c-1.7-1.4,0.7-5.2,4.8-4C812.6,133.5,815,138,813.4,141.5z M808.4,129.2c-0.3,0-0.6,0-0.9,0c0.2-0.3,0.5-0.6,0.7-1
		c0.1-0.1,0.1-0.3,0.2-0.4V129.2z M801.9,129.7c0.4,0.3,0.9,0.6,1.4,0.8c-0.2,0.1-0.4,0.3-0.6,0.4c-0.4,0.4-0.8,0.9-1.1,1.4
		C802.1,131.5,802.2,130.6,801.9,129.7z M800.3,100.6c0-3.8,2.5-5.8,4.7-5.8c1.4-0.1,2.8,0.7,3.5,1.6c0.8,1,0.8,2.4,0.3,3.7
		c-0.5,1.2-1.7,2.1-2.8,1.9c-0.5,0-1.1-0.4-1.5-0.8s-0.4-0.8-0.3-1.3c0.2-0.5,0.6-0.9,0.9-0.9c0.2,0,0.3,0,0.3,0s0,0,0,0.2
		c-0.1,0.5,0.2,1,0.7,1.2c0.5,0.1,1.1-0.2,1.2-0.7l0,0c0.2-0.6,0.1-1.5-0.5-2c-0.6-0.6-1.4-0.7-2-0.6c-1.3,0.2-2.1,1.3-2.4,2.3
		c-0.2,0.5-0.2,1.1-0.1,1.7c0.1,0.6,0.4,1.1,0.8,1.5c0.4,0.4,0.8,0.7,1.3,0.9c0.4,0.2,1,0.4,1.5,0.4c0.6,0,1.1,0,1.7-0.2l0.6,17.3
		c-0.3-0.9-0.6-1.8-1-2.6c-1.8-4.4-4.6-9.1-5.9-13.2C800.7,103.6,800.4,102.1,800.3,100.6z M802,111.5
		C802,111.5,802.1,111.5,802,111.5c0.2,0.2,0.3,0.5,0.4,0.8c0.1,1,0.2,2.1,0.2,3.1c0,2.2-0.4,3.1-0.5,3.6c-0.4,1.5-1.9,2.8-3,1.6
		c0.5-1,0-2.2-1.1-2c-1.3,0.3-1.3,1.6-0.8,2.6c1,1.9,2.8,1.5,3.5,1.2c1-0.5,1.7-1.4,2.1-2.4c0.7-1.7,0.8-3.7,0.6-5.6v0.1
		c1.4,2.9,3,5.8,3.7,8.8c1,4.2-1.5,6.7-3.5,5.9c-3.1-1.2-1.4-4.3-0.2-3.3c0.4,0.3,0.3,0.5,0.3,0.4c-0.2,0.5,0,1.1,0.5,1.3
		s1.1,0,1.3-0.5c0.9-2.4-3.2-4.5-4.8-1.3c-0.3,0.7-0.4,1.4-0.2,2.1c-1.4-1.1-3.5-1.2-5.2-0.2c-1.1,0.6-2,1.6-2.6,2.8
		c0.1-0.7,0.2-1.4,0.4-2.1C794.9,121.4,798.1,116.1,802,111.5z M767.9,147.5c4.3-4.2,9.4-7.8,16.2-9.8c0.7-0.2,1.4-0.4,2.1-0.5
		c-1.1,0.7-2,1.7-2.6,2.8c-0.8,1.7-0.6,3.8,0.6,5.1c-0.7-0.1-1.4-0.1-2.1,0.3c-3.1,1.8-0.7,5.7,1.6,4.7c0.5-0.2,0.7-0.8,0.4-1.3
		s-0.8-0.7-1.3-0.4c0.2,0,0,0.2-0.4-0.2c-1-1.2,1.9-3.1,3.3-0.1c0.9,1.9-1.4,4.6-5.7,3.9c-3.1-0.5-6-1.8-9-3.1h-0.1
		c1.9,0.1,3.9-0.2,5.5-1c1-0.5,1.9-1.3,2.3-2.3c0.3-0.7,0.6-2.6-1.4-3.5c-1-0.4-2.4-0.3-2.6,0.9c-0.2,1.1,1.1,1.5,2,0.9
		c1.3,1,0.1,2.7-1.4,3.1c-0.5,0.2-1.4,0.6-3.6,0.8c-1,0.1-2.1,0-3.1,0C768.4,147.8,768.1,147.6,767.9,147.5L767.9,147.5z
		 M756.9,146.5c1.5-0.1,3,0.2,4.5,0.6c4.2,1.1,9.1,3.5,13.6,5c0.9,0.3,1.8,0.6,2.7,0.8l-17.3,0.6c0.1-0.5,0.2-1.1,0.1-1.7
		c-0.1-0.5-0.3-1-0.5-1.5c-0.3-0.4-0.6-0.8-1-1.2c-0.4-0.3-1-0.6-1.6-0.7c-0.6-0.1-1.2,0-1.7,0.2c-1,0.4-1.9,1.3-2.1,2.6
		c-0.1,0.6,0.1,1.4,0.7,1.9c0.6,0.6,1.5,0.6,2.1,0.4l0,0c0.5-0.2,0.8-0.7,0.6-1.3c-0.2-0.5-0.7-0.8-1.2-0.6c-0.2,0.1-0.2,0-0.2,0
		s-0.1-0.1-0.1-0.3c0-0.3,0.4-0.8,0.9-1s0.9-0.1,1.3,0.2c0.4,0.3,0.8,0.9,0.9,1.4c0.2,1.1-0.6,2.4-1.8,3s-2.6,0.7-3.7-0.1
		c-1-0.6-1.8-2-1.8-3.4C751.3,149.4,753.1,146.8,756.9,146.5z"/>
	<g>
		<g>
			<path class="st14" d="M764.3,69.2L739.1,48c-0.6-0.5-1.3-0.6-2-0.3l-1.6,7.6l21.4,60.1l3.4,7l5.8-10.1l1.6-31.8L764.3,69.2z"/>
			<path class="st14" d="M753.9,111.2l-37.7-37.7H710l0.5,6.5l11,33.7l8.2,8.9h29.9c0.2-0.1,0.4-0.1,0.6-0.2L753.9,111.2z"/>
		</g>
		<g>
			<path class="st15" d="M709.2,75.2c-0.2,0.3-0.2,0.6-0.2,1v30.9c0,0.7,0.3,1.3,0.9,1.8l17.7,13.2c0.4,0.3,0.8,0.4,1.3,0.4h0.9
				l-19.7-49L709.2,75.2z"/>
			<path class="st15" d="M760.8,122.2l22.1-13.2c0.7-0.4,1.1-1.1,1.1-1.9V93.8c0-0.5-0.2-1-0.5-1.4l-17.7-22
				c-0.1-0.1-0.2-0.2-0.3-0.3l-1.2-1l0,0l-4,53.1l0,0C760.4,122.3,760.6,122.2,760.8,122.2z"/>
		</g>
		<path class="st16" d="M737,47.6c-0.1,0-0.2,0-0.3,0.1l-17.6,8.8c-0.4,0.2-0.8,0.6-1,1l-8.1,16l50.2,48.8L737,47.6z"/>
	</g>
</g>
<g>
	<circle class="st0" cx="318.6" cy="87" r="64.9"/>
	<path class="st1" d="M316.5,12.4c-1.4-0.4-3.4,0.3-4,1.6c-0.6,1.4,0.4,3.1,1.8,3c0.9-0.1,1.5-0.9,1.2-1.7c-0.3-0.8-1.7-0.5-1.5,0.4
		c-0.5-2.5,2-2.1,2.1-2.1c2.2,0.5,2.1,4.2-0.6,5.1c-0.6,0.2-1.3,0.3-2,0.3c-0.2-0.2-0.4-0.4-0.7-0.6c-0.8-0.6-1.8-0.9-2.8-1
		c-1,0-1.9,0.2-2.8,0.6c-0.8,0.4-1.5,0.9-2,1.6h-23.4c1.6-0.8,2.6-2.6,2.1-4.4c-0.4-1.4-2.5-3.1-3.7-1.5c-0.9,1.1,0.6,2.8,1.7,1.8
		c0.2-0.2,0.3-0.5,0.2-0.7c0.5,0.5,0.7,1.5,0.5,2.1c-0.2,0.7-0.8,1.4-1.4,1.7c-1,0.5-2.1,0.5-3.1,0.1c-0.5-1.1-1.3-2.1-2.2-2.8
		c-2.6-2.2-6.9-3.3-10.5-1.4c-0.5,0.3-1,0.6-1.4,0.9c0.9-2.5,0.4-5.4-2.3-7.1c-0.6-0.4-1,0.4-0.6,0.8c2.8,2.4,2.2,6,0,7.9
		c-2.3,2-5.4,1.4-6.5,0.3s-1.3-4.3,0.2-4.2c1.4,0.1,1.9,2.1,3.2,0.9c0.7-0.6,0.7-1.9,0.3-2.7c-0.8-1.5-2.7-2-4.2-1.3
		c-1.8,0.8-2.6,2.9-2.4,4.7c0.1,1.3,0.6,2.3,1.3,3.1c-0.8-0.7-1.9-1.2-3.1-1.3c-1.8-0.2-3.9,0.7-4.7,2.4c-0.7,1.5-0.2,3.4,1.3,4.2
		c0.8,0.4,2.1,0.4,2.7-0.3c1.2-1.3-0.8-1.8-0.9-3.2c-0.1-1.5,3.1-1.3,4.2-0.2c1.1,1.1,1.7,4.2-0.3,6.5c-1.9,2.2-5.6,2.8-7.9,0
		c-0.4-0.5-1.2,0-0.8,0.6c1.6,2.5,4.1,3.1,6.4,2.5c-0.3,0.4-0.5,0.8-0.7,1.2c-1.9,3.6-0.8,7.9,1.4,10.5c0.7,0.9,1.7,1.7,2.8,2.2
		c0.3,1,0.4,2.1-0.1,3.1c-0.3,0.6-1,1.3-1.7,1.4c-0.5,0.1-1.5,0-2.1-0.5c0.2,0.1,0.5,0.1,0.7-0.2c1-1.1-0.6-2.6-1.8-1.7
		c-1.6,1.2,0.1,3.3,1.5,3.7c1.8,0.6,3.6-0.4,4.4-2.1V70c-0.7,0.5-1.2,1.2-1.6,2c-0.4,0.9-0.6,1.8-0.6,2.8s0.4,2,1,2.8
		c0.2,0.2,0.4,0.5,0.6,0.7c0,0.7-0.1,1.4-0.3,2c-1,2.6-4.7,2.8-5.1,0.6c0-0.1-0.4-2.6,2.1-2.1c-0.9-0.2-1.2,1.2-0.4,1.5
		c0.9,0.3,1.7-0.3,1.7-1.2c0.1-1.4-1.6-2.4-3-1.8s-2,2.6-1.6,4c0.8,2.8,5.8,3.2,7.4-0.9c0.2-0.4,0.3-0.9,0.3-1.3c1,0.6,2.2,1,3.4,1
		c3.4-0.1,6.6-3,6.7-7.5c0-1.8-0.4-3.4-0.8-5c-0.5-1.6-1.1-3-1.7-4.5c4.7-5.1,8.2-10.2,10.2-17.5c0.6-2.1,1-4.4,0.9-6.6
		c0-0.1,0-0.3,0-0.4c0.3,0,0.6,0,0.9,0c2.3,0,4.5-0.4,6.6-0.9c7.3-2,12.5-5.5,17.5-10.2c1.5,0.6,3,1.2,4.5,1.7
		c1.6,0.5,3.3,0.8,5,0.8c4.5,0,7.4-3.3,7.5-6.7c0-1.2-0.4-2.4-1-3.4c0.4,0,0.9-0.1,1.3-0.3C319.7,18.3,319.2,13.3,316.5,12.4z
		 M278.6,27.8c-0.9-0.2-1.8-0.1-2.6,0.4c0.5-0.3,0.9-0.7,1.3-1.2c0.2-0.2,0.3-0.4,0.4-0.6C277.9,26.9,278.2,27.4,278.6,27.8z
		 M278.9,22.2c0-0.3,0-0.6-0.1-0.9h1.4c-0.1,0.1-0.3,0.1-0.4,0.2C279.4,21.7,279.1,21.9,278.9,22.2z M266.4,16.7
		c3.5-1.7,8.1,0.5,9.1,3.5c1.4,4-2.3,6.5-3.8,4.9c-0.8-0.8-2.1-0.9-2.9-0.1c-2.3,2.1,1.4,5.1,4.9,4.3c0.7-0.2,1.3-0.5,1.9-0.8
		c-0.9,0.7-1.5,1.8-1.2,3.1c0.3,1.2,1.8,2.2,2.8,1.8c0.7-0.3,1-1.2,0.8-1.7c-0.3-0.7-1.4-1-1.8-0.1c-0.9-1.4,0.7-2.5,1.7-2.3
		s1.6,0.6,2,1.5c0.7,1.5,0,3-1.1,4.1c-1.4,1.6-3.2,2-5.1,2.3c-0.2,0-0.4,0-0.6,0c-0.2-1.6-0.5-3.1-1.2-4.6c-1.5-3.6-4.5-6.1-8-7.3
		c-0.3-1.3-0.9-2.5-1.8-3.5C262.9,19.4,264.5,17.6,266.4,16.7z M260.1,20.1c-0.2-0.1-0.5-0.3-0.7-0.4c0.6-0.2,1.1-0.4,1.6-0.7
		c-0.2,0.4-0.4,0.8-0.6,1.2C260.3,20.2,260.2,20.1,260.1,20.1z M255,25.1c0,0.1,0.1,0.1,0.1,0.2c-0.3,0.1-0.6,0.2-1,0.4
		c0.2-0.4,0.4-0.8,0.5-1.3C254.7,24.7,254.9,24.9,255,25.1z M257,24c-0.4-0.8-0.7-1.7-0.7-2.6c0.9,0,1.8,0.2,2.6,0.7
		c1.9,1,2.8,2.9,3,4.9C259.9,26.8,258,26,257,24z M264.1,29.1c0.1-0.6,0.1-1.2,0.1-1.8c2.6,1.1,4.9,3.1,6.1,5.8
		c0.5,1.1,0.9,2.4,1.1,3.6c-1.1-0.2-2.2-0.5-3.2-1c-2.9-1.3-5-3.8-6-6.6C262.7,29.2,263.4,29.2,264.1,29.1z M251.1,31.5
		c0.9-2,2.9-3.6,5.4-4.4c1,0.9,2.1,1.5,3.4,1.8c1.1,3.7,3.7,6.9,7.5,8.6c1.3,0.6,2.7,0.9,4.1,1.1c0,0.1,0,0.1,0,0.2
		c-0.3,1.9-0.8,3.7-2.3,5.1c-1.1,1-2.6,1.7-4.1,1.1c-0.9-0.4-1.3-1-1.5-2s0.9-2.6,2.3-1.7c-0.8,0.4-0.6,1.6,0.1,1.8
		c0.5,0.2,1.4-0.1,1.7-0.8c0.4-1-0.6-2.6-1.8-2.8c-1.3-0.3-2.4,0.3-3.1,1.2c0.3-0.6,0.6-1.2,0.8-1.9c0.9-3.5-2.1-7.2-4.3-4.9
		c-0.8,0.8-0.7,2.1,0.1,2.9c1.6,1.5-0.9,5.2-4.9,3.8C251.6,39.5,249.4,35,251.1,31.5z M255.7,43.9c0.3,0,0.6,0,0.9,0.1
		c-0.2,0.3-0.5,0.6-0.7,0.9c-0.1,0.1-0.2,0.3-0.2,0.4V43.9z M262.2,43.7c-0.4-0.4-0.9-0.6-1.4-0.8c0.2-0.1,0.4-0.3,0.6-0.4
		c0.5-0.4,0.8-0.9,1.2-1.3C262.1,41.8,261.9,42.8,262.2,43.7z M262.8,72.8c-0.1,3.8-2.7,5.7-4.9,5.7c-1.4,0-2.8-0.8-3.4-1.7
		c-0.8-1-0.8-2.4-0.2-3.7c0.5-1.2,1.7-2,2.9-1.9c0.5,0.1,1.1,0.4,1.5,0.8c0.3,0.4,0.4,0.8,0.2,1.3s-0.6,0.9-0.9,0.9
		c-0.2,0-0.3,0-0.3,0s0,0,0-0.2c0.1-0.5-0.2-1-0.7-1.2s-1.1,0.1-1.2,0.6l0,0c-0.2,0.6-0.1,1.5,0.4,2.1c0.6,0.6,1.3,0.8,2,0.7
		c1.3-0.2,2.2-1.2,2.5-2.2c0.2-0.5,0.3-1.1,0.2-1.7s-0.4-1.1-0.8-1.5c-0.4-0.4-0.8-0.7-1.2-1c-0.4-0.2-1-0.4-1.5-0.5
		c-0.6-0.1-1.1,0-1.7,0.2V52.2c0.3,0.9,0.6,1.8,0.9,2.7c1.7,4.4,4.2,9.3,5.5,13.4C262.5,69.8,262.8,71.3,262.8,72.8z M261.4,61.9
		L261.4,61.9c-0.2-0.2-0.3-0.5-0.4-0.8c0-1-0.1-2.1-0.1-3.1c0.1-2.2,0.5-3.1,0.6-3.6c0.4-1.5,2-2.7,3.1-1.5c-0.6,0.9-0.1,2.2,1,2
		c1.3-0.2,1.3-1.6,0.9-2.6c-0.9-2-2.8-1.6-3.5-1.3c-1,0.4-1.8,1.4-2.2,2.3c-0.8,1.7-0.9,3.6-0.8,5.6v-0.1c-1.3-2.9-2.8-5.9-3.4-8.9
		c-0.8-4.3,1.8-6.6,3.7-5.8c3.1,1.3,1.2,4.3,0.1,3.3c-0.4-0.3-0.3-0.6-0.3-0.4c0.2-0.5,0-1.1-0.5-1.3s-1.1,0-1.3,0.5
		c-0.9,2.4,3.1,4.6,4.8,1.5c0.4-0.7,0.4-1.4,0.3-2.1c1.4,1.2,3.5,1.3,5.2,0.4c1.1-0.6,2-1.5,2.7-2.7c-0.1,0.7-0.3,1.4-0.4,2.1
		C268.9,52.2,265.5,57.4,261.4,61.9z M296.8,27c-4.5,4-9.7,7.5-16.5,9.3c-0.7,0.2-1.4,0.3-2.1,0.4c1.1-0.7,2.1-1.6,2.7-2.7
		c0.9-1.7,0.8-3.8-0.4-5.2c0.7,0.2,1.4,0.1,2.1-0.3c3.2-1.7,0.9-5.7-1.5-4.8c-0.5,0.2-0.7,0.8-0.5,1.3s0.8,0.7,1.3,0.5
		c-0.2,0,0-0.2,0.4,0.3c1,1.2-2,3-3.3-0.1c-0.8-2,1.5-4.6,5.8-3.7c3,0.6,6,2,8.9,3.4h0.1c-1.9-0.1-3.9,0-5.6,0.8
		c-1,0.4-1.9,1.2-2.3,2.2c-0.3,0.7-0.7,2.6,1.3,3.5c1,0.5,2.3,0.4,2.6-0.9c0.2-1.1-1.1-1.6-2-1c-1.2-1.1-0.1-2.7,1.5-3.1
		c0.5-0.2,1.4-0.6,3.6-0.6c1.1,0,2.1,0,3.1,0.1C296.2,26.7,296.5,26.9,296.8,27L296.8,27z M307.7,28.4c-1.5,0-3-0.3-4.5-0.7
		c-4.2-1.2-9-3.8-13.4-5.5c-0.8-0.3-1.7-0.6-2.7-0.9h17.3c-0.2,0.5-0.2,1.1-0.2,1.7c0.1,0.5,0.2,1.1,0.5,1.5c0.2,0.4,0.6,0.9,1,1.2
		c0.4,0.4,0.9,0.6,1.5,0.8c0.6,0.1,1.2,0,1.7-0.2c1-0.4,2-1.2,2.2-2.5c0.1-0.6-0.1-1.4-0.7-2c-0.6-0.6-1.5-0.6-2.1-0.4l0,0
		c-0.5,0.2-0.8,0.7-0.6,1.2s0.7,0.8,1.2,0.7c0.2-0.1,0.2,0,0.2,0s0.1,0.1,0,0.3c0,0.3-0.4,0.7-0.9,0.9c-0.5,0.2-0.9,0.1-1.3-0.2
		c-0.4-0.3-0.7-0.9-0.8-1.5c-0.1-1.2,0.6-2.4,1.9-2.9c1.2-0.6,2.6-0.6,3.7,0.2c0.9,0.7,1.7,2.1,1.7,3.4
		C313.4,25.7,311.5,28.2,307.7,28.4z"/>
	<path class="st1" d="M320.8,162.7c1.4,0.4,3.4-0.4,4-1.7c0.6-1.4-0.5-3.1-1.9-2.9c-0.9,0.1-1.5,0.9-1.2,1.8
		c0.3,0.8,1.7,0.5,1.5-0.4c0.6,2.5-2,2.1-2,2.1c-2.2-0.4-2.2-4.1,0.4-5.2c0.6-0.2,1.3-0.3,2-0.4c0.2,0.2,0.4,0.4,0.7,0.6
		c0.8,0.6,1.8,0.9,2.8,0.9s1.9-0.3,2.8-0.7c0.7-0.4,1.4-0.9,1.9-1.7l23.4-0.8c-1.6,0.9-2.5,2.7-1.9,4.4c0.5,1.3,2.6,3,3.8,1.4
		c0.8-1.2-0.7-2.8-1.8-1.7c-0.2,0.2-0.2,0.5-0.1,0.7c-0.5-0.5-0.7-1.5-0.6-2c0.1-0.7,0.7-1.4,1.4-1.7c1-0.6,2-0.5,3.1-0.2
		c0.6,1.1,1.4,2,2.3,2.7c2.7,2.1,7,3,10.6,1c0.5-0.3,1-0.6,1.4-1c-0.8,2.5-0.2,5.4,2.5,7c0.6,0.3,1-0.5,0.5-0.9
		c-2.9-2.3-2.4-5.9-0.3-7.9c2.2-2.1,5.3-1.6,6.5-0.5s1.5,4.3,0,4.2c-1.5,0-1.9-2.1-3.2-0.8c-0.7,0.6-0.6,1.9-0.2,2.7
		c0.8,1.5,2.7,1.9,4.2,1.2c1.7-0.9,2.5-2.9,2.3-4.8c-0.2-1.3-0.7-2.3-1.4-3.1c0.8,0.7,1.9,1.2,3.2,1.2c1.8,0.1,3.9-0.8,4.6-2.6
		c0.6-1.5,0.1-3.4-1.4-4.1c-0.8-0.4-2.1-0.3-2.6,0.3c-1.1,1.4,0.9,1.7,1,3.2s-3,1.4-4.2,0.3c-1.1-1.1-1.9-4.1,0.1-6.5
		c1.9-2.3,5.5-3,7.9-0.3c0.4,0.5,1.2,0,0.8-0.6c-1.7-2.4-4.2-3-6.5-2.3c0.3-0.4,0.5-0.8,0.7-1.2c1.7-3.7,0.5-7.9-1.8-10.5
		c-0.8-0.9-1.8-1.6-2.9-2.1c-0.4-1-0.5-2.1,0-3.1c0.3-0.7,0.9-1.3,1.6-1.5c0.5-0.1,1.5,0,2.1,0.5c-0.2-0.1-0.5-0.1-0.7,0.2
		c-1,1.2,0.7,2.6,1.8,1.7c1.5-1.3-0.2-3.3-1.6-3.7c-1.8-0.5-3.6,0.5-4.3,2.2l-0.8-23.4c0.7-0.6,1.2-1.3,1.5-2
		c0.4-0.9,0.6-1.8,0.5-2.8s-0.4-2-1.1-2.7c-0.2-0.2-0.4-0.4-0.6-0.6c0-0.7,0.1-1.4,0.3-2c0.9-2.6,4.6-2.9,5.1-0.7
		c0,0.1,0.5,2.6-2,2.2c0.9,0.1,1.1-1.3,0.3-1.5c-0.9-0.3-1.7,0.3-1.7,1.3c0,1.4,1.7,2.3,3,1.7c1.3-0.7,1.9-2.7,1.5-4.1
		c-0.9-2.7-5.9-3-7.3,1.1c-0.1,0.4-0.2,0.9-0.2,1.3c-1-0.6-2.2-0.9-3.4-0.9c-3.4,0.2-6.5,3.2-6.4,7.7c0,1.8,0.5,3.4,1,5
		c0.5,1.5,1.2,3,1.8,4.4c-4.6,5.2-7.8,10.5-9.6,17.9c-0.5,2.2-0.8,4.4-0.7,6.7c0,0.1,0,0.3,0,0.4c-0.3,0-0.6,0-0.9,0
		c-2.3,0.1-4.5,0.5-6.6,1.2c-7.3,2.3-12.3,5.9-17.2,10.8c-1.5-0.6-3-1.1-4.6-1.5s-3.3-0.7-5.1-0.7c-4.5,0.2-7.3,3.5-7.3,6.9
		c0,1.2,0.4,2.4,1.1,3.3c-0.4,0-0.9,0.2-1.3,0.3C317.5,157,318.1,162,320.8,162.7z M358.2,146.2c0.9,0.2,1.8,0,2.6-0.5
		c-0.5,0.4-0.9,0.8-1.3,1.2c-0.1,0.2-0.3,0.4-0.4,0.6C358.9,147,358.6,146.5,358.2,146.2z M358.1,151.7c0,0.3,0,0.6,0.1,0.9h-1.4
		c0.1-0.1,0.3-0.2,0.4-0.2C357.5,152.2,357.8,152,358.1,151.7z M370.8,156.8c-3.4,1.8-8.1-0.2-9.2-3.2c-1.6-4,2.1-6.6,3.6-5
		c0.8,0.8,2.1,0.8,2.9,0c2.2-2.2-1.6-5.1-5.1-4.1c-0.7,0.2-1.3,0.5-1.9,0.9c0.9-0.7,1.4-1.9,1.1-3.1c-0.3-1.2-1.9-2.1-2.9-1.7
		c-0.7,0.3-0.9,1.2-0.7,1.7c0.3,0.7,1.5,0.9,1.8,0.1c1,1.4-0.6,2.5-1.6,2.4c-1-0.2-1.6-0.5-2.1-1.4c-0.7-1.5-0.1-3,0.9-4.2
		c1.4-1.6,3.1-2.1,5-2.5c0.2,0,0.4,0,0.6,0c0.2,1.6,0.7,3.1,1.3,4.5c1.7,3.5,4.8,6,8.2,7c0.4,1.3,1,2.5,1.9,3.4
		C374.1,154,372.6,155.8,370.8,156.8z M377,153.2c0.2,0.1,0.5,0.2,0.7,0.3c-0.6,0.2-1.1,0.4-1.6,0.7c0.2-0.4,0.4-0.8,0.5-1.3
		C376.8,153.1,376.9,153.1,377,153.2z M381.9,148c0-0.1-0.1-0.1-0.1-0.2c0.3-0.1,0.6-0.3,0.9-0.4c-0.2,0.4-0.3,0.8-0.4,1.3
		C382.1,148.4,382,148.2,381.9,148z M379.9,149.1c0.5,0.8,0.7,1.7,0.8,2.6c-0.9,0-1.8-0.2-2.6-0.6c-2-1-2.9-2.8-3.2-4.8
		C376.9,146.4,378.8,147.3,379.9,149.1z M372.7,144.3c0,0.6,0,1.2,0,1.8c-2.7-1-5-2.9-6.3-5.6c-0.6-1.1-0.9-2.3-1.2-3.6
		c1.1,0.2,2.2,0.5,3.2,0.9c3,1.2,5.2,3.6,6.3,6.4C374,144.2,373.3,144.2,372.7,144.3z M385.5,141.5c-0.9,2.1-2.8,3.7-5.2,4.6
		c-1-0.9-2.2-1.4-3.5-1.7c-1.2-3.7-3.9-6.8-7.8-8.3c-1.3-0.5-2.7-0.8-4.1-1c0-0.1,0-0.1,0-0.2c0.2-1.9,0.6-3.7,2.2-5.2
		c1.1-1.1,2.6-1.8,4.1-1.2c0.9,0.4,1.3,1,1.5,2s-0.8,2.7-2.2,1.8c0.8-0.4,0.5-1.6-0.2-1.8c-0.5-0.2-1.4,0.1-1.7,0.8
		c-0.3,1,0.6,2.6,1.9,2.8c1.3,0.2,2.4-0.4,3-1.3c-0.3,0.6-0.6,1.2-0.7,1.9c-0.8,3.6,2.4,7.1,4.4,4.8c0.7-0.9,0.6-2.1-0.2-2.9
		c-1.7-1.4,0.7-5.2,4.8-4C384.8,133.5,387.1,138,385.5,141.5z M380.6,129.2c-0.3,0-0.6,0-0.9,0c0.2-0.3,0.5-0.6,0.7-1
		c0.1-0.1,0.1-0.3,0.2-0.4V129.2z M374.1,129.7c0.4,0.3,0.9,0.6,1.4,0.8c-0.2,0.1-0.4,0.3-0.6,0.4c-0.4,0.4-0.8,0.9-1.1,1.4
		C374.2,131.5,374.4,130.6,374.1,129.7z M372.5,100.6c0-3.8,2.5-5.8,4.7-5.8c1.4-0.1,2.8,0.7,3.5,1.6c0.8,1,0.8,2.4,0.3,3.7
		c-0.5,1.2-1.7,2.1-2.8,1.9c-0.5,0-1.1-0.4-1.5-0.8s-0.4-0.8-0.3-1.3c0.2-0.5,0.6-0.9,0.9-0.9c0.2,0,0.3,0,0.3,0s0,0,0,0.2
		c-0.1,0.5,0.2,1,0.7,1.2c0.5,0.1,1.1-0.2,1.2-0.7l0,0c0.2-0.6,0.1-1.5-0.5-2c-0.6-0.6-1.4-0.7-2-0.6c-1.3,0.2-2.1,1.3-2.4,2.3
		c-0.2,0.5-0.2,1.1-0.1,1.7c0.1,0.6,0.4,1.1,0.8,1.5c0.4,0.4,0.8,0.7,1.3,0.9c0.4,0.2,1,0.4,1.5,0.4c0.6,0,1.1,0,1.7-0.2l0.6,17.3
		c-0.3-0.9-0.6-1.8-1-2.6c-1.8-4.4-4.6-9.1-5.9-13.2C372.9,103.6,372.5,102.1,372.5,100.6z M374.2,111.5L374.2,111.5
		c0.2,0.2,0.3,0.5,0.4,0.8c0.1,1,0.2,2.1,0.2,3.1c0,2.2-0.4,3.1-0.5,3.6c-0.4,1.5-1.9,2.8-3,1.6c0.5-1,0-2.2-1.1-2
		c-1.3,0.3-1.3,1.6-0.8,2.6c1,1.9,2.8,1.5,3.5,1.2c1-0.5,1.7-1.4,2.1-2.4c0.7-1.7,0.8-3.7,0.6-5.6v0.1c1.4,2.9,3,5.8,3.7,8.8
		c1,4.2-1.5,6.7-3.5,5.9c-3.1-1.2-1.4-4.3-0.2-3.3c0.4,0.3,0.3,0.5,0.3,0.4c-0.2,0.5,0,1.1,0.5,1.3s1.1,0,1.3-0.5
		c0.9-2.4-3.2-4.5-4.8-1.3c-0.3,0.7-0.4,1.4-0.2,2.1c-1.4-1.1-3.5-1.2-5.2-0.2c-1.1,0.6-2,1.6-2.6,2.8c0.1-0.7,0.2-1.4,0.4-2.1
		C367,121.4,370.3,116.1,374.2,111.5z M340,147.5c4.3-4.2,9.4-7.8,16.2-9.8c0.7-0.2,1.4-0.4,2.1-0.5c-1.1,0.7-2,1.7-2.6,2.8
		c-0.8,1.7-0.6,3.8,0.6,5.1c-0.7-0.1-1.4-0.1-2.1,0.3c-3.1,1.8-0.7,5.7,1.6,4.7c0.5-0.2,0.7-0.8,0.4-1.3s-0.8-0.7-1.3-0.4
		c0.2,0,0,0.2-0.4-0.2c-1-1.2,1.9-3.1,3.3-0.1c0.9,1.9-1.4,4.6-5.7,3.9c-3.1-0.5-6-1.8-9-3.1H343c1.9,0.1,3.9-0.2,5.5-1
		c1-0.5,1.9-1.3,2.3-2.3c0.3-0.7,0.6-2.6-1.4-3.5c-1-0.4-2.4-0.3-2.6,0.9c-0.2,1.1,1.1,1.5,2,0.9c1.3,1,0.1,2.7-1.4,3.1
		c-0.5,0.2-1.4,0.6-3.6,0.8c-1,0.1-2.1,0-3.1,0C340.6,147.8,340.3,147.6,340,147.5L340,147.5z M329,146.5c1.5-0.1,3,0.2,4.5,0.6
		c4.2,1.1,9.1,3.5,13.6,5c0.9,0.3,1.8,0.6,2.7,0.8l-17.3,0.6c0.1-0.5,0.2-1.1,0.1-1.7c-0.1-0.5-0.3-1-0.5-1.5
		c-0.3-0.4-0.6-0.8-1-1.2c-0.4-0.3-1-0.6-1.6-0.7c-0.6-0.1-1.2,0-1.7,0.2c-1,0.4-1.9,1.3-2.1,2.6c-0.1,0.6,0.1,1.4,0.7,1.9
		c0.6,0.6,1.5,0.6,2.1,0.4l0,0c0.5-0.2,0.8-0.7,0.6-1.3c-0.2-0.5-0.7-0.8-1.2-0.6c-0.2,0.1-0.2,0-0.2,0s-0.1-0.1-0.1-0.3
		c0-0.3,0.4-0.8,0.9-1s0.9-0.1,1.3,0.2c0.4,0.3,0.8,0.9,0.9,1.4c0.2,1.1-0.6,2.4-1.8,3s-2.6,0.7-3.7-0.1c-1-0.6-1.8-2-1.8-3.4
		C323.5,149.4,325.2,146.8,329,146.5z"/>
	<g>
		<path class="st17" d="M317.4,114.2c-2.7-0.1-5.3-0.2-8-0.8c-0.6-0.1-1.1-0.1-1.2,0.7c-0.3-1.2-1.4-1.5-2.4-1.8
			c-5.1-1.5-9.1-4.4-11.7-9.3c-1.1-2.1-1.5-4.5-2.6-6.5c-0.3-3-0.9-6.1-0.8-9.1c0-1.2,0.1-2.5,0.1-3.7c0.6-4.2,1.4-8.3,2.6-12.4
			c1.1-2.4,2.1-4.7,3.2-7.1c3.5-5.9,8.2-10.7,13.6-14.8c0.6-0.4,1.2-0.7,1.9-1.1c-0.7,2.2-1.7,4.3-1.6,6.7c0.4,6,2.9,11.1,6.1,16
			c5.5,8.3,12.6,15,21.5,19.6c5.9,3.1,12,5.3,18.6,1.8c-2.5,4.7-6.4,8.2-10.3,11.7c-1.3,1.2-3,2.1-4.4,3.1c-0.2-0.1-0.3,0-0.3,0.2
			c-0.4,0.3-0.8,0.6-1.2,1c-1.7,0.8-3.4,1.5-5,2.3c-4.8,1.7-9.7,2.8-14.7,3.5C319.6,114.2,318.5,114.2,317.4,114.2z M328.3,99.4
			c1.8,0.4,3.3-0.6,4.7-1.9c0.6-0.6,0.7-1.3,0.1-1.9c-0.5-0.6-1.1-0.6-1.8-0.2c-0.4,0.2-0.7,0.5-1.1,0.7c-1.8,1-3.9,0.7-5.2-0.7
			c-1.4-1.6-1.6-3.6-0.3-5.3c0.6-0.8,1-1.5,0.4-2.3c-0.7-0.9-1.6-0.3-2.4,0.2c-2.3,1.4-3.7,1.2-5.6-0.6c-1.4-1.4-1.6-3.1-0.5-5.2
			c0.5-0.8,1.1-1.7,0.4-2.5c-0.9-0.9-1.7-0.2-2.6,0.3c-2.2,1.3-3.7,1.1-5.3-0.6c-1.5-1.6-1.6-3.4-0.2-5.7c0.5-0.8,1-1.5,0-2.2
			c-0.9-0.7-1.6-0.1-2.2,0.5c-1.9,2-1.8,4.4-1.3,6.9c0.2,0.8,0.3,1.3,0.1,2.2c-0.5,2-0.7,4.2,0.1,6.3c0.3,0.7,0.4,1.4,0.1,2.1
			c-0.7,1.9-0.9,3.9,0,5.8c0.3,0.6,0.1,1-0.6,1.1c-2.6,0.5-4.3-0.7-5.1-3.2c-0.5-1.6,0.2-2.5,1.1-3.6c0.5-0.7,0.7-1.5-0.1-2.1
			c-0.8-0.5-1.6-0.5-2.2,0.3c-3.2,3.8-1.6,9.9,3.1,11.1c2.3,0.6,3.4,1.6,3.8,3.8c0,0.1,0.1,0.2,0.1,0.4c1.6,4.8,7.2,5.2,10.1,3.3
			c1-0.6,2.1-1.5,1.3-2.8c-0.9-1.4-1.9-0.3-2.8,0.3c-3,2.1-5.8-0.3-6.5-2.8c-0.4-1.5,0.5-2.3,2-2c1.8,0.4,3.6,0.4,5.4-0.2
			c0.5-0.2,1-0.4,1.6-0.1c2.1,1.1,4.3,0.7,6.4,0.1c0.7-0.2,1.3-0.4,1.9,0C326.1,99.5,327.1,99.5,328.3,99.4z M326,91
			c0,5.9-4.8,10.6-10.7,10.6s-10.7-4.7-10.7-10.6s4.8-10.6,10.7-10.6C321.2,80.4,326,85.1,326,91z"/>
		<ellipse class="st18" cx="328" cy="62" rx="9.1" ry="8.8"/>
		<path class="st19" d="M356.6,92.4c-6.6,3.6-12.7,1.3-18.6-1.8c-2.8-1.4-4.7-2.6-7.4-4.6c-3.2-2.4-9.4-7-14.5-15.1
			c-4.9-7.8-5.6-13.5-5.7-15.9c-0.2-4,0.7-6,1.8-7.2c1.3-1.4,3.1-1.9,4-2.2c2.4-0.7,4.4-0.6,5.5-0.4c0.4,0.1,1.1,0.2,1.8,0.3
			c6.2,1.3,10.6,4.3,14.7,7.2c1.6,1.2,3.8,2.8,6.3,5c1.5,1.6,3.1,3.2,4.6,4.8c0.8,1,1.5,1.9,2.3,2.9c0.7,1.1,1.5,2.3,2.2,3.5
			c2.8,4.8,4.6,9.5,5.8,13.7c0.2,0.9,0.8,3.4-0.3,6.2C358.5,90.6,357.3,91.8,356.6,92.4z M334,65.2c0-3.1-3.4-7.2-6.8-8.2
			c-1.4-0.4-2.8-0.6-3.9,0.6c-1.1,1.2-1,2.6-0.5,3.9c1.3,3.4,3.7,5.7,7.2,6.7C332.2,68.9,334,67.5,334,65.2z"/>
		<path class="st20" d="M291.4,96.5c1.2,2,1.5,4.4,2.6,6.5c2.6,4.9,6.6,7.8,11.7,9.3c1,0.3,2.1,0.5,2.4,1.8c0.2,4.5-1,8.5-3.7,12
			c-0.6,0.8-1,1-1.4,1.1c-1.3,0.3-2.5-0.7-4.7-2.5c-1.6-1.4-3-2.6-4.1-4.7c-0.3-0.5-0.7-1.4-1-2.6c-0.8-3,0.2-4.1-0.7-5.1
			c-0.7-0.7-1.6,0-5-0.8c-0.8-0.2-1.1-0.3-1.3-0.4c-1.5-0.5-2.5-1.4-3.1-2c-0.9-0.8-1.8-1.6-2.7-2.4c-0.6-0.7-1.8-2.2-2.7-3.8
			c-0.2-0.3-0.5-0.8-0.3-1.4c0.1-0.5,0.5-0.9,0.8-1.1c3.7-2.8,9.5-3.6,9.5-3.6C288.5,96.7,289.8,96.6,291.4,96.5z"/>
		<path class="st21" d="M328.3,99.4c-1.2,0-2.2,0.1-3.1-0.5c-0.6-0.4-1.3-0.2-1.9,0c-2.1,0.6-4.3,0.9-6.4-0.1
			c-0.5-0.3-1.1-0.1-1.6,0.1c-1.8,0.7-3.6,0.6-5.4,0.2c-1.5-0.3-2.4,0.5-2,2c0.7,2.5,3.5,5,6.5,2.8c0.8-0.6,1.9-1.7,2.8-0.3
			c0.8,1.3-0.3,2.2-1.3,2.8c-2.9,1.9-8.5,1.5-10.1-3.3c0-0.1-0.1-0.2-0.1-0.4c-0.3-2.2-1.5-3.2-3.8-3.8c-4.7-1.2-6.3-7.3-3.1-11.1
			c0.7-0.8,1.5-0.8,2.2-0.3c0.9,0.6,0.7,1.4,0.1,2.1c-0.9,1.1-1.6,2-1.1,3.6c0.8,2.5,2.5,3.7,5.1,3.2c0.8-0.1,0.9-0.5,0.6-1.1
			c-0.9-2-0.7-3.9,0-5.8c0.3-0.7,0.2-1.4-0.1-2.1c-0.8-2.1-0.6-4.2-0.1-6.3c0.2-0.9,0.1-1.4-0.1-2.2c-0.5-2.4-0.6-4.8,1.3-6.9
			c0.6-0.7,1.3-1.2,2.2-0.5c1,0.7,0.5,1.4,0,2.2c-1.4,2.3-1.3,4.1,0.2,5.7c1.6,1.7,3.1,1.9,5.3,0.6c0.9-0.5,1.7-1.2,2.6-0.3
			c0.8,0.8,0.1,1.7-0.4,2.5c-1.2,2.1-1,3.7,0.5,5.2c1.8,1.8,3.3,2,5.6,0.6c0.8-0.5,1.7-1,2.4-0.2c0.6,0.7,0.2,1.5-0.4,2.3
			c-1.3,1.7-1.1,3.8,0.3,5.3c1.2,1.4,3.3,1.7,5.2,0.7c0.4-0.2,0.7-0.5,1.1-0.7c0.6-0.4,1.3-0.4,1.8,0.2c0.6,0.7,0.5,1.4-0.1,1.9
			C331.6,98.9,330.1,99.8,328.3,99.4z M312.5,96.8c0.4-0.4,1.7,0.1,1.5-1.2c-0.3-2.9-1-3.6-3.9-4.4c-0.2,0-0.4-0.1-0.5-0.2
			c-1.3-0.6-1.6,0.1-1.7,1.2C307.7,94.5,310,96.9,312.5,96.8z M312.5,88.8c1-0.1,2-0.2,1.1-1.8c-0.3-0.5-0.5-1.1-0.4-1.6
			c0.3-1.7-0.8-1.9-2-2.1c-0.4,0-0.7-0.1-1.1-0.2c-1.5-0.3-2.3,0.4-2.1,1.9C308.2,87,310.3,88.8,312.5,88.8z M317.2,90.8
			c-0.7-0.1-0.9,0.3-1.1,0.7c-0.5,1.5,0.1,2.8,1.1,3.8c0.9,1,2.1,1.6,3.6,1.3c0.9-0.2,1.2-0.6,0.9-1.6c-0.3-0.9-0.4-1.9-0.6-2.8
			c-0.1-0.4-0.1-0.7-0.6-0.8C319.3,91.3,318,91.7,317.2,90.8z"/>
	</g>
</g>
<g>
	<circle class="st0" cx="960.5" cy="87" r="64.9"/>
	<path class="st1" d="M958.3,12.4c-1.4-0.4-3.4,0.3-4,1.6c-0.6,1.4,0.4,3.1,1.8,3c0.9-0.1,1.5-0.9,1.2-1.7c-0.3-0.8-1.7-0.5-1.5,0.4
		c-0.5-2.5,2-2.1,2.1-2.1c2.2,0.5,2.1,4.2-0.6,5.1c-0.6,0.2-1.3,0.3-2,0.3c-0.2-0.2-0.4-0.4-0.7-0.6c-0.8-0.6-1.8-0.9-2.8-1
		c-1,0-1.9,0.2-2.8,0.6c-0.8,0.4-1.5,0.9-2,1.6h-23.4c1.6-0.8,2.6-2.6,2.1-4.4c-0.4-1.4-2.5-3.1-3.7-1.5c-0.9,1.1,0.6,2.8,1.7,1.8
		c0.2-0.2,0.3-0.5,0.2-0.7c0.5,0.5,0.7,1.5,0.5,2.1c-0.2,0.7-0.8,1.4-1.4,1.7c-1,0.5-2.1,0.5-3.1,0.1c-0.5-1.1-1.3-2.1-2.2-2.8
		c-2.6-2.2-6.9-3.3-10.5-1.4c-0.5,0.3-1,0.6-1.4,0.9c0.9-2.5,0.4-5.4-2.3-7.1c-0.6-0.4-1,0.4-0.6,0.8c2.8,2.4,2.2,6,0,7.9
		c-2.3,2-5.4,1.4-6.5,0.3s-1.3-4.3,0.2-4.2c1.4,0.1,1.9,2.1,3.2,0.9c0.7-0.6,0.7-1.9,0.3-2.7c-0.8-1.5-2.7-2-4.2-1.3
		c-1.8,0.8-2.6,2.9-2.4,4.7c0.1,1.3,0.6,2.3,1.3,3.1c-0.8-0.7-1.9-1.2-3.1-1.3c-1.8-0.2-3.9,0.7-4.7,2.4c-0.7,1.5-0.2,3.4,1.3,4.2
		c0.8,0.4,2.1,0.4,2.7-0.3c1.2-1.3-0.8-1.8-0.9-3.2c-0.1-1.5,3.1-1.3,4.2-0.2c1.1,1.1,1.7,4.2-0.3,6.5c-1.9,2.2-5.6,2.8-7.9,0
		c-0.4-0.5-1.2,0-0.8,0.6c1.6,2.5,4.1,3.1,6.4,2.5c-0.3,0.4-0.5,0.8-0.7,1.2c-1.9,3.6-0.8,7.9,1.4,10.5c0.7,0.9,1.7,1.7,2.8,2.2
		c0.3,1,0.4,2.1-0.1,3.1c-0.3,0.6-1,1.3-1.7,1.4c-0.5,0.1-1.5,0-2.1-0.5c0.2,0.1,0.5,0.1,0.7-0.2c1-1.1-0.6-2.6-1.8-1.7
		c-1.6,1.2,0.1,3.3,1.5,3.7c1.8,0.6,3.6-0.4,4.4-2.1V70c-0.7,0.5-1.2,1.2-1.6,2c-0.4,0.9-0.6,1.8-0.6,2.8s0.4,2,1,2.8
		c0.2,0.2,0.4,0.5,0.6,0.7c0,0.7-0.1,1.4-0.3,2c-1,2.6-4.7,2.8-5.1,0.6c0-0.1-0.4-2.6,2.1-2.1c-0.9-0.2-1.2,1.2-0.4,1.5
		c0.9,0.3,1.7-0.3,1.7-1.2c0.1-1.4-1.6-2.4-3-1.8s-2,2.6-1.6,4c0.8,2.8,5.8,3.2,7.4-0.9c0.2-0.4,0.3-0.9,0.3-1.3c1,0.6,2.2,1,3.4,1
		c3.4-0.1,6.6-3,6.7-7.5c0-1.8-0.4-3.4-0.8-5c-0.5-1.6-1.1-3-1.7-4.5c4.7-5.1,8.2-10.2,10.2-17.5c0.6-2.1,1-4.4,0.9-6.6
		c0-0.1,0-0.3,0-0.4c0.3,0,0.6,0,0.9,0c2.3,0,4.5-0.4,6.6-0.9c7.3-2,12.5-5.5,17.5-10.2c1.5,0.6,3,1.2,4.5,1.7
		c1.6,0.5,3.3,0.8,5,0.8c4.5,0,7.4-3.3,7.5-6.7c0-1.2-0.4-2.4-1-3.4c0.4,0,0.9-0.1,1.3-0.3C961.5,18.3,961.1,13.3,958.3,12.4z
		 M920.4,27.8c-0.9-0.2-1.8-0.1-2.6,0.4c0.5-0.3,0.9-0.7,1.3-1.2c0.2-0.2,0.3-0.4,0.4-0.6C919.8,26.9,920.1,27.4,920.4,27.8z
		 M920.7,22.2c0-0.3,0-0.6-0.1-0.9h1.4c-0.1,0.1-0.3,0.1-0.4,0.2C921.3,21.7,921,21.9,920.7,22.2z M908.2,16.7
		c3.5-1.7,8.1,0.5,9.1,3.5c1.4,4-2.3,6.5-3.8,4.9c-0.8-0.8-2.1-0.9-2.9-0.1c-2.3,2.1,1.4,5.1,4.9,4.3c0.7-0.2,1.3-0.5,1.9-0.8
		c-0.9,0.7-1.5,1.8-1.2,3.1c0.3,1.2,1.8,2.2,2.8,1.8c0.7-0.3,1-1.2,0.8-1.7c-0.3-0.7-1.4-1-1.8-0.1c-0.9-1.4,0.7-2.5,1.7-2.3
		s1.6,0.6,2,1.5c0.7,1.5,0,3-1.1,4.1c-1.4,1.6-3.2,2-5.1,2.3c-0.2,0-0.4,0-0.6,0c-0.2-1.6-0.5-3.1-1.2-4.6c-1.5-3.6-4.5-6.1-8-7.3
		c-0.3-1.3-0.9-2.5-1.8-3.5C904.8,19.4,906.3,17.6,908.2,16.7z M901.9,20.1c-0.2-0.1-0.5-0.3-0.7-0.4c0.6-0.2,1.1-0.4,1.6-0.7
		c-0.2,0.4-0.4,0.8-0.6,1.2C902.1,20.2,902,20.1,901.9,20.1z M896.8,25.1c0,0.1,0.1,0.1,0.1,0.2c-0.3,0.1-0.6,0.2-1,0.4
		c0.2-0.4,0.4-0.8,0.5-1.3C896.6,24.7,896.7,24.9,896.8,25.1z M898.9,24c-0.4-0.8-0.7-1.7-0.7-2.6c0.9,0,1.8,0.2,2.6,0.7
		c1.9,1,2.8,2.9,3,4.9C901.7,26.8,899.9,26,898.9,24z M905.9,29.1c0.1-0.6,0.1-1.2,0.1-1.8c2.6,1.1,4.9,3.1,6.1,5.8
		c0.5,1.1,0.9,2.4,1.1,3.6c-1.1-0.2-2.2-0.5-3.2-1c-2.9-1.3-5-3.8-6-6.6C904.6,29.2,905.2,29.2,905.9,29.1z M892.9,31.5
		c0.9-2,2.9-3.6,5.4-4.4c1,0.9,2.1,1.5,3.4,1.8c1.1,3.7,3.7,6.9,7.5,8.6c1.3,0.6,2.7,0.9,4.1,1.1c0,0.1,0,0.1,0,0.2
		c-0.3,1.9-0.8,3.7-2.3,5.1c-1.1,1-2.6,1.7-4.1,1.1c-0.9-0.4-1.3-1-1.5-2s0.9-2.6,2.3-1.7c-0.8,0.4-0.6,1.6,0.1,1.8
		c0.5,0.2,1.4-0.1,1.7-0.8c0.4-1-0.6-2.6-1.8-2.8c-1.3-0.3-2.4,0.3-3.1,1.2c0.3-0.6,0.6-1.2,0.8-1.9c0.9-3.5-2.1-7.2-4.3-4.9
		c-0.8,0.8-0.7,2.1,0.1,2.9c1.6,1.5-0.9,5.2-4.9,3.8C893.4,39.5,891.3,35,892.9,31.5z M897.5,43.9c0.3,0,0.6,0,0.9,0.1
		c-0.2,0.3-0.5,0.6-0.7,0.9c-0.1,0.1-0.2,0.3-0.2,0.4L897.5,43.9L897.5,43.9z M904,43.7c-0.4-0.4-0.9-0.6-1.4-0.8
		c0.2-0.1,0.4-0.3,0.6-0.4c0.5-0.4,0.8-0.9,1.2-1.3C903.9,41.8,903.8,42.8,904,43.7z M904.6,72.8c-0.1,3.8-2.7,5.7-4.9,5.7
		c-1.4,0-2.8-0.8-3.4-1.7c-0.8-1-0.8-2.4-0.2-3.7c0.5-1.2,1.7-2,2.9-1.9c0.5,0.1,1.1,0.4,1.5,0.8c0.3,0.4,0.4,0.8,0.2,1.3
		c-0.2,0.5-0.6,0.9-0.9,0.9c-0.2,0-0.3,0-0.3,0s0,0,0-0.2c0.1-0.5-0.2-1-0.7-1.2s-1.1,0.1-1.2,0.6l0,0c-0.2,0.6-0.1,1.5,0.4,2.1
		c0.6,0.6,1.3,0.8,2,0.7c1.3-0.2,2.2-1.2,2.5-2.2c0.2-0.5,0.3-1.1,0.2-1.7c-0.1-0.6-0.4-1.1-0.8-1.5s-0.8-0.7-1.2-1
		c-0.4-0.2-1-0.4-1.5-0.5c-0.6-0.1-1.1,0-1.7,0.2V52.2c0.3,0.9,0.6,1.8,0.9,2.7c1.7,4.4,4.2,9.3,5.5,13.4
		C904.3,69.8,904.6,71.3,904.6,72.8z M903.3,61.9L903.3,61.9c-0.2-0.2-0.3-0.5-0.4-0.8c0-1-0.1-2.1-0.1-3.1c0.1-2.2,0.5-3.1,0.6-3.6
		c0.4-1.5,2-2.7,3.1-1.5c-0.6,0.9-0.1,2.2,1,2c1.3-0.2,1.3-1.6,0.9-2.6c-0.9-2-2.8-1.6-3.5-1.3c-1,0.4-1.8,1.4-2.2,2.3
		c-0.8,1.7-0.9,3.6-0.8,5.6v-0.1c-1.3-2.9-2.8-5.9-3.4-8.9c-0.8-4.3,1.8-6.6,3.7-5.8c3.1,1.3,1.2,4.3,0.1,3.3
		c-0.4-0.3-0.3-0.6-0.3-0.4c0.2-0.5,0-1.1-0.5-1.3s-1.1,0-1.3,0.5c-0.9,2.4,3.1,4.6,4.8,1.5c0.4-0.7,0.4-1.4,0.3-2.1
		c1.4,1.2,3.5,1.3,5.2,0.4c1.1-0.6,2-1.5,2.7-2.7c-0.1,0.7-0.3,1.4-0.4,2.1C910.8,52.2,907.3,57.4,903.3,61.9z M938.6,27
		c-4.5,4-9.7,7.5-16.5,9.3c-0.7,0.2-1.4,0.3-2.1,0.4c1.1-0.7,2.1-1.6,2.7-2.7c0.9-1.7,0.8-3.8-0.4-5.2c0.7,0.2,1.4,0.1,2.1-0.3
		c3.2-1.7,0.9-5.7-1.5-4.8c-0.5,0.2-0.7,0.8-0.5,1.3s0.8,0.7,1.3,0.5c-0.2,0,0-0.2,0.4,0.3c1,1.2-2,3-3.3-0.1
		c-0.8-2,1.5-4.6,5.8-3.7c3,0.6,6,2,8.9,3.4h0.1c-1.9-0.1-3.9,0-5.6,0.8c-1,0.4-1.9,1.2-2.3,2.2c-0.3,0.7-0.7,2.6,1.3,3.5
		c1,0.5,2.3,0.4,2.6-0.9c0.2-1.1-1.1-1.6-2-1c-1.2-1.1-0.1-2.7,1.5-3.1c0.5-0.2,1.4-0.6,3.6-0.6c1.1,0,2.1,0,3.1,0.1
		C938.1,26.7,938.4,26.9,938.6,27C938.7,27,938.6,27,938.6,27z M949.6,28.4c-1.5,0-3-0.3-4.5-0.7c-4.2-1.2-9-3.8-13.4-5.5
		c-0.8-0.3-1.7-0.6-2.7-0.9h17.3c-0.2,0.5-0.2,1.1-0.2,1.7c0.1,0.5,0.2,1.1,0.5,1.5c0.2,0.4,0.6,0.9,1,1.2c0.4,0.4,0.9,0.6,1.5,0.8
		c0.6,0.1,1.2,0,1.7-0.2c1-0.4,2-1.2,2.2-2.5c0.1-0.6-0.1-1.4-0.7-2s-1.5-0.6-2.1-0.4l0,0c-0.5,0.2-0.8,0.7-0.6,1.2
		c0.2,0.5,0.7,0.8,1.2,0.7c0.2-0.1,0.2,0,0.2,0s0.1,0.1,0,0.3c0,0.3-0.4,0.7-0.9,0.9c-0.5,0.2-0.9,0.1-1.3-0.2
		c-0.4-0.3-0.7-0.9-0.8-1.5c-0.1-1.2,0.6-2.4,1.9-2.9c1.2-0.6,2.6-0.6,3.7,0.2c0.9,0.7,1.7,2.1,1.7,3.4
		C955.3,25.7,953.4,28.2,949.6,28.4z"/>
	<path class="st1" d="M962.7,162.7c1.4,0.4,3.4-0.4,4-1.7c0.6-1.4-0.5-3.1-1.9-2.9c-0.9,0.1-1.5,0.9-1.2,1.8
		c0.3,0.8,1.7,0.5,1.5-0.4c0.6,2.5-2,2.1-2,2.1c-2.2-0.4-2.2-4.1,0.4-5.2c0.6-0.2,1.3-0.3,2-0.4c0.2,0.2,0.4,0.4,0.7,0.6
		c0.8,0.6,1.8,0.9,2.8,0.9s1.9-0.3,2.8-0.7c0.7-0.4,1.4-0.9,1.9-1.7l23.4-0.8c-1.6,0.9-2.5,2.7-1.9,4.4c0.5,1.3,2.6,3,3.8,1.4
		c0.8-1.2-0.7-2.8-1.8-1.7c-0.2,0.2-0.2,0.5-0.1,0.7c-0.5-0.5-0.7-1.5-0.6-2c0.1-0.7,0.7-1.4,1.4-1.7c1-0.6,2-0.5,3.1-0.2
		c0.6,1.1,1.4,2,2.3,2.7c2.7,2.1,7,3,10.6,1c0.5-0.3,1-0.6,1.4-1c-0.8,2.5-0.2,5.4,2.5,7c0.6,0.3,1-0.5,0.5-0.9
		c-2.9-2.3-2.4-5.9-0.3-7.9c2.2-2.1,5.3-1.6,6.5-0.5c1.2,1.1,1.5,4.3,0,4.2c-1.5,0-1.9-2.1-3.2-0.8c-0.7,0.6-0.6,1.9-0.2,2.7
		c0.8,1.5,2.7,1.9,4.2,1.2c1.7-0.9,2.5-2.9,2.3-4.8c-0.2-1.3-0.7-2.3-1.4-3.1c0.8,0.7,1.9,1.2,3.2,1.2c1.8,0.1,3.9-0.8,4.6-2.6
		c0.6-1.5,0.1-3.4-1.4-4.1c-0.8-0.4-2.1-0.3-2.6,0.3c-1.1,1.4,0.9,1.7,1,3.2s-3,1.4-4.2,0.3c-1.1-1.1-1.9-4.1,0.1-6.5
		c1.9-2.3,5.5-3,7.9-0.3c0.4,0.5,1.2,0,0.8-0.6c-1.7-2.4-4.2-3-6.5-2.3c0.3-0.4,0.5-0.8,0.7-1.2c1.7-3.7,0.5-7.9-1.8-10.5
		c-0.8-0.9-1.8-1.6-2.9-2.1c-0.4-1-0.5-2.1,0-3.1c0.3-0.7,0.9-1.3,1.6-1.5c0.5-0.1,1.5,0,2.1,0.5c-0.2-0.1-0.5-0.1-0.7,0.2
		c-1,1.2,0.7,2.6,1.8,1.7c1.5-1.3-0.2-3.3-1.6-3.7c-1.8-0.5-3.6,0.5-4.3,2.2l-0.8-23.4c0.7-0.6,1.2-1.3,1.5-2
		c0.4-0.9,0.6-1.8,0.5-2.8s-0.4-2-1.1-2.7c-0.2-0.2-0.4-0.4-0.6-0.6c0-0.7,0.1-1.4,0.3-2c0.9-2.6,4.6-2.9,5.1-0.7
		c0,0.1,0.5,2.6-2,2.2c0.9,0.1,1.1-1.3,0.3-1.5c-0.9-0.3-1.7,0.3-1.7,1.3c0,1.4,1.7,2.3,3,1.7c1.3-0.7,1.9-2.7,1.5-4.1
		c-0.9-2.7-5.9-3-7.3,1.1c-0.1,0.4-0.2,0.9-0.2,1.3c-1-0.6-2.2-0.9-3.4-0.9c-3.4,0.2-6.5,3.2-6.4,7.7c0,1.8,0.5,3.4,1,5
		c0.5,1.5,1.2,3,1.8,4.4c-4.6,5.2-7.8,10.5-9.6,17.9c-0.5,2.2-0.8,4.4-0.7,6.7c0,0.1,0,0.3,0,0.4c-0.3,0-0.6,0-0.9,0
		c-2.3,0.1-4.5,0.5-6.6,1.2c-7.3,2.3-12.3,5.9-17.2,10.8c-1.5-0.6-3-1.1-4.6-1.5s-3.3-0.7-5.1-0.7c-4.5,0.2-7.3,3.5-7.3,6.9
		c0,1.2,0.4,2.4,1.1,3.3c-0.4,0-0.9,0.2-1.3,0.3C959.3,157,959.9,162,962.7,162.7z M1000,146.2c0.9,0.2,1.8,0,2.6-0.5
		c-0.5,0.4-0.9,0.8-1.3,1.2c-0.1,0.2-0.3,0.4-0.4,0.6C1000.7,147,1000.4,146.5,1000,146.2z M1000,151.7c0,0.3,0,0.6,0.1,0.9h-1.4
		c0.1-0.1,0.3-0.2,0.4-0.2C999.4,152.2,999.7,152,1000,151.7z M1012.6,156.8c-3.4,1.8-8.1-0.2-9.2-3.2c-1.6-4,2.1-6.6,3.6-5
		c0.8,0.8,2.1,0.8,2.9,0c2.2-2.2-1.6-5.1-5.1-4.1c-0.7,0.2-1.3,0.5-1.9,0.9c0.9-0.7,1.4-1.9,1.1-3.1c-0.3-1.2-1.9-2.1-2.9-1.7
		c-0.7,0.3-0.9,1.2-0.7,1.7c0.3,0.7,1.5,0.9,1.8,0.1c1,1.4-0.6,2.5-1.6,2.4c-1-0.2-1.6-0.5-2.1-1.4c-0.7-1.5-0.1-3,0.9-4.2
		c1.4-1.6,3.1-2.1,5-2.5c0.2,0,0.4,0,0.6,0c0.2,1.6,0.7,3.1,1.3,4.5c1.7,3.5,4.8,6,8.2,7c0.4,1.3,1,2.5,1.9,3.4
		C1016,154,1014.5,155.8,1012.6,156.8z M1018.8,153.2c0.2,0.1,0.5,0.2,0.7,0.3c-0.6,0.2-1.1,0.4-1.6,0.7c0.2-0.4,0.4-0.8,0.5-1.3
		C1018.6,153.1,1018.7,153.1,1018.8,153.2z M1023.7,148c0-0.1-0.1-0.1-0.1-0.2c0.3-0.1,0.6-0.3,0.9-0.4c-0.2,0.4-0.3,0.8-0.4,1.3
		C1024,148.4,1023.9,148.2,1023.7,148z M1021.7,149.1c0.5,0.8,0.7,1.7,0.8,2.6c-0.9,0-1.8-0.2-2.6-0.6c-2-1-2.9-2.8-3.2-4.8
		C1018.8,146.4,1020.7,147.3,1021.7,149.1z M1014.5,144.3c0,0.6,0,1.2,0,1.8c-2.7-1-5-2.9-6.3-5.6c-0.6-1.1-0.9-2.3-1.2-3.6
		c1.1,0.2,2.2,0.5,3.2,0.9c3,1.2,5.2,3.6,6.3,6.4C1015.8,144.2,1015.2,144.2,1014.5,144.3z M1027.4,141.5c-0.9,2.1-2.8,3.7-5.2,4.6
		c-1-0.9-2.2-1.4-3.5-1.7c-1.2-3.7-3.9-6.8-7.8-8.3c-1.3-0.5-2.7-0.8-4.1-1c0-0.1,0-0.1,0-0.2c0.2-1.9,0.6-3.7,2.2-5.2
		c1.1-1.1,2.6-1.8,4.1-1.2c0.9,0.4,1.3,1,1.5,2s-0.8,2.7-2.2,1.8c0.8-0.4,0.5-1.6-0.2-1.8c-0.5-0.2-1.4,0.1-1.7,0.8
		c-0.3,1,0.6,2.6,1.9,2.8s2.4-0.4,3-1.3c-0.3,0.6-0.6,1.2-0.7,1.9c-0.8,3.6,2.4,7.1,4.4,4.8c0.7-0.9,0.6-2.1-0.2-2.9
		c-1.7-1.4,0.7-5.2,4.8-4C1026.6,133.5,1029,138,1027.4,141.5z M1022.4,129.2c-0.3,0-0.6,0-0.9,0c0.2-0.3,0.5-0.6,0.7-1
		c0.1-0.1,0.1-0.3,0.2-0.4L1022.4,129.2z M1015.9,129.7c0.4,0.3,0.9,0.6,1.4,0.8c-0.2,0.1-0.4,0.3-0.6,0.4c-0.4,0.4-0.8,0.9-1.1,1.4
		C1016.1,131.5,1016.2,130.6,1015.9,129.7z M1014.3,100.6c0-3.8,2.5-5.8,4.7-5.8c1.4-0.1,2.8,0.7,3.5,1.6c0.8,1,0.8,2.4,0.3,3.7
		c-0.5,1.2-1.7,2.1-2.8,1.9c-0.5,0-1.1-0.4-1.5-0.8s-0.4-0.8-0.3-1.3c0.2-0.5,0.6-0.9,0.9-0.9c0.2,0,0.3,0,0.3,0s0,0,0,0.2
		c-0.1,0.5,0.2,1,0.7,1.2c0.5,0.1,1.1-0.2,1.2-0.7l0,0c0.2-0.6,0.1-1.5-0.5-2c-0.6-0.6-1.4-0.7-2-0.6c-1.3,0.2-2.1,1.3-2.4,2.3
		c-0.2,0.5-0.2,1.1-0.1,1.7s0.4,1.1,0.8,1.5s0.8,0.7,1.3,0.9c0.4,0.2,1,0.4,1.5,0.4c0.6,0,1.1,0,1.7-0.2l0.6,17.3
		c-0.3-0.9-0.6-1.8-1-2.6c-1.8-4.4-4.6-9.1-5.9-13.2C1014.7,103.6,1014.4,102.1,1014.3,100.6z M1016,111.5
		C1016,111.5,1016.1,111.5,1016,111.5c0.2,0.2,0.3,0.5,0.4,0.8c0.1,1,0.2,2.1,0.2,3.1c0,2.2-0.4,3.1-0.5,3.6c-0.4,1.5-1.9,2.8-3,1.6
		c0.5-1,0-2.2-1.1-2c-1.3,0.3-1.3,1.6-0.8,2.6c1,1.9,2.8,1.5,3.5,1.2c1-0.5,1.7-1.4,2.1-2.4c0.7-1.7,0.8-3.7,0.6-5.6v0.1
		c1.4,2.9,3,5.8,3.7,8.8c1,4.2-1.5,6.7-3.5,5.9c-3.1-1.2-1.4-4.3-0.2-3.3c0.4,0.3,0.3,0.5,0.3,0.4c-0.2,0.5,0,1.1,0.5,1.3
		s1.1,0,1.3-0.5c0.9-2.4-3.2-4.5-4.8-1.3c-0.3,0.7-0.4,1.4-0.2,2.1c-1.4-1.1-3.5-1.2-5.2-0.2c-1.1,0.6-2,1.6-2.6,2.8
		c0.1-0.7,0.2-1.4,0.4-2.1C1008.9,121.4,1012.1,116.1,1016,111.5z M981.9,147.5c4.3-4.2,9.4-7.8,16.2-9.8c0.7-0.2,1.4-0.4,2.1-0.5
		c-1.1,0.7-2,1.7-2.6,2.8c-0.8,1.7-0.6,3.8,0.6,5.1c-0.7-0.1-1.4-0.1-2.1,0.3c-3.1,1.8-0.7,5.7,1.6,4.7c0.5-0.2,0.7-0.8,0.4-1.3
		c-0.3-0.5-0.8-0.7-1.3-0.4c0.2,0,0,0.2-0.4-0.2c-1-1.2,1.9-3.1,3.3-0.1c0.9,1.9-1.4,4.6-5.7,3.9c-3.1-0.5-6-1.8-9-3.1h-0.1
		c1.9,0.1,3.9-0.2,5.5-1c1-0.5,1.9-1.3,2.3-2.3c0.3-0.7,0.6-2.6-1.4-3.5c-1-0.4-2.4-0.3-2.6,0.9c-0.2,1.1,1.1,1.5,2,0.9
		c1.3,1,0.1,2.7-1.4,3.1c-0.5,0.2-1.4,0.6-3.6,0.8c-1,0.1-2.1,0-3.1,0C982.4,147.8,982.1,147.6,981.9,147.5L981.9,147.5z
		 M970.9,146.5c1.5-0.1,3,0.2,4.5,0.6c4.2,1.1,9.1,3.5,13.6,5c0.9,0.3,1.8,0.6,2.7,0.8l-17.3,0.6c0.1-0.5,0.2-1.1,0.1-1.7
		c-0.1-0.5-0.3-1-0.5-1.5c-0.3-0.4-0.6-0.8-1-1.2c-0.4-0.3-1-0.6-1.6-0.7c-0.6-0.1-1.2,0-1.7,0.2c-1,0.4-1.9,1.3-2.1,2.6
		c-0.1,0.6,0.1,1.4,0.7,1.9c0.6,0.6,1.5,0.6,2.1,0.4l0,0c0.5-0.2,0.8-0.7,0.6-1.3c-0.2-0.5-0.7-0.8-1.2-0.6c-0.2,0.1-0.2,0-0.2,0
		s-0.1-0.1-0.1-0.3c0-0.3,0.4-0.8,0.9-1s0.9-0.1,1.3,0.2s0.8,0.9,0.9,1.4c0.2,1.1-0.6,2.4-1.8,3c-1.2,0.6-2.6,0.7-3.7-0.1
		c-1-0.6-1.8-2-1.8-3.4C965.3,149.4,967.1,146.8,970.9,146.5z"/>
	<g>
		<path class="st22" d="M968.5,48.1l-40.4,25.8l24.6,38.6l40.4-25.8c0.5-0.3,0.6-1,0.3-1.5l-23.5-36.8C969.7,48,969,47.8,968.5,48.1
			z"/>
		<path class="st23" d="M969.3,47.6l-4.3,2.8L989.6,89l4.3-2.8c0.1,0-0.2-0.5-0.5-1l-23.5-36.8C969.7,48,969.4,47.6,969.3,47.6z"/>
		<path class="st22" d="M920.5,85.8l24.6,38.6c1.7,2.7,8,1.9,13.9-1.9s9.4-9.1,7.6-11.8L942,72.1L920.5,85.8z"/>
		<path class="st23" d="M929.5,80l-9,5.7l24.6,38.6c1.6,2.4,6.7,2,12.1-0.9L929.5,80z"/>
		
			<ellipse transform="matrix(0.8429 -0.538 0.538 0.8429 103.8371 513.4174)" class="st24" cx="931.2" cy="78.9" rx="12.8" ry="5.9"/>
		
			<ellipse transform="matrix(0.8429 -0.538 0.538 0.8429 103.8371 513.4174)" class="st22" cx="931.2" cy="78.9" rx="6.4" ry="2.7"/>
		<path class="st23" d="M942,72l21.5,33.7l1.8-1.1l-21.5-33.7c-1.3-2-3.8-2.8-7-2.5l-8.7,5.6C934.1,70.1,940.3,69.3,942,72z"/>
	</g>
</g>
<g>
	<circle class="st25" cx="1133" cy="138.1" r="21.1"/>
</g>
<g>
	<circle class="st25" cx="702.8" cy="138.1" r="21.1"/>
</g>
<g>
	<circle class="st25" cx="57.6" cy="138.1" r="22.1"/>
</g>
<g>
	<circle class="st25" cx="272.7" cy="138.1" r="22.1"/>
</g>
<g>
	<circle class="st25" cx="487.8" cy="138.1" r="22.1"/>
</g>
<g>
	<circle class="st25" cx="917.9" cy="138.1" r="21.1"/>
</g>
</svg>
