<?xml version="1.0" encoding="utf-8"?>
<!-- Generator: Adobe Illustrator 24.2.3, SVG Export Plug-In . SVG Version: 6.00 Build 0)  -->
<svg version="1.1" id="Calque_1" xmlns="http://www.w3.org/2000/svg" xmlns:xlink="http://www.w3.org/1999/xlink" x="0px" y="0px"
	 viewBox="0 0 200 63.7" style="enable-background:new 0 0 200 63.7;" xml:space="preserve">
<style type="text/css">
	.st0{fill:#3B3A3A;}
	.st1{enable-background:new    ;}
	.st2{fill:#3B3A3A;stroke:#3B3A3A;stroke-width:0.75;stroke-miterlimit:10;}
</style>
<g>
	<g>
		<path class="st0" d="M20.4,40.5c-2.9,0-5.6-0.7-8.1-2.2c-2.4-1.5-4.4-3.5-5.8-6C5.1,29.8,4.3,27,4.3,24c0-3.9,1.1-7.2,3.2-9.8
			c2.2-2.6,5-4.2,8.5-4.6c-1.7,0.8-3.2,2.2-4.4,4.4c-1.2,2.2-1.9,4.7-1.9,7.4l0.1,1.8c0,3.4,1.5,6.6,4.4,9.7v-9.7c0-2.7-0.7-4-2-4
			c-0.2,0-0.5,0.1-0.8,0.2c0.4-0.4,1.1-1.1,1.9-2c4.2-4.5,7.2-7.5,9-8.8c0.4,1,1.6,1.5,3.7,1.5c2,0,3.3-0.4,4-1.3
			c0,0.9-0.3,1.9-0.7,2.9c-0.5,1-1,1.7-1.6,2.1c-0.7,0.5-1.5,0.8-2.3,0.8c-0.9,0-1.9-0.3-3-0.8V37c0.2,0,0.8,0,1.5,0l1.3,0
			c1.4,0,3.2-0.7,5.4-2.1c-0.8,1.7-2.1,3.1-3.9,4.1C24.9,40,22.8,40.5,20.4,40.5z M21.3,36.8V13l-0.5-0.4c-0.3,0-1,0.9-2.2,2.8v14.9
			l-4.2,2.7C16.3,35,18.6,36.2,21.3,36.8z"/>
		<path class="st0" d="M36.1,40.7c-0.4,0-0.9-0.3-1.5-0.8c-0.6-0.5-1-1.1-1.5-1.8c-0.4-0.7-0.6-1.3-0.6-1.8V25.1
			c0-0.7-0.3-1.1-0.8-1.1c-0.4,0-0.8,0.3-1.4,0.8l-0.7-0.7c0.2-0.3,0.6-0.7,1.1-1.2c0.5-0.5,1-0.9,1.5-1.4c0.5-0.4,1-0.7,1.3-0.9
			c1.2,0.3,2.1,0.9,2.7,1.7c0.8-0.7,1.4-1.2,2-1.4l0.7,1c-0.9,0.6-1.6,1.2-2.2,1.9v10.7c0,1.4,0.4,2,1.3,2c0.4,0,0.9-0.2,1.5-0.7
			l1,1c-0.8,0.5-1.6,1.1-2.4,1.8C37.3,39.4,36.6,40.1,36.1,40.7z M35.3,16.6c-0.1-0.3-0.4-0.7-0.7-1.1c-0.3-0.4-0.7-0.8-1.1-1.1
			c-0.4-0.3-0.7-0.6-1-0.6c0-0.4,0.2-0.8,0.5-1.2c0.3-0.4,0.7-0.8,1.2-1.2c0.4-0.3,0.8-0.5,1.2-0.5c0.6,0,1.2,0.3,1.9,1
			c0.7,0.7,1,1.3,1,1.9c-0.2,0.1-0.6,0.3-1,0.7c-0.4,0.3-0.8,0.7-1.1,1.1C35.7,15.9,35.4,16.3,35.3,16.6z"/>
		<path class="st0" d="M48.9,40.8c-0.9-0.6-2-1.4-3.1-2.5c-1.1-1.1-2-2.1-2.7-3.1l0.1-8.4c-0.1-1-0.6-2-1.5-3l-1,0.7l-0.4-0.7
			l0.7-0.5c1.6-1.2,2.5-2,2.8-2.4c1.2,0.5,2.1,1.1,2.7,2c0.6,0.8,0.9,1.7,0.9,2.7v9.5c0.9,1.4,2,2.5,3.1,3.3c0.6-0.3,1.1-0.6,1.6-1
			c0.5-0.4,0.7-0.8,0.7-1.1v-9.3c0-1.1-0.5-2.2-1.5-3.2l-1,0.7l-0.4-0.7c1.9-1.6,3.1-2.5,3.5-2.9c1.4,0.4,2.5,1.5,3.2,3.1
			c0.9-0.7,1.4-1.1,1.7-1.2l0.1,0c0.1,0,0.2,0.1,0.3,0.3c0.1,0.1,0.2,0.3,0.3,0.4c0.1,0.1,0.1,0.2,0.1,0.3c-0.7,0.4-1.4,1-2,1.9v9.1
			C53.8,37.4,51.1,39.5,48.9,40.8z"/>
		<path class="st0" d="M66.9,40.7c-0.4,0-0.9-0.3-1.5-0.8c-0.6-0.5-1-1.1-1.5-1.8c-0.4-0.7-0.6-1.3-0.6-1.8V25.1
			c0-0.7-0.3-1.1-0.8-1.1c-0.4,0-0.8,0.3-1.4,0.8l-0.7-0.7c0.2-0.3,0.6-0.7,1.1-1.2c0.5-0.5,1-0.9,1.5-1.4c0.5-0.4,1-0.7,1.3-0.9
			c1.2,0.3,2.1,0.9,2.7,1.7c0.8-0.7,1.4-1.2,2-1.4l0.7,1c-0.9,0.6-1.6,1.2-2.2,1.9v10.7c0,1.4,0.4,2,1.3,2c0.4,0,0.9-0.2,1.5-0.7
			l1,1c-0.8,0.5-1.6,1.1-2.4,1.8C68,39.4,67.4,40.1,66.9,40.7z M66,16.6c-0.1-0.3-0.4-0.7-0.7-1.1c-0.3-0.4-0.7-0.8-1.1-1.1
			c-0.4-0.3-0.7-0.6-1-0.6c0-0.4,0.2-0.8,0.5-1.2c0.3-0.4,0.7-0.8,1.2-1.2c0.4-0.3,0.8-0.5,1.2-0.5c0.6,0,1.2,0.3,1.9,1
			c0.7,0.7,1,1.3,1,1.9c-0.2,0.1-0.6,0.3-1,0.7c-0.4,0.3-0.8,0.7-1.1,1.1C66.4,15.9,66.2,16.3,66,16.6z"/>
		<path class="st0" d="M77.5,40.7c-0.5-0.3-1-0.7-1.4-1.2c-0.5-0.6-0.8-1.1-1.1-1.6c-0.9,0.8-1.4,1.3-1.6,1.5l-0.7-0.7
			c0.4-0.4,0.8-0.8,1.1-1.2s0.4-1.4,0.4-3.1V14.1c3.5-1.9,5.5-3.1,6-3.5c0.1,0,0.2,0.1,0.4,0.3c0.2,0.2,0.3,0.3,0.3,0.3
			c-1.4,0.8-2.2,1.4-2.5,1.7v21.7c0.2,1.1,0.7,1.9,1.4,2.3l1.7-1.4l1,1L77.5,40.7z"/>
		<path class="st0" d="M88.5,40.7c-0.4,0-0.9-0.3-1.5-0.8c-0.6-0.5-1-1.1-1.5-1.8c-0.4-0.7-0.6-1.3-0.6-1.8V25.1
			c0-0.7-0.3-1.1-0.8-1.1c-0.4,0-0.8,0.3-1.4,0.8L82,24.1c0.2-0.3,0.6-0.7,1.1-1.2c0.5-0.5,1-0.9,1.5-1.4c0.5-0.4,1-0.7,1.3-0.9
			c1.2,0.3,2.1,0.9,2.7,1.7c0.8-0.7,1.4-1.2,2-1.4l0.7,1c-0.9,0.6-1.6,1.2-2.2,1.9v10.7c0,1.4,0.4,2,1.3,2c0.4,0,0.9-0.2,1.5-0.7
			l1,1c-0.8,0.5-1.6,1.1-2.4,1.8C89.7,39.4,89,40.1,88.5,40.7z M87.6,16.6c-0.1-0.3-0.4-0.7-0.7-1.1c-0.3-0.4-0.7-0.8-1.1-1.1
			c-0.4-0.3-0.7-0.6-1-0.6c0-0.4,0.2-0.8,0.5-1.2c0.3-0.4,0.7-0.8,1.2-1.2c0.4-0.3,0.8-0.5,1.2-0.5c0.6,0,1.2,0.3,1.9,1
			c0.7,0.7,1,1.3,1,1.9c-0.2,0.1-0.6,0.3-1,0.7c-0.4,0.3-0.8,0.7-1.1,1.1C88.1,15.9,87.8,16.3,87.6,16.6z"/>
		<path class="st0" d="M105.7,40c-0.3-0.9-0.9-1.8-1.8-2.7c-0.3-0.4-1.5-0.9-3.4-1.5c-1,0-2,0.3-2.8,0.8c-0.9,0.5-1.5,1.1-1.9,1.8
			l-0.5,0.9L94.5,39l6.7-13.3c-2.6,0-3.9-0.7-3.9-2.2c0.6,0.5,1.7,0.7,3.2,0.7l1.5,0l0.4-1H101c-2.5,0-3.7-0.7-3.7-2.2
			c0.6,0.5,1.6,0.8,3.2,0.8c0.6,0,1.5,0,2.8,0l4.2-8.5c-0.3,0-0.7-0.2-1.2-0.5c-1.5,1-2.9,1.5-4.2,1.5c-1.1,0-2.2-0.3-3.3-1
			c-1.1-0.7-1.8-1.5-2.3-2.3l-0.7-1.1c0.3-0.1,0.5-0.2,0.8-0.2c0.8,1,1.7,1.5,2.8,1.5c0.7,0,1.4-0.2,2.2-0.6c0.8-0.4,1.4-0.8,2-1.2
			l0.7-0.6l0.2,0.4c0.4,0.9,0.9,1.7,1.6,2.3c0.3,0.3,1.5,0.8,3.4,1.5c1.1,0,2.1-0.3,3-1s1.5-1.5,1.9-2.3l0.2-0.4l0.8,0.4L109,21.6
			c0.6,0,1.2,0.1,1.8,0.2c1.5,0.3,2.2,1,2.2,2c-0.2-0.5-1.4-0.7-3.5-0.7l-1.3,0l-0.5,0.9h1.4c0.9,0,1.8,0.2,2.7,0.5s1.3,0.9,1.3,1.7
			c-0.2-0.5-1.4-0.7-3.5-0.7c-0.7,0-1.5,0-2.6,0l-4.8,9.3c0.7,0.3,1.2,0.6,1.6,0.9c1.4-0.9,2.8-1.4,4.2-1.4c1.1,0,2.2,0.3,3.3,1
			c1.1,0.7,1.8,1.5,2.3,2.3l0.7,1.1c-0.3,0.1-0.6,0.2-0.8,0.2c-0.8-1-1.7-1.5-2.7-1.5C109,37.6,107.4,38.4,105.7,40z"/>
		<path class="st0" d="M120.1,40.9c-0.4,0-0.9-0.2-1.5-0.5c-0.6-0.4-1.2-0.9-1.7-1.6c-0.5-0.7-0.8-1.6-0.8-2.7
			c0-4.7,1.6-7.7,4.7-8.9c1.9,1.9,3.5,3.3,5,4.1v-6.2c-0.8-0.9-1.2-1.5-1.4-1.8c-1.4,0.3-2.9,1-4.4,2c-0.4,0.3-0.8,0.4-1.2,0.4
			c-0.7,0-1.3-0.2-1.8-0.7c-0.5-0.5-0.8-1-0.8-1.7c0-0.5,0.1-0.9,0.4-1.4c0.3-0.4,0.7-0.7,1.2-0.7c0.5,0,0.9,0.2,1.2,0.5
			c0.3,0.4,0.4,0.8,0.4,1.3c0,0.3-0.1,0.5-0.3,0.8s-0.4,0.4-0.8,0.5c0.2,0.1,0.4,0.2,0.6,0.2c0.1,0,0.3,0,0.4-0.1
			c1.8-1.6,4.2-2.8,7.1-3.5c0.6,1,1.3,1.8,2,2.6s1.3,1.1,1.7,1.1c0.6-0.1,1.2-0.5,1.8-1.1l0.5,0.5c-0.5,0.8-1.3,1.5-2.5,2v10.7
			c0,0.8,0.1,1.2,0.4,1.2c0.4,0,0.9-0.4,1.6-1.3l0.5,0.4c-0.3,0.5-0.8,1-1.5,1.5c-0.7,0.5-1.5,1-2.3,1.3c-0.8,0.4-1.3,0.6-1.7,0.6
			c-0.3,0-0.6-0.4-0.8-1.1s-0.4-1.5-0.4-2.4c-0.9,1-1.9,1.9-3,2.7C121.8,40.5,120.9,40.9,120.1,40.9z M121.8,38.3
			c0.6,0,1.3-0.3,2.1-1c0.8-0.7,1.4-1.3,1.9-1.8v-3.2c-0.5-0.2-1.1-0.5-1.7-0.9c-0.6-0.4-1.1-0.8-1.6-1.2c-0.5-0.4-0.8-0.7-0.9-0.9
			c-0.8,0.6-1.2,2.7-1.2,6.3C120.4,37.3,120.9,38.3,121.8,38.3z"/>
		<path class="st0" d="M139.9,40.7c-0.9-0.5-1.8-1.4-2.5-2.8c-0.8,0.8-1.4,1.3-1.6,1.5l-0.8-0.7c0.4-0.4,0.8-0.8,1.1-1.2
			c0.3-0.4,0.4-1.4,0.4-3.1V23h-2.7l1.4-2h1.3v-6.9c3.5-1.9,5.5-3.1,6-3.5c0,0,0.1,0.1,0.2,0.2c0.3,0.3,0.4,0.5,0.5,0.5
			c-1.4,0.8-2.2,1.4-2.5,1.7V21h4.1l-1.4,2h-2.7v11.7c0.3,1.1,0.7,1.9,1.4,2.3l1.7-1.4l1.1,1L139.9,40.7z"/>
		<path class="st0" d="M152.6,40.7c-0.4,0-0.9-0.3-1.5-0.8s-1-1.1-1.5-1.8c-0.4-0.7-0.6-1.3-0.6-1.8V25.1c0-0.7-0.3-1.1-0.8-1.1
			c-0.4,0-0.8,0.3-1.4,0.8l-0.7-0.7c0.2-0.3,0.6-0.7,1.1-1.2c0.5-0.5,1-0.9,1.5-1.4c0.5-0.4,1-0.7,1.3-0.9c1.2,0.3,2.1,0.9,2.7,1.7
			c0.8-0.7,1.4-1.2,2-1.4l0.7,1c-0.9,0.6-1.6,1.2-2.2,1.9v10.7c0,1.4,0.4,2,1.3,2c0.4,0,0.9-0.2,1.5-0.7l1,1
			c-0.8,0.5-1.6,1.1-2.4,1.8C153.8,39.4,153.1,40.1,152.6,40.7z M151.7,16.6c-0.1-0.3-0.4-0.7-0.7-1.1c-0.3-0.4-0.7-0.8-1.1-1.1
			c-0.4-0.3-0.7-0.6-1-0.6c0-0.4,0.2-0.8,0.5-1.2s0.7-0.8,1.2-1.2c0.4-0.3,0.8-0.5,1.2-0.5c0.6,0,1.2,0.3,1.9,1c0.7,0.7,1,1.3,1,1.9
			c-0.3,0.1-0.6,0.3-1,0.7c-0.4,0.3-0.8,0.7-1.1,1.1C152.1,15.9,151.9,16.3,151.7,16.6z"/>
		<path class="st0" d="M166.3,40.8c-1.1-0.4-2.3-1.1-3.7-1.9c-1.4-0.9-2.3-1.6-2.9-2.3V24.9c0.4-0.5,1.1-1.1,2.2-1.8
			c1-0.7,2.1-1.3,3.2-1.8c1.1-0.5,2-0.9,2.6-1c0.6,0.7,1.4,1.5,2.4,2.2c1,0.7,1.8,1.2,2.4,1.4c0.3-0.3,0.6-0.5,1-0.7
			c0.4-0.2,0.8-0.4,1.2-0.6c0.4-0.2,0.6-0.2,0.8-0.3l0.8,0.8c-1.3,0.6-2.2,1.4-2.9,2.2V36c-0.6,0.3-1.5,0.7-2.5,1.4
			c-1,0.6-2,1.3-2.9,1.9S166.6,40.4,166.3,40.8z M166.5,38.4c0.4-0.4,0.9-0.9,1.4-1.3c0.6-0.4,1-0.7,1.4-0.8V25.2
			c-0.9-0.5-1.7-1.2-2.6-2.3c-0.5,0.1-1,0.4-1.5,0.7c-0.5,0.3-1,0.6-1.3,1v12.2C164.3,37.3,165.2,37.8,166.5,38.4z"/>
		<path class="st0" d="M191.7,40.9c-0.7-0.8-1.7-1.5-2.9-2c0.6-0.8,0.8-1.5,0.8-2V26.2c-0.2-0.9-0.5-1.6-1-2
			c-0.5-0.4-1.1-0.8-1.8-1.1l-2.6,2v11.8c0,0.5,0.3,1.2,0.9,2l-0.5,0.3c-1.1,0.5-1.9,1-2.6,1.7c-0.7-0.8-1.7-1.5-2.9-2
			c0.6-0.8,0.8-1.5,0.8-2v-10c0-0.4,0-0.8-0.1-1.4s-0.2-1.1-0.3-1.5c-0.1-0.4-0.3-0.7-0.6-0.7l-0.8,0.5l-0.5-0.8l3.2-2.6
			c1.3,0.4,2.4,1.6,3.2,3.3v0.2c0.6-0.4,1.2-0.9,1.8-1.4c0.6-0.5,1.2-0.9,1.7-1.3c0.5-0.4,0.9-0.7,1.1-0.9c1.5,0.5,2.9,1.6,4.1,3.4
			c1.2-0.8,1.9-1.3,2.2-1.5l0.7,0.9c-0.9,0.4-1.5,1.1-2,1.9v11.8c0,0.5,0.3,1.2,1,2l-0.5,0.3C193.3,39.6,192.4,40.2,191.7,40.9z"/>
	</g>
	<g class="st1">
		<path class="st0" d="M148.7,44.3c0,0,0.1,0,0.1,0s0,0.1,0,0.1l1,11.3c0,0,0,0.1,0,0.1c0,0-0.1,0.1-0.2,0.1h-0.4
			c-0.1,0-0.3,0-0.3-0.1c-0.1-0.1-0.1-0.2-0.2-0.3l-0.1-1.6h-0.8l-0.1,1.6c0,0.1-0.1,0.2-0.2,0.3c-0.1,0.1-0.2,0.1-0.3,0.1h-0.4
			c-0.1,0-0.1,0-0.2-0.1s-0.1-0.1,0-0.1l1-11.3c0,0,0-0.1,0-0.1c0,0,0.1,0,0.1,0H148.7z M147.9,53h0.7l-0.4-6.2L147.9,53z"/>
		<path class="st0" d="M156.9,44.3c0.1,0,0.1,0,0.1,0c0,0,0,0.1,0,0.1v11.3c0,0,0,0.1,0,0.1c0,0-0.1,0-0.1,0h-0.5
			c-0.1,0-0.3,0-0.3-0.1c-0.1-0.1-0.1-0.2-0.1-0.3c0-0.1,0-0.2-0.1-0.5c0-0.2-0.1-0.5-0.2-0.9c-0.1-0.3-0.1-0.7-0.2-1.1
			c-0.1-0.4-0.2-0.8-0.2-1.3c-0.1-0.4-0.2-0.8-0.2-1.2c-0.1-0.4-0.1-0.7-0.2-1l0.1,5.8c0,0.1,0,0.3-0.1,0.4
			c-0.1,0.1-0.2,0.1-0.4,0.1H154c-0.1,0-0.1,0-0.1,0s0-0.1,0-0.1V44.5c0,0,0-0.1,0-0.1s0.1,0,0.1,0h0.5c0.1,0,0.3,0,0.3,0.1
			c0.1,0.1,0.1,0.2,0.1,0.3c0,0.1,0,0.3,0.1,0.5c0,0.3,0.1,0.6,0.1,1c0.1,0.4,0.1,0.8,0.2,1.2c0.1,0.4,0.1,0.9,0.2,1.3
			c0.1,0.4,0.1,0.8,0.2,1.2s0.1,0.7,0.2,0.9l-0.1-6.2c0-0.1,0-0.2,0.1-0.3c0.1-0.1,0.2-0.1,0.3-0.1H156.9z"/>
		<path class="st0" d="M164.3,50.5c0.1,0,0.1,0,0.1,0c0,0,0,0.1,0,0.1v4c0,0.4-0.1,0.8-0.4,1c-0.3,0.3-0.7,0.4-1.2,0.4
			c-0.2,0-0.5,0-0.7-0.1c-0.2-0.1-0.4-0.2-0.5-0.3c-0.1-0.1-0.3-0.3-0.3-0.4c-0.1-0.2-0.1-0.4-0.1-0.6v-9c0-0.4,0.1-0.8,0.4-1
			c0.3-0.3,0.7-0.4,1.2-0.4c0.2,0,0.5,0,0.7,0.1c0.2,0.1,0.4,0.2,0.5,0.3c0.1,0.1,0.2,0.3,0.3,0.4c0.1,0.2,0.1,0.4,0.1,0.6v4.1
			c0,0,0,0.1,0,0.1c0,0-0.1,0-0.1,0h-0.5c-0.2,0-0.3,0-0.4-0.1c-0.1-0.1-0.1-0.2-0.1-0.4v-3.7c0-0.1,0-0.3-0.1-0.4
			c-0.1-0.1-0.2-0.1-0.4-0.1c-0.2,0-0.3,0-0.4,0.1c-0.1,0.1-0.1,0.2-0.1,0.4v9c0,0.1,0,0.3,0.1,0.4c0.1,0.1,0.2,0.1,0.4,0.1
			c0.2,0,0.3,0,0.4-0.1c0.1-0.1,0.1-0.2,0.1-0.4v-3c-0.1,0-0.3,0-0.4-0.1c-0.1-0.1-0.1-0.2-0.1-0.4v-0.5c0-0.1,0-0.1,0-0.1
			c0,0,0.1,0,0.1,0H164.3z"/>
		<path class="st0" d="M171.8,54.7c0,0.4-0.1,0.8-0.4,1c-0.3,0.3-0.7,0.4-1.2,0.4c-0.2,0-0.5,0-0.7-0.1c-0.2-0.1-0.4-0.2-0.5-0.3
			c-0.1-0.1-0.2-0.3-0.3-0.4c-0.1-0.2-0.1-0.4-0.1-0.6V44.5c0,0,0-0.1,0-0.1s0.1,0,0.1,0h0.5c0.1,0,0.3,0,0.3,0.1
			c0.1,0.1,0.1,0.2,0.1,0.3v9.9c0,0.1,0,0.3,0.1,0.4c0.1,0.1,0.2,0.1,0.4,0.1c0.2,0,0.3,0,0.4-0.1c0.1-0.1,0.1-0.2,0.1-0.4v-9.9
			c0-0.1,0-0.2,0.1-0.3c0.1-0.1,0.2-0.1,0.3-0.1h0.5c0.1,0,0.1,0,0.1,0c0,0,0,0.1,0,0.1V54.7z"/>
		<path class="st0" d="M176.1,56c-0.1,0-0.1,0-0.1,0s0-0.1,0-0.1V44.5c0,0,0-0.1,0-0.1s0.1,0,0.1,0h0.5c0.1,0,0.3,0,0.3,0.1
			c0.1,0.1,0.1,0.2,0.1,0.3V55h1c0.1,0,0.2,0,0.3,0.1s0.1,0.2,0.1,0.3v0.3c0,0.1,0,0.1,0,0.1c0,0-0.1,0-0.1,0H176.1z"/>
		<path class="st0" d="M184.3,44.3c0,0,0.1,0,0.1,0s0,0.1,0,0.1l1,11.3c0,0,0,0.1,0,0.1c0,0-0.1,0.1-0.2,0.1h-0.4
			c-0.1,0-0.3,0-0.3-0.1c-0.1-0.1-0.1-0.2-0.2-0.3l-0.1-1.6h-0.8l-0.1,1.6c0,0.1-0.1,0.2-0.2,0.3c-0.1,0.1-0.2,0.1-0.3,0.1h-0.4
			c-0.1,0-0.1,0-0.2-0.1s-0.1-0.1,0-0.1l1-11.3c0,0,0-0.1,0-0.1c0,0,0.1,0,0.1,0H184.3z M183.5,53h0.7l-0.4-6.2L183.5,53z"/>
		<path class="st0" d="M191.1,44.3c0.2,0,0.5,0,0.6,0.1c0.2,0.1,0.4,0.2,0.5,0.3c0.1,0.1,0.2,0.3,0.3,0.4c0.1,0.2,0.1,0.4,0.1,0.6
			v3.9c0,0.2,0,0.4-0.1,0.6c-0.1,0.2-0.2,0.3-0.4,0.4c0.2,0.1,0.3,0.2,0.4,0.4c0.1,0.2,0.1,0.3,0.1,0.6v4.2c0,0,0,0.1,0,0.1
			c0,0-0.1,0-0.1,0H192c-0.2,0-0.3,0-0.4-0.1c-0.1-0.1-0.1-0.2-0.1-0.4v-3.8c0-0.1,0-0.3-0.1-0.4c-0.1-0.1-0.2-0.1-0.4-0.1h-0.5v4.3
			c0,0.1,0,0.3-0.1,0.4c-0.1,0.1-0.2,0.1-0.4,0.1h-0.5c-0.1,0-0.1,0-0.1,0c0,0,0-0.1,0-0.1V44.5c0,0,0-0.1,0-0.1c0,0,0.1,0,0.1,0
			H191.1z M190.6,45.3v4.9h0.5c0.2,0,0.3,0,0.4-0.1c0.1-0.1,0.1-0.2,0.1-0.4v-3.9c0-0.1,0-0.3-0.1-0.4c-0.1-0.1-0.2-0.1-0.4-0.1
			H190.6z"/>
	</g>
	<polygon class="st2" points="6.5,50.9 140.8,50.9 140.8,50.9 	"/>
</g>
</svg>
